ISO-10303-21;
HEADER;
/* Generated by software containing ST-Developer
 * from STEP Tools, Inc. (www.steptools.com) 
 */
/* OPTION: using custom renumber hook */

FILE_DESCRIPTION(
/* description */ ('STEP AP242 Edition 2',
'CAx-IF Rec.Pracs.---Representation and Presentation of Product Manufa
cturing Information (PMI)---4.0---2014-10-13',
'CAx-IF Rec.Pracs.---3D Tessellated Geometry---0.4---2014-09-14','2;1',
'CAx-IF Rec.Pracs.---User Defined Attributes---1.5---2016-08-15'),
/* implementation_level */ '2;1');

FILE_NAME(
/* name */ 'battery pack cover - Part 1',
/* time_stamp */ '2026-08-18T00:15:30Z',
/* author */ (''),
/* organization */ (''),
/* preprocessor_version */ 'ST-DEVELOPER v20',
/* originating_system */ 'ONSHAPE BY PTC INC, 1.219',
/* authorisation */ '  ');

FILE_SCHEMA (('AP242_MANAGED_MODEL_BASED_3D_ENGINEERING_MIM_LF { 1 0 10303 442 3 1 4 }'));
ENDSEC;

DATA;
#10=SHAPE_REPRESENTATION_RELATIONSHIP('','',#957,#11);
#11=ADVANCED_BREP_SHAPE_REPRESENTATION('',(#955),#1511);
#12=CYLINDRICAL_SURFACE('',#1010,0.0022479);
#13=CYLINDRICAL_SURFACE('',#1011,0.0022479);
#14=CYLINDRICAL_SURFACE('',#1012,0.0022479);
#15=CYLINDRICAL_SURFACE('',#1013,0.0022479);
#16=CIRCLE('',#1001,0.0022479);
#17=CIRCLE('',#1002,0.0022479);
#18=CIRCLE('',#1003,0.0022479);
#19=CIRCLE('',#1004,0.0022479);
#20=CIRCLE('',#1006,0.0022479);
#21=CIRCLE('',#1007,0.0022479);
#22=CIRCLE('',#1008,0.0022479);
#23=CIRCLE('',#1009,0.0022479);
#24=ORIENTED_EDGE('',*,*,#280,.F.);
#25=ORIENTED_EDGE('',*,*,#281,.F.);
#26=ORIENTED_EDGE('',*,*,#282,.T.);
#27=ORIENTED_EDGE('',*,*,#283,.T.);
#28=ORIENTED_EDGE('',*,*,#284,.T.);
#29=ORIENTED_EDGE('',*,*,#285,.F.);
#30=ORIENTED_EDGE('',*,*,#286,.F.);
#31=ORIENTED_EDGE('',*,*,#281,.T.);
#32=ORIENTED_EDGE('',*,*,#287,.T.);
#33=ORIENTED_EDGE('',*,*,#288,.F.);
#34=ORIENTED_EDGE('',*,*,#289,.F.);
#35=ORIENTED_EDGE('',*,*,#285,.T.);
#36=ORIENTED_EDGE('',*,*,#290,.F.);
#37=ORIENTED_EDGE('',*,*,#291,.F.);
#38=ORIENTED_EDGE('',*,*,#292,.T.);
#39=ORIENTED_EDGE('',*,*,#288,.T.);
#40=ORIENTED_EDGE('',*,*,#293,.F.);
#41=ORIENTED_EDGE('',*,*,#294,.F.);
#42=ORIENTED_EDGE('',*,*,#295,.T.);
#43=ORIENTED_EDGE('',*,*,#291,.T.);
#44=ORIENTED_EDGE('',*,*,#296,.T.);
#45=ORIENTED_EDGE('',*,*,#297,.F.);
#46=ORIENTED_EDGE('',*,*,#298,.F.);
#47=ORIENTED_EDGE('',*,*,#294,.T.);
#48=ORIENTED_EDGE('',*,*,#299,.T.);
#49=ORIENTED_EDGE('',*,*,#300,.F.);
#50=ORIENTED_EDGE('',*,*,#301,.F.);
#51=ORIENTED_EDGE('',*,*,#297,.T.);
#52=ORIENTED_EDGE('',*,*,#302,.F.);
#53=ORIENTED_EDGE('',*,*,#303,.F.);
#54=ORIENTED_EDGE('',*,*,#304,.T.);
#55=ORIENTED_EDGE('',*,*,#300,.T.);
#56=ORIENTED_EDGE('',*,*,#305,.F.);
#57=ORIENTED_EDGE('',*,*,#306,.F.);
#58=ORIENTED_EDGE('',*,*,#307,.T.);
#59=ORIENTED_EDGE('',*,*,#303,.T.);
#60=ORIENTED_EDGE('',*,*,#308,.T.);
#61=ORIENTED_EDGE('',*,*,#309,.F.);
#62=ORIENTED_EDGE('',*,*,#310,.F.);
#63=ORIENTED_EDGE('',*,*,#306,.T.);
#64=ORIENTED_EDGE('',*,*,#311,.T.);
#65=ORIENTED_EDGE('',*,*,#312,.F.);
#66=ORIENTED_EDGE('',*,*,#313,.F.);
#67=ORIENTED_EDGE('',*,*,#309,.T.);
#68=ORIENTED_EDGE('',*,*,#314,.F.);
#69=ORIENTED_EDGE('',*,*,#315,.F.);
#70=ORIENTED_EDGE('',*,*,#316,.T.);
#71=ORIENTED_EDGE('',*,*,#312,.T.);
#72=ORIENTED_EDGE('',*,*,#317,.F.);
#73=ORIENTED_EDGE('',*,*,#318,.F.);
#74=ORIENTED_EDGE('',*,*,#319,.T.);
#75=ORIENTED_EDGE('',*,*,#315,.T.);
#76=ORIENTED_EDGE('',*,*,#320,.T.);
#77=ORIENTED_EDGE('',*,*,#321,.F.);
#78=ORIENTED_EDGE('',*,*,#322,.F.);
#79=ORIENTED_EDGE('',*,*,#318,.T.);
#80=ORIENTED_EDGE('',*,*,#323,.T.);
#81=ORIENTED_EDGE('',*,*,#324,.F.);
#82=ORIENTED_EDGE('',*,*,#325,.F.);
#83=ORIENTED_EDGE('',*,*,#321,.T.);
#84=ORIENTED_EDGE('',*,*,#326,.F.);
#85=ORIENTED_EDGE('',*,*,#327,.F.);
#86=ORIENTED_EDGE('',*,*,#328,.T.);
#87=ORIENTED_EDGE('',*,*,#324,.T.);
#88=ORIENTED_EDGE('',*,*,#329,.F.);
#89=ORIENTED_EDGE('',*,*,#330,.F.);
#90=ORIENTED_EDGE('',*,*,#331,.T.);
#91=ORIENTED_EDGE('',*,*,#327,.T.);
#92=ORIENTED_EDGE('',*,*,#332,.T.);
#93=ORIENTED_EDGE('',*,*,#333,.F.);
#94=ORIENTED_EDGE('',*,*,#334,.F.);
#95=ORIENTED_EDGE('',*,*,#330,.T.);
#96=ORIENTED_EDGE('',*,*,#335,.T.);
#97=ORIENTED_EDGE('',*,*,#336,.F.);
#98=ORIENTED_EDGE('',*,*,#337,.F.);
#99=ORIENTED_EDGE('',*,*,#333,.T.);
#100=ORIENTED_EDGE('',*,*,#338,.T.);
#101=ORIENTED_EDGE('',*,*,#339,.F.);
#102=ORIENTED_EDGE('',*,*,#340,.F.);
#103=ORIENTED_EDGE('',*,*,#341,.T.);
#104=ORIENTED_EDGE('',*,*,#342,.T.);
#105=ORIENTED_EDGE('',*,*,#343,.F.);
#106=ORIENTED_EDGE('',*,*,#344,.F.);
#107=ORIENTED_EDGE('',*,*,#339,.T.);
#108=ORIENTED_EDGE('',*,*,#345,.F.);
#109=ORIENTED_EDGE('',*,*,#346,.F.);
#110=ORIENTED_EDGE('',*,*,#347,.T.);
#111=ORIENTED_EDGE('',*,*,#343,.T.);
#112=ORIENTED_EDGE('',*,*,#348,.F.);
#113=ORIENTED_EDGE('',*,*,#349,.F.);
#114=ORIENTED_EDGE('',*,*,#350,.T.);
#115=ORIENTED_EDGE('',*,*,#346,.T.);
#116=ORIENTED_EDGE('',*,*,#351,.T.);
#117=ORIENTED_EDGE('',*,*,#352,.F.);
#118=ORIENTED_EDGE('',*,*,#353,.F.);
#119=ORIENTED_EDGE('',*,*,#349,.T.);
#120=ORIENTED_EDGE('',*,*,#354,.T.);
#121=ORIENTED_EDGE('',*,*,#355,.F.);
#122=ORIENTED_EDGE('',*,*,#356,.F.);
#123=ORIENTED_EDGE('',*,*,#352,.T.);
#124=ORIENTED_EDGE('',*,*,#357,.F.);
#125=ORIENTED_EDGE('',*,*,#358,.F.);
#126=ORIENTED_EDGE('',*,*,#359,.T.);
#127=ORIENTED_EDGE('',*,*,#355,.T.);
#128=ORIENTED_EDGE('',*,*,#360,.F.);
#129=ORIENTED_EDGE('',*,*,#361,.F.);
#130=ORIENTED_EDGE('',*,*,#362,.T.);
#131=ORIENTED_EDGE('',*,*,#358,.T.);
#132=ORIENTED_EDGE('',*,*,#363,.T.);
#133=ORIENTED_EDGE('',*,*,#364,.F.);
#134=ORIENTED_EDGE('',*,*,#365,.F.);
#135=ORIENTED_EDGE('',*,*,#361,.T.);
#136=ORIENTED_EDGE('',*,*,#366,.T.);
#137=ORIENTED_EDGE('',*,*,#367,.F.);
#138=ORIENTED_EDGE('',*,*,#368,.F.);
#139=ORIENTED_EDGE('',*,*,#364,.T.);
#140=ORIENTED_EDGE('',*,*,#369,.F.);
#141=ORIENTED_EDGE('',*,*,#370,.F.);
#142=ORIENTED_EDGE('',*,*,#371,.T.);
#143=ORIENTED_EDGE('',*,*,#367,.T.);
#144=ORIENTED_EDGE('',*,*,#372,.F.);
#145=ORIENTED_EDGE('',*,*,#373,.F.);
#146=ORIENTED_EDGE('',*,*,#374,.T.);
#147=ORIENTED_EDGE('',*,*,#370,.T.);
#148=ORIENTED_EDGE('',*,*,#375,.T.);
#149=ORIENTED_EDGE('',*,*,#376,.F.);
#150=ORIENTED_EDGE('',*,*,#377,.F.);
#151=ORIENTED_EDGE('',*,*,#373,.T.);
#152=ORIENTED_EDGE('',*,*,#378,.T.);
#153=ORIENTED_EDGE('',*,*,#379,.F.);
#154=ORIENTED_EDGE('',*,*,#380,.F.);
#155=ORIENTED_EDGE('',*,*,#376,.T.);
#156=ORIENTED_EDGE('',*,*,#381,.F.);
#157=ORIENTED_EDGE('',*,*,#382,.F.);
#158=ORIENTED_EDGE('',*,*,#383,.T.);
#159=ORIENTED_EDGE('',*,*,#379,.T.);
#160=ORIENTED_EDGE('',*,*,#384,.F.);
#161=ORIENTED_EDGE('',*,*,#385,.F.);
#162=ORIENTED_EDGE('',*,*,#386,.T.);
#163=ORIENTED_EDGE('',*,*,#382,.T.);
#164=ORIENTED_EDGE('',*,*,#387,.T.);
#165=ORIENTED_EDGE('',*,*,#388,.F.);
#166=ORIENTED_EDGE('',*,*,#389,.F.);
#167=ORIENTED_EDGE('',*,*,#385,.T.);
#168=ORIENTED_EDGE('',*,*,#390,.T.);
#169=ORIENTED_EDGE('',*,*,#391,.F.);
#170=ORIENTED_EDGE('',*,*,#392,.F.);
#171=ORIENTED_EDGE('',*,*,#388,.T.);
#172=ORIENTED_EDGE('',*,*,#393,.F.);
#173=ORIENTED_EDGE('',*,*,#394,.F.);
#174=ORIENTED_EDGE('',*,*,#395,.T.);
#175=ORIENTED_EDGE('',*,*,#391,.T.);
#176=ORIENTED_EDGE('',*,*,#396,.F.);
#177=ORIENTED_EDGE('',*,*,#341,.F.);
#178=ORIENTED_EDGE('',*,*,#397,.T.);
#179=ORIENTED_EDGE('',*,*,#394,.T.);
#180=ORIENTED_EDGE('',*,*,#398,.F.);
#181=ORIENTED_EDGE('',*,*,#283,.F.);
#182=ORIENTED_EDGE('',*,*,#399,.T.);
#183=ORIENTED_EDGE('',*,*,#336,.T.);
#184=ORIENTED_EDGE('',*,*,#338,.F.);
#185=ORIENTED_EDGE('',*,*,#396,.T.);
#186=ORIENTED_EDGE('',*,*,#393,.T.);
#187=ORIENTED_EDGE('',*,*,#390,.F.);
#188=ORIENTED_EDGE('',*,*,#387,.F.);
#189=ORIENTED_EDGE('',*,*,#384,.T.);
#190=ORIENTED_EDGE('',*,*,#381,.T.);
#191=ORIENTED_EDGE('',*,*,#378,.F.);
#192=ORIENTED_EDGE('',*,*,#375,.F.);
#193=ORIENTED_EDGE('',*,*,#372,.T.);
#194=ORIENTED_EDGE('',*,*,#369,.T.);
#195=ORIENTED_EDGE('',*,*,#366,.F.);
#196=ORIENTED_EDGE('',*,*,#363,.F.);
#197=ORIENTED_EDGE('',*,*,#360,.T.);
#198=ORIENTED_EDGE('',*,*,#357,.T.);
#199=ORIENTED_EDGE('',*,*,#354,.F.);
#200=ORIENTED_EDGE('',*,*,#351,.F.);
#201=ORIENTED_EDGE('',*,*,#348,.T.);
#202=ORIENTED_EDGE('',*,*,#345,.T.);
#203=ORIENTED_EDGE('',*,*,#342,.F.);
#204=ORIENTED_EDGE('',*,*,#280,.T.);
#205=ORIENTED_EDGE('',*,*,#398,.T.);
#206=ORIENTED_EDGE('',*,*,#335,.F.);
#207=ORIENTED_EDGE('',*,*,#332,.F.);
#208=ORIENTED_EDGE('',*,*,#329,.T.);
#209=ORIENTED_EDGE('',*,*,#326,.T.);
#210=ORIENTED_EDGE('',*,*,#323,.F.);
#211=ORIENTED_EDGE('',*,*,#320,.F.);
#212=ORIENTED_EDGE('',*,*,#317,.T.);
#213=ORIENTED_EDGE('',*,*,#314,.T.);
#214=ORIENTED_EDGE('',*,*,#311,.F.);
#215=ORIENTED_EDGE('',*,*,#308,.F.);
#216=ORIENTED_EDGE('',*,*,#305,.T.);
#217=ORIENTED_EDGE('',*,*,#302,.T.);
#218=ORIENTED_EDGE('',*,*,#299,.F.);
#219=ORIENTED_EDGE('',*,*,#296,.F.);
#220=ORIENTED_EDGE('',*,*,#293,.T.);
#221=ORIENTED_EDGE('',*,*,#290,.T.);
#222=ORIENTED_EDGE('',*,*,#287,.F.);
#223=ORIENTED_EDGE('',*,*,#284,.F.);
#224=ORIENTED_EDGE('',*,*,#400,.T.);
#225=ORIENTED_EDGE('',*,*,#401,.T.);
#226=ORIENTED_EDGE('',*,*,#402,.T.);
#227=ORIENTED_EDGE('',*,*,#403,.T.);
#228=ORIENTED_EDGE('',*,*,#397,.F.);
#229=ORIENTED_EDGE('',*,*,#340,.T.);
#230=ORIENTED_EDGE('',*,*,#344,.T.);
#231=ORIENTED_EDGE('',*,*,#347,.F.);
#232=ORIENTED_EDGE('',*,*,#350,.F.);
#233=ORIENTED_EDGE('',*,*,#353,.T.);
#234=ORIENTED_EDGE('',*,*,#356,.T.);
#235=ORIENTED_EDGE('',*,*,#359,.F.);
#236=ORIENTED_EDGE('',*,*,#362,.F.);
#237=ORIENTED_EDGE('',*,*,#365,.T.);
#238=ORIENTED_EDGE('',*,*,#368,.T.);
#239=ORIENTED_EDGE('',*,*,#371,.F.);
#240=ORIENTED_EDGE('',*,*,#374,.F.);
#241=ORIENTED_EDGE('',*,*,#377,.T.);
#242=ORIENTED_EDGE('',*,*,#380,.T.);
#243=ORIENTED_EDGE('',*,*,#383,.F.);
#244=ORIENTED_EDGE('',*,*,#386,.F.);
#245=ORIENTED_EDGE('',*,*,#389,.T.);
#246=ORIENTED_EDGE('',*,*,#392,.T.);
#247=ORIENTED_EDGE('',*,*,#395,.F.);
#248=ORIENTED_EDGE('',*,*,#404,.F.);
#249=ORIENTED_EDGE('',*,*,#405,.F.);
#250=ORIENTED_EDGE('',*,*,#406,.F.);
#251=ORIENTED_EDGE('',*,*,#407,.F.);
#252=ORIENTED_EDGE('',*,*,#282,.F.);
#253=ORIENTED_EDGE('',*,*,#286,.T.);
#254=ORIENTED_EDGE('',*,*,#289,.T.);
#255=ORIENTED_EDGE('',*,*,#292,.F.);
#256=ORIENTED_EDGE('',*,*,#295,.F.);
#257=ORIENTED_EDGE('',*,*,#298,.T.);
#258=ORIENTED_EDGE('',*,*,#301,.T.);
#259=ORIENTED_EDGE('',*,*,#304,.F.);
#260=ORIENTED_EDGE('',*,*,#307,.F.);
#261=ORIENTED_EDGE('',*,*,#310,.T.);
#262=ORIENTED_EDGE('',*,*,#313,.T.);
#263=ORIENTED_EDGE('',*,*,#316,.F.);
#264=ORIENTED_EDGE('',*,*,#319,.F.);
#265=ORIENTED_EDGE('',*,*,#322,.T.);
#266=ORIENTED_EDGE('',*,*,#325,.T.);
#267=ORIENTED_EDGE('',*,*,#328,.F.);
#268=ORIENTED_EDGE('',*,*,#331,.F.);
#269=ORIENTED_EDGE('',*,*,#334,.T.);
#270=ORIENTED_EDGE('',*,*,#337,.T.);
#271=ORIENTED_EDGE('',*,*,#399,.F.);
#272=ORIENTED_EDGE('',*,*,#407,.T.);
#273=ORIENTED_EDGE('',*,*,#403,.F.);
#274=ORIENTED_EDGE('',*,*,#406,.T.);
#275=ORIENTED_EDGE('',*,*,#402,.F.);
#276=ORIENTED_EDGE('',*,*,#405,.T.);
#277=ORIENTED_EDGE('',*,*,#401,.F.);
#278=ORIENTED_EDGE('',*,*,#404,.T.);
#279=ORIENTED_EDGE('',*,*,#400,.F.);
#280=EDGE_CURVE('',#408,#409,#496,.T.);
#281=EDGE_CURVE('',#410,#408,#497,.T.);
#282=EDGE_CURVE('',#410,#411,#498,.T.);
#283=EDGE_CURVE('',#411,#409,#499,.T.);
#284=EDGE_CURVE('',#408,#412,#500,.T.);
#285=EDGE_CURVE('',#413,#412,#501,.T.);
#286=EDGE_CURVE('',#410,#413,#502,.T.);
#287=EDGE_CURVE('',#412,#414,#503,.T.);
#288=EDGE_CURVE('',#415,#414,#504,.T.);
#289=EDGE_CURVE('',#413,#415,#505,.T.);
#290=EDGE_CURVE('',#416,#414,#506,.T.);
#291=EDGE_CURVE('',#417,#416,#507,.T.);
#292=EDGE_CURVE('',#417,#415,#508,.T.);
#293=EDGE_CURVE('',#418,#416,#509,.T.);
#294=EDGE_CURVE('',#419,#418,#510,.T.);
#295=EDGE_CURVE('',#419,#417,#511,.T.);
#296=EDGE_CURVE('',#418,#420,#512,.T.);
#297=EDGE_CURVE('',#421,#420,#513,.T.);
#298=EDGE_CURVE('',#419,#421,#514,.T.);
#299=EDGE_CURVE('',#420,#422,#515,.T.);
#300=EDGE_CURVE('',#423,#422,#516,.T.);
#301=EDGE_CURVE('',#421,#423,#517,.T.);
#302=EDGE_CURVE('',#424,#422,#518,.T.);
#303=EDGE_CURVE('',#425,#424,#519,.T.);
#304=EDGE_CURVE('',#425,#423,#520,.T.);
#305=EDGE_CURVE('',#426,#424,#521,.T.);
#306=EDGE_CURVE('',#427,#426,#522,.T.);
#307=EDGE_CURVE('',#427,#425,#523,.T.);
#308=EDGE_CURVE('',#426,#428,#524,.T.);
#309=EDGE_CURVE('',#429,#428,#525,.T.);
#310=EDGE_CURVE('',#427,#429,#526,.T.);
#311=EDGE_CURVE('',#428,#430,#527,.T.);
#312=EDGE_CURVE('',#431,#430,#528,.T.);
#313=EDGE_CURVE('',#429,#431,#529,.T.);
#314=EDGE_CURVE('',#432,#430,#530,.T.);
#315=EDGE_CURVE('',#433,#432,#531,.T.);
#316=EDGE_CURVE('',#433,#431,#532,.T.);
#317=EDGE_CURVE('',#434,#432,#533,.T.);
#318=EDGE_CURVE('',#435,#434,#534,.T.);
#319=EDGE_CURVE('',#435,#433,#535,.T.);
#320=EDGE_CURVE('',#434,#436,#536,.T.);
#321=EDGE_CURVE('',#437,#436,#537,.T.);
#322=EDGE_CURVE('',#435,#437,#538,.T.);
#323=EDGE_CURVE('',#436,#438,#539,.T.);
#324=EDGE_CURVE('',#439,#438,#540,.T.);
#325=EDGE_CURVE('',#437,#439,#541,.T.);
#326=EDGE_CURVE('',#440,#438,#542,.T.);
#327=EDGE_CURVE('',#441,#440,#543,.T.);
#328=EDGE_CURVE('',#441,#439,#544,.T.);
#329=EDGE_CURVE('',#442,#440,#545,.T.);
#330=EDGE_CURVE('',#443,#442,#546,.T.);
#331=EDGE_CURVE('',#443,#441,#547,.T.);
#332=EDGE_CURVE('',#442,#444,#548,.T.);
#333=EDGE_CURVE('',#445,#444,#549,.T.);
#334=EDGE_CURVE('',#443,#445,#550,.T.);
#335=EDGE_CURVE('',#444,#446,#551,.T.);
#336=EDGE_CURVE('',#447,#446,#552,.T.);
#337=EDGE_CURVE('',#445,#447,#553,.T.);
#338=EDGE_CURVE('',#448,#449,#554,.T.);
#339=EDGE_CURVE('',#450,#449,#555,.T.);
#340=EDGE_CURVE('',#451,#450,#556,.T.);
#341=EDGE_CURVE('',#451,#448,#557,.T.);
#342=EDGE_CURVE('',#449,#452,#558,.T.);
#343=EDGE_CURVE('',#453,#452,#559,.T.);
#344=EDGE_CURVE('',#450,#453,#560,.T.);
#345=EDGE_CURVE('',#454,#452,#561,.T.);
#346=EDGE_CURVE('',#455,#454,#562,.T.);
#347=EDGE_CURVE('',#455,#453,#563,.T.);
#348=EDGE_CURVE('',#456,#454,#564,.T.);
#349=EDGE_CURVE('',#457,#456,#565,.T.);
#350=EDGE_CURVE('',#457,#455,#566,.T.);
#351=EDGE_CURVE('',#456,#458,#567,.T.);
#352=EDGE_CURVE('',#459,#458,#568,.T.);
#353=EDGE_CURVE('',#457,#459,#569,.T.);
#354=EDGE_CURVE('',#458,#460,#570,.T.);
#355=EDGE_CURVE('',#461,#460,#571,.T.);
#356=EDGE_CURVE('',#459,#461,#572,.T.);
#357=EDGE_CURVE('',#462,#460,#573,.T.);
#358=EDGE_CURVE('',#463,#462,#574,.T.);
#359=EDGE_CURVE('',#463,#461,#575,.T.);
#360=EDGE_CURVE('',#464,#462,#576,.T.);
#361=EDGE_CURVE('',#465,#464,#577,.T.);
#362=EDGE_CURVE('',#465,#463,#578,.T.);
#363=EDGE_CURVE('',#464,#466,#579,.T.);
#364=EDGE_CURVE('',#467,#466,#580,.T.);
#365=EDGE_CURVE('',#465,#467,#581,.T.);
#366=EDGE_CURVE('',#466,#468,#582,.T.);
#367=EDGE_CURVE('',#469,#468,#583,.T.);
#368=EDGE_CURVE('',#467,#469,#584,.T.);
#369=EDGE_CURVE('',#470,#468,#585,.T.);
#370=EDGE_CURVE('',#471,#470,#586,.T.);
#371=EDGE_CURVE('',#471,#469,#587,.T.);
#372=EDGE_CURVE('',#472,#470,#588,.T.);
#373=EDGE_CURVE('',#473,#472,#589,.T.);
#374=EDGE_CURVE('',#473,#471,#590,.T.);
#375=EDGE_CURVE('',#472,#474,#591,.T.);
#376=EDGE_CURVE('',#475,#474,#592,.T.);
#377=EDGE_CURVE('',#473,#475,#593,.T.);
#378=EDGE_CURVE('',#474,#476,#594,.T.);
#379=EDGE_CURVE('',#477,#476,#595,.T.);
#380=EDGE_CURVE('',#475,#477,#596,.T.);
#381=EDGE_CURVE('',#478,#476,#597,.T.);
#382=EDGE_CURVE('',#479,#478,#598,.T.);
#383=EDGE_CURVE('',#479,#477,#599,.T.);
#384=EDGE_CURVE('',#480,#478,#600,.T.);
#385=EDGE_CURVE('',#481,#480,#601,.T.);
#386=EDGE_CURVE('',#481,#479,#602,.T.);
#387=EDGE_CURVE('',#480,#482,#603,.T.);
#388=EDGE_CURVE('',#483,#482,#604,.T.);
#389=EDGE_CURVE('',#481,#483,#605,.T.);
#390=EDGE_CURVE('',#482,#484,#606,.T.);
#391=EDGE_CURVE('',#485,#484,#607,.T.);
#392=EDGE_CURVE('',#483,#485,#608,.T.);
#393=EDGE_CURVE('',#486,#484,#609,.T.);
#394=EDGE_CURVE('',#487,#486,#610,.T.);
#395=EDGE_CURVE('',#487,#485,#611,.T.);
#396=EDGE_CURVE('',#448,#486,#612,.T.);
#397=EDGE_CURVE('',#451,#487,#613,.T.);
#398=EDGE_CURVE('',#409,#446,#614,.T.);
#399=EDGE_CURVE('',#411,#447,#615,.T.);
#400=EDGE_CURVE('',#488,#488,#16,.T.);
#401=EDGE_CURVE('',#489,#489,#17,.T.);
#402=EDGE_CURVE('',#490,#490,#18,.T.);
#403=EDGE_CURVE('',#491,#491,#19,.T.);
#404=EDGE_CURVE('',#492,#492,#20,.T.);
#405=EDGE_CURVE('',#493,#493,#21,.T.);
#406=EDGE_CURVE('',#494,#494,#22,.T.);
#407=EDGE_CURVE('',#495,#495,#23,.T.);
#408=VERTEX_POINT('',#1249);
#409=VERTEX_POINT('',#1250);
#410=VERTEX_POINT('',#1252);
#411=VERTEX_POINT('',#1254);
#412=VERTEX_POINT('',#1258);
#413=VERTEX_POINT('',#1260);
#414=VERTEX_POINT('',#1264);
#415=VERTEX_POINT('',#1266);
#416=VERTEX_POINT('',#1270);
#417=VERTEX_POINT('',#1272);
#418=VERTEX_POINT('',#1276);
#419=VERTEX_POINT('',#1278);
#420=VERTEX_POINT('',#1282);
#421=VERTEX_POINT('',#1284);
#422=VERTEX_POINT('',#1288);
#423=VERTEX_POINT('',#1290);
#424=VERTEX_POINT('',#1294);
#425=VERTEX_POINT('',#1296);
#426=VERTEX_POINT('',#1300);
#427=VERTEX_POINT('',#1302);
#428=VERTEX_POINT('',#1306);
#429=VERTEX_POINT('',#1308);
#430=VERTEX_POINT('',#1312);
#431=VERTEX_POINT('',#1314);
#432=VERTEX_POINT('',#1318);
#433=VERTEX_POINT('',#1320);
#434=VERTEX_POINT('',#1324);
#435=VERTEX_POINT('',#1326);
#436=VERTEX_POINT('',#1330);
#437=VERTEX_POINT('',#1332);
#438=VERTEX_POINT('',#1336);
#439=VERTEX_POINT('',#1338);
#440=VERTEX_POINT('',#1342);
#441=VERTEX_POINT('',#1344);
#442=VERTEX_POINT('',#1348);
#443=VERTEX_POINT('',#1350);
#444=VERTEX_POINT('',#1354);
#445=VERTEX_POINT('',#1356);
#446=VERTEX_POINT('',#1360);
#447=VERTEX_POINT('',#1362);
#448=VERTEX_POINT('',#1366);
#449=VERTEX_POINT('',#1367);
#450=VERTEX_POINT('',#1369);
#451=VERTEX_POINT('',#1371);
#452=VERTEX_POINT('',#1375);
#453=VERTEX_POINT('',#1377);
#454=VERTEX_POINT('',#1381);
#455=VERTEX_POINT('',#1383);
#456=VERTEX_POINT('',#1387);
#457=VERTEX_POINT('',#1389);
#458=VERTEX_POINT('',#1393);
#459=VERTEX_POINT('',#1395);
#460=VERTEX_POINT('',#1399);
#461=VERTEX_POINT('',#1401);
#462=VERTEX_POINT('',#1405);
#463=VERTEX_POINT('',#1407);
#464=VERTEX_POINT('',#1411);
#465=VERTEX_POINT('',#1413);
#466=VERTEX_POINT('',#1417);
#467=VERTEX_POINT('',#1419);
#468=VERTEX_POINT('',#1423);
#469=VERTEX_POINT('',#1425);
#470=VERTEX_POINT('',#1429);
#471=VERTEX_POINT('',#1431);
#472=VERTEX_POINT('',#1435);
#473=VERTEX_POINT('',#1437);
#474=VERTEX_POINT('',#1441);
#475=VERTEX_POINT('',#1443);
#476=VERTEX_POINT('',#1447);
#477=VERTEX_POINT('',#1449);
#478=VERTEX_POINT('',#1453);
#479=VERTEX_POINT('',#1455);
#480=VERTEX_POINT('',#1459);
#481=VERTEX_POINT('',#1461);
#482=VERTEX_POINT('',#1465);
#483=VERTEX_POINT('',#1467);
#484=VERTEX_POINT('',#1471);
#485=VERTEX_POINT('',#1473);
#486=VERTEX_POINT('',#1477);
#487=VERTEX_POINT('',#1479);
#488=VERTEX_POINT('',#1490);
#489=VERTEX_POINT('',#1492);
#490=VERTEX_POINT('',#1494);
#491=VERTEX_POINT('',#1496);
#492=VERTEX_POINT('',#1499);
#493=VERTEX_POINT('',#1501);
#494=VERTEX_POINT('',#1503);
#495=VERTEX_POINT('',#1505);
#496=LINE('',#1248,#616);
#497=LINE('',#1251,#617);
#498=LINE('',#1253,#618);
#499=LINE('',#1255,#619);
#500=LINE('',#1257,#620);
#501=LINE('',#1259,#621);
#502=LINE('',#1261,#622);
#503=LINE('',#1263,#623);
#504=LINE('',#1265,#624);
#505=LINE('',#1267,#625);
#506=LINE('',#1269,#626);
#507=LINE('',#1271,#627);
#508=LINE('',#1273,#628);
#509=LINE('',#1275,#629);
#510=LINE('',#1277,#630);
#511=LINE('',#1279,#631);
#512=LINE('',#1281,#632);
#513=LINE('',#1283,#633);
#514=LINE('',#1285,#634);
#515=LINE('',#1287,#635);
#516=LINE('',#1289,#636);
#517=LINE('',#1291,#637);
#518=LINE('',#1293,#638);
#519=LINE('',#1295,#639);
#520=LINE('',#1297,#640);
#521=LINE('',#1299,#641);
#522=LINE('',#1301,#642);
#523=LINE('',#1303,#643);
#524=LINE('',#1305,#644);
#525=LINE('',#1307,#645);
#526=LINE('',#1309,#646);
#527=LINE('',#1311,#647);
#528=LINE('',#1313,#648);
#529=LINE('',#1315,#649);
#530=LINE('',#1317,#650);
#531=LINE('',#1319,#651);
#532=LINE('',#1321,#652);
#533=LINE('',#1323,#653);
#534=LINE('',#1325,#654);
#535=LINE('',#1327,#655);
#536=LINE('',#1329,#656);
#537=LINE('',#1331,#657);
#538=LINE('',#1333,#658);
#539=LINE('',#1335,#659);
#540=LINE('',#1337,#660);
#541=LINE('',#1339,#661);
#542=LINE('',#1341,#662);
#543=LINE('',#1343,#663);
#544=LINE('',#1345,#664);
#545=LINE('',#1347,#665);
#546=LINE('',#1349,#666);
#547=LINE('',#1351,#667);
#548=LINE('',#1353,#668);
#549=LINE('',#1355,#669);
#550=LINE('',#1357,#670);
#551=LINE('',#1359,#671);
#552=LINE('',#1361,#672);
#553=LINE('',#1363,#673);
#554=LINE('',#1365,#674);
#555=LINE('',#1368,#675);
#556=LINE('',#1370,#676);
#557=LINE('',#1372,#677);
#558=LINE('',#1374,#678);
#559=LINE('',#1376,#679);
#560=LINE('',#1378,#680);
#561=LINE('',#1380,#681);
#562=LINE('',#1382,#682);
#563=LINE('',#1384,#683);
#564=LINE('',#1386,#684);
#565=LINE('',#1388,#685);
#566=LINE('',#1390,#686);
#567=LINE('',#1392,#687);
#568=LINE('',#1394,#688);
#569=LINE('',#1396,#689);
#570=LINE('',#1398,#690);
#571=LINE('',#1400,#691);
#572=LINE('',#1402,#692);
#573=LINE('',#1404,#693);
#574=LINE('',#1406,#694);
#575=LINE('',#1408,#695);
#576=LINE('',#1410,#696);
#577=LINE('',#1412,#697);
#578=LINE('',#1414,#698);
#579=LINE('',#1416,#699);
#580=LINE('',#1418,#700);
#581=LINE('',#1420,#701);
#582=LINE('',#1422,#702);
#583=LINE('',#1424,#703);
#584=LINE('',#1426,#704);
#585=LINE('',#1428,#705);
#586=LINE('',#1430,#706);
#587=LINE('',#1432,#707);
#588=LINE('',#1434,#708);
#589=LINE('',#1436,#709);
#590=LINE('',#1438,#710);
#591=LINE('',#1440,#711);
#592=LINE('',#1442,#712);
#593=LINE('',#1444,#713);
#594=LINE('',#1446,#714);
#595=LINE('',#1448,#715);
#596=LINE('',#1450,#716);
#597=LINE('',#1452,#717);
#598=LINE('',#1454,#718);
#599=LINE('',#1456,#719);
#600=LINE('',#1458,#720);
#601=LINE('',#1460,#721);
#602=LINE('',#1462,#722);
#603=LINE('',#1464,#723);
#604=LINE('',#1466,#724);
#605=LINE('',#1468,#725);
#606=LINE('',#1470,#726);
#607=LINE('',#1472,#727);
#608=LINE('',#1474,#728);
#609=LINE('',#1476,#729);
#610=LINE('',#1478,#730);
#611=LINE('',#1480,#731);
#612=LINE('',#1482,#732);
#613=LINE('',#1483,#733);
#614=LINE('',#1485,#734);
#615=LINE('',#1486,#735);
#616=VECTOR('',#1018,1.);
#617=VECTOR('',#1019,1.);
#618=VECTOR('',#1020,1.);
#619=VECTOR('',#1021,1.);
#620=VECTOR('',#1024,1.);
#621=VECTOR('',#1025,1.);
#622=VECTOR('',#1026,1.);
#623=VECTOR('',#1029,1.);
#624=VECTOR('',#1030,1.);
#625=VECTOR('',#1031,1.);
#626=VECTOR('',#1034,1.);
#627=VECTOR('',#1035,1.);
#628=VECTOR('',#1036,1.);
#629=VECTOR('',#1039,1.);
#630=VECTOR('',#1040,1.);
#631=VECTOR('',#1041,1.);
#632=VECTOR('',#1044,1.);
#633=VECTOR('',#1045,1.);
#634=VECTOR('',#1046,1.);
#635=VECTOR('',#1049,1.);
#636=VECTOR('',#1050,1.);
#637=VECTOR('',#1051,1.);
#638=VECTOR('',#1054,1.);
#639=VECTOR('',#1055,1.);
#640=VECTOR('',#1056,1.);
#641=VECTOR('',#1059,1.);
#642=VECTOR('',#1060,1.);
#643=VECTOR('',#1061,1.);
#644=VECTOR('',#1064,1.);
#645=VECTOR('',#1065,1.);
#646=VECTOR('',#1066,1.);
#647=VECTOR('',#1069,1.);
#648=VECTOR('',#1070,1.);
#649=VECTOR('',#1071,1.);
#650=VECTOR('',#1074,1.);
#651=VECTOR('',#1075,1.);
#652=VECTOR('',#1076,1.);
#653=VECTOR('',#1079,1.);
#654=VECTOR('',#1080,1.);
#655=VECTOR('',#1081,1.);
#656=VECTOR('',#1084,1.);
#657=VECTOR('',#1085,1.);
#658=VECTOR('',#1086,1.);
#659=VECTOR('',#1089,1.);
#660=VECTOR('',#1090,1.);
#661=VECTOR('',#1091,1.);
#662=VECTOR('',#1094,1.);
#663=VECTOR('',#1095,1.);
#664=VECTOR('',#1096,1.);
#665=VECTOR('',#1099,1.);
#666=VECTOR('',#1100,1.);
#667=VECTOR('',#1101,1.);
#668=VECTOR('',#1104,1.);
#669=VECTOR('',#1105,1.);
#670=VECTOR('',#1106,1.);
#671=VECTOR('',#1109,1.);
#672=VECTOR('',#1110,1.);
#673=VECTOR('',#1111,1.);
#674=VECTOR('',#1114,1.);
#675=VECTOR('',#1115,1.);
#676=VECTOR('',#1116,1.);
#677=VECTOR('',#1117,1.);
#678=VECTOR('',#1120,1.);
#679=VECTOR('',#1121,1.);
#680=VECTOR('',#1122,1.);
#681=VECTOR('',#1125,1.);
#682=VECTOR('',#1126,1.);
#683=VECTOR('',#1127,1.);
#684=VECTOR('',#1130,1.);
#685=VECTOR('',#1131,1.);
#686=VECTOR('',#1132,1.);
#687=VECTOR('',#1135,1.);
#688=VECTOR('',#1136,1.);
#689=VECTOR('',#1137,1.);
#690=VECTOR('',#1140,1.);
#691=VECTOR('',#1141,1.);
#692=VECTOR('',#1142,1.);
#693=VECTOR('',#1145,1.);
#694=VECTOR('',#1146,1.);
#695=VECTOR('',#1147,1.);
#696=VECTOR('',#1150,1.);
#697=VECTOR('',#1151,1.);
#698=VECTOR('',#1152,1.);
#699=VECTOR('',#1155,1.);
#700=VECTOR('',#1156,1.);
#701=VECTOR('',#1157,1.);
#702=VECTOR('',#1160,1.);
#703=VECTOR('',#1161,1.);
#704=VECTOR('',#1162,1.);
#705=VECTOR('',#1165,1.);
#706=VECTOR('',#1166,1.);
#707=VECTOR('',#1167,1.);
#708=VECTOR('',#1170,1.);
#709=VECTOR('',#1171,1.);
#710=VECTOR('',#1172,1.);
#711=VECTOR('',#1175,1.);
#712=VECTOR('',#1176,1.);
#713=VECTOR('',#1177,1.);
#714=VECTOR('',#1180,1.);
#715=VECTOR('',#1181,1.);
#716=VECTOR('',#1182,1.);
#717=VECTOR('',#1185,1.);
#718=VECTOR('',#1186,1.);
#719=VECTOR('',#1187,1.);
#720=VECTOR('',#1190,1.);
#721=VECTOR('',#1191,1.);
#722=VECTOR('',#1192,1.);
#723=VECTOR('',#1195,1.);
#724=VECTOR('',#1196,1.);
#725=VECTOR('',#1197,1.);
#726=VECTOR('',#1200,1.);
#727=VECTOR('',#1201,1.);
#728=VECTOR('',#1202,1.);
#729=VECTOR('',#1205,1.);
#730=VECTOR('',#1206,1.);
#731=VECTOR('',#1207,1.);
#732=VECTOR('',#1210,1.);
#733=VECTOR('',#1211,1.);
#734=VECTOR('',#1214,1.);
#735=VECTOR('',#1215,1.);
#736=EDGE_LOOP('',(#24,#25,#26,#27));
#737=EDGE_LOOP('',(#28,#29,#30,#31));
#738=EDGE_LOOP('',(#32,#33,#34,#35));
#739=EDGE_LOOP('',(#36,#37,#38,#39));
#740=EDGE_LOOP('',(#40,#41,#42,#43));
#741=EDGE_LOOP('',(#44,#45,#46,#47));
#742=EDGE_LOOP('',(#48,#49,#50,#51));
#743=EDGE_LOOP('',(#52,#53,#54,#55));
#744=EDGE_LOOP('',(#56,#57,#58,#59));
#745=EDGE_LOOP('',(#60,#61,#62,#63));
#746=EDGE_LOOP('',(#64,#65,#66,#67));
#747=EDGE_LOOP('',(#68,#69,#70,#71));
#748=EDGE_LOOP('',(#72,#73,#74,#75));
#749=EDGE_LOOP('',(#76,#77,#78,#79));
#750=EDGE_LOOP('',(#80,#81,#82,#83));
#751=EDGE_LOOP('',(#84,#85,#86,#87));
#752=EDGE_LOOP('',(#88,#89,#90,#91));
#753=EDGE_LOOP('',(#92,#93,#94,#95));
#754=EDGE_LOOP('',(#96,#97,#98,#99));
#755=EDGE_LOOP('',(#100,#101,#102,#103));
#756=EDGE_LOOP('',(#104,#105,#106,#107));
#757=EDGE_LOOP('',(#108,#109,#110,#111));
#758=EDGE_LOOP('',(#112,#113,#114,#115));
#759=EDGE_LOOP('',(#116,#117,#118,#119));
#760=EDGE_LOOP('',(#120,#121,#122,#123));
#761=EDGE_LOOP('',(#124,#125,#126,#127));
#762=EDGE_LOOP('',(#128,#129,#130,#131));
#763=EDGE_LOOP('',(#132,#133,#134,#135));
#764=EDGE_LOOP('',(#136,#137,#138,#139));
#765=EDGE_LOOP('',(#140,#141,#142,#143));
#766=EDGE_LOOP('',(#144,#145,#146,#147));
#767=EDGE_LOOP('',(#148,#149,#150,#151));
#768=EDGE_LOOP('',(#152,#153,#154,#155));
#769=EDGE_LOOP('',(#156,#157,#158,#159));
#770=EDGE_LOOP('',(#160,#161,#162,#163));
#771=EDGE_LOOP('',(#164,#165,#166,#167));
#772=EDGE_LOOP('',(#168,#169,#170,#171));
#773=EDGE_LOOP('',(#172,#173,#174,#175));
#774=EDGE_LOOP('',(#176,#177,#178,#179));
#775=EDGE_LOOP('',(#180,#181,#182,#183));
#776=EDGE_LOOP('',(#184,#185,#186,#187,#188,#189,#190,#191,#192,#193,#194,
#195,#196,#197,#198,#199,#200,#201,#202,#203));
#777=EDGE_LOOP('',(#204,#205,#206,#207,#208,#209,#210,#211,#212,#213,#214,
#215,#216,#217,#218,#219,#220,#221,#222,#223));
#778=EDGE_LOOP('',(#224));
#779=EDGE_LOOP('',(#225));
#780=EDGE_LOOP('',(#226));
#781=EDGE_LOOP('',(#227));
#782=EDGE_LOOP('',(#228,#229,#230,#231,#232,#233,#234,#235,#236,#237,#238,
#239,#240,#241,#242,#243,#244,#245,#246,#247));
#783=EDGE_LOOP('',(#248));
#784=EDGE_LOOP('',(#249));
#785=EDGE_LOOP('',(#250));
#786=EDGE_LOOP('',(#251));
#787=EDGE_LOOP('',(#252,#253,#254,#255,#256,#257,#258,#259,#260,#261,#262,
#263,#264,#265,#266,#267,#268,#269,#270,#271));
#788=EDGE_LOOP('',(#272));
#789=EDGE_LOOP('',(#273));
#790=EDGE_LOOP('',(#274));
#791=EDGE_LOOP('',(#275));
#792=EDGE_LOOP('',(#276));
#793=EDGE_LOOP('',(#277));
#794=EDGE_LOOP('',(#278));
#795=EDGE_LOOP('',(#279));
#796=FACE_BOUND('',#736,.T.);
#797=FACE_BOUND('',#737,.T.);
#798=FACE_BOUND('',#738,.T.);
#799=FACE_BOUND('',#739,.T.);
#800=FACE_BOUND('',#740,.T.);
#801=FACE_BOUND('',#741,.T.);
#802=FACE_BOUND('',#742,.T.);
#803=FACE_BOUND('',#743,.T.);
#804=FACE_BOUND('',#744,.T.);
#805=FACE_BOUND('',#745,.T.);
#806=FACE_BOUND('',#746,.T.);
#807=FACE_BOUND('',#747,.T.);
#808=FACE_BOUND('',#748,.T.);
#809=FACE_BOUND('',#749,.T.);
#810=FACE_BOUND('',#750,.T.);
#811=FACE_BOUND('',#751,.T.);
#812=FACE_BOUND('',#752,.T.);
#813=FACE_BOUND('',#753,.T.);
#814=FACE_BOUND('',#754,.T.);
#815=FACE_BOUND('',#755,.T.);
#816=FACE_BOUND('',#756,.T.);
#817=FACE_BOUND('',#757,.T.);
#818=FACE_BOUND('',#758,.T.);
#819=FACE_BOUND('',#759,.T.);
#820=FACE_BOUND('',#760,.T.);
#821=FACE_BOUND('',#761,.T.);
#822=FACE_BOUND('',#762,.T.);
#823=FACE_BOUND('',#763,.T.);
#824=FACE_BOUND('',#764,.T.);
#825=FACE_BOUND('',#765,.T.);
#826=FACE_BOUND('',#766,.T.);
#827=FACE_BOUND('',#767,.T.);
#828=FACE_BOUND('',#768,.T.);
#829=FACE_BOUND('',#769,.T.);
#830=FACE_BOUND('',#770,.T.);
#831=FACE_BOUND('',#771,.T.);
#832=FACE_BOUND('',#772,.T.);
#833=FACE_BOUND('',#773,.T.);
#834=FACE_BOUND('',#774,.T.);
#835=FACE_BOUND('',#775,.T.);
#836=FACE_BOUND('',#776,.T.);
#837=FACE_BOUND('',#777,.T.);
#838=FACE_BOUND('',#778,.T.);
#839=FACE_BOUND('',#779,.T.);
#840=FACE_BOUND('',#780,.T.);
#841=FACE_BOUND('',#781,.T.);
#842=FACE_BOUND('',#782,.T.);
#843=FACE_BOUND('',#783,.T.);
#844=FACE_BOUND('',#784,.T.);
#845=FACE_BOUND('',#785,.T.);
#846=FACE_BOUND('',#786,.T.);
#847=FACE_BOUND('',#787,.T.);
#848=FACE_BOUND('',#788,.T.);
#849=FACE_BOUND('',#789,.T.);
#850=FACE_BOUND('',#790,.T.);
#851=FACE_BOUND('',#791,.T.);
#852=FACE_BOUND('',#792,.T.);
#853=FACE_BOUND('',#793,.T.);
#854=FACE_BOUND('',#794,.T.);
#855=FACE_BOUND('',#795,.T.);
#856=PLANE('',#959);
#857=PLANE('',#960);
#858=PLANE('',#961);
#859=PLANE('',#962);
#860=PLANE('',#963);
#861=PLANE('',#964);
#862=PLANE('',#965);
#863=PLANE('',#966);
#864=PLANE('',#967);
#865=PLANE('',#968);
#866=PLANE('',#969);
#867=PLANE('',#970);
#868=PLANE('',#971);
#869=PLANE('',#972);
#870=PLANE('',#973);
#871=PLANE('',#974);
#872=PLANE('',#975);
#873=PLANE('',#976);
#874=PLANE('',#977);
#875=PLANE('',#978);
#876=PLANE('',#979);
#877=PLANE('',#980);
#878=PLANE('',#981);
#879=PLANE('',#982);
#880=PLANE('',#983);
#881=PLANE('',#984);
#882=PLANE('',#985);
#883=PLANE('',#986);
#884=PLANE('',#987);
#885=PLANE('',#988);
#886=PLANE('',#989);
#887=PLANE('',#990);
#888=PLANE('',#991);
#889=PLANE('',#992);
#890=PLANE('',#993);
#891=PLANE('',#994);
#892=PLANE('',#995);
#893=PLANE('',#996);
#894=PLANE('',#997);
#895=PLANE('',#998);
#896=PLANE('',#999);
#897=PLANE('',#1000);
#898=PLANE('',#1005);
#899=ADVANCED_FACE('',(#796),#856,.T.);
#900=ADVANCED_FACE('',(#797),#857,.F.);
#901=ADVANCED_FACE('',(#798),#858,.F.);
#902=ADVANCED_FACE('',(#799),#859,.T.);
#903=ADVANCED_FACE('',(#800),#860,.T.);
#904=ADVANCED_FACE('',(#801),#861,.F.);
#905=ADVANCED_FACE('',(#802),#862,.F.);
#906=ADVANCED_FACE('',(#803),#863,.T.);
#907=ADVANCED_FACE('',(#804),#864,.T.);
#908=ADVANCED_FACE('',(#805),#865,.F.);
#909=ADVANCED_FACE('',(#806),#866,.F.);
#910=ADVANCED_FACE('',(#807),#867,.T.);
#911=ADVANCED_FACE('',(#808),#868,.T.);
#912=ADVANCED_FACE('',(#809),#869,.F.);
#913=ADVANCED_FACE('',(#810),#870,.F.);
#914=ADVANCED_FACE('',(#811),#871,.T.);
#915=ADVANCED_FACE('',(#812),#872,.T.);
#916=ADVANCED_FACE('',(#813),#873,.F.);
#917=ADVANCED_FACE('',(#814),#874,.F.);
#918=ADVANCED_FACE('',(#815),#875,.F.);
#919=ADVANCED_FACE('',(#816),#876,.F.);
#920=ADVANCED_FACE('',(#817),#877,.T.);
#921=ADVANCED_FACE('',(#818),#878,.T.);
#922=ADVANCED_FACE('',(#819),#879,.F.);
#923=ADVANCED_FACE('',(#820),#880,.F.);
#924=ADVANCED_FACE('',(#821),#881,.T.);
#925=ADVANCED_FACE('',(#822),#882,.T.);
#926=ADVANCED_FACE('',(#823),#883,.F.);
#927=ADVANCED_FACE('',(#824),#884,.F.);
#928=ADVANCED_FACE('',(#825),#885,.T.);
#929=ADVANCED_FACE('',(#826),#886,.T.);
#930=ADVANCED_FACE('',(#827),#887,.F.);
#931=ADVANCED_FACE('',(#828),#888,.F.);
#932=ADVANCED_FACE('',(#829),#889,.T.);
#933=ADVANCED_FACE('',(#830),#890,.T.);
#934=ADVANCED_FACE('',(#831),#891,.F.);
#935=ADVANCED_FACE('',(#832),#892,.F.);
#936=ADVANCED_FACE('',(#833),#893,.T.);
#937=ADVANCED_FACE('',(#834),#894,.T.);
#938=ADVANCED_FACE('',(#835),#895,.T.);
#939=ADVANCED_FACE('',(#836,#837),#896,.F.);
#940=ADVANCED_FACE('',(#838,#839,#840,#841,#842),#897,.F.);
#941=ADVANCED_FACE('',(#843,#844,#845,#846,#847),#898,.T.);
#942=ADVANCED_FACE('',(#848,#849),#12,.F.);
#943=ADVANCED_FACE('',(#850,#851),#13,.F.);
#944=ADVANCED_FACE('',(#852,#853),#14,.F.);
#945=ADVANCED_FACE('',(#854,#855),#15,.F.);
#946=CLOSED_SHELL('',(#899,#900,#901,#902,#903,#904,#905,#906,#907,#908,
#909,#910,#911,#912,#913,#914,#915,#916,#917,#918,#919,#920,#921,#922,#923,
#924,#925,#926,#927,#928,#929,#930,#931,#932,#933,#934,#935,#936,#937,#938,
#939,#940,#941,#942,#943,#944,#945));
#947=STYLED_ITEM('',(#948),#955);
#948=PRESENTATION_STYLE_ASSIGNMENT((#949));
#949=SURFACE_STYLE_USAGE(.BOTH.,#950);
#950=SURFACE_SIDE_STYLE('',(#951));
#951=SURFACE_STYLE_FILL_AREA(#952);
#952=FILL_AREA_STYLE('',(#953));
#953=FILL_AREA_STYLE_COLOUR('',#954);
#954=COLOUR_RGB('',0.615686274509804,0.811764705882353,0.929411764705882);
#955=MANIFOLD_SOLID_BREP('Part 1',#946);
#956=SHAPE_DEFINITION_REPRESENTATION(#1516,#957);
#957=SHAPE_REPRESENTATION('Part 1',(#958),#1511);
#958=AXIS2_PLACEMENT_3D('',#1246,#1014,#1015);
#959=AXIS2_PLACEMENT_3D('',#1247,#1016,#1017);
#960=AXIS2_PLACEMENT_3D('',#1256,#1022,#1023);
#961=AXIS2_PLACEMENT_3D('',#1262,#1027,#1028);
#962=AXIS2_PLACEMENT_3D('',#1268,#1032,#1033);
#963=AXIS2_PLACEMENT_3D('',#1274,#1037,#1038);
#964=AXIS2_PLACEMENT_3D('',#1280,#1042,#1043);
#965=AXIS2_PLACEMENT_3D('',#1286,#1047,#1048);
#966=AXIS2_PLACEMENT_3D('',#1292,#1052,#1053);
#967=AXIS2_PLACEMENT_3D('',#1298,#1057,#1058);
#968=AXIS2_PLACEMENT_3D('',#1304,#1062,#1063);
#969=AXIS2_PLACEMENT_3D('',#1310,#1067,#1068);
#970=AXIS2_PLACEMENT_3D('',#1316,#1072,#1073);
#971=AXIS2_PLACEMENT_3D('',#1322,#1077,#1078);
#972=AXIS2_PLACEMENT_3D('',#1328,#1082,#1083);
#973=AXIS2_PLACEMENT_3D('',#1334,#1087,#1088);
#974=AXIS2_PLACEMENT_3D('',#1340,#1092,#1093);
#975=AXIS2_PLACEMENT_3D('',#1346,#1097,#1098);
#976=AXIS2_PLACEMENT_3D('',#1352,#1102,#1103);
#977=AXIS2_PLACEMENT_3D('',#1358,#1107,#1108);
#978=AXIS2_PLACEMENT_3D('',#1364,#1112,#1113);
#979=AXIS2_PLACEMENT_3D('',#1373,#1118,#1119);
#980=AXIS2_PLACEMENT_3D('',#1379,#1123,#1124);
#981=AXIS2_PLACEMENT_3D('',#1385,#1128,#1129);
#982=AXIS2_PLACEMENT_3D('',#1391,#1133,#1134);
#983=AXIS2_PLACEMENT_3D('',#1397,#1138,#1139);
#984=AXIS2_PLACEMENT_3D('',#1403,#1143,#1144);
#985=AXIS2_PLACEMENT_3D('',#1409,#1148,#1149);
#986=AXIS2_PLACEMENT_3D('',#1415,#1153,#1154);
#987=AXIS2_PLACEMENT_3D('',#1421,#1158,#1159);
#988=AXIS2_PLACEMENT_3D('',#1427,#1163,#1164);
#989=AXIS2_PLACEMENT_3D('',#1433,#1168,#1169);
#990=AXIS2_PLACEMENT_3D('',#1439,#1173,#1174);
#991=AXIS2_PLACEMENT_3D('',#1445,#1178,#1179);
#992=AXIS2_PLACEMENT_3D('',#1451,#1183,#1184);
#993=AXIS2_PLACEMENT_3D('',#1457,#1188,#1189);
#994=AXIS2_PLACEMENT_3D('',#1463,#1193,#1194);
#995=AXIS2_PLACEMENT_3D('',#1469,#1198,#1199);
#996=AXIS2_PLACEMENT_3D('',#1475,#1203,#1204);
#997=AXIS2_PLACEMENT_3D('',#1481,#1208,#1209);
#998=AXIS2_PLACEMENT_3D('',#1484,#1212,#1213);
#999=AXIS2_PLACEMENT_3D('',#1487,#1216,#1217);
#1000=AXIS2_PLACEMENT_3D('',#1488,#1218,#1219);
#1001=AXIS2_PLACEMENT_3D('',#1489,#1220,#1221);
#1002=AXIS2_PLACEMENT_3D('',#1491,#1222,#1223);
#1003=AXIS2_PLACEMENT_3D('',#1493,#1224,#1225);
#1004=AXIS2_PLACEMENT_3D('',#1495,#1226,#1227);
#1005=AXIS2_PLACEMENT_3D('',#1497,#1228,#1229);
#1006=AXIS2_PLACEMENT_3D('',#1498,#1230,#1231);
#1007=AXIS2_PLACEMENT_3D('',#1500,#1232,#1233);
#1008=AXIS2_PLACEMENT_3D('',#1502,#1234,#1235);
#1009=AXIS2_PLACEMENT_3D('',#1504,#1236,#1237);
#1010=AXIS2_PLACEMENT_3D('',#1506,#1238,#1239);
#1011=AXIS2_PLACEMENT_3D('',#1507,#1240,#1241);
#1012=AXIS2_PLACEMENT_3D('',#1508,#1242,#1243);
#1013=AXIS2_PLACEMENT_3D('',#1509,#1244,#1245);
#1014=DIRECTION('',(0.,0.,1.));
#1015=DIRECTION('',(1.,0.,0.));
#1016=DIRECTION('',(0.,0.,1.));
#1017=DIRECTION('',(1.,0.,0.));
#1018=DIRECTION('',(1.,0.,0.));
#1019=DIRECTION('',(0.,1.,0.));
#1020=DIRECTION('',(1.,0.,0.));
#1021=DIRECTION('',(0.,1.,0.));
#1022=DIRECTION('',(1.,0.,0.));
#1023=DIRECTION('',(0.,0.,-1.));
#1024=DIRECTION('',(0.,0.,-1.));
#1025=DIRECTION('',(0.,1.,0.));
#1026=DIRECTION('',(0.,0.,-1.));
#1027=DIRECTION('',(0.,0.,-1.));
#1028=DIRECTION('',(-1.,0.,0.));
#1029=DIRECTION('',(-1.,0.,0.));
#1030=DIRECTION('',(0.,1.,0.));
#1031=DIRECTION('',(-1.,0.,0.));
#1032=DIRECTION('',(-1.,0.,0.));
#1033=DIRECTION('',(0.,0.,1.));
#1034=DIRECTION('',(0.,0.,1.));
#1035=DIRECTION('',(0.,1.,0.));
#1036=DIRECTION('',(0.,0.,1.));
#1037=DIRECTION('',(0.,0.,-1.));
#1038=DIRECTION('',(-1.,0.,0.));
#1039=DIRECTION('',(-1.,0.,0.));
#1040=DIRECTION('',(0.,1.,0.));
#1041=DIRECTION('',(-1.,0.,0.));
#1042=DIRECTION('',(1.,0.,0.));
#1043=DIRECTION('',(0.,0.,-1.));
#1044=DIRECTION('',(0.,0.,-1.));
#1045=DIRECTION('',(0.,1.,0.));
#1046=DIRECTION('',(0.,0.,-1.));
#1047=DIRECTION('',(0.0041421225250027,0.,0.999991421373697));
#1048=DIRECTION('',(0.999991421373698,0.,-0.0041421225250027));
#1049=DIRECTION('',(0.999991421373698,0.,-0.0041421225250027));
#1050=DIRECTION('',(0.,1.,0.));
#1051=DIRECTION('',(0.999991421373698,0.,-0.0041421225250027));
#1052=DIRECTION('',(-1.,0.,0.));
#1053=DIRECTION('',(0.,0.,1.));
#1054=DIRECTION('',(0.,0.,1.));
#1055=DIRECTION('',(0.,1.,0.));
#1056=DIRECTION('',(0.,0.,1.));
#1057=DIRECTION('',(0.,0.,-1.));
#1058=DIRECTION('',(-1.,0.,0.));
#1059=DIRECTION('',(-1.,0.,0.));
#1060=DIRECTION('',(0.,1.,0.));
#1061=DIRECTION('',(-1.,0.,0.));
#1062=DIRECTION('',(-1.,0.,0.));
#1063=DIRECTION('',(0.,0.,1.));
#1064=DIRECTION('',(0.,0.,1.));
#1065=DIRECTION('',(0.,1.,0.));
#1066=DIRECTION('',(0.,0.,1.));
#1067=DIRECTION('',(-0.00412990046942593,0.,0.999991471924692));
#1068=DIRECTION('',(0.999991471924692,0.,0.00412990046942593));
#1069=DIRECTION('',(0.999991471924692,0.,0.00412990046942593));
#1070=DIRECTION('',(0.,1.,0.));
#1071=DIRECTION('',(0.999991471924692,0.,0.00412990046942593));
#1072=DIRECTION('',(0.999853059031825,0.,-0.0171423552845595));
#1073=DIRECTION('',(-0.0171423552845595,0.,-0.999853059031825));
#1074=DIRECTION('',(-0.0171423552845595,0.,-0.999853059031825));
#1075=DIRECTION('',(0.,1.,0.));
#1076=DIRECTION('',(-0.0171423552845595,0.,-0.999853059031825));
#1077=DIRECTION('',(0.,0.,-1.));
#1078=DIRECTION('',(-1.,0.,0.));
#1079=DIRECTION('',(-1.,0.,0.));
#1080=DIRECTION('',(0.,1.,0.));
#1081=DIRECTION('',(-1.,0.,0.));
#1082=DIRECTION('',(-1.,0.,0.));
#1083=DIRECTION('',(0.,0.,1.));
#1084=DIRECTION('',(0.,0.,1.));
#1085=DIRECTION('',(0.,1.,0.));
#1086=DIRECTION('',(0.,0.,1.));
#1087=DIRECTION('',(0.,0.,-1.));
#1088=DIRECTION('',(-1.,0.,0.));
#1089=DIRECTION('',(-1.,0.,0.));
#1090=DIRECTION('',(0.,1.,0.));
#1091=DIRECTION('',(-1.,0.,0.));
#1092=DIRECTION('',(0.999804895370676,0.,0.0197527515256006));
#1093=DIRECTION('',(0.0197527515256006,0.,-0.999804895370676));
#1094=DIRECTION('',(0.0197527515256006,0.,-0.999804895370676));
#1095=DIRECTION('',(0.,1.,0.));
#1096=DIRECTION('',(0.0197527515256006,0.,-0.999804895370676));
#1097=DIRECTION('',(0.,0.,1.));
#1098=DIRECTION('',(1.,0.,0.));
#1099=DIRECTION('',(1.,0.,0.));
#1100=DIRECTION('',(0.,1.,0.));
#1101=DIRECTION('',(1.,0.,0.));
#1102=DIRECTION('',(-1.,0.,0.));
#1103=DIRECTION('',(0.,0.,1.));
#1104=DIRECTION('',(0.,0.,1.));
#1105=DIRECTION('',(0.,1.,0.));
#1106=DIRECTION('',(0.,0.,1.));
#1107=DIRECTION('',(0.,0.,-1.));
#1108=DIRECTION('',(-1.,0.,0.));
#1109=DIRECTION('',(-1.,0.,0.));
#1110=DIRECTION('',(0.,1.,0.));
#1111=DIRECTION('',(-1.,0.,0.));
#1112=DIRECTION('',(0.,0.,-1.));
#1113=DIRECTION('',(-1.,0.,0.));
#1114=DIRECTION('',(-1.,0.,0.));
#1115=DIRECTION('',(0.,1.,0.));
#1116=DIRECTION('',(-1.,0.,0.));
#1117=DIRECTION('',(0.,1.,0.));
#1118=DIRECTION('',(-1.,0.,0.));
#1119=DIRECTION('',(0.,0.,1.));
#1120=DIRECTION('',(0.,0.,1.));
#1121=DIRECTION('',(0.,1.,0.));
#1122=DIRECTION('',(0.,0.,1.));
#1123=DIRECTION('',(0.,0.,-1.));
#1124=DIRECTION('',(-1.,0.,0.));
#1125=DIRECTION('',(-1.,0.,0.));
#1126=DIRECTION('',(0.,1.,0.));
#1127=DIRECTION('',(-1.,0.,0.));
#1128=DIRECTION('',(1.,0.,0.));
#1129=DIRECTION('',(0.,0.,-1.));
#1130=DIRECTION('',(0.,0.,-1.));
#1131=DIRECTION('',(0.,1.,0.));
#1132=DIRECTION('',(0.,0.,-1.));
#1133=DIRECTION('',(0.,0.,1.));
#1134=DIRECTION('',(1.,0.,0.));
#1135=DIRECTION('',(1.,0.,0.));
#1136=DIRECTION('',(0.,1.,0.));
#1137=DIRECTION('',(1.,0.,0.));
#1138=DIRECTION('',(-1.,0.,0.));
#1139=DIRECTION('',(0.,0.,1.));
#1140=DIRECTION('',(0.,0.,1.));
#1141=DIRECTION('',(0.,1.,0.));
#1142=DIRECTION('',(0.,0.,1.));
#1143=DIRECTION('',(0.,0.,-1.));
#1144=DIRECTION('',(-1.,0.,0.));
#1145=DIRECTION('',(-1.,0.,0.));
#1146=DIRECTION('',(0.,1.,0.));
#1147=DIRECTION('',(-1.,0.,0.));
#1148=DIRECTION('',(-1.,0.,0.));
#1149=DIRECTION('',(0.,0.,1.));
#1150=DIRECTION('',(0.,0.,1.));
#1151=DIRECTION('',(0.,1.,0.));
#1152=DIRECTION('',(0.,0.,1.));
#1153=DIRECTION('',(0.,0.,1.));
#1154=DIRECTION('',(1.,0.,0.));
#1155=DIRECTION('',(1.,0.,0.));
#1156=DIRECTION('',(0.,1.,0.));
#1157=DIRECTION('',(1.,0.,0.));
#1158=DIRECTION('',(0.999804895370676,0.,0.0197527515256006));
#1159=DIRECTION('',(0.0197527515256006,0.,-0.999804895370676));
#1160=DIRECTION('',(0.0197527515256006,0.,-0.999804895370676));
#1161=DIRECTION('',(0.,1.,0.));
#1162=DIRECTION('',(0.0197527515256006,0.,-0.999804895370676));
#1163=DIRECTION('',(0.,0.,-1.));
#1164=DIRECTION('',(-1.,0.,0.));
#1165=DIRECTION('',(-1.,0.,0.));
#1166=DIRECTION('',(0.,1.,0.));
#1167=DIRECTION('',(-1.,0.,0.));
#1168=DIRECTION('',(-1.,0.,0.));
#1169=DIRECTION('',(0.,0.,1.));
#1170=DIRECTION('',(0.,0.,1.));
#1171=DIRECTION('',(0.,1.,0.));
#1172=DIRECTION('',(0.,0.,1.));
#1173=DIRECTION('',(0.,0.,-1.));
#1174=DIRECTION('',(-1.,0.,0.));
#1175=DIRECTION('',(-1.,0.,0.));
#1176=DIRECTION('',(0.,1.,0.));
#1177=DIRECTION('',(-1.,0.,0.));
#1178=DIRECTION('',(0.999853059031825,0.,-0.0171423552845596));
#1179=DIRECTION('',(-0.0171423552845596,0.,-0.999853059031825));
#1180=DIRECTION('',(-0.0171423552845596,0.,-0.999853059031825));
#1181=DIRECTION('',(0.,1.,0.));
#1182=DIRECTION('',(-0.0171423552845596,0.,-0.999853059031825));
#1183=DIRECTION('',(-0.00412990046942592,0.,0.999991471924692));
#1184=DIRECTION('',(0.999991471924692,0.,0.00412990046942593));
#1185=DIRECTION('',(0.999991471924692,0.,0.00412990046942592));
#1186=DIRECTION('',(0.,1.,0.));
#1187=DIRECTION('',(0.999991471924692,0.,0.00412990046942592));
#1188=DIRECTION('',(-1.,0.,0.));
#1189=DIRECTION('',(0.,0.,1.));
#1190=DIRECTION('',(0.,0.,1.));
#1191=DIRECTION('',(0.,1.,0.));
#1192=DIRECTION('',(0.,0.,1.));
#1193=DIRECTION('',(0.,0.,-1.));
#1194=DIRECTION('',(-1.,0.,0.));
#1195=DIRECTION('',(-1.,0.,0.));
#1196=DIRECTION('',(0.,1.,0.));
#1197=DIRECTION('',(-1.,0.,0.));
#1198=DIRECTION('',(-1.,0.,0.));
#1199=DIRECTION('',(0.,0.,1.));
#1200=DIRECTION('',(0.,0.,1.));
#1201=DIRECTION('',(0.,1.,0.));
#1202=DIRECTION('',(0.,0.,1.));
#1203=DIRECTION('',(0.00414212252500271,0.,0.999991421373697));
#1204=DIRECTION('',(0.999991421373698,0.,-0.00414212252500271));
#1205=DIRECTION('',(0.999991421373698,0.,-0.00414212252500271));
#1206=DIRECTION('',(0.,1.,0.));
#1207=DIRECTION('',(0.999991421373698,0.,-0.00414212252500271));
#1208=DIRECTION('',(1.,0.,0.));
#1209=DIRECTION('',(0.,0.,-1.));
#1210=DIRECTION('',(0.,0.,-1.));
#1211=DIRECTION('',(0.,0.,-1.));
#1212=DIRECTION('',(-1.,0.,0.));
#1213=DIRECTION('',(0.,0.,1.));
#1214=DIRECTION('',(0.,0.,1.));
#1215=DIRECTION('',(0.,0.,1.));
#1216=DIRECTION('',(0.,-1.,0.));
#1217=DIRECTION('',(1.,0.,0.));
#1218=DIRECTION('',(0.,-1.,0.));
#1219=DIRECTION('',(1.,0.,0.));
#1220=DIRECTION('',(0.,-1.,0.));
#1221=DIRECTION('',(0.,0.,-1.));
#1222=DIRECTION('',(0.,-1.,0.));
#1223=DIRECTION('',(0.,0.,-1.));
#1224=DIRECTION('',(0.,-1.,0.));
#1225=DIRECTION('',(0.,0.,-1.));
#1226=DIRECTION('',(0.,-1.,0.));
#1227=DIRECTION('',(0.,0.,-1.));
#1228=DIRECTION('',(0.,-1.,0.));
#1229=DIRECTION('',(1.,0.,0.));
#1230=DIRECTION('',(0.,-1.,0.));
#1231=DIRECTION('',(0.,0.,-1.));
#1232=DIRECTION('',(0.,-1.,0.));
#1233=DIRECTION('',(0.,0.,-1.));
#1234=DIRECTION('',(0.,-1.,0.));
#1235=DIRECTION('',(0.,0.,-1.));
#1236=DIRECTION('',(0.,-1.,0.));
#1237=DIRECTION('',(0.,0.,-1.));
#1238=DIRECTION('',(0.,-1.,0.));
#1239=DIRECTION('',(0.,0.,-1.));
#1240=DIRECTION('',(0.,-1.,0.));
#1241=DIRECTION('',(0.,0.,-1.));
#1242=DIRECTION('',(0.,-1.,0.));
#1243=DIRECTION('',(0.,0.,-1.));
#1244=DIRECTION('',(0.,-1.,0.));
#1245=DIRECTION('',(0.,0.,-1.));
#1246=CARTESIAN_POINT('',(0.,0.,0.));
#1247=CARTESIAN_POINT('',(-0.0351284732761691,-0.0085852,0.0445780479125324));
#1248=CARTESIAN_POINT('',(-0.0351284732761691,0.,0.0445780479125324));
#1249=CARTESIAN_POINT('',(-0.0499261273088185,0.,0.0445780479125324));
#1250=CARTESIAN_POINT('',(-0.0203308192435196,0.,0.0445780479125324));
#1251=CARTESIAN_POINT('',(-0.0499261273088185,-0.0085852,0.0445780479125324));
#1252=CARTESIAN_POINT('',(-0.0499261273088185,-0.0090932,0.0445780479125324));
#1253=CARTESIAN_POINT('',(-0.0351284732761691,-0.0090932,0.0445780479125324));
#1254=CARTESIAN_POINT('',(-0.0203308192435196,-0.0090932,0.0445780479125324));
#1255=CARTESIAN_POINT('',(-0.0203308192435196,-0.0085852,0.0445780479125324));
#1256=CARTESIAN_POINT('',(-0.0499261273088185,-0.0085852,0.0362901165445706));
#1257=CARTESIAN_POINT('',(-0.0499261273088185,0.,0.0362901165445706));
#1258=CARTESIAN_POINT('',(-0.0499261273088185,0.,0.0280021851766089));
#1259=CARTESIAN_POINT('',(-0.0499261273088185,-0.0085852,0.0280021851766089));
#1260=CARTESIAN_POINT('',(-0.0499261273088185,-0.0090932,0.0280021851766089));
#1261=CARTESIAN_POINT('',(-0.0499261273088185,-0.0090932,0.0362901165445706));
#1262=CARTESIAN_POINT('',(-0.0605230636544093,-0.0085852,0.0280021851766089));
#1263=CARTESIAN_POINT('',(-0.0605230636544093,0.,0.0280021851766089));
#1264=CARTESIAN_POINT('',(-0.07112,0.,0.0280021851766089));
#1265=CARTESIAN_POINT('',(-0.07112,-0.0085852,0.0280021851766089));
#1266=CARTESIAN_POINT('',(-0.07112,-0.0090932,0.0280021851766089));
#1267=CARTESIAN_POINT('',(-0.0605230636544093,-0.0090932,0.0280021851766089));
#1268=CARTESIAN_POINT('',(-0.07112,-0.0085852,0.0221290925883044));
#1269=CARTESIAN_POINT('',(-0.07112,0.,0.0221290925883044));
#1270=CARTESIAN_POINT('',(-0.07112,0.,0.016256));
#1271=CARTESIAN_POINT('',(-0.07112,-0.0085852,0.016256));
#1272=CARTESIAN_POINT('',(-0.07112,-0.0090932,0.016256));
#1273=CARTESIAN_POINT('',(-0.07112,-0.0090932,0.0221290925883044));
#1274=CARTESIAN_POINT('',(-0.0605230636544093,-0.0085852,0.016256));
#1275=CARTESIAN_POINT('',(-0.0605230636544093,0.,0.016256));
#1276=CARTESIAN_POINT('',(-0.0499261273088185,0.,0.016256));
#1277=CARTESIAN_POINT('',(-0.0499261273088185,-0.0085852,0.016256));
#1278=CARTESIAN_POINT('',(-0.0499261273088185,-0.0090932,0.016256));
#1279=CARTESIAN_POINT('',(-0.0605230636544093,-0.0090932,0.016256));
#1280=CARTESIAN_POINT('',(-0.0499261273088185,-0.0085852,0.0092080239562662));
#1281=CARTESIAN_POINT('',(-0.0499261273088185,0.,0.0092080239562662));
#1282=CARTESIAN_POINT('',(-0.0499261273088185,0.,0.00216004791253241));
#1283=CARTESIAN_POINT('',(-0.0499261273088185,-0.0085852,0.00216004791253241));
#1284=CARTESIAN_POINT('',(-0.0499261273088185,-0.0090932,0.00216004791253241));
#1285=CARTESIAN_POINT('',(-0.0499261273088185,-0.0090932,0.0092080239562662));
#1286=CARTESIAN_POINT('',(-0.035175266463862,-0.0085852,0.00209894751540586));
#1287=CARTESIAN_POINT('',(-0.035175266463862,0.,0.00209894751540586));
#1288=CARTESIAN_POINT('',(-0.0204244056189056,0.,0.00203784711827931));
#1289=CARTESIAN_POINT('',(-0.0204244056189056,-0.0085852,0.00203784711827931));
#1290=CARTESIAN_POINT('',(-0.0204244056189056,-0.0090932,0.00203784711827931));
#1291=CARTESIAN_POINT('',(-0.035175266463862,-0.0090932,0.00209894751540586));
#1292=CARTESIAN_POINT('',(-0.0204244056189056,-0.0085852,-0.00387005248459415));
#1293=CARTESIAN_POINT('',(-0.0204244056189056,0.,-0.00387005248459415));
#1294=CARTESIAN_POINT('',(-0.0204244056189056,0.,-0.00977795208746762));
#1295=CARTESIAN_POINT('',(-0.0204244056189056,-0.0085852,-0.00977795208746762));
#1296=CARTESIAN_POINT('',(-0.0204244056189056,-0.0090932,-0.00977795208746762));
#1297=CARTESIAN_POINT('',(-0.0204244056189056,-0.0090932,-0.00387005248459415));
#1298=CARTESIAN_POINT('',(-0.00996478185475072,-0.0085852,-0.00977795208746762));
#1299=CARTESIAN_POINT('',(-0.00996478185475072,0.,-0.00977795208746762));
#1300=CARTESIAN_POINT('',(0.000494841909404145,0.,-0.00977795208746762));
#1301=CARTESIAN_POINT('',(0.000494841909404145,-0.0085852,-0.00977795208746762));
#1302=CARTESIAN_POINT('',(0.000494841909404145,-0.0090932,-0.00977795208746762));
#1303=CARTESIAN_POINT('',(-0.00996478185475072,-0.0090932,-0.00977795208746762));
#1304=CARTESIAN_POINT('',(0.000494841909404145,-0.0085852,-0.00387005248459415));
#1305=CARTESIAN_POINT('',(0.000494841909404145,0.,-0.00387005248459415));
#1306=CARTESIAN_POINT('',(0.000494841909404145,0.,0.00203784711827931));
#1307=CARTESIAN_POINT('',(0.000494841909404145,-0.0085852,0.00203784711827931));
#1308=CARTESIAN_POINT('',(0.000494841909404145,-0.0090932,0.00203784711827931));
#1309=CARTESIAN_POINT('',(0.000494841909404145,-0.0090932,-0.00387005248459415));
#1310=CARTESIAN_POINT('',(0.0152893573002928,-0.0085852,0.00209894751540586));
#1311=CARTESIAN_POINT('',(0.0152893573002928,0.,0.00209894751540586));
#1312=CARTESIAN_POINT('',(0.0300838726911815,0.,0.0021600479125324));
#1313=CARTESIAN_POINT('',(0.0300838726911815,-0.0085852,0.0021600479125324));
#1314=CARTESIAN_POINT('',(0.0300838726911815,-0.0090932,0.0021600479125324));
#1315=CARTESIAN_POINT('',(0.0152893573002928,-0.0090932,0.00209894751540586));
#1316=CARTESIAN_POINT('',(0.0302243239143782,-0.0085852,0.0103520718687986));
#1317=CARTESIAN_POINT('',(0.0302243239143782,0.,0.0103520718687986));
#1318=CARTESIAN_POINT('',(0.0303647751375748,0.,0.0185440958250648));
#1319=CARTESIAN_POINT('',(0.0303647751375748,-0.0085852,0.0185440958250648));
#1320=CARTESIAN_POINT('',(0.0303647751375748,-0.0090932,0.0185440958250648));
#1321=CARTESIAN_POINT('',(0.0302243239143782,-0.0090932,0.0103520718687986));
#1322=CARTESIAN_POINT('',(0.0408243989017297,-0.0085852,0.0185440958250648));
#1323=CARTESIAN_POINT('',(0.0408243989017297,0.,0.0185440958250648));
#1324=CARTESIAN_POINT('',(0.0512840226658846,0.,0.0185440958250648));
#1325=CARTESIAN_POINT('',(0.0512840226658846,-0.0085852,0.0185440958250648));
#1326=CARTESIAN_POINT('',(0.0512840226658846,-0.0090932,0.0185440958250648));
#1327=CARTESIAN_POINT('',(0.0408243989017297,-0.0090932,0.0185440958250648));
#1328=CARTESIAN_POINT('',(0.0512840226658846,-0.0085852,0.0244519954279383));
#1329=CARTESIAN_POINT('',(0.0512840226658846,0.,0.0244519954279383));
#1330=CARTESIAN_POINT('',(0.0512840226658846,0.,0.0303598950308118));
#1331=CARTESIAN_POINT('',(0.0512840226658846,-0.0085852,0.0303598950308118));
#1332=CARTESIAN_POINT('',(0.0512840226658846,-0.0090932,0.0303598950308118));
#1333=CARTESIAN_POINT('',(0.0512840226658846,-0.0090932,0.0244519954279383));
#1334=CARTESIAN_POINT('',(0.0408243989017297,-0.0085852,0.0303598950308118));
#1335=CARTESIAN_POINT('',(0.0408243989017297,0.,0.0303598950308118));
#1336=CARTESIAN_POINT('',(0.0303647751375748,0.,0.0303598950308118));
#1337=CARTESIAN_POINT('',(0.0303647751375748,-0.0085852,0.0303598950308118));
#1338=CARTESIAN_POINT('',(0.0303647751375748,-0.0090932,0.0303598950308118));
#1339=CARTESIAN_POINT('',(0.0408243989017297,-0.0090932,0.0303598950308118));
#1340=CARTESIAN_POINT('',(0.0302243239143782,-0.0085852,0.0374689714716721));
#1341=CARTESIAN_POINT('',(0.0302243239143782,0.,0.0374689714716721));
#1342=CARTESIAN_POINT('',(0.0300838726911815,0.,0.0445780479125324));
#1343=CARTESIAN_POINT('',(0.0300838726911815,-0.0085852,0.0445780479125324));
#1344=CARTESIAN_POINT('',(0.0300838726911815,-0.0090932,0.0445780479125324));
#1345=CARTESIAN_POINT('',(0.0302243239143782,-0.0090932,0.0374689714716721));
#1346=CARTESIAN_POINT('',(0.0153361504879858,-0.0085852,0.0445780479125324));
#1347=CARTESIAN_POINT('',(0.0153361504879858,0.,0.0445780479125324));
#1348=CARTESIAN_POINT('',(0.000588428284790152,0.,0.0445780479125324));
#1349=CARTESIAN_POINT('',(0.000588428284790152,-0.0085852,0.0445780479125324));
#1350=CARTESIAN_POINT('',(0.000588428284790152,-0.0090932,0.0445780479125324));
#1351=CARTESIAN_POINT('',(0.0153361504879858,-0.0090932,0.0445780479125324));
#1352=CARTESIAN_POINT('',(0.000588428284790152,-0.0085852,0.0504859475154059));
#1353=CARTESIAN_POINT('',(0.000588428284790152,0.,0.0504859475154059));
#1354=CARTESIAN_POINT('',(0.000588428284790152,0.,0.0563938471182794));
#1355=CARTESIAN_POINT('',(0.000588428284790152,-0.0085852,0.0563938471182794));
#1356=CARTESIAN_POINT('',(0.000588428284790152,-0.0090932,0.0563938471182794));
#1357=CARTESIAN_POINT('',(0.000588428284790152,-0.0090932,0.0504859475154059));
#1358=CARTESIAN_POINT('',(-0.00987119547936471,-0.0085852,0.0563938471182794));
#1359=CARTESIAN_POINT('',(-0.00987119547936471,0.,0.0563938471182794));
#1360=CARTESIAN_POINT('',(-0.0203308192435196,0.,0.0563938471182794));
#1361=CARTESIAN_POINT('',(-0.0203308192435196,-0.0085852,0.0563938471182794));
#1362=CARTESIAN_POINT('',(-0.0203308192435196,-0.0090932,0.0563938471182794));
#1363=CARTESIAN_POINT('',(-0.00987119547936471,-0.0090932,0.0563938471182794));
#1364=CARTESIAN_POINT('',(-0.0589990636544093,-0.0085852,0.01778));
#1365=CARTESIAN_POINT('',(-0.0589990636544093,0.,0.01778));
#1366=CARTESIAN_POINT('',(-0.0484021273088185,0.,0.01778));
#1367=CARTESIAN_POINT('',(-0.069596,0.,0.01778));
#1368=CARTESIAN_POINT('',(-0.069596,-0.0085852,0.01778));
#1369=CARTESIAN_POINT('',(-0.069596,-0.0085852,0.01778));
#1370=CARTESIAN_POINT('',(-0.0589990636544093,-0.0085852,0.01778));
#1371=CARTESIAN_POINT('',(-0.0484021273088185,-0.0085852,0.01778));
#1372=CARTESIAN_POINT('',(-0.0484021273088185,-0.0085852,0.01778));
#1373=CARTESIAN_POINT('',(-0.069596,-0.0085852,0.0221290925883044));
#1374=CARTESIAN_POINT('',(-0.069596,0.,0.0221290925883044));
#1375=CARTESIAN_POINT('',(-0.069596,0.,0.0264781851766089));
#1376=CARTESIAN_POINT('',(-0.069596,-0.0085852,0.0264781851766089));
#1377=CARTESIAN_POINT('',(-0.069596,-0.0085852,0.0264781851766089));
#1378=CARTESIAN_POINT('',(-0.069596,-0.0085852,0.0221290925883044));
#1379=CARTESIAN_POINT('',(-0.0589990636544093,-0.0085852,0.0264781851766089));
#1380=CARTESIAN_POINT('',(-0.0589990636544093,0.,0.0264781851766089));
#1381=CARTESIAN_POINT('',(-0.0484021273088185,0.,0.0264781851766089));
#1382=CARTESIAN_POINT('',(-0.0484021273088185,-0.0085852,0.0264781851766089));
#1383=CARTESIAN_POINT('',(-0.0484021273088185,-0.0085852,0.0264781851766089));
#1384=CARTESIAN_POINT('',(-0.0589990636544093,-0.0085852,0.0264781851766089));
#1385=CARTESIAN_POINT('',(-0.0484021273088185,-0.0085852,0.0347661165445707));
#1386=CARTESIAN_POINT('',(-0.0484021273088185,0.,0.0347661165445707));
#1387=CARTESIAN_POINT('',(-0.0484021273088185,0.,0.0430540479125325));
#1388=CARTESIAN_POINT('',(-0.0484021273088185,-0.0085852,0.0430540479125325));
#1389=CARTESIAN_POINT('',(-0.0484021273088185,-0.0085852,0.0430540479125325));
#1390=CARTESIAN_POINT('',(-0.0484021273088185,-0.0085852,0.0347661165445707));
#1391=CARTESIAN_POINT('',(-0.033604473276169,-0.0085852,0.0430540479125325));
#1392=CARTESIAN_POINT('',(-0.033604473276169,0.,0.0430540479125325));
#1393=CARTESIAN_POINT('',(-0.0188068192435196,0.,0.0430540479125325));
#1394=CARTESIAN_POINT('',(-0.0188068192435196,-0.0085852,0.0430540479125325));
#1395=CARTESIAN_POINT('',(-0.0188068192435196,-0.0085852,0.0430540479125325));
#1396=CARTESIAN_POINT('',(-0.033604473276169,-0.0085852,0.0430540479125325));
#1397=CARTESIAN_POINT('',(-0.0188068192435196,-0.0085852,0.0489619475154059));
#1398=CARTESIAN_POINT('',(-0.0188068192435196,0.,0.0489619475154059));
#1399=CARTESIAN_POINT('',(-0.0188068192435196,0.,0.0548698471182794));
#1400=CARTESIAN_POINT('',(-0.0188068192435196,-0.0085852,0.0548698471182794));
#1401=CARTESIAN_POINT('',(-0.0188068192435196,-0.0085852,0.0548698471182794));
#1402=CARTESIAN_POINT('',(-0.0188068192435196,-0.0085852,0.0489619475154059));
#1403=CARTESIAN_POINT('',(-0.00987119547936472,-0.0085852,0.0548698471182794));
#1404=CARTESIAN_POINT('',(-0.00987119547936472,0.,0.0548698471182794));
#1405=CARTESIAN_POINT('',(-0.000935571715209849,0.,0.0548698471182794));
#1406=CARTESIAN_POINT('',(-0.000935571715209849,-0.0085852,0.0548698471182794));
#1407=CARTESIAN_POINT('',(-0.000935571715209849,-0.0085852,0.0548698471182794));
#1408=CARTESIAN_POINT('',(-0.00987119547936472,-0.0085852,0.0548698471182794));
#1409=CARTESIAN_POINT('',(-0.000935571715209849,-0.0085852,0.0489619475154059));
#1410=CARTESIAN_POINT('',(-0.000935571715209849,0.,0.0489619475154059));
#1411=CARTESIAN_POINT('',(-0.000935571715209849,0.,0.0430540479125325));
#1412=CARTESIAN_POINT('',(-0.000935571715209849,-0.0085852,0.0430540479125325));
#1413=CARTESIAN_POINT('',(-0.000935571715209849,-0.0085852,0.0430540479125325));
#1414=CARTESIAN_POINT('',(-0.000935571715209849,-0.0085852,0.0489619475154059));
#1415=CARTESIAN_POINT('',(0.0138270563231182,-0.0085852,0.0430540479125325));
#1416=CARTESIAN_POINT('',(0.0138270563231182,0.,0.0430540479125325));
#1417=CARTESIAN_POINT('',(0.0285896843614463,0.,0.0430540479125325));
#1418=CARTESIAN_POINT('',(0.0285896843614463,-0.0085852,0.0430540479125325));
#1419=CARTESIAN_POINT('',(0.0285896843614463,-0.0085852,0.0430540479125325));
#1420=CARTESIAN_POINT('',(0.0138270563231182,-0.0085852,0.0430540479125325));
#1421=CARTESIAN_POINT('',(0.0287301355846429,-0.0085852,0.0359449714716721));
#1422=CARTESIAN_POINT('',(0.0287301355846429,0.,0.0359449714716721));
#1423=CARTESIAN_POINT('',(0.0288705868078396,0.,0.0288358950308117));
#1424=CARTESIAN_POINT('',(0.0288705868078396,-0.0085852,0.0288358950308117));
#1425=CARTESIAN_POINT('',(0.0288705868078396,-0.0085852,0.0288358950308117));
#1426=CARTESIAN_POINT('',(0.0287301355846429,-0.0085852,0.0359449714716721));
#1427=CARTESIAN_POINT('',(0.0393153047368621,-0.0085852,0.0288358950308117));
#1428=CARTESIAN_POINT('',(0.0393153047368621,0.,0.0288358950308117));
#1429=CARTESIAN_POINT('',(0.0497600226658846,0.,0.0288358950308117));
#1430=CARTESIAN_POINT('',(0.0497600226658846,-0.0085852,0.0288358950308117));
#1431=CARTESIAN_POINT('',(0.0497600226658846,-0.0085852,0.0288358950308117));
#1432=CARTESIAN_POINT('',(0.0393153047368621,-0.0085852,0.0288358950308117));
#1433=CARTESIAN_POINT('',(0.0497600226658846,-0.0085852,0.0244519954279383));
#1434=CARTESIAN_POINT('',(0.0497600226658846,0.,0.0244519954279383));
#1435=CARTESIAN_POINT('',(0.0497600226658846,0.,0.0200680958250648));
#1436=CARTESIAN_POINT('',(0.0497600226658846,-0.0085852,0.0200680958250648));
#1437=CARTESIAN_POINT('',(0.0497600226658846,-0.0085852,0.0200680958250648));
#1438=CARTESIAN_POINT('',(0.0497600226658846,-0.0085852,0.0244519954279383));
#1439=CARTESIAN_POINT('',(0.0393133513106783,-0.0085852,0.0200680958250648));
#1440=CARTESIAN_POINT('',(0.0393133513106783,0.,0.0200680958250648));
#1441=CARTESIAN_POINT('',(0.028866679955472,0.,0.0200680958250648));
#1442=CARTESIAN_POINT('',(0.028866679955472,-0.0085852,0.0200680958250648));
#1443=CARTESIAN_POINT('',(0.028866679955472,-0.0085852,0.0200680958250648));
#1444=CARTESIAN_POINT('',(0.0393133513106783,-0.0085852,0.0200680958250648));
#1445=CARTESIAN_POINT('',(0.028726175801958,-0.0085852,0.0118729846302689));
#1446=CARTESIAN_POINT('',(0.028726175801958,0.,0.0118729846302689));
#1447=CARTESIAN_POINT('',(0.028585671648444,0.,0.00367787343547308));
#1448=CARTESIAN_POINT('',(0.028585671648444,-0.0085852,0.00367787343547308));
#1449=CARTESIAN_POINT('',(0.028585671648444,-0.0085852,0.00367787343547308));
#1450=CARTESIAN_POINT('',(0.028726175801958,-0.0085852,0.0118729846302689));
#1451=CARTESIAN_POINT('',(0.0137782567789241,-0.0085852,0.00361671976432935));
#1452=CARTESIAN_POINT('',(0.0137782567789241,0.,0.00361671976432935));
#1453=CARTESIAN_POINT('',(-0.00102915809059586,0.,0.00355556609318562));
#1454=CARTESIAN_POINT('',(-0.00102915809059586,-0.0085852,0.00355556609318562));
#1455=CARTESIAN_POINT('',(-0.00102915809059586,-0.0085852,0.00355556609318562));
#1456=CARTESIAN_POINT('',(0.0137782567789241,-0.0085852,0.00361671976432935));
#1457=CARTESIAN_POINT('',(-0.00102915809059586,-0.0085852,-0.002349192997141));
#1458=CARTESIAN_POINT('',(-0.00102915809059586,0.,-0.002349192997141));
#1459=CARTESIAN_POINT('',(-0.00102915809059586,0.,-0.00825395208746762));
#1460=CARTESIAN_POINT('',(-0.00102915809059586,-0.0085852,-0.00825395208746762));
#1461=CARTESIAN_POINT('',(-0.00102915809059586,-0.0085852,-0.00825395208746762));
#1462=CARTESIAN_POINT('',(-0.00102915809059586,-0.0085852,-0.002349192997141));
#1463=CARTESIAN_POINT('',(-0.00996478185475072,-0.0085852,-0.00825395208746762));
#1464=CARTESIAN_POINT('',(-0.00996478185475072,0.,-0.00825395208746762));
#1465=CARTESIAN_POINT('',(-0.0189004056189056,0.,-0.00825395208746762));
#1466=CARTESIAN_POINT('',(-0.0189004056189056,-0.0085852,-0.00825395208746762));
#1467=CARTESIAN_POINT('',(-0.0189004056189056,-0.0085852,-0.00825395208746762));
#1468=CARTESIAN_POINT('',(-0.00996478185475072,-0.0085852,-0.00825395208746762));
#1469=CARTESIAN_POINT('',(-0.0189004056189056,-0.0085852,-0.00234920227206582));
#1470=CARTESIAN_POINT('',(-0.0189004056189056,0.,-0.00234920227206582));
#1471=CARTESIAN_POINT('',(-0.0189004056189056,0.,0.003555547543336));
#1472=CARTESIAN_POINT('',(-0.0189004056189056,-0.0085852,0.003555547543336));
#1473=CARTESIAN_POINT('',(-0.0189004056189056,-0.0085852,0.003555547543336));
#1474=CARTESIAN_POINT('',(-0.0189004056189056,-0.0085852,-0.00234920227206582));
#1475=CARTESIAN_POINT('',(-0.033651266463862,-0.0085852,0.00361664794046254));
#1476=CARTESIAN_POINT('',(-0.033651266463862,0.,0.00361664794046254));
#1477=CARTESIAN_POINT('',(-0.0484021273088185,0.,0.00367774833758909));
#1478=CARTESIAN_POINT('',(-0.0484021273088185,-0.0085852,0.00367774833758909));
#1479=CARTESIAN_POINT('',(-0.0484021273088185,-0.0085852,0.00367774833758909));
#1480=CARTESIAN_POINT('',(-0.033651266463862,-0.0085852,0.00361664794046254));
#1481=CARTESIAN_POINT('',(-0.0484021273088185,-0.0085852,0.0107288741687945));
#1482=CARTESIAN_POINT('',(-0.0484021273088185,0.,0.0107288741687945));
#1483=CARTESIAN_POINT('',(-0.0484021273088185,-0.0085852,0.0107288741687945));
#1484=CARTESIAN_POINT('',(-0.0203308192435196,-0.0085852,0.0504859475154059));
#1485=CARTESIAN_POINT('',(-0.0203308192435196,0.,0.0504859475154059));
#1486=CARTESIAN_POINT('',(-0.0203308192435196,-0.0090932,0.0504859475154059));
#1487=CARTESIAN_POINT('',(-0.00991798866705772,0.,0.0233079475154058));
#1488=CARTESIAN_POINT('',(-0.00991798866705772,-0.0085852,0.0233079475154058));
#1489=CARTESIAN_POINT('',(-0.0101544712420929,-0.0085852,0.0502664237256517));
#1490=CARTESIAN_POINT('',(-0.0101544712420929,-0.0085852,0.0480185237256517));
#1491=CARTESIAN_POINT('',(-0.0609436519985733,-0.0085852,0.0219443758131193));
#1492=CARTESIAN_POINT('',(-0.0609436519985733,-0.0085852,0.0196964758131193));
#1493=CARTESIAN_POINT('',(0.0405411231390015,-0.0085852,0.0242324716381841));
#1494=CARTESIAN_POINT('',(0.0405411231390015,-0.0085852,0.0219845716381841));
#1495=CARTESIAN_POINT('',(-0.0102480576174789,-0.0085852,-0.00408957627434834));
#1496=CARTESIAN_POINT('',(-0.0102480576174789,-0.0085852,-0.00633747627434834));
#1497=CARTESIAN_POINT('',(-0.00991798866705772,-0.0090932,0.0233079475154058));
#1498=CARTESIAN_POINT('',(-0.0101544712420929,-0.0090932,0.0502664237256517));
#1499=CARTESIAN_POINT('',(-0.0101544712420929,-0.0090932,0.0480185237256517));
#1500=CARTESIAN_POINT('',(-0.0609436519985733,-0.0090932,0.0219443758131193));
#1501=CARTESIAN_POINT('',(-0.0609436519985733,-0.0090932,0.0196964758131193));
#1502=CARTESIAN_POINT('',(0.0405411231390015,-0.0090932,0.0242324716381841));
#1503=CARTESIAN_POINT('',(0.0405411231390015,-0.0090932,0.0219845716381841));
#1504=CARTESIAN_POINT('',(-0.0102480576174789,-0.0090932,-0.00408957627434834));
#1505=CARTESIAN_POINT('',(-0.0102480576174789,-0.0090932,-0.00633747627434834));
#1506=CARTESIAN_POINT('',(-0.0102480576174789,0.0163068,-0.00408957627434834));
#1507=CARTESIAN_POINT('',(0.0405411231390015,0.0163068,0.0242324716381841));
#1508=CARTESIAN_POINT('',(-0.0609436519985733,0.0163068,0.0219443758131193));
#1509=CARTESIAN_POINT('',(-0.0101544712420929,0.0163068,0.0502664237256517));
#1510=MECHANICAL_DESIGN_GEOMETRIC_PRESENTATION_REPRESENTATION('',(#947),
#1511);
#1511=(
GEOMETRIC_REPRESENTATION_CONTEXT(3)
GLOBAL_UNCERTAINTY_ASSIGNED_CONTEXT((#1512))
GLOBAL_UNIT_ASSIGNED_CONTEXT((#1515,#1514,#1513))
REPRESENTATION_CONTEXT('Part 1','TOP_LEVEL_ASSEMBLY_PART')
);
#1512=UNCERTAINTY_MEASURE_WITH_UNIT(LENGTH_MEASURE(1.E-8),#1515,
'DISTANCE_ACCURACY_VALUE','Maximum Tolerance applied to model');
#1513=(
NAMED_UNIT(*)
SI_UNIT($,.STERADIAN.)
SOLID_ANGLE_UNIT()
);
#1514=(
NAMED_UNIT(*)
PLANE_ANGLE_UNIT()
SI_UNIT($,.RADIAN.)
);
#1515=(
LENGTH_UNIT()
NAMED_UNIT(*)
SI_UNIT($,.METRE.)
);
#1516=PRODUCT_DEFINITION_SHAPE('','',#1517);
#1517=PRODUCT_DEFINITION('','',#1519,#1518);
#1518=PRODUCT_DEFINITION_CONTEXT('',#1525,'design');
#1519=PRODUCT_DEFINITION_FORMATION_WITH_SPECIFIED_SOURCE('','',#1521,
 .NOT_KNOWN.);
#1520=PRODUCT_RELATED_PRODUCT_CATEGORY('','',(#1521));
#1521=PRODUCT('Part 1','Part 1','Part 1',(#1523));
#1522=PRODUCT_CATEGORY('','');
#1523=PRODUCT_CONTEXT('',#1525,'mechanical');
#1524=APPLICATION_PROTOCOL_DEFINITION('international standard',
'ap242_managed_model_based_3d_engineering',2020,#1525);
#1525=APPLICATION_CONTEXT('managed model based 3d engineering');
ENDSEC;
END-ISO-10303-21;
