ISO-10303-21;
HEADER;
/* Generated by software containing ST-Developer
 * from STEP Tools, Inc. (www.steptools.com) 
 */
/* OPTION: using custom renumber hook */

FILE_DESCRIPTION(
/* description */ ('STEP AP242 Edition 2',
'CAx-IF Rec.Pracs.---Representation and Presentation of Product Manufa
cturing Information (PMI)---4.0---2014-10-13',
'CAx-IF Rec.Pracs.---3D Tessellated Geometry---0.4---2014-09-14','2;1',
'CAx-IF Rec.Pracs.---User Defined Attributes---1.5---2016-08-15'),
/* implementation_level */ '2;1');

FILE_NAME(
/* name */ 'bottom part - Part 1',
/* time_stamp */ '2026-08-18T00:16:29Z',
/* author */ (''),
/* organization */ (''),
/* preprocessor_version */ 'ST-DEVELOPER v20',
/* originating_system */ 'ONSHAPE BY PTC INC, 1.219',
/* authorisation */ '  ');

FILE_SCHEMA (('AP242_MANAGED_MODEL_BASED_3D_ENGINEERING_MIM_LF { 1 0 10303 442 3 1 4 }'));
ENDSEC;

DATA;
#10=SHAPE_REPRESENTATION_RELATIONSHIP('','',#1187,#11);
#11=ADVANCED_BREP_SHAPE_REPRESENTATION('',(#1185),#2009);
#12=CYLINDRICAL_SURFACE('',#1210,0.00635);
#13=CYLINDRICAL_SURFACE('',#1216,0.00635);
#14=CYLINDRICAL_SURFACE('',#1220,0.00635);
#15=CYLINDRICAL_SURFACE('',#1226,0.00635);
#16=CYLINDRICAL_SURFACE('',#1230,0.00635);
#17=CYLINDRICAL_SURFACE('',#1234,0.00635);
#18=CYLINDRICAL_SURFACE('',#1237,0.00635);
#19=CYLINDRICAL_SURFACE('',#1240,0.00635);
#20=CYLINDRICAL_SURFACE('',#1247,0.00635);
#21=CYLINDRICAL_SURFACE('',#1249,0.00635);
#22=CYLINDRICAL_SURFACE('',#1250,0.00635);
#23=CYLINDRICAL_SURFACE('',#1253,0.00635);
#24=CYLINDRICAL_SURFACE('',#1264,0.0059436);
#25=CYLINDRICAL_SURFACE('',#1267,0.001143);
#26=CYLINDRICAL_SURFACE('',#1270,0.003048);
#27=CYLINDRICAL_SURFACE('',#1273,0.001143);
#28=CYLINDRICAL_SURFACE('',#1278,0.0127);
#29=CYLINDRICAL_SURFACE('',#1282,0.0127);
#30=CYLINDRICAL_SURFACE('',#1286,0.0127);
#31=CYLINDRICAL_SURFACE('',#1290,0.0127);
#32=CYLINDRICAL_SURFACE('',#1294,0.0022479);
#33=CYLINDRICAL_SURFACE('',#1297,0.0022479);
#34=CYLINDRICAL_SURFACE('',#1300,0.0022479);
#35=CYLINDRICAL_SURFACE('',#1303,0.0022479);
#36=CYLINDRICAL_SURFACE('',#1307,0.000635);
#37=CYLINDRICAL_SURFACE('',#1309,0.000635);
#38=CYLINDRICAL_SURFACE('',#1311,0.000635);
#39=CYLINDRICAL_SURFACE('',#1313,0.000635);
#40=CIRCLE('',#1190,0.00635);
#41=CIRCLE('',#1191,0.00635);
#42=CIRCLE('',#1192,0.00635);
#43=CIRCLE('',#1193,0.00635);
#44=CIRCLE('',#1194,0.000635);
#45=CIRCLE('',#1195,0.000635);
#46=CIRCLE('',#1196,0.000635);
#47=CIRCLE('',#1197,0.000635);
#48=CIRCLE('',#1199,0.0127);
#49=CIRCLE('',#1200,0.0127);
#50=CIRCLE('',#1201,0.0127);
#51=CIRCLE('',#1202,0.0127);
#52=CIRCLE('',#1203,0.000635);
#53=CIRCLE('',#1204,0.000635);
#54=CIRCLE('',#1205,0.000635);
#55=CIRCLE('',#1206,0.000635);
#56=CIRCLE('',#1211,0.00635);
#57=CIRCLE('',#1212,0.00635);
#58=CIRCLE('',#1214,0.00635);
#59=CIRCLE('',#1215,0.00635);
#60=CIRCLE('',#1217,0.00635);
#61=CIRCLE('',#1218,0.00635);
#62=CIRCLE('',#1221,0.00635);
#63=CIRCLE('',#1222,0.00635);
#64=CIRCLE('',#1223,0.00635);
#65=CIRCLE('',#1225,0.00635);
#66=CIRCLE('',#1227,0.00635);
#67=CIRCLE('',#1228,0.00635);
#68=CIRCLE('',#1231,0.00635);
#69=CIRCLE('',#1232,0.00635);
#70=CIRCLE('',#1235,0.00635);
#71=CIRCLE('',#1236,0.00635);
#72=CIRCLE('',#1238,0.00635);
#73=CIRCLE('',#1239,0.00635);
#74=CIRCLE('',#1241,0.00635);
#75=CIRCLE('',#1242,0.00635);
#76=CIRCLE('',#1245,0.00635);
#77=CIRCLE('',#1246,0.00635);
#78=CIRCLE('',#1251,0.00635);
#79=CIRCLE('',#1254,0.00635);
#80=CIRCLE('',#1265,0.0059436);
#81=CIRCLE('',#1266,0.0059436);
#82=CIRCLE('',#1268,0.001143);
#83=CIRCLE('',#1269,0.001143);
#84=CIRCLE('',#1271,0.003048);
#85=CIRCLE('',#1272,0.003048);
#86=CIRCLE('',#1274,0.001143);
#87=CIRCLE('',#1275,0.001143);
#88=CIRCLE('',#1279,0.0127);
#89=CIRCLE('',#1281,0.0022479);
#90=CIRCLE('',#1283,0.0127);
#91=CIRCLE('',#1285,0.0022479);
#92=CIRCLE('',#1287,0.0127);
#93=CIRCLE('',#1289,0.0022479);
#94=CIRCLE('',#1291,0.0127);
#95=CIRCLE('',#1293,0.0022479);
#96=CIRCLE('',#1295,0.0022479);
#97=CIRCLE('',#1298,0.0022479);
#98=CIRCLE('',#1301,0.0022479);
#99=CIRCLE('',#1304,0.0022479);
#100=ORIENTED_EDGE('',*,*,#424,.F.);
#101=ORIENTED_EDGE('',*,*,#425,.T.);
#102=ORIENTED_EDGE('',*,*,#426,.T.);
#103=ORIENTED_EDGE('',*,*,#427,.T.);
#104=ORIENTED_EDGE('',*,*,#428,.T.);
#105=ORIENTED_EDGE('',*,*,#429,.T.);
#106=ORIENTED_EDGE('',*,*,#430,.F.);
#107=ORIENTED_EDGE('',*,*,#431,.T.);
#108=ORIENTED_EDGE('',*,*,#432,.F.);
#109=ORIENTED_EDGE('',*,*,#433,.T.);
#110=ORIENTED_EDGE('',*,*,#434,.T.);
#111=ORIENTED_EDGE('',*,*,#435,.F.);
#112=ORIENTED_EDGE('',*,*,#436,.F.);
#113=ORIENTED_EDGE('',*,*,#437,.T.);
#114=ORIENTED_EDGE('',*,*,#438,.F.);
#115=ORIENTED_EDGE('',*,*,#439,.F.);
#116=ORIENTED_EDGE('',*,*,#440,.F.);
#117=ORIENTED_EDGE('',*,*,#441,.F.);
#118=ORIENTED_EDGE('',*,*,#442,.F.);
#119=ORIENTED_EDGE('',*,*,#443,.T.);
#120=ORIENTED_EDGE('',*,*,#444,.T.);
#121=ORIENTED_EDGE('',*,*,#445,.T.);
#122=ORIENTED_EDGE('',*,*,#446,.F.);
#123=ORIENTED_EDGE('',*,*,#447,.F.);
#124=ORIENTED_EDGE('',*,*,#448,.F.);
#125=ORIENTED_EDGE('',*,*,#449,.F.);
#126=ORIENTED_EDGE('',*,*,#450,.F.);
#127=ORIENTED_EDGE('',*,*,#451,.T.);
#128=ORIENTED_EDGE('',*,*,#452,.F.);
#129=ORIENTED_EDGE('',*,*,#453,.T.);
#130=ORIENTED_EDGE('',*,*,#454,.F.);
#131=ORIENTED_EDGE('',*,*,#455,.F.);
#132=ORIENTED_EDGE('',*,*,#456,.F.);
#133=ORIENTED_EDGE('',*,*,#457,.T.);
#134=ORIENTED_EDGE('',*,*,#458,.F.);
#135=ORIENTED_EDGE('',*,*,#459,.T.);
#136=ORIENTED_EDGE('',*,*,#460,.T.);
#137=ORIENTED_EDGE('',*,*,#461,.T.);
#138=ORIENTED_EDGE('',*,*,#462,.T.);
#139=ORIENTED_EDGE('',*,*,#463,.T.);
#140=ORIENTED_EDGE('',*,*,#464,.F.);
#141=ORIENTED_EDGE('',*,*,#465,.T.);
#142=ORIENTED_EDGE('',*,*,#466,.F.);
#143=ORIENTED_EDGE('',*,*,#467,.F.);
#144=ORIENTED_EDGE('',*,*,#468,.T.);
#145=ORIENTED_EDGE('',*,*,#469,.T.);
#146=ORIENTED_EDGE('',*,*,#470,.T.);
#147=ORIENTED_EDGE('',*,*,#449,.T.);
#148=ORIENTED_EDGE('',*,*,#471,.T.);
#149=ORIENTED_EDGE('',*,*,#472,.T.);
#150=ORIENTED_EDGE('',*,*,#473,.T.);
#151=ORIENTED_EDGE('',*,*,#455,.T.);
#152=ORIENTED_EDGE('',*,*,#474,.F.);
#153=ORIENTED_EDGE('',*,*,#475,.T.);
#154=ORIENTED_EDGE('',*,*,#476,.F.);
#155=ORIENTED_EDGE('',*,*,#477,.F.);
#156=ORIENTED_EDGE('',*,*,#478,.F.);
#157=ORIENTED_EDGE('',*,*,#479,.F.);
#158=ORIENTED_EDGE('',*,*,#480,.T.);
#159=ORIENTED_EDGE('',*,*,#481,.T.);
#160=ORIENTED_EDGE('',*,*,#482,.T.);
#161=ORIENTED_EDGE('',*,*,#483,.F.);
#162=ORIENTED_EDGE('',*,*,#484,.F.);
#163=ORIENTED_EDGE('',*,*,#479,.T.);
#164=ORIENTED_EDGE('',*,*,#485,.F.);
#165=ORIENTED_EDGE('',*,*,#486,.F.);
#166=ORIENTED_EDGE('',*,*,#428,.F.);
#167=ORIENTED_EDGE('',*,*,#487,.T.);
#168=ORIENTED_EDGE('',*,*,#488,.F.);
#169=ORIENTED_EDGE('',*,*,#489,.F.);
#170=ORIENTED_EDGE('',*,*,#490,.T.);
#171=ORIENTED_EDGE('',*,*,#483,.T.);
#172=ORIENTED_EDGE('',*,*,#488,.T.);
#173=ORIENTED_EDGE('',*,*,#491,.T.);
#174=ORIENTED_EDGE('',*,*,#492,.F.);
#175=ORIENTED_EDGE('',*,*,#493,.F.);
#176=ORIENTED_EDGE('',*,*,#489,.T.);
#177=ORIENTED_EDGE('',*,*,#494,.T.);
#178=ORIENTED_EDGE('',*,*,#495,.F.);
#179=ORIENTED_EDGE('',*,*,#496,.F.);
#180=ORIENTED_EDGE('',*,*,#492,.T.);
#181=ORIENTED_EDGE('',*,*,#497,.T.);
#182=ORIENTED_EDGE('',*,*,#498,.T.);
#183=ORIENTED_EDGE('',*,*,#499,.F.);
#184=ORIENTED_EDGE('',*,*,#500,.F.);
#185=ORIENTED_EDGE('',*,*,#495,.T.);
#186=ORIENTED_EDGE('',*,*,#499,.T.);
#187=ORIENTED_EDGE('',*,*,#498,.F.);
#188=ORIENTED_EDGE('',*,*,#501,.F.);
#189=ORIENTED_EDGE('',*,*,#424,.T.);
#190=ORIENTED_EDGE('',*,*,#502,.T.);
#191=ORIENTED_EDGE('',*,*,#503,.F.);
#192=ORIENTED_EDGE('',*,*,#504,.F.);
#193=ORIENTED_EDGE('',*,*,#505,.F.);
#194=ORIENTED_EDGE('',*,*,#506,.F.);
#195=ORIENTED_EDGE('',*,*,#507,.F.);
#196=ORIENTED_EDGE('',*,*,#508,.T.);
#197=ORIENTED_EDGE('',*,*,#476,.T.);
#198=ORIENTED_EDGE('',*,*,#509,.F.);
#199=ORIENTED_EDGE('',*,*,#510,.F.);
#200=ORIENTED_EDGE('',*,*,#511,.F.);
#201=ORIENTED_EDGE('',*,*,#512,.T.);
#202=ORIENTED_EDGE('',*,*,#507,.T.);
#203=ORIENTED_EDGE('',*,*,#513,.F.);
#204=ORIENTED_EDGE('',*,*,#514,.T.);
#205=ORIENTED_EDGE('',*,*,#453,.F.);
#206=ORIENTED_EDGE('',*,*,#515,.F.);
#207=ORIENTED_EDGE('',*,*,#516,.F.);
#208=ORIENTED_EDGE('',*,*,#517,.T.);
#209=ORIENTED_EDGE('',*,*,#511,.T.);
#210=ORIENTED_EDGE('',*,*,#518,.F.);
#211=ORIENTED_EDGE('',*,*,#519,.T.);
#212=ORIENTED_EDGE('',*,*,#451,.F.);
#213=ORIENTED_EDGE('',*,*,#520,.F.);
#214=ORIENTED_EDGE('',*,*,#521,.F.);
#215=ORIENTED_EDGE('',*,*,#522,.F.);
#216=ORIENTED_EDGE('',*,*,#523,.T.);
#217=ORIENTED_EDGE('',*,*,#516,.T.);
#218=ORIENTED_EDGE('',*,*,#524,.F.);
#219=ORIENTED_EDGE('',*,*,#468,.F.);
#220=ORIENTED_EDGE('',*,*,#525,.T.);
#221=ORIENTED_EDGE('',*,*,#522,.T.);
#222=ORIENTED_EDGE('',*,*,#526,.F.);
#223=ORIENTED_EDGE('',*,*,#471,.F.);
#224=ORIENTED_EDGE('',*,*,#527,.T.);
#225=ORIENTED_EDGE('',*,*,#466,.T.);
#226=ORIENTED_EDGE('',*,*,#528,.T.);
#227=ORIENTED_EDGE('',*,*,#481,.F.);
#228=ORIENTED_EDGE('',*,*,#529,.F.);
#229=ORIENTED_EDGE('',*,*,#504,.T.);
#230=ORIENTED_EDGE('',*,*,#508,.F.);
#231=ORIENTED_EDGE('',*,*,#512,.F.);
#232=ORIENTED_EDGE('',*,*,#517,.F.);
#233=ORIENTED_EDGE('',*,*,#523,.F.);
#234=ORIENTED_EDGE('',*,*,#525,.F.);
#235=ORIENTED_EDGE('',*,*,#467,.T.);
#236=ORIENTED_EDGE('',*,*,#527,.F.);
#237=ORIENTED_EDGE('',*,*,#477,.T.);
#238=ORIENTED_EDGE('',*,*,#480,.F.);
#239=ORIENTED_EDGE('',*,*,#484,.T.);
#240=ORIENTED_EDGE('',*,*,#490,.F.);
#241=ORIENTED_EDGE('',*,*,#493,.T.);
#242=ORIENTED_EDGE('',*,*,#496,.T.);
#243=ORIENTED_EDGE('',*,*,#500,.T.);
#244=ORIENTED_EDGE('',*,*,#505,.T.);
#245=ORIENTED_EDGE('',*,*,#529,.T.);
#246=ORIENTED_EDGE('',*,*,#530,.F.);
#247=ORIENTED_EDGE('',*,*,#531,.T.);
#248=ORIENTED_EDGE('',*,*,#532,.F.);
#249=ORIENTED_EDGE('',*,*,#482,.F.);
#250=ORIENTED_EDGE('',*,*,#478,.T.);
#251=ORIENTED_EDGE('',*,*,#528,.F.);
#252=ORIENTED_EDGE('',*,*,#530,.T.);
#253=ORIENTED_EDGE('',*,*,#503,.T.);
#254=ORIENTED_EDGE('',*,*,#502,.F.);
#255=ORIENTED_EDGE('',*,*,#431,.F.);
#256=ORIENTED_EDGE('',*,*,#533,.T.);
#257=ORIENTED_EDGE('',*,*,#531,.F.);
#258=ORIENTED_EDGE('',*,*,#533,.F.);
#259=ORIENTED_EDGE('',*,*,#430,.T.);
#260=ORIENTED_EDGE('',*,*,#534,.T.);
#261=ORIENTED_EDGE('',*,*,#485,.T.);
#262=ORIENTED_EDGE('',*,*,#532,.T.);
#263=ORIENTED_EDGE('',*,*,#534,.F.);
#264=ORIENTED_EDGE('',*,*,#429,.F.);
#265=ORIENTED_EDGE('',*,*,#486,.T.);
#266=ORIENTED_EDGE('',*,*,#535,.T.);
#267=ORIENTED_EDGE('',*,*,#487,.F.);
#268=ORIENTED_EDGE('',*,*,#427,.F.);
#269=ORIENTED_EDGE('',*,*,#536,.T.);
#270=ORIENTED_EDGE('',*,*,#537,.T.);
#271=ORIENTED_EDGE('',*,*,#536,.F.);
#272=ORIENTED_EDGE('',*,*,#426,.F.);
#273=ORIENTED_EDGE('',*,*,#538,.T.);
#274=ORIENTED_EDGE('',*,*,#539,.T.);
#275=ORIENTED_EDGE('',*,*,#538,.F.);
#276=ORIENTED_EDGE('',*,*,#425,.F.);
#277=ORIENTED_EDGE('',*,*,#501,.T.);
#278=ORIENTED_EDGE('',*,*,#497,.F.);
#279=ORIENTED_EDGE('',*,*,#494,.F.);
#280=ORIENTED_EDGE('',*,*,#491,.F.);
#281=ORIENTED_EDGE('',*,*,#535,.F.);
#282=ORIENTED_EDGE('',*,*,#537,.F.);
#283=ORIENTED_EDGE('',*,*,#539,.F.);
#284=ORIENTED_EDGE('',*,*,#540,.F.);
#285=ORIENTED_EDGE('',*,*,#541,.T.);
#286=ORIENTED_EDGE('',*,*,#542,.T.);
#287=ORIENTED_EDGE('',*,*,#433,.F.);
#288=ORIENTED_EDGE('',*,*,#540,.T.);
#289=ORIENTED_EDGE('',*,*,#432,.T.);
#290=ORIENTED_EDGE('',*,*,#543,.F.);
#291=ORIENTED_EDGE('',*,*,#544,.F.);
#292=ORIENTED_EDGE('',*,*,#543,.T.);
#293=ORIENTED_EDGE('',*,*,#435,.T.);
#294=ORIENTED_EDGE('',*,*,#545,.F.);
#295=ORIENTED_EDGE('',*,*,#546,.F.);
#296=ORIENTED_EDGE('',*,*,#542,.F.);
#297=ORIENTED_EDGE('',*,*,#547,.T.);
#298=ORIENTED_EDGE('',*,*,#545,.T.);
#299=ORIENTED_EDGE('',*,*,#434,.F.);
#300=ORIENTED_EDGE('',*,*,#445,.F.);
#301=ORIENTED_EDGE('',*,*,#548,.F.);
#302=ORIENTED_EDGE('',*,*,#549,.T.);
#303=ORIENTED_EDGE('',*,*,#550,.T.);
#304=ORIENTED_EDGE('',*,*,#444,.F.);
#305=ORIENTED_EDGE('',*,*,#551,.F.);
#306=ORIENTED_EDGE('',*,*,#552,.T.);
#307=ORIENTED_EDGE('',*,*,#548,.T.);
#308=ORIENTED_EDGE('',*,*,#447,.T.);
#309=ORIENTED_EDGE('',*,*,#553,.F.);
#310=ORIENTED_EDGE('',*,*,#554,.F.);
#311=ORIENTED_EDGE('',*,*,#551,.T.);
#312=ORIENTED_EDGE('',*,*,#446,.T.);
#313=ORIENTED_EDGE('',*,*,#550,.F.);
#314=ORIENTED_EDGE('',*,*,#555,.F.);
#315=ORIENTED_EDGE('',*,*,#553,.T.);
#316=ORIENTED_EDGE('',*,*,#556,.F.);
#317=ORIENTED_EDGE('',*,*,#557,.F.);
#318=ORIENTED_EDGE('',*,*,#558,.T.);
#319=ORIENTED_EDGE('',*,*,#559,.T.);
#320=ORIENTED_EDGE('',*,*,#560,.T.);
#321=ORIENTED_EDGE('',*,*,#561,.F.);
#322=ORIENTED_EDGE('',*,*,#562,.F.);
#323=ORIENTED_EDGE('',*,*,#559,.F.);
#324=ORIENTED_EDGE('',*,*,#563,.T.);
#325=ORIENTED_EDGE('',*,*,#557,.T.);
#326=ORIENTED_EDGE('',*,*,#564,.T.);
#327=ORIENTED_EDGE('',*,*,#565,.F.);
#328=ORIENTED_EDGE('',*,*,#549,.F.);
#329=ORIENTED_EDGE('',*,*,#552,.F.);
#330=ORIENTED_EDGE('',*,*,#554,.T.);
#331=ORIENTED_EDGE('',*,*,#555,.T.);
#332=ORIENTED_EDGE('',*,*,#558,.F.);
#333=ORIENTED_EDGE('',*,*,#563,.F.);
#334=ORIENTED_EDGE('',*,*,#560,.F.);
#335=ORIENTED_EDGE('',*,*,#564,.F.);
#336=ORIENTED_EDGE('',*,*,#541,.F.);
#337=ORIENTED_EDGE('',*,*,#544,.T.);
#338=ORIENTED_EDGE('',*,*,#546,.T.);
#339=ORIENTED_EDGE('',*,*,#547,.F.);
#340=ORIENTED_EDGE('',*,*,#556,.T.);
#341=ORIENTED_EDGE('',*,*,#562,.T.);
#342=ORIENTED_EDGE('',*,*,#561,.T.);
#343=ORIENTED_EDGE('',*,*,#565,.T.);
#344=ORIENTED_EDGE('',*,*,#454,.T.);
#345=ORIENTED_EDGE('',*,*,#514,.F.);
#346=ORIENTED_EDGE('',*,*,#566,.F.);
#347=ORIENTED_EDGE('',*,*,#474,.T.);
#348=ORIENTED_EDGE('',*,*,#567,.F.);
#349=ORIENTED_EDGE('',*,*,#475,.F.);
#350=ORIENTED_EDGE('',*,*,#566,.T.);
#351=ORIENTED_EDGE('',*,*,#513,.T.);
#352=ORIENTED_EDGE('',*,*,#506,.T.);
#353=ORIENTED_EDGE('',*,*,#448,.T.);
#354=ORIENTED_EDGE('',*,*,#473,.F.);
#355=ORIENTED_EDGE('',*,*,#568,.F.);
#356=ORIENTED_EDGE('',*,*,#464,.T.);
#357=ORIENTED_EDGE('',*,*,#569,.F.);
#358=ORIENTED_EDGE('',*,*,#465,.F.);
#359=ORIENTED_EDGE('',*,*,#568,.T.);
#360=ORIENTED_EDGE('',*,*,#472,.F.);
#361=ORIENTED_EDGE('',*,*,#526,.T.);
#362=ORIENTED_EDGE('',*,*,#450,.T.);
#363=ORIENTED_EDGE('',*,*,#470,.F.);
#364=ORIENTED_EDGE('',*,*,#570,.F.);
#365=ORIENTED_EDGE('',*,*,#520,.T.);
#366=ORIENTED_EDGE('',*,*,#571,.F.);
#367=ORIENTED_EDGE('',*,*,#521,.T.);
#368=ORIENTED_EDGE('',*,*,#570,.T.);
#369=ORIENTED_EDGE('',*,*,#469,.F.);
#370=ORIENTED_EDGE('',*,*,#524,.T.);
#371=ORIENTED_EDGE('',*,*,#452,.T.);
#372=ORIENTED_EDGE('',*,*,#519,.F.);
#373=ORIENTED_EDGE('',*,*,#572,.F.);
#374=ORIENTED_EDGE('',*,*,#509,.T.);
#375=ORIENTED_EDGE('',*,*,#573,.F.);
#376=ORIENTED_EDGE('',*,*,#510,.T.);
#377=ORIENTED_EDGE('',*,*,#572,.T.);
#378=ORIENTED_EDGE('',*,*,#518,.T.);
#379=ORIENTED_EDGE('',*,*,#515,.T.);
#380=ORIENTED_EDGE('',*,*,#574,.F.);
#381=ORIENTED_EDGE('',*,*,#573,.T.);
#382=ORIENTED_EDGE('',*,*,#574,.T.);
#383=ORIENTED_EDGE('',*,*,#575,.F.);
#384=ORIENTED_EDGE('',*,*,#571,.T.);
#385=ORIENTED_EDGE('',*,*,#575,.T.);
#386=ORIENTED_EDGE('',*,*,#576,.F.);
#387=ORIENTED_EDGE('',*,*,#569,.T.);
#388=ORIENTED_EDGE('',*,*,#576,.T.);
#389=ORIENTED_EDGE('',*,*,#577,.F.);
#390=ORIENTED_EDGE('',*,*,#567,.T.);
#391=ORIENTED_EDGE('',*,*,#577,.T.);
#392=ORIENTED_EDGE('',*,*,#456,.T.);
#393=ORIENTED_EDGE('',*,*,#578,.T.);
#394=ORIENTED_EDGE('',*,*,#437,.F.);
#395=ORIENTED_EDGE('',*,*,#579,.F.);
#396=ORIENTED_EDGE('',*,*,#579,.T.);
#397=ORIENTED_EDGE('',*,*,#436,.T.);
#398=ORIENTED_EDGE('',*,*,#580,.F.);
#399=ORIENTED_EDGE('',*,*,#457,.F.);
#400=ORIENTED_EDGE('',*,*,#458,.T.);
#401=ORIENTED_EDGE('',*,*,#580,.T.);
#402=ORIENTED_EDGE('',*,*,#443,.F.);
#403=ORIENTED_EDGE('',*,*,#581,.F.);
#404=ORIENTED_EDGE('',*,*,#581,.T.);
#405=ORIENTED_EDGE('',*,*,#442,.T.);
#406=ORIENTED_EDGE('',*,*,#582,.F.);
#407=ORIENTED_EDGE('',*,*,#459,.F.);
#408=ORIENTED_EDGE('',*,*,#582,.T.);
#409=ORIENTED_EDGE('',*,*,#441,.T.);
#410=ORIENTED_EDGE('',*,*,#583,.F.);
#411=ORIENTED_EDGE('',*,*,#460,.F.);
#412=ORIENTED_EDGE('',*,*,#583,.T.);
#413=ORIENTED_EDGE('',*,*,#440,.T.);
#414=ORIENTED_EDGE('',*,*,#584,.F.);
#415=ORIENTED_EDGE('',*,*,#461,.F.);
#416=ORIENTED_EDGE('',*,*,#584,.T.);
#417=ORIENTED_EDGE('',*,*,#439,.T.);
#418=ORIENTED_EDGE('',*,*,#585,.F.);
#419=ORIENTED_EDGE('',*,*,#462,.F.);
#420=ORIENTED_EDGE('',*,*,#585,.T.);
#421=ORIENTED_EDGE('',*,*,#438,.T.);
#422=ORIENTED_EDGE('',*,*,#578,.F.);
#423=ORIENTED_EDGE('',*,*,#463,.F.);
#424=EDGE_CURVE('',#586,#587,#698,.T.);
#425=EDGE_CURVE('',#586,#588,#40,.T.);
#426=EDGE_CURVE('',#588,#589,#699,.T.);
#427=EDGE_CURVE('',#589,#590,#41,.T.);
#428=EDGE_CURVE('',#590,#591,#700,.T.);
#429=EDGE_CURVE('',#591,#592,#42,.T.);
#430=EDGE_CURVE('',#593,#592,#701,.T.);
#431=EDGE_CURVE('',#593,#587,#43,.T.);
#432=EDGE_CURVE('',#594,#595,#702,.T.);
#433=EDGE_CURVE('',#594,#596,#703,.T.);
#434=EDGE_CURVE('',#596,#597,#704,.T.);
#435=EDGE_CURVE('',#595,#597,#705,.T.);
#436=EDGE_CURVE('',#598,#599,#44,.T.);
#437=EDGE_CURVE('',#598,#600,#706,.T.);
#438=EDGE_CURVE('',#601,#600,#45,.T.);
#439=EDGE_CURVE('',#602,#601,#707,.T.);
#440=EDGE_CURVE('',#603,#602,#46,.T.);
#441=EDGE_CURVE('',#604,#603,#708,.T.);
#442=EDGE_CURVE('',#605,#604,#47,.T.);
#443=EDGE_CURVE('',#605,#599,#709,.T.);
#444=EDGE_CURVE('',#606,#607,#710,.T.);
#445=EDGE_CURVE('',#607,#608,#711,.T.);
#446=EDGE_CURVE('',#609,#608,#712,.T.);
#447=EDGE_CURVE('',#606,#609,#713,.T.);
#448=EDGE_CURVE('',#610,#611,#48,.T.);
#449=EDGE_CURVE('',#612,#610,#714,.T.);
#450=EDGE_CURVE('',#613,#612,#49,.T.);
#451=EDGE_CURVE('',#613,#614,#715,.T.);
#452=EDGE_CURVE('',#615,#614,#50,.T.);
#453=EDGE_CURVE('',#615,#616,#716,.T.);
#454=EDGE_CURVE('',#617,#616,#51,.T.);
#455=EDGE_CURVE('',#611,#617,#717,.T.);
#456=EDGE_CURVE('',#618,#619,#718,.T.);
#457=EDGE_CURVE('',#618,#620,#52,.T.);
#458=EDGE_CURVE('',#621,#620,#719,.T.);
#459=EDGE_CURVE('',#621,#622,#53,.T.);
#460=EDGE_CURVE('',#622,#623,#720,.T.);
#461=EDGE_CURVE('',#623,#624,#54,.T.);
#462=EDGE_CURVE('',#624,#625,#721,.T.);
#463=EDGE_CURVE('',#625,#619,#55,.T.);
#464=EDGE_CURVE('',#626,#610,#722,.T.);
#465=EDGE_CURVE('',#626,#627,#723,.T.);
#466=EDGE_CURVE('',#628,#627,#724,.T.);
#467=EDGE_CURVE('',#629,#628,#725,.T.);
#468=EDGE_CURVE('',#629,#630,#726,.T.);
#469=EDGE_CURVE('',#630,#631,#727,.T.);
#470=EDGE_CURVE('',#631,#612,#728,.T.);
#471=EDGE_CURVE('',#632,#633,#729,.T.);
#472=EDGE_CURVE('',#633,#634,#730,.T.);
#473=EDGE_CURVE('',#634,#611,#731,.T.);
#474=EDGE_CURVE('',#635,#617,#732,.T.);
#475=EDGE_CURVE('',#635,#636,#733,.T.);
#476=EDGE_CURVE('',#637,#636,#734,.T.);
#477=EDGE_CURVE('',#632,#637,#735,.T.);
#478=EDGE_CURVE('',#638,#639,#736,.T.);
#479=EDGE_CURVE('',#640,#638,#737,.T.);
#480=EDGE_CURVE('',#640,#641,#738,.T.);
#481=EDGE_CURVE('',#641,#639,#739,.T.);
#482=EDGE_CURVE('',#638,#642,#56,.T.);
#483=EDGE_CURVE('',#643,#642,#740,.T.);
#484=EDGE_CURVE('',#640,#643,#57,.T.);
#485=EDGE_CURVE('',#644,#642,#58,.T.);
#486=EDGE_CURVE('',#591,#644,#741,.T.);
#487=EDGE_CURVE('',#590,#645,#742,.T.);
#488=EDGE_CURVE('',#646,#645,#59,.T.);
#489=EDGE_CURVE('',#647,#646,#743,.T.);
#490=EDGE_CURVE('',#647,#643,#744,.T.);
#491=EDGE_CURVE('',#645,#648,#60,.T.);
#492=EDGE_CURVE('',#649,#648,#745,.T.);
#493=EDGE_CURVE('',#647,#649,#61,.T.);
#494=EDGE_CURVE('',#648,#650,#746,.T.);
#495=EDGE_CURVE('',#651,#650,#747,.T.);
#496=EDGE_CURVE('',#649,#651,#748,.T.);
#497=EDGE_CURVE('',#650,#652,#62,.T.);
#498=EDGE_CURVE('',#652,#653,#63,.T.);
#499=EDGE_CURVE('',#654,#653,#749,.T.);
#500=EDGE_CURVE('',#651,#654,#64,.T.);
#501=EDGE_CURVE('',#586,#652,#750,.T.);
#502=EDGE_CURVE('',#587,#655,#751,.T.);
#503=EDGE_CURVE('',#656,#655,#65,.T.);
#504=EDGE_CURVE('',#657,#656,#752,.T.);
#505=EDGE_CURVE('',#654,#657,#753,.T.);
#506=EDGE_CURVE('',#658,#636,#66,.T.);
#507=EDGE_CURVE('',#659,#658,#754,.T.);
#508=EDGE_CURVE('',#659,#637,#67,.T.);
#509=EDGE_CURVE('',#660,#615,#755,.T.);
#510=EDGE_CURVE('',#661,#660,#756,.T.);
#511=EDGE_CURVE('',#662,#661,#757,.T.);
#512=EDGE_CURVE('',#662,#659,#758,.T.);
#513=EDGE_CURVE('',#663,#658,#759,.T.);
#514=EDGE_CURVE('',#663,#616,#760,.T.);
#515=EDGE_CURVE('',#664,#661,#68,.T.);
#516=EDGE_CURVE('',#665,#664,#761,.T.);
#517=EDGE_CURVE('',#665,#662,#69,.T.);
#518=EDGE_CURVE('',#666,#664,#762,.T.);
#519=EDGE_CURVE('',#666,#614,#763,.T.);
#520=EDGE_CURVE('',#667,#613,#764,.T.);
#521=EDGE_CURVE('',#668,#667,#765,.T.);
#522=EDGE_CURVE('',#669,#668,#766,.T.);
#523=EDGE_CURVE('',#669,#665,#767,.T.);
#524=EDGE_CURVE('',#630,#668,#70,.T.);
#525=EDGE_CURVE('',#629,#669,#71,.T.);
#526=EDGE_CURVE('',#633,#627,#72,.T.);
#527=EDGE_CURVE('',#632,#628,#73,.T.);
#528=EDGE_CURVE('',#656,#639,#74,.T.);
#529=EDGE_CURVE('',#657,#641,#75,.T.);
#530=EDGE_CURVE('',#670,#656,#76,.T.);
#531=EDGE_CURVE('',#670,#671,#768,.T.);
#532=EDGE_CURVE('',#642,#671,#77,.T.);
#533=EDGE_CURVE('',#593,#670,#769,.T.);
#534=EDGE_CURVE('',#592,#671,#770,.T.);
#535=EDGE_CURVE('',#672,#645,#78,.T.);
#536=EDGE_CURVE('',#589,#672,#771,.T.);
#537=EDGE_CURVE('',#673,#672,#772,.T.);
#538=EDGE_CURVE('',#588,#673,#773,.T.);
#539=EDGE_CURVE('',#652,#673,#79,.T.);
#540=EDGE_CURVE('',#674,#594,#774,.T.);
#541=EDGE_CURVE('',#674,#675,#775,.T.);
#542=EDGE_CURVE('',#675,#596,#776,.T.);
#543=EDGE_CURVE('',#676,#595,#777,.T.);
#544=EDGE_CURVE('',#674,#676,#778,.T.);
#545=EDGE_CURVE('',#677,#597,#779,.T.);
#546=EDGE_CURVE('',#676,#677,#780,.T.);
#547=EDGE_CURVE('',#675,#677,#781,.T.);
#548=EDGE_CURVE('',#678,#607,#782,.T.);
#549=EDGE_CURVE('',#678,#679,#783,.T.);
#550=EDGE_CURVE('',#679,#608,#784,.T.);
#551=EDGE_CURVE('',#680,#606,#785,.T.);
#552=EDGE_CURVE('',#680,#678,#786,.T.);
#553=EDGE_CURVE('',#681,#609,#787,.T.);
#554=EDGE_CURVE('',#680,#681,#788,.T.);
#555=EDGE_CURVE('',#681,#679,#789,.T.);
#556=EDGE_CURVE('',#682,#683,#80,.T.);
#557=EDGE_CURVE('',#684,#682,#790,.T.);
#558=EDGE_CURVE('',#684,#685,#81,.T.);
#559=EDGE_CURVE('',#685,#683,#791,.T.);
#560=EDGE_CURVE('',#686,#686,#82,.T.);
#561=EDGE_CURVE('',#687,#687,#83,.T.);
#562=EDGE_CURVE('',#683,#682,#84,.T.);
#563=EDGE_CURVE('',#685,#684,#85,.T.);
#564=EDGE_CURVE('',#688,#688,#86,.T.);
#565=EDGE_CURVE('',#689,#689,#87,.T.);
#566=EDGE_CURVE('',#635,#663,#88,.T.);
#567=EDGE_CURVE('',#690,#690,#89,.T.);
#568=EDGE_CURVE('',#626,#634,#90,.T.);
#569=EDGE_CURVE('',#691,#691,#91,.T.);
#570=EDGE_CURVE('',#667,#631,#92,.T.);
#571=EDGE_CURVE('',#692,#692,#93,.T.);
#572=EDGE_CURVE('',#660,#666,#94,.T.);
#573=EDGE_CURVE('',#693,#693,#95,.T.);
#574=EDGE_CURVE('',#694,#694,#96,.T.);
#575=EDGE_CURVE('',#695,#695,#97,.T.);
#576=EDGE_CURVE('',#696,#696,#98,.T.);
#577=EDGE_CURVE('',#697,#697,#99,.T.);
#578=EDGE_CURVE('',#619,#600,#792,.T.);
#579=EDGE_CURVE('',#618,#598,#793,.T.);
#580=EDGE_CURVE('',#620,#599,#794,.T.);
#581=EDGE_CURVE('',#621,#605,#795,.T.);
#582=EDGE_CURVE('',#622,#604,#796,.T.);
#583=EDGE_CURVE('',#623,#603,#797,.T.);
#584=EDGE_CURVE('',#624,#602,#798,.T.);
#585=EDGE_CURVE('',#625,#601,#799,.T.);
#586=VERTEX_POINT('',#1671);
#587=VERTEX_POINT('',#1672);
#588=VERTEX_POINT('',#1674);
#589=VERTEX_POINT('',#1676);
#590=VERTEX_POINT('',#1678);
#591=VERTEX_POINT('',#1680);
#592=VERTEX_POINT('',#1682);
#593=VERTEX_POINT('',#1684);
#594=VERTEX_POINT('',#1687);
#595=VERTEX_POINT('',#1688);
#596=VERTEX_POINT('',#1690);
#597=VERTEX_POINT('',#1692);
#598=VERTEX_POINT('',#1695);
#599=VERTEX_POINT('',#1696);
#600=VERTEX_POINT('',#1698);
#601=VERTEX_POINT('',#1700);
#602=VERTEX_POINT('',#1702);
#603=VERTEX_POINT('',#1704);
#604=VERTEX_POINT('',#1706);
#605=VERTEX_POINT('',#1708);
#606=VERTEX_POINT('',#1712);
#607=VERTEX_POINT('',#1713);
#608=VERTEX_POINT('',#1715);
#609=VERTEX_POINT('',#1717);
#610=VERTEX_POINT('',#1720);
#611=VERTEX_POINT('',#1721);
#612=VERTEX_POINT('',#1723);
#613=VERTEX_POINT('',#1725);
#614=VERTEX_POINT('',#1727);
#615=VERTEX_POINT('',#1729);
#616=VERTEX_POINT('',#1731);
#617=VERTEX_POINT('',#1733);
#618=VERTEX_POINT('',#1736);
#619=VERTEX_POINT('',#1737);
#620=VERTEX_POINT('',#1739);
#621=VERTEX_POINT('',#1741);
#622=VERTEX_POINT('',#1743);
#623=VERTEX_POINT('',#1745);
#624=VERTEX_POINT('',#1747);
#625=VERTEX_POINT('',#1749);
#626=VERTEX_POINT('',#1753);
#627=VERTEX_POINT('',#1755);
#628=VERTEX_POINT('',#1757);
#629=VERTEX_POINT('',#1759);
#630=VERTEX_POINT('',#1761);
#631=VERTEX_POINT('',#1763);
#632=VERTEX_POINT('',#1767);
#633=VERTEX_POINT('',#1768);
#634=VERTEX_POINT('',#1770);
#635=VERTEX_POINT('',#1773);
#636=VERTEX_POINT('',#1775);
#637=VERTEX_POINT('',#1777);
#638=VERTEX_POINT('',#1781);
#639=VERTEX_POINT('',#1782);
#640=VERTEX_POINT('',#1784);
#641=VERTEX_POINT('',#1786);
#642=VERTEX_POINT('',#1790);
#643=VERTEX_POINT('',#1792);
#644=VERTEX_POINT('',#1796);
#645=VERTEX_POINT('',#1799);
#646=VERTEX_POINT('',#1801);
#647=VERTEX_POINT('',#1803);
#648=VERTEX_POINT('',#1807);
#649=VERTEX_POINT('',#1809);
#650=VERTEX_POINT('',#1813);
#651=VERTEX_POINT('',#1815);
#652=VERTEX_POINT('',#1819);
#653=VERTEX_POINT('',#1821);
#654=VERTEX_POINT('',#1823);
#655=VERTEX_POINT('',#1828);
#656=VERTEX_POINT('',#1830);
#657=VERTEX_POINT('',#1832);
#658=VERTEX_POINT('',#1836);
#659=VERTEX_POINT('',#1838);
#660=VERTEX_POINT('',#1842);
#661=VERTEX_POINT('',#1844);
#662=VERTEX_POINT('',#1846);
#663=VERTEX_POINT('',#1849);
#664=VERTEX_POINT('',#1853);
#665=VERTEX_POINT('',#1855);
#666=VERTEX_POINT('',#1859);
#667=VERTEX_POINT('',#1862);
#668=VERTEX_POINT('',#1864);
#669=VERTEX_POINT('',#1866);
#670=VERTEX_POINT('',#1880);
#671=VERTEX_POINT('',#1882);
#672=VERTEX_POINT('',#1891);
#673=VERTEX_POINT('',#1895);
#674=VERTEX_POINT('',#1902);
#675=VERTEX_POINT('',#1904);
#676=VERTEX_POINT('',#1908);
#677=VERTEX_POINT('',#1912);
#678=VERTEX_POINT('',#1918);
#679=VERTEX_POINT('',#1920);
#680=VERTEX_POINT('',#1924);
#681=VERTEX_POINT('',#1928);
#682=VERTEX_POINT('',#1934);
#683=VERTEX_POINT('',#1935);
#684=VERTEX_POINT('',#1937);
#685=VERTEX_POINT('',#1939);
#686=VERTEX_POINT('',#1943);
#687=VERTEX_POINT('',#1945);
#688=VERTEX_POINT('',#1951);
#689=VERTEX_POINT('',#1953);
#690=VERTEX_POINT('',#1960);
#691=VERTEX_POINT('',#1965);
#692=VERTEX_POINT('',#1970);
#693=VERTEX_POINT('',#1975);
#694=VERTEX_POINT('',#1978);
#695=VERTEX_POINT('',#1982);
#696=VERTEX_POINT('',#1986);
#697=VERTEX_POINT('',#1990);
#698=LINE('',#1670,#800);
#699=LINE('',#1675,#801);
#700=LINE('',#1679,#802);
#701=LINE('',#1683,#803);
#702=LINE('',#1686,#804);
#703=LINE('',#1689,#805);
#704=LINE('',#1691,#806);
#705=LINE('',#1693,#807);
#706=LINE('',#1697,#808);
#707=LINE('',#1701,#809);
#708=LINE('',#1705,#810);
#709=LINE('',#1709,#811);
#710=LINE('',#1711,#812);
#711=LINE('',#1714,#813);
#712=LINE('',#1716,#814);
#713=LINE('',#1718,#815);
#714=LINE('',#1722,#816);
#715=LINE('',#1726,#817);
#716=LINE('',#1730,#818);
#717=LINE('',#1734,#819);
#718=LINE('',#1735,#820);
#719=LINE('',#1740,#821);
#720=LINE('',#1744,#822);
#721=LINE('',#1748,#823);
#722=LINE('',#1752,#824);
#723=LINE('',#1754,#825);
#724=LINE('',#1756,#826);
#725=LINE('',#1758,#827);
#726=LINE('',#1760,#828);
#727=LINE('',#1762,#829);
#728=LINE('',#1764,#830);
#729=LINE('',#1766,#831);
#730=LINE('',#1769,#832);
#731=LINE('',#1771,#833);
#732=LINE('',#1772,#834);
#733=LINE('',#1774,#835);
#734=LINE('',#1776,#836);
#735=LINE('',#1778,#837);
#736=LINE('',#1780,#838);
#737=LINE('',#1783,#839);
#738=LINE('',#1785,#840);
#739=LINE('',#1787,#841);
#740=LINE('',#1791,#842);
#741=LINE('',#1797,#843);
#742=LINE('',#1798,#844);
#743=LINE('',#1802,#845);
#744=LINE('',#1804,#846);
#745=LINE('',#1808,#847);
#746=LINE('',#1812,#848);
#747=LINE('',#1814,#849);
#748=LINE('',#1816,#850);
#749=LINE('',#1822,#851);
#750=LINE('',#1826,#852);
#751=LINE('',#1827,#853);
#752=LINE('',#1831,#854);
#753=LINE('',#1833,#855);
#754=LINE('',#1837,#856);
#755=LINE('',#1841,#857);
#756=LINE('',#1843,#858);
#757=LINE('',#1845,#859);
#758=LINE('',#1847,#860);
#759=LINE('',#1848,#861);
#760=LINE('',#1850,#862);
#761=LINE('',#1854,#863);
#762=LINE('',#1858,#864);
#763=LINE('',#1860,#865);
#764=LINE('',#1861,#866);
#765=LINE('',#1863,#867);
#766=LINE('',#1865,#868);
#767=LINE('',#1867,#869);
#768=LINE('',#1881,#870);
#769=LINE('',#1885,#871);
#770=LINE('',#1887,#872);
#771=LINE('',#1892,#873);
#772=LINE('',#1894,#874);
#773=LINE('',#1896,#875);
#774=LINE('',#1901,#876);
#775=LINE('',#1903,#877);
#776=LINE('',#1905,#878);
#777=LINE('',#1907,#879);
#778=LINE('',#1909,#880);
#779=LINE('',#1911,#881);
#780=LINE('',#1913,#882);
#781=LINE('',#1915,#883);
#782=LINE('',#1917,#884);
#783=LINE('',#1919,#885);
#784=LINE('',#1921,#886);
#785=LINE('',#1923,#887);
#786=LINE('',#1925,#888);
#787=LINE('',#1927,#889);
#788=LINE('',#1929,#890);
#789=LINE('',#1931,#891);
#790=LINE('',#1936,#892);
#791=LINE('',#1940,#893);
#792=LINE('',#1993,#894);
#793=LINE('',#1994,#895);
#794=LINE('',#1996,#896);
#795=LINE('',#1998,#897);
#796=LINE('',#2000,#898);
#797=LINE('',#2002,#899);
#798=LINE('',#2004,#900);
#799=LINE('',#2006,#901);
#800=VECTOR('',#1318,1.);
#801=VECTOR('',#1321,1.);
#802=VECTOR('',#1324,1.);
#803=VECTOR('',#1327,1.);
#804=VECTOR('',#1330,1.);
#805=VECTOR('',#1331,1.);
#806=VECTOR('',#1332,1.);
#807=VECTOR('',#1333,1.);
#808=VECTOR('',#1336,1.);
#809=VECTOR('',#1339,1.);
#810=VECTOR('',#1342,1.);
#811=VECTOR('',#1345,1.);
#812=VECTOR('',#1348,1.);
#813=VECTOR('',#1349,1.);
#814=VECTOR('',#1350,1.);
#815=VECTOR('',#1351,1.);
#816=VECTOR('',#1354,1.);
#817=VECTOR('',#1357,1.);
#818=VECTOR('',#1360,1.);
#819=VECTOR('',#1363,1.);
#820=VECTOR('',#1364,1.);
#821=VECTOR('',#1367,1.);
#822=VECTOR('',#1370,1.);
#823=VECTOR('',#1373,1.);
#824=VECTOR('',#1378,1.);
#825=VECTOR('',#1379,1.);
#826=VECTOR('',#1380,1.);
#827=VECTOR('',#1381,1.);
#828=VECTOR('',#1382,1.);
#829=VECTOR('',#1383,1.);
#830=VECTOR('',#1384,1.);
#831=VECTOR('',#1387,1.);
#832=VECTOR('',#1388,1.);
#833=VECTOR('',#1389,1.);
#834=VECTOR('',#1390,1.);
#835=VECTOR('',#1391,1.);
#836=VECTOR('',#1392,1.);
#837=VECTOR('',#1393,1.);
#838=VECTOR('',#1396,1.);
#839=VECTOR('',#1397,1.);
#840=VECTOR('',#1398,1.);
#841=VECTOR('',#1399,1.);
#842=VECTOR('',#1404,1.);
#843=VECTOR('',#1411,1.);
#844=VECTOR('',#1412,1.);
#845=VECTOR('',#1415,1.);
#846=VECTOR('',#1416,1.);
#847=VECTOR('',#1421,1.);
#848=VECTOR('',#1426,1.);
#849=VECTOR('',#1427,1.);
#850=VECTOR('',#1428,1.);
#851=VECTOR('',#1435,1.);
#852=VECTOR('',#1440,1.);
#853=VECTOR('',#1441,1.);
#854=VECTOR('',#1444,1.);
#855=VECTOR('',#1445,1.);
#856=VECTOR('',#1450,1.);
#857=VECTOR('',#1455,1.);
#858=VECTOR('',#1456,1.);
#859=VECTOR('',#1457,1.);
#860=VECTOR('',#1458,1.);
#861=VECTOR('',#1459,1.);
#862=VECTOR('',#1460,1.);
#863=VECTOR('',#1465,1.);
#864=VECTOR('',#1470,1.);
#865=VECTOR('',#1471,1.);
#866=VECTOR('',#1472,1.);
#867=VECTOR('',#1473,1.);
#868=VECTOR('',#1474,1.);
#869=VECTOR('',#1475,1.);
#870=VECTOR('',#1500,1.);
#871=VECTOR('',#1505,1.);
#872=VECTOR('',#1508,1.);
#873=VECTOR('',#1515,1.);
#874=VECTOR('',#1518,1.);
#875=VECTOR('',#1519,1.);
#876=VECTOR('',#1528,1.);
#877=VECTOR('',#1529,1.);
#878=VECTOR('',#1530,1.);
#879=VECTOR('',#1533,1.);
#880=VECTOR('',#1534,1.);
#881=VECTOR('',#1537,1.);
#882=VECTOR('',#1538,1.);
#883=VECTOR('',#1541,1.);
#884=VECTOR('',#1544,1.);
#885=VECTOR('',#1545,1.);
#886=VECTOR('',#1546,1.);
#887=VECTOR('',#1549,1.);
#888=VECTOR('',#1550,1.);
#889=VECTOR('',#1553,1.);
#890=VECTOR('',#1554,1.);
#891=VECTOR('',#1557,1.);
#892=VECTOR('',#1562,1.);
#893=VECTOR('',#1565,1.);
#894=VECTOR('',#1646,1.);
#895=VECTOR('',#1647,1.);
#896=VECTOR('',#1650,1.);
#897=VECTOR('',#1653,1.);
#898=VECTOR('',#1656,1.);
#899=VECTOR('',#1659,1.);
#900=VECTOR('',#1662,1.);
#901=VECTOR('',#1665,1.);
#902=EDGE_LOOP('',(#100,#101,#102,#103,#104,#105,#106,#107));
#903=EDGE_LOOP('',(#108,#109,#110,#111));
#904=EDGE_LOOP('',(#112,#113,#114,#115,#116,#117,#118,#119));
#905=EDGE_LOOP('',(#120,#121,#122,#123));
#906=EDGE_LOOP('',(#124,#125,#126,#127,#128,#129,#130,#131));
#907=EDGE_LOOP('',(#132,#133,#134,#135,#136,#137,#138,#139));
#908=EDGE_LOOP('',(#140,#141,#142,#143,#144,#145,#146,#147));
#909=EDGE_LOOP('',(#148,#149,#150,#151,#152,#153,#154,#155));
#910=EDGE_LOOP('',(#156,#157,#158,#159));
#911=EDGE_LOOP('',(#160,#161,#162,#163));
#912=EDGE_LOOP('',(#164,#165,#166,#167,#168,#169,#170,#171));
#913=EDGE_LOOP('',(#172,#173,#174,#175,#176));
#914=EDGE_LOOP('',(#177,#178,#179,#180));
#915=EDGE_LOOP('',(#181,#182,#183,#184,#185));
#916=EDGE_LOOP('',(#186,#187,#188,#189,#190,#191,#192,#193));
#917=EDGE_LOOP('',(#194,#195,#196,#197));
#918=EDGE_LOOP('',(#198,#199,#200,#201,#202,#203,#204,#205));
#919=EDGE_LOOP('',(#206,#207,#208,#209));
#920=EDGE_LOOP('',(#210,#211,#212,#213,#214,#215,#216,#217));
#921=EDGE_LOOP('',(#218,#219,#220,#221));
#922=EDGE_LOOP('',(#222,#223,#224,#225));
#923=EDGE_LOOP('',(#226,#227,#228,#229));
#924=EDGE_LOOP('',(#230,#231,#232,#233,#234,#235,#236,#237));
#925=EDGE_LOOP('',(#238,#239,#240,#241,#242,#243,#244,#245));
#926=EDGE_LOOP('',(#246,#247,#248,#249,#250,#251));
#927=EDGE_LOOP('',(#252,#253,#254,#255,#256));
#928=EDGE_LOOP('',(#257,#258,#259,#260));
#929=EDGE_LOOP('',(#261,#262,#263,#264,#265));
#930=EDGE_LOOP('',(#266,#267,#268,#269));
#931=EDGE_LOOP('',(#270,#271,#272,#273));
#932=EDGE_LOOP('',(#274,#275,#276,#277));
#933=EDGE_LOOP('',(#278,#279,#280,#281,#282,#283));
#934=EDGE_LOOP('',(#284,#285,#286,#287));
#935=EDGE_LOOP('',(#288,#289,#290,#291));
#936=EDGE_LOOP('',(#292,#293,#294,#295));
#937=EDGE_LOOP('',(#296,#297,#298,#299));
#938=EDGE_LOOP('',(#300,#301,#302,#303));
#939=EDGE_LOOP('',(#304,#305,#306,#307));
#940=EDGE_LOOP('',(#308,#309,#310,#311));
#941=EDGE_LOOP('',(#312,#313,#314,#315));
#942=EDGE_LOOP('',(#316,#317,#318,#319));
#943=EDGE_LOOP('',(#320));
#944=EDGE_LOOP('',(#321));
#945=EDGE_LOOP('',(#322,#323,#324,#325));
#946=EDGE_LOOP('',(#326));
#947=EDGE_LOOP('',(#327));
#948=EDGE_LOOP('',(#328,#329,#330,#331));
#949=EDGE_LOOP('',(#332,#333));
#950=EDGE_LOOP('',(#334));
#951=EDGE_LOOP('',(#335));
#952=EDGE_LOOP('',(#336,#337,#338,#339));
#953=EDGE_LOOP('',(#340,#341));
#954=EDGE_LOOP('',(#342));
#955=EDGE_LOOP('',(#343));
#956=EDGE_LOOP('',(#344,#345,#346,#347));
#957=EDGE_LOOP('',(#348));
#958=EDGE_LOOP('',(#349,#350,#351,#352));
#959=EDGE_LOOP('',(#353,#354,#355,#356));
#960=EDGE_LOOP('',(#357));
#961=EDGE_LOOP('',(#358,#359,#360,#361));
#962=EDGE_LOOP('',(#362,#363,#364,#365));
#963=EDGE_LOOP('',(#366));
#964=EDGE_LOOP('',(#367,#368,#369,#370));
#965=EDGE_LOOP('',(#371,#372,#373,#374));
#966=EDGE_LOOP('',(#375));
#967=EDGE_LOOP('',(#376,#377,#378,#379));
#968=EDGE_LOOP('',(#380));
#969=EDGE_LOOP('',(#381));
#970=EDGE_LOOP('',(#382));
#971=EDGE_LOOP('',(#383));
#972=EDGE_LOOP('',(#384));
#973=EDGE_LOOP('',(#385));
#974=EDGE_LOOP('',(#386));
#975=EDGE_LOOP('',(#387));
#976=EDGE_LOOP('',(#388));
#977=EDGE_LOOP('',(#389));
#978=EDGE_LOOP('',(#390));
#979=EDGE_LOOP('',(#391));
#980=EDGE_LOOP('',(#392,#393,#394,#395));
#981=EDGE_LOOP('',(#396,#397,#398,#399));
#982=EDGE_LOOP('',(#400,#401,#402,#403));
#983=EDGE_LOOP('',(#404,#405,#406,#407));
#984=EDGE_LOOP('',(#408,#409,#410,#411));
#985=EDGE_LOOP('',(#412,#413,#414,#415));
#986=EDGE_LOOP('',(#416,#417,#418,#419));
#987=EDGE_LOOP('',(#420,#421,#422,#423));
#988=FACE_BOUND('',#902,.T.);
#989=FACE_BOUND('',#903,.T.);
#990=FACE_BOUND('',#904,.T.);
#991=FACE_BOUND('',#905,.T.);
#992=FACE_BOUND('',#906,.T.);
#993=FACE_BOUND('',#907,.T.);
#994=FACE_BOUND('',#908,.T.);
#995=FACE_BOUND('',#909,.T.);
#996=FACE_BOUND('',#910,.T.);
#997=FACE_BOUND('',#911,.T.);
#998=FACE_BOUND('',#912,.T.);
#999=FACE_BOUND('',#913,.T.);
#1000=FACE_BOUND('',#914,.T.);
#1001=FACE_BOUND('',#915,.T.);
#1002=FACE_BOUND('',#916,.T.);
#1003=FACE_BOUND('',#917,.T.);
#1004=FACE_BOUND('',#918,.T.);
#1005=FACE_BOUND('',#919,.T.);
#1006=FACE_BOUND('',#920,.T.);
#1007=FACE_BOUND('',#921,.T.);
#1008=FACE_BOUND('',#922,.T.);
#1009=FACE_BOUND('',#923,.T.);
#1010=FACE_BOUND('',#924,.T.);
#1011=FACE_BOUND('',#925,.T.);
#1012=FACE_BOUND('',#926,.T.);
#1013=FACE_BOUND('',#927,.T.);
#1014=FACE_BOUND('',#928,.T.);
#1015=FACE_BOUND('',#929,.T.);
#1016=FACE_BOUND('',#930,.T.);
#1017=FACE_BOUND('',#931,.T.);
#1018=FACE_BOUND('',#932,.T.);
#1019=FACE_BOUND('',#933,.T.);
#1020=FACE_BOUND('',#934,.T.);
#1021=FACE_BOUND('',#935,.T.);
#1022=FACE_BOUND('',#936,.T.);
#1023=FACE_BOUND('',#937,.T.);
#1024=FACE_BOUND('',#938,.T.);
#1025=FACE_BOUND('',#939,.T.);
#1026=FACE_BOUND('',#940,.T.);
#1027=FACE_BOUND('',#941,.T.);
#1028=FACE_BOUND('',#942,.T.);
#1029=FACE_BOUND('',#943,.T.);
#1030=FACE_BOUND('',#944,.T.);
#1031=FACE_BOUND('',#945,.T.);
#1032=FACE_BOUND('',#946,.T.);
#1033=FACE_BOUND('',#947,.T.);
#1034=FACE_BOUND('',#948,.T.);
#1035=FACE_BOUND('',#949,.T.);
#1036=FACE_BOUND('',#950,.T.);
#1037=FACE_BOUND('',#951,.T.);
#1038=FACE_BOUND('',#952,.T.);
#1039=FACE_BOUND('',#953,.T.);
#1040=FACE_BOUND('',#954,.T.);
#1041=FACE_BOUND('',#955,.T.);
#1042=FACE_BOUND('',#956,.T.);
#1043=FACE_BOUND('',#957,.T.);
#1044=FACE_BOUND('',#958,.T.);
#1045=FACE_BOUND('',#959,.T.);
#1046=FACE_BOUND('',#960,.T.);
#1047=FACE_BOUND('',#961,.T.);
#1048=FACE_BOUND('',#962,.T.);
#1049=FACE_BOUND('',#963,.T.);
#1050=FACE_BOUND('',#964,.T.);
#1051=FACE_BOUND('',#965,.T.);
#1052=FACE_BOUND('',#966,.T.);
#1053=FACE_BOUND('',#967,.T.);
#1054=FACE_BOUND('',#968,.T.);
#1055=FACE_BOUND('',#969,.T.);
#1056=FACE_BOUND('',#970,.T.);
#1057=FACE_BOUND('',#971,.T.);
#1058=FACE_BOUND('',#972,.T.);
#1059=FACE_BOUND('',#973,.T.);
#1060=FACE_BOUND('',#974,.T.);
#1061=FACE_BOUND('',#975,.T.);
#1062=FACE_BOUND('',#976,.T.);
#1063=FACE_BOUND('',#977,.T.);
#1064=FACE_BOUND('',#978,.T.);
#1065=FACE_BOUND('',#979,.T.);
#1066=FACE_BOUND('',#980,.T.);
#1067=FACE_BOUND('',#981,.T.);
#1068=FACE_BOUND('',#982,.T.);
#1069=FACE_BOUND('',#983,.T.);
#1070=FACE_BOUND('',#984,.T.);
#1071=FACE_BOUND('',#985,.T.);
#1072=FACE_BOUND('',#986,.T.);
#1073=FACE_BOUND('',#987,.T.);
#1074=PLANE('',#1189);
#1075=PLANE('',#1198);
#1076=PLANE('',#1207);
#1077=PLANE('',#1208);
#1078=PLANE('',#1209);
#1079=PLANE('',#1213);
#1080=PLANE('',#1219);
#1081=PLANE('',#1224);
#1082=PLANE('',#1229);
#1083=PLANE('',#1233);
#1084=PLANE('',#1243);
#1085=PLANE('',#1244);
#1086=PLANE('',#1248);
#1087=PLANE('',#1252);
#1088=PLANE('',#1255);
#1089=PLANE('',#1256);
#1090=PLANE('',#1257);
#1091=PLANE('',#1258);
#1092=PLANE('',#1259);
#1093=PLANE('',#1260);
#1094=PLANE('',#1261);
#1095=PLANE('',#1262);
#1096=PLANE('',#1263);
#1097=PLANE('',#1276);
#1098=PLANE('',#1277);
#1099=PLANE('',#1280);
#1100=PLANE('',#1284);
#1101=PLANE('',#1288);
#1102=PLANE('',#1292);
#1103=PLANE('',#1296);
#1104=PLANE('',#1299);
#1105=PLANE('',#1302);
#1106=PLANE('',#1305);
#1107=PLANE('',#1306);
#1108=PLANE('',#1308);
#1109=PLANE('',#1310);
#1110=PLANE('',#1312);
#1111=ADVANCED_FACE('',(#988,#989,#990),#1074,.T.);
#1112=ADVANCED_FACE('',(#991,#992,#993),#1075,.F.);
#1113=ADVANCED_FACE('',(#994),#1076,.F.);
#1114=ADVANCED_FACE('',(#995),#1077,.F.);
#1115=ADVANCED_FACE('',(#996),#1078,.T.);
#1116=ADVANCED_FACE('',(#997),#12,.T.);
#1117=ADVANCED_FACE('',(#998),#1079,.T.);
#1118=ADVANCED_FACE('',(#999),#13,.T.);
#1119=ADVANCED_FACE('',(#1000),#1080,.F.);
#1120=ADVANCED_FACE('',(#1001),#14,.T.);
#1121=ADVANCED_FACE('',(#1002),#1081,.F.);
#1122=ADVANCED_FACE('',(#1003),#15,.F.);
#1123=ADVANCED_FACE('',(#1004),#1082,.T.);
#1124=ADVANCED_FACE('',(#1005),#16,.F.);
#1125=ADVANCED_FACE('',(#1006),#1083,.T.);
#1126=ADVANCED_FACE('',(#1007),#17,.F.);
#1127=ADVANCED_FACE('',(#1008),#18,.F.);
#1128=ADVANCED_FACE('',(#1009),#19,.T.);
#1129=ADVANCED_FACE('',(#1010,#1011),#1084,.T.);
#1130=ADVANCED_FACE('',(#1012),#1085,.F.);
#1131=ADVANCED_FACE('',(#1013),#20,.T.);
#1132=ADVANCED_FACE('',(#1014),#1086,.T.);
#1133=ADVANCED_FACE('',(#1015),#21,.T.);
#1134=ADVANCED_FACE('',(#1016),#22,.T.);
#1135=ADVANCED_FACE('',(#1017),#1087,.F.);
#1136=ADVANCED_FACE('',(#1018),#23,.T.);
#1137=ADVANCED_FACE('',(#1019),#1088,.F.);
#1138=ADVANCED_FACE('',(#1020),#1089,.T.);
#1139=ADVANCED_FACE('',(#1021),#1090,.F.);
#1140=ADVANCED_FACE('',(#1022),#1091,.F.);
#1141=ADVANCED_FACE('',(#1023),#1092,.T.);
#1142=ADVANCED_FACE('',(#1024),#1093,.T.);
#1143=ADVANCED_FACE('',(#1025),#1094,.T.);
#1144=ADVANCED_FACE('',(#1026),#1095,.F.);
#1145=ADVANCED_FACE('',(#1027),#1096,.F.);
#1146=ADVANCED_FACE('',(#1028),#24,.F.);
#1147=ADVANCED_FACE('',(#1029,#1030),#25,.F.);
#1148=ADVANCED_FACE('',(#1031),#26,.F.);
#1149=ADVANCED_FACE('',(#1032,#1033),#27,.F.);
#1150=ADVANCED_FACE('',(#1034,#1035,#1036,#1037),#1097,.T.);
#1151=ADVANCED_FACE('',(#1038,#1039,#1040,#1041),#1098,.F.);
#1152=ADVANCED_FACE('',(#1042),#28,.T.);
#1153=ADVANCED_FACE('',(#1043,#1044),#1099,.T.);
#1154=ADVANCED_FACE('',(#1045),#29,.T.);
#1155=ADVANCED_FACE('',(#1046,#1047),#1100,.T.);
#1156=ADVANCED_FACE('',(#1048),#30,.T.);
#1157=ADVANCED_FACE('',(#1049,#1050),#1101,.T.);
#1158=ADVANCED_FACE('',(#1051),#31,.T.);
#1159=ADVANCED_FACE('',(#1052,#1053),#1102,.T.);
#1160=ADVANCED_FACE('',(#1054,#1055),#32,.F.);
#1161=ADVANCED_FACE('',(#1056),#1103,.T.);
#1162=ADVANCED_FACE('',(#1057,#1058),#33,.F.);
#1163=ADVANCED_FACE('',(#1059),#1104,.T.);
#1164=ADVANCED_FACE('',(#1060,#1061),#34,.F.);
#1165=ADVANCED_FACE('',(#1062),#1105,.T.);
#1166=ADVANCED_FACE('',(#1063,#1064),#35,.F.);
#1167=ADVANCED_FACE('',(#1065),#1106,.T.);
#1168=ADVANCED_FACE('',(#1066),#1107,.T.);
#1169=ADVANCED_FACE('',(#1067),#36,.F.);
#1170=ADVANCED_FACE('',(#1068),#1108,.T.);
#1171=ADVANCED_FACE('',(#1069),#37,.F.);
#1172=ADVANCED_FACE('',(#1070),#1109,.F.);
#1173=ADVANCED_FACE('',(#1071),#38,.F.);
#1174=ADVANCED_FACE('',(#1072),#1110,.F.);
#1175=ADVANCED_FACE('',(#1073),#39,.F.);
#1176=CLOSED_SHELL('',(#1111,#1112,#1113,#1114,#1115,#1116,#1117,#1118,
#1119,#1120,#1121,#1122,#1123,#1124,#1125,#1126,#1127,#1128,#1129,#1130,
#1131,#1132,#1133,#1134,#1135,#1136,#1137,#1138,#1139,#1140,#1141,#1142,
#1143,#1144,#1145,#1146,#1147,#1148,#1149,#1150,#1151,#1152,#1153,#1154,
#1155,#1156,#1157,#1158,#1159,#1160,#1161,#1162,#1163,#1164,#1165,#1166,
#1167,#1168,#1169,#1170,#1171,#1172,#1173,#1174,#1175));
#1177=STYLED_ITEM('',(#1178),#1185);
#1178=PRESENTATION_STYLE_ASSIGNMENT((#1179));
#1179=SURFACE_STYLE_USAGE(.BOTH.,#1180);
#1180=SURFACE_SIDE_STYLE('',(#1181));
#1181=SURFACE_STYLE_FILL_AREA(#1182);
#1182=FILL_AREA_STYLE('',(#1183));
#1183=FILL_AREA_STYLE_COLOUR('',#1184);
#1184=COLOUR_RGB('',0.615686274509804,0.811764705882353,0.929411764705882);
#1185=MANIFOLD_SOLID_BREP('Part 1',#1176);
#1186=SHAPE_DEFINITION_REPRESENTATION(#2014,#1187);
#1187=SHAPE_REPRESENTATION('Part 1',(#1188),#2009);
#1188=AXIS2_PLACEMENT_3D('',#1668,#1314,#1315);
#1189=AXIS2_PLACEMENT_3D('',#1669,#1316,#1317);
#1190=AXIS2_PLACEMENT_3D('',#1673,#1319,#1320);
#1191=AXIS2_PLACEMENT_3D('',#1677,#1322,#1323);
#1192=AXIS2_PLACEMENT_3D('',#1681,#1325,#1326);
#1193=AXIS2_PLACEMENT_3D('',#1685,#1328,#1329);
#1194=AXIS2_PLACEMENT_3D('',#1694,#1334,#1335);
#1195=AXIS2_PLACEMENT_3D('',#1699,#1337,#1338);
#1196=AXIS2_PLACEMENT_3D('',#1703,#1340,#1341);
#1197=AXIS2_PLACEMENT_3D('',#1707,#1343,#1344);
#1198=AXIS2_PLACEMENT_3D('',#1710,#1346,#1347);
#1199=AXIS2_PLACEMENT_3D('',#1719,#1352,#1353);
#1200=AXIS2_PLACEMENT_3D('',#1724,#1355,#1356);
#1201=AXIS2_PLACEMENT_3D('',#1728,#1358,#1359);
#1202=AXIS2_PLACEMENT_3D('',#1732,#1361,#1362);
#1203=AXIS2_PLACEMENT_3D('',#1738,#1365,#1366);
#1204=AXIS2_PLACEMENT_3D('',#1742,#1368,#1369);
#1205=AXIS2_PLACEMENT_3D('',#1746,#1371,#1372);
#1206=AXIS2_PLACEMENT_3D('',#1750,#1374,#1375);
#1207=AXIS2_PLACEMENT_3D('',#1751,#1376,#1377);
#1208=AXIS2_PLACEMENT_3D('',#1765,#1385,#1386);
#1209=AXIS2_PLACEMENT_3D('',#1779,#1394,#1395);
#1210=AXIS2_PLACEMENT_3D('',#1788,#1400,#1401);
#1211=AXIS2_PLACEMENT_3D('',#1789,#1402,#1403);
#1212=AXIS2_PLACEMENT_3D('',#1793,#1405,#1406);
#1213=AXIS2_PLACEMENT_3D('',#1794,#1407,#1408);
#1214=AXIS2_PLACEMENT_3D('',#1795,#1409,#1410);
#1215=AXIS2_PLACEMENT_3D('',#1800,#1413,#1414);
#1216=AXIS2_PLACEMENT_3D('',#1805,#1417,#1418);
#1217=AXIS2_PLACEMENT_3D('',#1806,#1419,#1420);
#1218=AXIS2_PLACEMENT_3D('',#1810,#1422,#1423);
#1219=AXIS2_PLACEMENT_3D('',#1811,#1424,#1425);
#1220=AXIS2_PLACEMENT_3D('',#1817,#1429,#1430);
#1221=AXIS2_PLACEMENT_3D('',#1818,#1431,#1432);
#1222=AXIS2_PLACEMENT_3D('',#1820,#1433,#1434);
#1223=AXIS2_PLACEMENT_3D('',#1824,#1436,#1437);
#1224=AXIS2_PLACEMENT_3D('',#1825,#1438,#1439);
#1225=AXIS2_PLACEMENT_3D('',#1829,#1442,#1443);
#1226=AXIS2_PLACEMENT_3D('',#1834,#1446,#1447);
#1227=AXIS2_PLACEMENT_3D('',#1835,#1448,#1449);
#1228=AXIS2_PLACEMENT_3D('',#1839,#1451,#1452);
#1229=AXIS2_PLACEMENT_3D('',#1840,#1453,#1454);
#1230=AXIS2_PLACEMENT_3D('',#1851,#1461,#1462);
#1231=AXIS2_PLACEMENT_3D('',#1852,#1463,#1464);
#1232=AXIS2_PLACEMENT_3D('',#1856,#1466,#1467);
#1233=AXIS2_PLACEMENT_3D('',#1857,#1468,#1469);
#1234=AXIS2_PLACEMENT_3D('',#1868,#1476,#1477);
#1235=AXIS2_PLACEMENT_3D('',#1869,#1478,#1479);
#1236=AXIS2_PLACEMENT_3D('',#1870,#1480,#1481);
#1237=AXIS2_PLACEMENT_3D('',#1871,#1482,#1483);
#1238=AXIS2_PLACEMENT_3D('',#1872,#1484,#1485);
#1239=AXIS2_PLACEMENT_3D('',#1873,#1486,#1487);
#1240=AXIS2_PLACEMENT_3D('',#1874,#1488,#1489);
#1241=AXIS2_PLACEMENT_3D('',#1875,#1490,#1491);
#1242=AXIS2_PLACEMENT_3D('',#1876,#1492,#1493);
#1243=AXIS2_PLACEMENT_3D('',#1877,#1494,#1495);
#1244=AXIS2_PLACEMENT_3D('',#1878,#1496,#1497);
#1245=AXIS2_PLACEMENT_3D('',#1879,#1498,#1499);
#1246=AXIS2_PLACEMENT_3D('',#1883,#1501,#1502);
#1247=AXIS2_PLACEMENT_3D('',#1884,#1503,#1504);
#1248=AXIS2_PLACEMENT_3D('',#1886,#1506,#1507);
#1249=AXIS2_PLACEMENT_3D('',#1888,#1509,#1510);
#1250=AXIS2_PLACEMENT_3D('',#1889,#1511,#1512);
#1251=AXIS2_PLACEMENT_3D('',#1890,#1513,#1514);
#1252=AXIS2_PLACEMENT_3D('',#1893,#1516,#1517);
#1253=AXIS2_PLACEMENT_3D('',#1897,#1520,#1521);
#1254=AXIS2_PLACEMENT_3D('',#1898,#1522,#1523);
#1255=AXIS2_PLACEMENT_3D('',#1899,#1524,#1525);
#1256=AXIS2_PLACEMENT_3D('',#1900,#1526,#1527);
#1257=AXIS2_PLACEMENT_3D('',#1906,#1531,#1532);
#1258=AXIS2_PLACEMENT_3D('',#1910,#1535,#1536);
#1259=AXIS2_PLACEMENT_3D('',#1914,#1539,#1540);
#1260=AXIS2_PLACEMENT_3D('',#1916,#1542,#1543);
#1261=AXIS2_PLACEMENT_3D('',#1922,#1547,#1548);
#1262=AXIS2_PLACEMENT_3D('',#1926,#1551,#1552);
#1263=AXIS2_PLACEMENT_3D('',#1930,#1555,#1556);
#1264=AXIS2_PLACEMENT_3D('',#1932,#1558,#1559);
#1265=AXIS2_PLACEMENT_3D('',#1933,#1560,#1561);
#1266=AXIS2_PLACEMENT_3D('',#1938,#1563,#1564);
#1267=AXIS2_PLACEMENT_3D('',#1941,#1566,#1567);
#1268=AXIS2_PLACEMENT_3D('',#1942,#1568,#1569);
#1269=AXIS2_PLACEMENT_3D('',#1944,#1570,#1571);
#1270=AXIS2_PLACEMENT_3D('',#1946,#1572,#1573);
#1271=AXIS2_PLACEMENT_3D('',#1947,#1574,#1575);
#1272=AXIS2_PLACEMENT_3D('',#1948,#1576,#1577);
#1273=AXIS2_PLACEMENT_3D('',#1949,#1578,#1579);
#1274=AXIS2_PLACEMENT_3D('',#1950,#1580,#1581);
#1275=AXIS2_PLACEMENT_3D('',#1952,#1582,#1583);
#1276=AXIS2_PLACEMENT_3D('',#1954,#1584,#1585);
#1277=AXIS2_PLACEMENT_3D('',#1955,#1586,#1587);
#1278=AXIS2_PLACEMENT_3D('',#1956,#1588,#1589);
#1279=AXIS2_PLACEMENT_3D('',#1957,#1590,#1591);
#1280=AXIS2_PLACEMENT_3D('',#1958,#1592,#1593);
#1281=AXIS2_PLACEMENT_3D('',#1959,#1594,#1595);
#1282=AXIS2_PLACEMENT_3D('',#1961,#1596,#1597);
#1283=AXIS2_PLACEMENT_3D('',#1962,#1598,#1599);
#1284=AXIS2_PLACEMENT_3D('',#1963,#1600,#1601);
#1285=AXIS2_PLACEMENT_3D('',#1964,#1602,#1603);
#1286=AXIS2_PLACEMENT_3D('',#1966,#1604,#1605);
#1287=AXIS2_PLACEMENT_3D('',#1967,#1606,#1607);
#1288=AXIS2_PLACEMENT_3D('',#1968,#1608,#1609);
#1289=AXIS2_PLACEMENT_3D('',#1969,#1610,#1611);
#1290=AXIS2_PLACEMENT_3D('',#1971,#1612,#1613);
#1291=AXIS2_PLACEMENT_3D('',#1972,#1614,#1615);
#1292=AXIS2_PLACEMENT_3D('',#1973,#1616,#1617);
#1293=AXIS2_PLACEMENT_3D('',#1974,#1618,#1619);
#1294=AXIS2_PLACEMENT_3D('',#1976,#1620,#1621);
#1295=AXIS2_PLACEMENT_3D('',#1977,#1622,#1623);
#1296=AXIS2_PLACEMENT_3D('',#1979,#1624,#1625);
#1297=AXIS2_PLACEMENT_3D('',#1980,#1626,#1627);
#1298=AXIS2_PLACEMENT_3D('',#1981,#1628,#1629);
#1299=AXIS2_PLACEMENT_3D('',#1983,#1630,#1631);
#1300=AXIS2_PLACEMENT_3D('',#1984,#1632,#1633);
#1301=AXIS2_PLACEMENT_3D('',#1985,#1634,#1635);
#1302=AXIS2_PLACEMENT_3D('',#1987,#1636,#1637);
#1303=AXIS2_PLACEMENT_3D('',#1988,#1638,#1639);
#1304=AXIS2_PLACEMENT_3D('',#1989,#1640,#1641);
#1305=AXIS2_PLACEMENT_3D('',#1991,#1642,#1643);
#1306=AXIS2_PLACEMENT_3D('',#1992,#1644,#1645);
#1307=AXIS2_PLACEMENT_3D('',#1995,#1648,#1649);
#1308=AXIS2_PLACEMENT_3D('',#1997,#1651,#1652);
#1309=AXIS2_PLACEMENT_3D('',#1999,#1654,#1655);
#1310=AXIS2_PLACEMENT_3D('',#2001,#1657,#1658);
#1311=AXIS2_PLACEMENT_3D('',#2003,#1660,#1661);
#1312=AXIS2_PLACEMENT_3D('',#2005,#1663,#1664);
#1313=AXIS2_PLACEMENT_3D('',#2007,#1666,#1667);
#1314=DIRECTION('',(0.,0.,1.));
#1315=DIRECTION('',(1.,0.,0.));
#1316=DIRECTION('',(0.,0.,-1.));
#1317=DIRECTION('',(1.,0.,0.));
#1318=DIRECTION('',(1.,0.,0.));
#1319=DIRECTION('',(0.,0.,-1.));
#1320=DIRECTION('',(-1.,0.,0.));
#1321=DIRECTION('',(0.,1.,0.));
#1322=DIRECTION('',(0.,0.,-1.));
#1323=DIRECTION('',(-1.,0.,0.));
#1324=DIRECTION('',(1.,0.,0.));
#1325=DIRECTION('',(0.,0.,-1.));
#1326=DIRECTION('',(-1.,0.,0.));
#1327=DIRECTION('',(0.,1.,0.));
#1328=DIRECTION('',(0.,0.,-1.));
#1329=DIRECTION('',(-1.,0.,0.));
#1330=DIRECTION('',(1.39379999676748E-16,1.,0.));
#1331=DIRECTION('',(1.,0.,0.));
#1332=DIRECTION('',(2.78759999353497E-16,1.,0.));
#1333=DIRECTION('',(1.,0.,0.));
#1334=DIRECTION('',(0.,0.,-1.));
#1335=DIRECTION('',(-1.,0.,0.));
#1336=DIRECTION('',(0.,1.,0.));
#1337=DIRECTION('',(0.,0.,-1.));
#1338=DIRECTION('',(-1.,0.,0.));
#1339=DIRECTION('',(1.,0.,0.));
#1340=DIRECTION('',(0.,0.,-1.));
#1341=DIRECTION('',(-1.,0.,0.));
#1342=DIRECTION('',(0.,1.,0.));
#1343=DIRECTION('',(0.,0.,-1.));
#1344=DIRECTION('',(-1.,0.,0.));
#1345=DIRECTION('',(1.,0.,0.));
#1346=DIRECTION('',(0.,0.,-1.));
#1347=DIRECTION('',(1.,0.,0.));
#1348=DIRECTION('',(1.,0.,0.));
#1349=DIRECTION('',(0.,-1.,0.));
#1350=DIRECTION('',(1.,0.,0.));
#1351=DIRECTION('',(9.89799997704443E-17,-1.,0.));
#1352=DIRECTION('',(0.,0.,1.));
#1353=DIRECTION('',(1.,0.,0.));
#1354=DIRECTION('',(1.,0.,0.));
#1355=DIRECTION('',(0.,0.,1.));
#1356=DIRECTION('',(1.,0.,0.));
#1357=DIRECTION('',(0.,-1.,0.));
#1358=DIRECTION('',(0.,0.,1.));
#1359=DIRECTION('',(1.,0.,0.));
#1360=DIRECTION('',(1.,0.,0.));
#1361=DIRECTION('',(0.,0.,1.));
#1362=DIRECTION('',(1.,0.,0.));
#1363=DIRECTION('',(0.,-1.,0.));
#1364=DIRECTION('',(0.,1.,0.));
#1365=DIRECTION('',(0.,0.,-1.));
#1366=DIRECTION('',(-1.,0.,0.));
#1367=DIRECTION('',(1.,0.,0.));
#1368=DIRECTION('',(0.,0.,-1.));
#1369=DIRECTION('',(-1.,0.,0.));
#1370=DIRECTION('',(0.,1.,0.));
#1371=DIRECTION('',(0.,0.,-1.));
#1372=DIRECTION('',(-1.,0.,0.));
#1373=DIRECTION('',(1.,0.,0.));
#1374=DIRECTION('',(0.,0.,-1.));
#1375=DIRECTION('',(-1.,0.,0.));
#1376=DIRECTION('',(0.,1.,0.));
#1377=DIRECTION('',(0.,0.,1.));
#1378=DIRECTION('',(0.,0.,-1.));
#1379=DIRECTION('',(1.,0.,0.));
#1380=DIRECTION('',(0.,0.,-1.));
#1381=DIRECTION('',(1.,0.,0.));
#1382=DIRECTION('',(0.,0.,-1.));
#1383=DIRECTION('',(1.,0.,0.));
#1384=DIRECTION('',(0.,0.,-1.));
#1385=DIRECTION('',(1.,0.,0.));
#1386=DIRECTION('',(0.,0.,-1.));
#1387=DIRECTION('',(0.,0.,-1.));
#1388=DIRECTION('',(0.,-1.,0.));
#1389=DIRECTION('',(0.,0.,-1.));
#1390=DIRECTION('',(0.,0.,-1.));
#1391=DIRECTION('',(0.,-1.,0.));
#1392=DIRECTION('',(0.,0.,-1.));
#1393=DIRECTION('',(0.,-1.,0.));
#1394=DIRECTION('',(1.,0.,0.));
#1395=DIRECTION('',(0.,0.,-1.));
#1396=DIRECTION('',(0.,-1.,0.));
#1397=DIRECTION('',(0.,0.,-1.));
#1398=DIRECTION('',(0.,-1.,0.));
#1399=DIRECTION('',(0.,0.,-1.));
#1400=DIRECTION('',(0.,0.,-1.));
#1401=DIRECTION('',(-1.,0.,0.));
#1402=DIRECTION('',(0.,0.,1.));
#1403=DIRECTION('',(1.,0.,0.));
#1404=DIRECTION('',(0.,0.,-1.));
#1405=DIRECTION('',(0.,0.,1.));
#1406=DIRECTION('',(1.,0.,0.));
#1407=DIRECTION('',(0.,1.,0.));
#1408=DIRECTION('',(0.,0.,1.));
#1409=DIRECTION('',(0.,0.,-1.));
#1410=DIRECTION('',(-1.,0.,0.));
#1411=DIRECTION('',(0.,0.,1.));
#1412=DIRECTION('',(0.,0.,1.));
#1413=DIRECTION('',(0.,0.,1.));
#1414=DIRECTION('',(1.,0.,0.));
#1415=DIRECTION('',(0.,0.,-1.));
#1416=DIRECTION('',(1.,0.,0.));
#1417=DIRECTION('',(0.,0.,-1.));
#1418=DIRECTION('',(-1.,0.,0.));
#1419=DIRECTION('',(0.,0.,1.));
#1420=DIRECTION('',(1.,0.,0.));
#1421=DIRECTION('',(0.,0.,-1.));
#1422=DIRECTION('',(0.,0.,1.));
#1423=DIRECTION('',(1.,0.,0.));
#1424=DIRECTION('',(1.,0.,0.));
#1425=DIRECTION('',(0.,0.,-1.));
#1426=DIRECTION('',(0.,-1.,0.));
#1427=DIRECTION('',(0.,0.,-1.));
#1428=DIRECTION('',(0.,-1.,0.));
#1429=DIRECTION('',(0.,0.,-1.));
#1430=DIRECTION('',(-1.,0.,0.));
#1431=DIRECTION('',(0.,0.,1.));
#1432=DIRECTION('',(1.,0.,0.));
#1433=DIRECTION('',(0.,0.,1.));
#1434=DIRECTION('',(1.,0.,0.));
#1435=DIRECTION('',(0.,0.,-1.));
#1436=DIRECTION('',(0.,0.,1.));
#1437=DIRECTION('',(1.,0.,0.));
#1438=DIRECTION('',(0.,1.,0.));
#1439=DIRECTION('',(0.,0.,1.));
#1440=DIRECTION('',(0.,0.,1.));
#1441=DIRECTION('',(0.,0.,1.));
#1442=DIRECTION('',(0.,0.,-1.));
#1443=DIRECTION('',(-1.,0.,0.));
#1444=DIRECTION('',(0.,0.,-1.));
#1445=DIRECTION('',(1.,0.,0.));
#1446=DIRECTION('',(0.,0.,-1.));
#1447=DIRECTION('',(-1.,0.,0.));
#1448=DIRECTION('',(0.,0.,1.));
#1449=DIRECTION('',(1.,0.,0.));
#1450=DIRECTION('',(0.,0.,-1.));
#1451=DIRECTION('',(0.,0.,1.));
#1452=DIRECTION('',(1.,0.,0.));
#1453=DIRECTION('',(0.,1.,0.));
#1454=DIRECTION('',(0.,0.,1.));
#1455=DIRECTION('',(0.,0.,-1.));
#1456=DIRECTION('',(1.,0.,0.));
#1457=DIRECTION('',(0.,0.,-1.));
#1458=DIRECTION('',(1.,0.,0.));
#1459=DIRECTION('',(1.,0.,0.));
#1460=DIRECTION('',(0.,0.,-1.));
#1461=DIRECTION('',(0.,0.,-1.));
#1462=DIRECTION('',(-1.,0.,0.));
#1463=DIRECTION('',(0.,0.,1.));
#1464=DIRECTION('',(1.,0.,0.));
#1465=DIRECTION('',(0.,0.,-1.));
#1466=DIRECTION('',(0.,0.,1.));
#1467=DIRECTION('',(1.,0.,0.));
#1468=DIRECTION('',(1.,0.,0.));
#1469=DIRECTION('',(0.,0.,-1.));
#1470=DIRECTION('',(0.,-1.,0.));
#1471=DIRECTION('',(0.,0.,-1.));
#1472=DIRECTION('',(0.,0.,-1.));
#1473=DIRECTION('',(0.,-1.,0.));
#1474=DIRECTION('',(0.,0.,-1.));
#1475=DIRECTION('',(0.,-1.,0.));
#1476=DIRECTION('',(0.,0.,-1.));
#1477=DIRECTION('',(-1.,0.,0.));
#1478=DIRECTION('',(0.,0.,1.));
#1479=DIRECTION('',(1.,0.,0.));
#1480=DIRECTION('',(0.,0.,1.));
#1481=DIRECTION('',(1.,0.,0.));
#1482=DIRECTION('',(0.,0.,-1.));
#1483=DIRECTION('',(-1.,0.,0.));
#1484=DIRECTION('',(0.,0.,1.));
#1485=DIRECTION('',(1.,0.,0.));
#1486=DIRECTION('',(0.,0.,1.));
#1487=DIRECTION('',(1.,0.,0.));
#1488=DIRECTION('',(0.,0.,-1.));
#1489=DIRECTION('',(-1.,0.,0.));
#1490=DIRECTION('',(0.,0.,1.));
#1491=DIRECTION('',(1.,0.,0.));
#1492=DIRECTION('',(0.,0.,1.));
#1493=DIRECTION('',(1.,0.,0.));
#1494=DIRECTION('',(0.,0.,1.));
#1495=DIRECTION('',(1.,0.,0.));
#1496=DIRECTION('',(0.,0.,1.));
#1497=DIRECTION('',(1.,0.,0.));
#1498=DIRECTION('',(0.,0.,-1.));
#1499=DIRECTION('',(-1.,0.,0.));
#1500=DIRECTION('',(0.,1.,0.));
#1501=DIRECTION('',(0.,0.,-1.));
#1502=DIRECTION('',(-1.,0.,0.));
#1503=DIRECTION('',(0.,0.,1.));
#1504=DIRECTION('',(1.,0.,0.));
#1505=DIRECTION('',(0.,0.,1.));
#1506=DIRECTION('',(1.,0.,0.));
#1507=DIRECTION('',(0.,0.,-1.));
#1508=DIRECTION('',(0.,0.,1.));
#1509=DIRECTION('',(0.,0.,1.));
#1510=DIRECTION('',(1.,0.,0.));
#1511=DIRECTION('',(0.,0.,1.));
#1512=DIRECTION('',(1.,0.,0.));
#1513=DIRECTION('',(0.,0.,-1.));
#1514=DIRECTION('',(-1.,0.,0.));
#1515=DIRECTION('',(0.,0.,1.));
#1516=DIRECTION('',(1.,0.,0.));
#1517=DIRECTION('',(0.,0.,-1.));
#1518=DIRECTION('',(0.,1.,0.));
#1519=DIRECTION('',(0.,0.,1.));
#1520=DIRECTION('',(0.,0.,1.));
#1521=DIRECTION('',(1.,0.,0.));
#1522=DIRECTION('',(0.,0.,-1.));
#1523=DIRECTION('',(-1.,0.,0.));
#1524=DIRECTION('',(0.,0.,-1.));
#1525=DIRECTION('',(1.,0.,0.));
#1526=DIRECTION('',(0.,1.,0.));
#1527=DIRECTION('',(0.,0.,1.));
#1528=DIRECTION('',(0.,0.,-1.));
#1529=DIRECTION('',(1.,0.,0.));
#1530=DIRECTION('',(0.,0.,-1.));
#1531=DIRECTION('',(-1.,1.39379999676748E-16,0.));
#1532=DIRECTION('',(-1.39379999676748E-16,-1.,0.));
#1533=DIRECTION('',(0.,0.,-1.));
#1534=DIRECTION('',(1.39379999676748E-16,1.,0.));
#1535=DIRECTION('',(0.,1.,0.));
#1536=DIRECTION('',(0.,0.,1.));
#1537=DIRECTION('',(0.,0.,-1.));
#1538=DIRECTION('',(1.,0.,0.));
#1539=DIRECTION('',(-1.,2.78759999353497E-16,0.));
#1540=DIRECTION('',(-2.78759999353497E-16,-1.,0.));
#1541=DIRECTION('',(2.78759999353497E-16,1.,0.));
#1542=DIRECTION('',(1.,0.,0.));
#1543=DIRECTION('',(0.,0.,-1.));
#1544=DIRECTION('',(0.,0.,-1.));
#1545=DIRECTION('',(0.,-1.,0.));
#1546=DIRECTION('',(0.,0.,-1.));
#1547=DIRECTION('',(0.,1.,0.));
#1548=DIRECTION('',(0.,0.,1.));
#1549=DIRECTION('',(0.,0.,-1.));
#1550=DIRECTION('',(1.,0.,0.));
#1551=DIRECTION('',(1.,9.89799997704443E-17,0.));
#1552=DIRECTION('',(-9.89799997704443E-17,1.,0.));
#1553=DIRECTION('',(0.,0.,-1.));
#1554=DIRECTION('',(9.89799997704443E-17,-1.,0.));
#1555=DIRECTION('',(0.,1.,0.));
#1556=DIRECTION('',(0.,0.,1.));
#1557=DIRECTION('',(1.,0.,0.));
#1558=DIRECTION('',(0.,0.,-1.));
#1559=DIRECTION('',(-1.,0.,0.));
#1560=DIRECTION('',(0.,0.,1.));
#1561=DIRECTION('',(1.,0.,0.));
#1562=DIRECTION('',(0.,0.,-1.));
#1563=DIRECTION('',(0.,0.,1.));
#1564=DIRECTION('',(1.,0.,0.));
#1565=DIRECTION('',(0.,0.,-1.));
#1566=DIRECTION('',(0.,0.,-1.));
#1567=DIRECTION('',(-1.,0.,0.));
#1568=DIRECTION('',(0.,0.,1.));
#1569=DIRECTION('',(1.,0.,0.));
#1570=DIRECTION('',(0.,0.,1.));
#1571=DIRECTION('',(1.,0.,0.));
#1572=DIRECTION('',(0.,0.,-1.));
#1573=DIRECTION('',(-1.,0.,0.));
#1574=DIRECTION('',(0.,0.,1.));
#1575=DIRECTION('',(1.,0.,0.));
#1576=DIRECTION('',(0.,0.,1.));
#1577=DIRECTION('',(1.,0.,0.));
#1578=DIRECTION('',(0.,0.,-1.));
#1579=DIRECTION('',(-1.,0.,0.));
#1580=DIRECTION('',(0.,0.,1.));
#1581=DIRECTION('',(1.,0.,0.));
#1582=DIRECTION('',(0.,0.,1.));
#1583=DIRECTION('',(1.,0.,0.));
#1584=DIRECTION('',(0.,0.,1.));
#1585=DIRECTION('',(1.,0.,0.));
#1586=DIRECTION('',(0.,0.,1.));
#1587=DIRECTION('',(1.,0.,0.));
#1588=DIRECTION('',(0.,0.,-1.));
#1589=DIRECTION('',(-1.,0.,0.));
#1590=DIRECTION('',(0.,0.,1.));
#1591=DIRECTION('',(1.,0.,0.));
#1592=DIRECTION('',(0.,0.,1.));
#1593=DIRECTION('',(1.,0.,0.));
#1594=DIRECTION('',(0.,0.,1.));
#1595=DIRECTION('',(1.,0.,0.));
#1596=DIRECTION('',(0.,0.,-1.));
#1597=DIRECTION('',(-1.,0.,0.));
#1598=DIRECTION('',(0.,0.,1.));
#1599=DIRECTION('',(1.,0.,0.));
#1600=DIRECTION('',(0.,0.,1.));
#1601=DIRECTION('',(1.,0.,0.));
#1602=DIRECTION('',(0.,0.,1.));
#1603=DIRECTION('',(1.,0.,0.));
#1604=DIRECTION('',(0.,0.,-1.));
#1605=DIRECTION('',(-1.,0.,0.));
#1606=DIRECTION('',(0.,0.,1.));
#1607=DIRECTION('',(1.,0.,0.));
#1608=DIRECTION('',(0.,0.,1.));
#1609=DIRECTION('',(1.,0.,0.));
#1610=DIRECTION('',(0.,0.,1.));
#1611=DIRECTION('',(1.,0.,0.));
#1612=DIRECTION('',(0.,0.,-1.));
#1613=DIRECTION('',(-1.,0.,0.));
#1614=DIRECTION('',(0.,0.,1.));
#1615=DIRECTION('',(1.,0.,0.));
#1616=DIRECTION('',(0.,0.,1.));
#1617=DIRECTION('',(1.,0.,0.));
#1618=DIRECTION('',(0.,0.,1.));
#1619=DIRECTION('',(1.,0.,0.));
#1620=DIRECTION('',(0.,0.,1.));
#1621=DIRECTION('',(1.,0.,0.));
#1622=DIRECTION('',(0.,0.,1.));
#1623=DIRECTION('',(1.,0.,0.));
#1624=DIRECTION('',(0.,0.,1.));
#1625=DIRECTION('',(1.,0.,0.));
#1626=DIRECTION('',(0.,0.,1.));
#1627=DIRECTION('',(1.,0.,0.));
#1628=DIRECTION('',(0.,0.,1.));
#1629=DIRECTION('',(1.,0.,0.));
#1630=DIRECTION('',(0.,0.,1.));
#1631=DIRECTION('',(1.,0.,0.));
#1632=DIRECTION('',(0.,0.,1.));
#1633=DIRECTION('',(1.,0.,0.));
#1634=DIRECTION('',(0.,0.,1.));
#1635=DIRECTION('',(1.,0.,0.));
#1636=DIRECTION('',(0.,0.,1.));
#1637=DIRECTION('',(1.,0.,0.));
#1638=DIRECTION('',(0.,0.,1.));
#1639=DIRECTION('',(1.,0.,0.));
#1640=DIRECTION('',(0.,0.,1.));
#1641=DIRECTION('',(1.,0.,0.));
#1642=DIRECTION('',(0.,0.,1.));
#1643=DIRECTION('',(1.,0.,0.));
#1644=DIRECTION('',(-1.,0.,0.));
#1645=DIRECTION('',(0.,0.,1.));
#1646=DIRECTION('',(0.,0.,-1.));
#1647=DIRECTION('',(0.,0.,-1.));
#1648=DIRECTION('',(0.,0.,-1.));
#1649=DIRECTION('',(-1.,0.,0.));
#1650=DIRECTION('',(0.,0.,-1.));
#1651=DIRECTION('',(0.,1.,0.));
#1652=DIRECTION('',(0.,0.,1.));
#1653=DIRECTION('',(0.,0.,-1.));
#1654=DIRECTION('',(0.,0.,-1.));
#1655=DIRECTION('',(-1.,0.,0.));
#1656=DIRECTION('',(0.,0.,-1.));
#1657=DIRECTION('',(-1.,0.,0.));
#1658=DIRECTION('',(0.,0.,1.));
#1659=DIRECTION('',(0.,0.,-1.));
#1660=DIRECTION('',(0.,0.,-1.));
#1661=DIRECTION('',(-1.,0.,0.));
#1662=DIRECTION('',(0.,0.,-1.));
#1663=DIRECTION('',(0.,1.,0.));
#1664=DIRECTION('',(0.,0.,1.));
#1665=DIRECTION('',(0.,0.,-1.));
#1666=DIRECTION('',(0.,0.,-1.));
#1667=DIRECTION('',(-1.,0.,0.));
#1668=CARTESIAN_POINT('',(0.,0.,0.));
#1669=CARTESIAN_POINT('',(0.0065373165985486,0.00840165419186351,-0.02032));
#1670=CARTESIAN_POINT('',(0.00645125256828129,-0.0741483458081365,-0.02032));
#1671=CARTESIAN_POINT('',(-0.0697487474317187,-0.0741483458081365,-0.02032));
#1672=CARTESIAN_POINT('',(0.0826512525682813,-0.0741483458081365,-0.02032));
#1673=CARTESIAN_POINT('',(-0.0697487474317187,-0.0677983458081365,-0.02032));
#1674=CARTESIAN_POINT('',(-0.0760987474317187,-0.0677983458081365,-0.02032));
#1675=CARTESIAN_POINT('',(-0.0760987474317187,0.00840165419186352,-0.02032));
#1676=CARTESIAN_POINT('',(-0.0760987474317187,0.0846016541918635,-0.02032));
#1677=CARTESIAN_POINT('',(-0.0697487474317187,0.0846016541918635,-0.02032));
#1678=CARTESIAN_POINT('',(-0.0697487474317187,0.0909516541918635,-0.02032));
#1679=CARTESIAN_POINT('',(0.00645125256828132,0.0909516541918635,-0.02032));
#1680=CARTESIAN_POINT('',(0.0826512525682813,0.0909516541918635,-0.02032));
#1681=CARTESIAN_POINT('',(0.0826512525682813,0.0846016541918635,-0.02032));
#1682=CARTESIAN_POINT('',(0.0890012525682813,0.0846016541918635,-0.02032));
#1683=CARTESIAN_POINT('',(0.0890012525682813,0.00840165419186352,-0.02032));
#1684=CARTESIAN_POINT('',(0.0890012525682813,-0.0677983458081365,-0.02032));
#1685=CARTESIAN_POINT('',(0.0826512525682813,-0.0677983458081365,-0.02032));
#1686=CARTESIAN_POINT('',(-0.00975961937118411,0.00840165419186354,-0.02032));
#1687=CARTESIAN_POINT('',(-0.00975961937118411,0.00217865419186352,-0.02032));
#1688=CARTESIAN_POINT('',(-0.00975961937118411,0.0146246541918635,-0.02032));
#1689=CARTESIAN_POINT('',(0.0066233806288159,0.00217865419186352,-0.02032));
#1690=CARTESIAN_POINT('',(0.0230063806288159,0.00217865419186353,-0.02032));
#1691=CARTESIAN_POINT('',(0.0230063806288159,0.00840165419186353,-0.02032));
#1692=CARTESIAN_POINT('',(0.0230063806288159,0.0146246541918635,-0.02032));
#1693=CARTESIAN_POINT('',(0.0066233806288159,0.0146246541918635,-0.02032));
#1694=CARTESIAN_POINT('',(-0.0142510621549008,0.000927009728436728,-0.02032));
#1695=CARTESIAN_POINT('',(-0.0136160621549008,0.000927009728436731,-0.02032));
#1696=CARTESIAN_POINT('',(-0.0142510621549008,0.000292009728436731,-0.02032));
#1697=CARTESIAN_POINT('',(-0.0136160621549008,0.00854285868205234,-0.02032));
#1698=CARTESIAN_POINT('',(-0.0136160621549008,0.016158707635668,-0.02032));
#1699=CARTESIAN_POINT('',(-0.0142510621549008,0.016158707635668,-0.02032));
#1700=CARTESIAN_POINT('',(-0.0142510621549008,0.016793707635668,-0.02032));
#1701=CARTESIAN_POINT('',(-0.0165117939885593,0.016793707635668,-0.02032));
#1702=CARTESIAN_POINT('',(-0.0187725258222178,0.016793707635668,-0.02032));
#1703=CARTESIAN_POINT('',(-0.0187725258222178,0.016158707635668,-0.02032));
#1704=CARTESIAN_POINT('',(-0.0194075258222178,0.016158707635668,-0.02032));
#1705=CARTESIAN_POINT('',(-0.0194075258222178,0.00854285868205234,-0.02032));
#1706=CARTESIAN_POINT('',(-0.0194075258222178,0.000927009728436731,-0.02032));
#1707=CARTESIAN_POINT('',(-0.0187725258222178,0.000927009728436737,-0.02032));
#1708=CARTESIAN_POINT('',(-0.0187725258222178,0.000292009728436731,-0.02032));
#1709=CARTESIAN_POINT('',(-0.0165117939885593,0.000292009728436731,-0.02032));
#1710=CARTESIAN_POINT('',(0.0065373165985486,0.00840165419186351,0.));
#1711=CARTESIAN_POINT('',(0.00662338062881589,0.0171646541918636,0.));
#1712=CARTESIAN_POINT('',(-0.0122996193711841,0.0171646541918636,0.));
#1713=CARTESIAN_POINT('',(0.0255463806288159,0.0171646541918636,0.));
#1714=CARTESIAN_POINT('',(0.0255463806288159,0.00840165419186352,0.));
#1715=CARTESIAN_POINT('',(0.0255463806288159,-0.00036134580813648,0.));
#1716=CARTESIAN_POINT('',(0.00662338062881589,-0.00036134580813648,0.));
#1717=CARTESIAN_POINT('',(-0.0122996193711841,-0.00036134580813648,0.));
#1718=CARTESIAN_POINT('',(-0.0122996193711841,0.00840165419186352,0.));
#1719=CARTESIAN_POINT('',(0.0809635086893505,0.0827417822523981,0.));
#1720=CARTESIAN_POINT('',(0.0684004327774255,0.0846016541918635,0.));
#1721=CARTESIAN_POINT('',(0.0828233806288159,0.0701787063404731,0.));
#1722=CARTESIAN_POINT('',(0.00662338062881591,0.0846016541918635,0.));
#1723=CARTESIAN_POINT('',(-0.0551536715197937,0.0846016541918635,0.));
#1724=CARTESIAN_POINT('',(-0.0677167474317187,0.0827417822523981,0.));
#1725=CARTESIAN_POINT('',(-0.0695766193711841,0.0701787063404731,0.));
#1726=CARTESIAN_POINT('',(-0.0695766193711841,0.00840165419186351,0.));
#1727=CARTESIAN_POINT('',(-0.0695766193711841,-0.0533753979567459,0.));
#1728=CARTESIAN_POINT('',(-0.0677167474317187,-0.065938473868671,0.));
#1729=CARTESIAN_POINT('',(-0.0551536715197937,-0.0677983458081365,0.));
#1730=CARTESIAN_POINT('',(0.00662338062881589,-0.0677983458081365,0.));
#1731=CARTESIAN_POINT('',(0.0684004327774255,-0.0677983458081365,0.));
#1732=CARTESIAN_POINT('',(0.0809635086893505,-0.0659384738686711,0.));
#1733=CARTESIAN_POINT('',(0.0828233806288159,-0.0533753979567461,0.));
#1734=CARTESIAN_POINT('',(0.0828233806288159,0.00840165419186352,0.));
#1735=CARTESIAN_POINT('',(-0.0136160621549008,0.00840165419186351,0.));
#1736=CARTESIAN_POINT('',(-0.0136160621549008,0.000927009728436731,1.7347234759768E-18));
#1737=CARTESIAN_POINT('',(-0.0136160621549008,0.016158707635668,0.));
#1738=CARTESIAN_POINT('',(-0.0142510621549008,0.000927009728436728,0.));
#1739=CARTESIAN_POINT('',(-0.0142510621549008,0.000292009728436731,1.7347234759768E-18));
#1740=CARTESIAN_POINT('',(0.0065373165985486,0.000292009728436731,0.));
#1741=CARTESIAN_POINT('',(-0.0187725258222178,0.000292009728436731,1.7347234759768E-18));
#1742=CARTESIAN_POINT('',(-0.0187725258222178,0.000927009728436737,0.));
#1743=CARTESIAN_POINT('',(-0.0194075258222178,0.000927009728436731,1.7347234759768E-18));
#1744=CARTESIAN_POINT('',(-0.0194075258222178,0.00840165419186351,0.));
#1745=CARTESIAN_POINT('',(-0.0194075258222178,0.016158707635668,1.7347234759768E-18));
#1746=CARTESIAN_POINT('',(-0.0187725258222178,0.016158707635668,0.));
#1747=CARTESIAN_POINT('',(-0.0187725258222178,0.016793707635668,1.7347234759768E-18));
#1748=CARTESIAN_POINT('',(0.0065373165985486,0.016793707635668,0.));
#1749=CARTESIAN_POINT('',(-0.0142510621549008,0.016793707635668,1.7347234759768E-18));
#1750=CARTESIAN_POINT('',(-0.0142510621549008,0.016158707635668,0.));
#1751=CARTESIAN_POINT('',(0.00662338062881591,0.0846016541918635,0.028702));
#1752=CARTESIAN_POINT('',(0.0684004327774255,0.0846016541918635,0.024384));
#1753=CARTESIAN_POINT('',(0.0684004327774255,0.0846016541918635,0.024384));
#1754=CARTESIAN_POINT('',(0.00662338062881591,0.0846016541918635,0.024384));
#1755=CARTESIAN_POINT('',(0.0764733806288159,0.0846016541918635,0.024384));
#1756=CARTESIAN_POINT('',(0.0764733806288159,0.0846016541918635,0.028702));
#1757=CARTESIAN_POINT('',(0.0764733806288159,0.0846016541918635,0.028702));
#1758=CARTESIAN_POINT('',(0.00662338062881591,0.0846016541918635,0.028702));
#1759=CARTESIAN_POINT('',(-0.0632266193711841,0.0846016541918635,0.028702));
#1760=CARTESIAN_POINT('',(-0.0632266193711841,0.0846016541918635,0.028702));
#1761=CARTESIAN_POINT('',(-0.0632266193711841,0.0846016541918635,0.024384));
#1762=CARTESIAN_POINT('',(0.00662338062881591,0.0846016541918635,0.024384));
#1763=CARTESIAN_POINT('',(-0.0551536715197937,0.0846016541918635,0.024384));
#1764=CARTESIAN_POINT('',(-0.0551536715197937,0.0846016541918635,0.024384));
#1765=CARTESIAN_POINT('',(0.0828233806288159,0.00840165419186352,0.028702));
#1766=CARTESIAN_POINT('',(0.0828233806288159,0.0782516541918635,0.028702));
#1767=CARTESIAN_POINT('',(0.0828233806288159,0.0782516541918635,0.028702));
#1768=CARTESIAN_POINT('',(0.0828233806288159,0.0782516541918635,0.024384));
#1769=CARTESIAN_POINT('',(0.0828233806288159,0.00840165419186352,0.024384));
#1770=CARTESIAN_POINT('',(0.0828233806288159,0.0701787063404731,0.024384));
#1771=CARTESIAN_POINT('',(0.0828233806288159,0.0701787063404731,0.024384));
#1772=CARTESIAN_POINT('',(0.0828233806288159,-0.0533753979567461,0.024384));
#1773=CARTESIAN_POINT('',(0.0828233806288159,-0.0533753979567461,0.024384));
#1774=CARTESIAN_POINT('',(0.0828233806288159,0.00840165419186352,0.024384));
#1775=CARTESIAN_POINT('',(0.0828233806288159,-0.0614483458081365,0.024384));
#1776=CARTESIAN_POINT('',(0.0828233806288159,-0.0614483458081365,0.028702));
#1777=CARTESIAN_POINT('',(0.0828233806288159,-0.0614483458081365,0.028702));
#1778=CARTESIAN_POINT('',(0.0828233806288159,0.00840165419186352,0.028702));
#1779=CARTESIAN_POINT('',(0.0891733806288159,0.00840165419186349,0.028702));
#1780=CARTESIAN_POINT('',(0.0891733806288159,0.00840165419186349,0.));
#1781=CARTESIAN_POINT('',(0.0891733806288159,0.0846016541918635,0.));
#1782=CARTESIAN_POINT('',(0.0891733806288159,-0.0677983458081365,0.));
#1783=CARTESIAN_POINT('',(0.0891733806288159,0.0846016541918635,0.028702));
#1784=CARTESIAN_POINT('',(0.0891733806288159,0.0846016541918635,0.028702));
#1785=CARTESIAN_POINT('',(0.0891733806288159,0.00840165419186349,0.028702));
#1786=CARTESIAN_POINT('',(0.0891733806288159,-0.0677983458081365,0.028702));
#1787=CARTESIAN_POINT('',(0.0891733806288159,-0.0677983458081365,0.028702));
#1788=CARTESIAN_POINT('',(0.0828233806288159,0.0846016541918635,0.028702));
#1789=CARTESIAN_POINT('',(0.0828233806288159,0.0846016541918635,0.));
#1790=CARTESIAN_POINT('',(0.0828233499836172,0.0909504883489368,0.));
#1791=CARTESIAN_POINT('',(0.0828233806288159,0.0909516541918635,0.028702));
#1792=CARTESIAN_POINT('',(0.0828233806288159,0.0909516541918635,0.028702));
#1793=CARTESIAN_POINT('',(0.0828233806288159,0.0846016541918635,0.028702));
#1794=CARTESIAN_POINT('',(0.0066233806288159,0.0909516541918635,0.028702));
#1795=CARTESIAN_POINT('',(0.0826512525682813,0.0846016541918635,0.));
#1796=CARTESIAN_POINT('',(0.0826512525682813,0.0909516541918635,-1.7347234759768E-18));
#1797=CARTESIAN_POINT('',(0.0826512525682813,0.0909516541918635,-0.02032));
#1798=CARTESIAN_POINT('',(-0.0697487474317187,0.0909516541918635,-0.02032));
#1799=CARTESIAN_POINT('',(-0.069748716786553,0.0909504883489359,0.));
#1800=CARTESIAN_POINT('',(-0.0695766193711841,0.0846016541918635,0.));
#1801=CARTESIAN_POINT('',(-0.0695766193711841,0.0909516541918635,0.));
#1802=CARTESIAN_POINT('',(-0.0695766193711841,0.0909516541918635,0.028702));
#1803=CARTESIAN_POINT('',(-0.0695766193711841,0.0909516541918635,0.028702));
#1804=CARTESIAN_POINT('',(0.0066233806288159,0.0909516541918635,0.028702));
#1805=CARTESIAN_POINT('',(-0.0695766193711841,0.0846016541918635,0.028702));
#1806=CARTESIAN_POINT('',(-0.0695766193711841,0.0846016541918635,0.));
#1807=CARTESIAN_POINT('',(-0.0759266193711841,0.0846016541918635,0.));
#1808=CARTESIAN_POINT('',(-0.0759266193711841,0.0846016541918635,0.028702));
#1809=CARTESIAN_POINT('',(-0.0759266193711841,0.0846016541918635,0.028702));
#1810=CARTESIAN_POINT('',(-0.0695766193711841,0.0846016541918635,0.028702));
#1811=CARTESIAN_POINT('',(-0.0759266193711841,0.00840165419186349,0.028702));
#1812=CARTESIAN_POINT('',(-0.0759266193711841,0.00840165419186349,0.));
#1813=CARTESIAN_POINT('',(-0.0759266193711841,-0.0677983458081365,0.));
#1814=CARTESIAN_POINT('',(-0.0759266193711841,-0.0677983458081365,0.028702));
#1815=CARTESIAN_POINT('',(-0.0759266193711841,-0.0677983458081365,0.028702));
#1816=CARTESIAN_POINT('',(-0.0759266193711841,0.00840165419186349,0.028702));
#1817=CARTESIAN_POINT('',(-0.0695766193711841,-0.0677983458081365,0.028702));
#1818=CARTESIAN_POINT('',(-0.0695766193711841,-0.0677983458081365,0.));
#1819=CARTESIAN_POINT('',(-0.0697486842286263,-0.0741460141741457,0.));
#1820=CARTESIAN_POINT('',(-0.0695766193711841,-0.0677983458081365,0.));
#1821=CARTESIAN_POINT('',(-0.0695766193711841,-0.0741483458081365,0.));
#1822=CARTESIAN_POINT('',(-0.0695766193711841,-0.0741483458081365,0.028702));
#1823=CARTESIAN_POINT('',(-0.0695766193711841,-0.0741483458081365,0.028702));
#1824=CARTESIAN_POINT('',(-0.0695766193711841,-0.0677983458081365,0.028702));
#1825=CARTESIAN_POINT('',(0.0066233806288159,-0.0741483458081365,0.028702));
#1826=CARTESIAN_POINT('',(-0.0697487474317187,-0.0741483458081365,-0.02032));
#1827=CARTESIAN_POINT('',(0.0826512525682813,-0.0741483458081365,-0.02032));
#1828=CARTESIAN_POINT('',(0.0826512525682813,-0.0741483458081365,0.));
#1829=CARTESIAN_POINT('',(0.0826512525682813,-0.0677983458081365,0.));
#1830=CARTESIAN_POINT('',(0.0828233174257235,-0.0741460141741457,0.));
#1831=CARTESIAN_POINT('',(0.0828233806288159,-0.0741483458081365,0.028702));
#1832=CARTESIAN_POINT('',(0.0828233806288159,-0.0741483458081365,0.028702));
#1833=CARTESIAN_POINT('',(0.0066233806288159,-0.0741483458081365,0.028702));
#1834=CARTESIAN_POINT('',(0.0764733806288159,-0.0614483458081365,0.028702));
#1835=CARTESIAN_POINT('',(0.0764733806288159,-0.0614483458081365,0.024384));
#1836=CARTESIAN_POINT('',(0.0764733806288159,-0.0677983458081365,0.024384));
#1837=CARTESIAN_POINT('',(0.0764733806288159,-0.0677983458081365,0.028702));
#1838=CARTESIAN_POINT('',(0.0764733806288159,-0.0677983458081365,0.028702));
#1839=CARTESIAN_POINT('',(0.0764733806288159,-0.0614483458081365,0.028702));
#1840=CARTESIAN_POINT('',(0.00662338062881589,-0.0677983458081365,0.028702));
#1841=CARTESIAN_POINT('',(-0.0551536715197937,-0.0677983458081365,0.024384));
#1842=CARTESIAN_POINT('',(-0.0551536715197937,-0.0677983458081365,0.024384));
#1843=CARTESIAN_POINT('',(0.00662338062881589,-0.0677983458081365,0.024384));
#1844=CARTESIAN_POINT('',(-0.0632266193711841,-0.0677983458081365,0.024384));
#1845=CARTESIAN_POINT('',(-0.0632266193711841,-0.0677983458081365,0.028702));
#1846=CARTESIAN_POINT('',(-0.0632266193711841,-0.0677983458081365,0.028702));
#1847=CARTESIAN_POINT('',(0.00662338062881589,-0.0677983458081365,0.028702));
#1848=CARTESIAN_POINT('',(0.00662338062881589,-0.0677983458081365,0.024384));
#1849=CARTESIAN_POINT('',(0.0684004327774255,-0.0677983458081365,0.024384));
#1850=CARTESIAN_POINT('',(0.0684004327774255,-0.0677983458081365,0.024384));
#1851=CARTESIAN_POINT('',(-0.0632266193711841,-0.0614483458081365,0.028702));
#1852=CARTESIAN_POINT('',(-0.0632266193711841,-0.0614483458081365,0.024384));
#1853=CARTESIAN_POINT('',(-0.0695766193711841,-0.0614483458081365,0.024384));
#1854=CARTESIAN_POINT('',(-0.0695766193711841,-0.0614483458081365,0.028702));
#1855=CARTESIAN_POINT('',(-0.0695766193711841,-0.0614483458081365,0.028702));
#1856=CARTESIAN_POINT('',(-0.0632266193711841,-0.0614483458081365,0.028702));
#1857=CARTESIAN_POINT('',(-0.0695766193711841,0.00840165419186351,0.028702));
#1858=CARTESIAN_POINT('',(-0.0695766193711841,0.00840165419186351,0.024384));
#1859=CARTESIAN_POINT('',(-0.0695766193711841,-0.0533753979567459,0.024384));
#1860=CARTESIAN_POINT('',(-0.0695766193711841,-0.0533753979567459,0.024384));
#1861=CARTESIAN_POINT('',(-0.0695766193711841,0.0701787063404731,0.024384));
#1862=CARTESIAN_POINT('',(-0.0695766193711841,0.0701787063404731,0.024384));
#1863=CARTESIAN_POINT('',(-0.0695766193711841,0.00840165419186351,0.024384));
#1864=CARTESIAN_POINT('',(-0.0695766193711841,0.0782516541918635,0.024384));
#1865=CARTESIAN_POINT('',(-0.0695766193711841,0.0782516541918635,0.028702));
#1866=CARTESIAN_POINT('',(-0.0695766193711841,0.0782516541918635,0.028702));
#1867=CARTESIAN_POINT('',(-0.0695766193711841,0.00840165419186351,0.028702));
#1868=CARTESIAN_POINT('',(-0.0632266193711841,0.0782516541918635,0.028702));
#1869=CARTESIAN_POINT('',(-0.0632266193711841,0.0782516541918635,0.024384));
#1870=CARTESIAN_POINT('',(-0.0632266193711841,0.0782516541918635,0.028702));
#1871=CARTESIAN_POINT('',(0.0764733806288159,0.0782516541918635,0.028702));
#1872=CARTESIAN_POINT('',(0.0764733806288159,0.0782516541918635,0.024384));
#1873=CARTESIAN_POINT('',(0.0764733806288159,0.0782516541918635,0.028702));
#1874=CARTESIAN_POINT('',(0.0828233806288159,-0.0677983458081365,0.028702));
#1875=CARTESIAN_POINT('',(0.0828233806288159,-0.0677983458081365,0.));
#1876=CARTESIAN_POINT('',(0.0828233806288159,-0.0677983458081365,0.028702));
#1877=CARTESIAN_POINT('',(0.0066233806288159,0.00840165419186351,0.028702));
#1878=CARTESIAN_POINT('',(0.0066233806288159,0.00840165419186351,0.));
#1879=CARTESIAN_POINT('',(0.0826512525682813,-0.0677983458081365,0.));
#1880=CARTESIAN_POINT('',(0.0890012525682813,-0.0677983458081365,0.));
#1881=CARTESIAN_POINT('',(0.0890012525682813,0.00840165419186352,0.));
#1882=CARTESIAN_POINT('',(0.0890012525682813,0.0846016541918635,0.));
#1883=CARTESIAN_POINT('',(0.0826512525682813,0.0846016541918635,0.));
#1884=CARTESIAN_POINT('',(0.0826512525682813,-0.0677983458081365,-0.02032));
#1885=CARTESIAN_POINT('',(0.0890012525682813,-0.0677983458081365,-0.02032));
#1886=CARTESIAN_POINT('',(0.0890012525682813,0.00840165419186352,-0.02032));
#1887=CARTESIAN_POINT('',(0.0890012525682813,0.0846016541918635,-0.02032));
#1888=CARTESIAN_POINT('',(0.0826512525682813,0.0846016541918635,-0.02032));
#1889=CARTESIAN_POINT('',(-0.0697487474317187,0.0846016541918635,-0.02032));
#1890=CARTESIAN_POINT('',(-0.0697487474317187,0.0846016541918635,0.));
#1891=CARTESIAN_POINT('',(-0.0760987474317187,0.0846016541918635,0.));
#1892=CARTESIAN_POINT('',(-0.0760987474317187,0.0846016541918635,-0.02032));
#1893=CARTESIAN_POINT('',(-0.0760987474317187,0.00840165419186352,-0.02032));
#1894=CARTESIAN_POINT('',(-0.0760987474317187,0.00840165419186352,0.));
#1895=CARTESIAN_POINT('',(-0.0760987474317187,-0.0677983458081365,0.));
#1896=CARTESIAN_POINT('',(-0.0760987474317187,-0.0677983458081365,-0.02032));
#1897=CARTESIAN_POINT('',(-0.0697487474317187,-0.0677983458081365,-0.02032));
#1898=CARTESIAN_POINT('',(-0.0697487474317187,-0.0677983458081365,0.));
#1899=CARTESIAN_POINT('',(0.0065373165985486,0.00840165419186351,0.));
#1900=CARTESIAN_POINT('',(0.0066233806288159,0.00217865419186352,0.00508));
#1901=CARTESIAN_POINT('',(-0.00975961937118411,0.00217865419186352,0.00508));
#1902=CARTESIAN_POINT('',(-0.00975961937118411,0.00217865419186352,0.02032));
#1903=CARTESIAN_POINT('',(0.0065373165985486,0.00217865419186352,0.02032));
#1904=CARTESIAN_POINT('',(0.0230063806288159,0.00217865419186353,0.02032));
#1905=CARTESIAN_POINT('',(0.0230063806288159,0.00217865419186353,0.00508));
#1906=CARTESIAN_POINT('',(-0.00975961937118411,0.00840165419186354,0.00508));
#1907=CARTESIAN_POINT('',(-0.00975961937118411,0.0146246541918635,0.00508));
#1908=CARTESIAN_POINT('',(-0.00975961937118411,0.0146246541918635,0.02032));
#1909=CARTESIAN_POINT('',(-0.00975961937118411,0.00840165419186351,0.02032));
#1910=CARTESIAN_POINT('',(0.0066233806288159,0.0146246541918635,0.00508));
#1911=CARTESIAN_POINT('',(0.0230063806288159,0.0146246541918635,0.00508));
#1912=CARTESIAN_POINT('',(0.0230063806288159,0.0146246541918635,0.02032));
#1913=CARTESIAN_POINT('',(0.0065373165985486,0.0146246541918635,0.02032));
#1914=CARTESIAN_POINT('',(0.0230063806288159,0.00840165419186353,0.00508));
#1915=CARTESIAN_POINT('',(0.0230063806288159,0.0084016541918635,0.02032));
#1916=CARTESIAN_POINT('',(0.0255463806288159,0.00840165419186352,0.02032));
#1917=CARTESIAN_POINT('',(0.0255463806288159,0.0171646541918636,0.02032));
#1918=CARTESIAN_POINT('',(0.0255463806288159,0.0171646541918636,0.02286));
#1919=CARTESIAN_POINT('',(0.0255463806288159,0.00840165419186352,0.02286));
#1920=CARTESIAN_POINT('',(0.0255463806288159,-0.00036134580813648,0.02286));
#1921=CARTESIAN_POINT('',(0.0255463806288159,-0.00036134580813648,0.02032));
#1922=CARTESIAN_POINT('',(0.00662338062881589,0.0171646541918636,0.02032));
#1923=CARTESIAN_POINT('',(-0.0122996193711841,0.0171646541918636,0.02032));
#1924=CARTESIAN_POINT('',(-0.0122996193711841,0.0171646541918636,0.02286));
#1925=CARTESIAN_POINT('',(0.00662338062881589,0.0171646541918636,0.02286));
#1926=CARTESIAN_POINT('',(-0.0122996193711841,0.00840165419186352,0.02032));
#1927=CARTESIAN_POINT('',(-0.0122996193711841,-0.00036134580813648,0.02032));
#1928=CARTESIAN_POINT('',(-0.0122996193711841,-0.00036134580813648,0.02286));
#1929=CARTESIAN_POINT('',(-0.0122996193711841,0.00840165419186352,0.02286));
#1930=CARTESIAN_POINT('',(0.00662338062881589,-0.00036134580813648,0.02032));
#1931=CARTESIAN_POINT('',(0.00662338062881589,-0.00036134580813648,0.02286));
#1932=CARTESIAN_POINT('',(0.000990796410189254,0.008636,0.02286));
#1933=CARTESIAN_POINT('',(0.000990796410189254,0.008636,0.02032));
#1934=CARTESIAN_POINT('',(0.0061528579486508,0.0115820993929493,0.02032));
#1935=CARTESIAN_POINT('',(0.0061528579486508,0.00568990060705071,0.02032));
#1936=CARTESIAN_POINT('',(0.0061528579486508,0.0115820993929493,0.02286));
#1937=CARTESIAN_POINT('',(0.0061528579486508,0.0115820993929493,0.02286));
#1938=CARTESIAN_POINT('',(0.000990796410189254,0.008636,0.02286));
#1939=CARTESIAN_POINT('',(0.0061528579486508,0.00568990060705071,0.02286));
#1940=CARTESIAN_POINT('',(0.0061528579486508,0.00568990060705071,0.02286));
#1941=CARTESIAN_POINT('',(0.0205531962735417,0.008636,0.02286));
#1942=CARTESIAN_POINT('',(0.0205531962735417,0.008636,0.02286));
#1943=CARTESIAN_POINT('',(0.0216961962735416,0.008636,0.02286));
#1944=CARTESIAN_POINT('',(0.0205531962735417,0.008636,0.02032));
#1945=CARTESIAN_POINT('',(0.0216961962735416,0.008636,0.02032));
#1946=CARTESIAN_POINT('',(0.00693439641018926,0.008636,0.02286));
#1947=CARTESIAN_POINT('',(0.00693439641018926,0.008636,0.02032));
#1948=CARTESIAN_POINT('',(0.00693439641018926,0.008636,0.02286));
#1949=CARTESIAN_POINT('',(-0.0074444770303002,0.00856951024114631,0.02286));
#1950=CARTESIAN_POINT('',(-0.0074444770303002,0.00856951024114631,0.02286));
#1951=CARTESIAN_POINT('',(-0.0063014770303002,0.00856951024114631,0.02286));
#1952=CARTESIAN_POINT('',(-0.0074444770303002,0.00856951024114631,0.02032));
#1953=CARTESIAN_POINT('',(-0.0063014770303002,0.00856951024114631,0.02032));
#1954=CARTESIAN_POINT('',(0.00662338062881589,0.00840165419186352,0.02286));
#1955=CARTESIAN_POINT('',(0.00662338062881589,0.00840165419186352,0.02032));
#1956=CARTESIAN_POINT('',(0.0809635086893505,-0.0659384738686711,0.024384));
#1957=CARTESIAN_POINT('',(0.0809635086893505,-0.0659384738686711,0.024384));
#1958=CARTESIAN_POINT('',(0.0066233806288159,0.00840165419186353,0.024384));
#1959=CARTESIAN_POINT('',(0.0764733806288159,-0.0614483458081365,0.024384));
#1960=CARTESIAN_POINT('',(0.0787212806288159,-0.0614483458081365,0.024384));
#1961=CARTESIAN_POINT('',(0.0809635086893505,0.0827417822523981,0.024384));
#1962=CARTESIAN_POINT('',(0.0809635086893505,0.0827417822523981,0.024384));
#1963=CARTESIAN_POINT('',(0.0066233806288159,0.00840165419186353,0.024384));
#1964=CARTESIAN_POINT('',(0.0764733806288159,0.0782516541918635,0.024384));
#1965=CARTESIAN_POINT('',(0.0787212806288159,0.0782516541918635,0.024384));
#1966=CARTESIAN_POINT('',(-0.0677167474317187,0.0827417822523981,0.024384));
#1967=CARTESIAN_POINT('',(-0.0677167474317187,0.0827417822523981,0.024384));
#1968=CARTESIAN_POINT('',(0.0066233806288159,0.00840165419186353,0.024384));
#1969=CARTESIAN_POINT('',(-0.0632266193711841,0.0782516541918635,0.024384));
#1970=CARTESIAN_POINT('',(-0.0609787193711841,0.0782516541918635,0.024384));
#1971=CARTESIAN_POINT('',(-0.0677167474317187,-0.065938473868671,0.024384));
#1972=CARTESIAN_POINT('',(-0.0677167474317187,-0.065938473868671,0.024384));
#1973=CARTESIAN_POINT('',(0.0066233806288159,0.00840165419186353,0.024384));
#1974=CARTESIAN_POINT('',(-0.0632266193711841,-0.0614483458081365,0.024384));
#1975=CARTESIAN_POINT('',(-0.0609787193711841,-0.0614483458081365,0.024384));
#1976=CARTESIAN_POINT('',(-0.0632266193711841,-0.0614483458081365,0.0157988));
#1977=CARTESIAN_POINT('',(-0.0632266193711841,-0.0614483458081365,0.0157988));
#1978=CARTESIAN_POINT('',(-0.0609787193711841,-0.0614483458081365,0.0157988));
#1979=CARTESIAN_POINT('',(0.0086744306288159,0.0104527041918635,0.0157988));
#1980=CARTESIAN_POINT('',(-0.0632266193711841,0.0782516541918635,0.0157988));
#1981=CARTESIAN_POINT('',(-0.0632266193711841,0.0782516541918635,0.0157988));
#1982=CARTESIAN_POINT('',(-0.0609787193711841,0.0782516541918635,0.0157988));
#1983=CARTESIAN_POINT('',(0.0086744306288159,0.0104527041918635,0.0157988));
#1984=CARTESIAN_POINT('',(0.0764733806288159,0.0782516541918635,0.0157988));
#1985=CARTESIAN_POINT('',(0.0764733806288159,0.0782516541918635,0.0157988));
#1986=CARTESIAN_POINT('',(0.0787212806288159,0.0782516541918635,0.0157988));
#1987=CARTESIAN_POINT('',(0.0086744306288159,0.0104527041918635,0.0157988));
#1988=CARTESIAN_POINT('',(0.0764733806288159,-0.0614483458081365,0.0157988));
#1989=CARTESIAN_POINT('',(0.0764733806288159,-0.0614483458081365,0.0157988));
#1990=CARTESIAN_POINT('',(0.0787212806288159,-0.0614483458081365,0.0157988));
#1991=CARTESIAN_POINT('',(0.0086744306288159,0.0104527041918635,0.0157988));
#1992=CARTESIAN_POINT('',(-0.0136160621549008,0.00854285868205234,0.00508));
#1993=CARTESIAN_POINT('',(-0.0136160621549008,0.016158707635668,0.00508));
#1994=CARTESIAN_POINT('',(-0.0136160621549008,0.000927009728436731,0.00508));
#1995=CARTESIAN_POINT('',(-0.0142510621549008,0.000927009728436728,0.00508));
#1996=CARTESIAN_POINT('',(-0.0142510621549008,0.000292009728436731,0.00508));
#1997=CARTESIAN_POINT('',(-0.0165117939885593,0.000292009728436731,0.00508));
#1998=CARTESIAN_POINT('',(-0.0187725258222178,0.000292009728436731,0.00508));
#1999=CARTESIAN_POINT('',(-0.0187725258222178,0.000927009728436737,0.00508));
#2000=CARTESIAN_POINT('',(-0.0194075258222178,0.000927009728436731,0.00508));
#2001=CARTESIAN_POINT('',(-0.0194075258222178,0.00854285868205234,0.00508));
#2002=CARTESIAN_POINT('',(-0.0194075258222178,0.016158707635668,0.00508));
#2003=CARTESIAN_POINT('',(-0.0187725258222178,0.016158707635668,0.00508));
#2004=CARTESIAN_POINT('',(-0.0187725258222178,0.016793707635668,0.00508));
#2005=CARTESIAN_POINT('',(-0.0165117939885593,0.016793707635668,0.00508));
#2006=CARTESIAN_POINT('',(-0.0142510621549008,0.016793707635668,0.00508));
#2007=CARTESIAN_POINT('',(-0.0142510621549008,0.016158707635668,0.00508));
#2008=MECHANICAL_DESIGN_GEOMETRIC_PRESENTATION_REPRESENTATION('',(#1177),
#2009);
#2009=(
GEOMETRIC_REPRESENTATION_CONTEXT(3)
GLOBAL_UNCERTAINTY_ASSIGNED_CONTEXT((#2010))
GLOBAL_UNIT_ASSIGNED_CONTEXT((#2013,#2012,#2011))
REPRESENTATION_CONTEXT('Part 1','TOP_LEVEL_ASSEMBLY_PART')
);
#2010=UNCERTAINTY_MEASURE_WITH_UNIT(LENGTH_MEASURE(2.23324912501285E-5),
#2013,'DISTANCE_ACCURACY_VALUE','Maximum Tolerance applied to model');
#2011=(
NAMED_UNIT(*)
SI_UNIT($,.STERADIAN.)
SOLID_ANGLE_UNIT()
);
#2012=(
NAMED_UNIT(*)
PLANE_ANGLE_UNIT()
SI_UNIT($,.RADIAN.)
);
#2013=(
LENGTH_UNIT()
NAMED_UNIT(*)
SI_UNIT($,.METRE.)
);
#2014=PRODUCT_DEFINITION_SHAPE('','',#2015);
#2015=PRODUCT_DEFINITION('','',#2017,#2016);
#2016=PRODUCT_DEFINITION_CONTEXT('',#2023,'design');
#2017=PRODUCT_DEFINITION_FORMATION_WITH_SPECIFIED_SOURCE('','',#2019,
 .NOT_KNOWN.);
#2018=PRODUCT_RELATED_PRODUCT_CATEGORY('','',(#2019));
#2019=PRODUCT('Part 1','Part 1','Part 1',(#2021));
#2020=PRODUCT_CATEGORY('','');
#2021=PRODUCT_CONTEXT('',#2023,'mechanical');
#2022=APPLICATION_PROTOCOL_DEFINITION('international standard',
'ap242_managed_model_based_3d_engineering',2020,#2023);
#2023=APPLICATION_CONTEXT('managed model based 3d engineering');
ENDSEC;
END-ISO-10303-21;
