ISO-10303-21;
HEADER;
/* Generated by software containing ST-Developer
 * from STEP Tools, Inc. (www.steptools.com) 
 */
/* OPTION: using custom renumber hook */

FILE_DESCRIPTION(
/* description */ ('STEP AP242 Edition 2',
'CAx-IF Rec.Pracs.---Representation and Presentation of Product Manufa
cturing Information (PMI)---4.0---2014-10-13',
'CAx-IF Rec.Pracs.---3D Tessellated Geometry---0.4---2014-09-14','2;1',
'CAx-IF Rec.Pracs.---User Defined Attributes---1.5---2016-08-15'),
/* implementation_level */ '2;1');

FILE_NAME(
/* name */ 'bottom part cover - Part 1',
/* time_stamp */ '2026-08-18T00:16:47Z',
/* author */ (''),
/* organization */ (''),
/* preprocessor_version */ 'ST-DEVELOPER v20',
/* originating_system */ 'ONSHAPE BY PTC INC, 1.219',
/* authorisation */ '  ');

FILE_SCHEMA (('AP242_MANAGED_MODEL_BASED_3D_ENGINEERING_MIM_LF { 1 0 10303 442 3 1 4 }'));
ENDSEC;

DATA;
#10=SHAPE_REPRESENTATION_RELATIONSHIP('','',#760,#11);
#11=ADVANCED_BREP_SHAPE_REPRESENTATION('',(#758),#1292);
#12=CYLINDRICAL_SURFACE('',#777,0.00635);
#13=CYLINDRICAL_SURFACE('',#781,0.00635);
#14=CYLINDRICAL_SURFACE('',#787,0.00635);
#15=CYLINDRICAL_SURFACE('',#792,0.0127);
#16=CYLINDRICAL_SURFACE('',#796,0.0127);
#17=CYLINDRICAL_SURFACE('',#800,0.0127);
#18=CYLINDRICAL_SURFACE('',#804,0.0127);
#19=CYLINDRICAL_SURFACE('',#807,0.00635);
#20=CYLINDRICAL_SURFACE('',#818,0.00635);
#21=CYLINDRICAL_SURFACE('',#821,0.00635);
#22=CYLINDRICAL_SURFACE('',#823,0.00635);
#23=CYLINDRICAL_SURFACE('',#825,0.00635);
#24=CYLINDRICAL_SURFACE('',#828,0.0022479);
#25=CYLINDRICAL_SURFACE('',#829,0.0022479);
#26=CYLINDRICAL_SURFACE('',#830,0.0022479);
#27=CYLINDRICAL_SURFACE('',#831,0.0022479);
#28=CYLINDRICAL_SURFACE('',#832,0.0127);
#29=CYLINDRICAL_SURFACE('',#835,0.0127);
#30=CYLINDRICAL_SURFACE('',#838,0.0127);
#31=CYLINDRICAL_SURFACE('',#841,0.0127);
#32=LINE('',#1084,#93);
#33=LINE('',#1089,#94);
#34=LINE('',#1093,#95);
#35=LINE('',#1097,#96);
#36=LINE('',#1100,#97);
#37=LINE('',#1105,#98);
#38=LINE('',#1109,#99);
#39=LINE('',#1113,#100);
#40=LINE('',#1117,#101);
#41=LINE('',#1120,#102);
#42=LINE('',#1124,#103);
#43=LINE('',#1125,#104);
#44=LINE('',#1127,#105);
#45=LINE('',#1129,#106);
#46=LINE('',#1133,#107);
#47=LINE('',#1137,#108);
#48=LINE('',#1139,#109);
#49=LINE('',#1141,#110);
#50=LINE('',#1145,#111);
#51=LINE('',#1149,#112);
#52=LINE('',#1151,#113);
#53=LINE('',#1155,#114);
#54=LINE('',#1156,#115);
#55=LINE('',#1162,#116);
#56=LINE('',#1166,#117);
#57=LINE('',#1168,#118);
#58=LINE('',#1170,#119);
#59=LINE('',#1172,#120);
#60=LINE('',#1175,#121);
#61=LINE('',#1177,#122);
#62=LINE('',#1179,#123);
#63=LINE('',#1183,#124);
#64=LINE('',#1187,#125);
#65=LINE('',#1189,#126);
#66=LINE('',#1191,#127);
#67=LINE('',#1195,#128);
#68=LINE('',#1199,#129);
#69=LINE('',#1201,#130);
#70=LINE('',#1203,#131);
#71=LINE('',#1207,#132);
#72=LINE('',#1211,#133);
#73=LINE('',#1213,#134);
#74=LINE('',#1215,#135);
#75=LINE('',#1225,#136);
#76=LINE('',#1240,#137);
#77=LINE('',#1242,#138);
#78=LINE('',#1244,#139);
#79=LINE('',#1248,#140);
#80=LINE('',#1250,#141);
#81=LINE('',#1259,#142);
#82=LINE('',#1263,#143);
#83=LINE('',#1265,#144);
#84=LINE('',#1267,#145);
#85=LINE('',#1269,#146);
#86=LINE('',#1273,#147);
#87=LINE('',#1275,#148);
#88=LINE('',#1277,#149);
#89=LINE('',#1281,#150);
#90=LINE('',#1283,#151);
#91=LINE('',#1285,#152);
#92=LINE('',#1289,#153);
#93=VECTOR('',#857,1.);
#94=VECTOR('',#860,1.);
#95=VECTOR('',#863,1.);
#96=VECTOR('',#866,1.);
#97=VECTOR('',#869,1.);
#98=VECTOR('',#872,1.);
#99=VECTOR('',#875,1.);
#100=VECTOR('',#878,1.);
#101=VECTOR('',#883,1.);
#102=VECTOR('',#884,1.);
#103=VECTOR('',#887,1.);
#104=VECTOR('',#888,1.);
#105=VECTOR('',#889,1.);
#106=VECTOR('',#890,1.);
#107=VECTOR('',#895,1.);
#108=VECTOR('',#900,1.);
#109=VECTOR('',#901,1.);
#110=VECTOR('',#902,1.);
#111=VECTOR('',#907,1.);
#112=VECTOR('',#912,1.);
#113=VECTOR('',#913,1.);
#114=VECTOR('',#916,1.);
#115=VECTOR('',#917,1.);
#116=VECTOR('',#924,1.);
#117=VECTOR('',#929,1.);
#118=VECTOR('',#930,1.);
#119=VECTOR('',#931,1.);
#120=VECTOR('',#934,1.);
#121=VECTOR('',#935,1.);
#122=VECTOR('',#936,1.);
#123=VECTOR('',#937,1.);
#124=VECTOR('',#942,1.);
#125=VECTOR('',#947,1.);
#126=VECTOR('',#948,1.);
#127=VECTOR('',#949,1.);
#128=VECTOR('',#954,1.);
#129=VECTOR('',#959,1.);
#130=VECTOR('',#960,1.);
#131=VECTOR('',#961,1.);
#132=VECTOR('',#966,1.);
#133=VECTOR('',#971,1.);
#134=VECTOR('',#972,1.);
#135=VECTOR('',#973,1.);
#136=VECTOR('',#990,1.);
#137=VECTOR('',#1007,1.);
#138=VECTOR('',#1010,1.);
#139=VECTOR('',#1011,1.);
#140=VECTOR('',#1018,1.);
#141=VECTOR('',#1021,1.);
#142=VECTOR('',#1038,1.);
#143=VECTOR('',#1041,1.);
#144=VECTOR('',#1044,1.);
#145=VECTOR('',#1045,1.);
#146=VECTOR('',#1048,1.);
#147=VECTOR('',#1053,1.);
#148=VECTOR('',#1054,1.);
#149=VECTOR('',#1057,1.);
#150=VECTOR('',#1062,1.);
#151=VECTOR('',#1063,1.);
#152=VECTOR('',#1066,1.);
#153=VECTOR('',#1071,1.);
#154=ORIENTED_EDGE('',*,*,#362,.F.);
#155=ORIENTED_EDGE('',*,*,#363,.F.);
#156=ORIENTED_EDGE('',*,*,#364,.F.);
#157=ORIENTED_EDGE('',*,*,#365,.F.);
#158=ORIENTED_EDGE('',*,*,#366,.T.);
#159=ORIENTED_EDGE('',*,*,#367,.T.);
#160=ORIENTED_EDGE('',*,*,#368,.T.);
#161=ORIENTED_EDGE('',*,*,#369,.T.);
#162=ORIENTED_EDGE('',*,*,#370,.F.);
#163=ORIENTED_EDGE('',*,*,#371,.T.);
#164=ORIENTED_EDGE('',*,*,#372,.F.);
#165=ORIENTED_EDGE('',*,*,#373,.T.);
#166=ORIENTED_EDGE('',*,*,#374,.F.);
#167=ORIENTED_EDGE('',*,*,#375,.T.);
#168=ORIENTED_EDGE('',*,*,#376,.T.);
#169=ORIENTED_EDGE('',*,*,#377,.T.);
#170=ORIENTED_EDGE('',*,*,#378,.F.);
#171=ORIENTED_EDGE('',*,*,#379,.T.);
#172=ORIENTED_EDGE('',*,*,#380,.F.);
#173=ORIENTED_EDGE('',*,*,#381,.T.);
#174=ORIENTED_EDGE('',*,*,#382,.T.);
#175=ORIENTED_EDGE('',*,*,#383,.F.);
#176=ORIENTED_EDGE('',*,*,#384,.F.);
#177=ORIENTED_EDGE('',*,*,#385,.F.);
#178=ORIENTED_EDGE('',*,*,#366,.F.);
#179=ORIENTED_EDGE('',*,*,#386,.T.);
#180=ORIENTED_EDGE('',*,*,#387,.T.);
#181=ORIENTED_EDGE('',*,*,#388,.T.);
#182=ORIENTED_EDGE('',*,*,#389,.T.);
#183=ORIENTED_EDGE('',*,*,#390,.F.);
#184=ORIENTED_EDGE('',*,*,#391,.F.);
#185=ORIENTED_EDGE('',*,*,#383,.T.);
#186=ORIENTED_EDGE('',*,*,#392,.T.);
#187=ORIENTED_EDGE('',*,*,#393,.F.);
#188=ORIENTED_EDGE('',*,*,#394,.F.);
#189=ORIENTED_EDGE('',*,*,#390,.T.);
#190=ORIENTED_EDGE('',*,*,#395,.T.);
#191=ORIENTED_EDGE('',*,*,#396,.F.);
#192=ORIENTED_EDGE('',*,*,#397,.F.);
#193=ORIENTED_EDGE('',*,*,#393,.T.);
#194=ORIENTED_EDGE('',*,*,#398,.F.);
#195=ORIENTED_EDGE('',*,*,#399,.F.);
#196=ORIENTED_EDGE('',*,*,#400,.T.);
#197=ORIENTED_EDGE('',*,*,#401,.F.);
#198=ORIENTED_EDGE('',*,*,#370,.T.);
#199=ORIENTED_EDGE('',*,*,#402,.T.);
#200=ORIENTED_EDGE('',*,*,#403,.F.);
#201=ORIENTED_EDGE('',*,*,#396,.T.);
#202=ORIENTED_EDGE('',*,*,#404,.T.);
#203=ORIENTED_EDGE('',*,*,#405,.F.);
#204=ORIENTED_EDGE('',*,*,#406,.F.);
#205=ORIENTED_EDGE('',*,*,#400,.F.);
#206=ORIENTED_EDGE('',*,*,#399,.T.);
#207=ORIENTED_EDGE('',*,*,#407,.F.);
#208=ORIENTED_EDGE('',*,*,#408,.F.);
#209=ORIENTED_EDGE('',*,*,#409,.T.);
#210=ORIENTED_EDGE('',*,*,#405,.T.);
#211=ORIENTED_EDGE('',*,*,#410,.F.);
#212=ORIENTED_EDGE('',*,*,#411,.F.);
#213=ORIENTED_EDGE('',*,*,#412,.T.);
#214=ORIENTED_EDGE('',*,*,#413,.T.);
#215=ORIENTED_EDGE('',*,*,#414,.T.);
#216=ORIENTED_EDGE('',*,*,#415,.F.);
#217=ORIENTED_EDGE('',*,*,#416,.F.);
#218=ORIENTED_EDGE('',*,*,#411,.T.);
#219=ORIENTED_EDGE('',*,*,#417,.T.);
#220=ORIENTED_EDGE('',*,*,#418,.F.);
#221=ORIENTED_EDGE('',*,*,#419,.F.);
#222=ORIENTED_EDGE('',*,*,#415,.T.);
#223=ORIENTED_EDGE('',*,*,#420,.T.);
#224=ORIENTED_EDGE('',*,*,#421,.F.);
#225=ORIENTED_EDGE('',*,*,#422,.F.);
#226=ORIENTED_EDGE('',*,*,#418,.T.);
#227=ORIENTED_EDGE('',*,*,#423,.F.);
#228=ORIENTED_EDGE('',*,*,#424,.F.);
#229=ORIENTED_EDGE('',*,*,#425,.T.);
#230=ORIENTED_EDGE('',*,*,#421,.T.);
#231=ORIENTED_EDGE('',*,*,#426,.T.);
#232=ORIENTED_EDGE('',*,*,#427,.F.);
#233=ORIENTED_EDGE('',*,*,#428,.F.);
#234=ORIENTED_EDGE('',*,*,#424,.T.);
#235=ORIENTED_EDGE('',*,*,#429,.F.);
#236=ORIENTED_EDGE('',*,*,#430,.F.);
#237=ORIENTED_EDGE('',*,*,#431,.T.);
#238=ORIENTED_EDGE('',*,*,#427,.T.);
#239=ORIENTED_EDGE('',*,*,#432,.T.);
#240=ORIENTED_EDGE('',*,*,#413,.F.);
#241=ORIENTED_EDGE('',*,*,#433,.F.);
#242=ORIENTED_EDGE('',*,*,#430,.T.);
#243=ORIENTED_EDGE('',*,*,#434,.T.);
#244=ORIENTED_EDGE('',*,*,#388,.F.);
#245=ORIENTED_EDGE('',*,*,#387,.F.);
#246=ORIENTED_EDGE('',*,*,#435,.F.);
#247=ORIENTED_EDGE('',*,*,#408,.T.);
#248=ORIENTED_EDGE('',*,*,#436,.F.);
#249=ORIENTED_EDGE('',*,*,#437,.F.);
#250=ORIENTED_EDGE('',*,*,#438,.F.);
#251=ORIENTED_EDGE('',*,*,#391,.T.);
#252=ORIENTED_EDGE('',*,*,#394,.T.);
#253=ORIENTED_EDGE('',*,*,#397,.T.);
#254=ORIENTED_EDGE('',*,*,#439,.F.);
#255=ORIENTED_EDGE('',*,*,#440,.F.);
#256=ORIENTED_EDGE('',*,*,#441,.F.);
#257=ORIENTED_EDGE('',*,*,#442,.F.);
#258=ORIENTED_EDGE('',*,*,#410,.T.);
#259=ORIENTED_EDGE('',*,*,#432,.F.);
#260=ORIENTED_EDGE('',*,*,#429,.T.);
#261=ORIENTED_EDGE('',*,*,#426,.F.);
#262=ORIENTED_EDGE('',*,*,#423,.T.);
#263=ORIENTED_EDGE('',*,*,#420,.F.);
#264=ORIENTED_EDGE('',*,*,#417,.F.);
#265=ORIENTED_EDGE('',*,*,#414,.F.);
#266=ORIENTED_EDGE('',*,*,#382,.F.);
#267=ORIENTED_EDGE('',*,*,#434,.F.);
#268=ORIENTED_EDGE('',*,*,#407,.T.);
#269=ORIENTED_EDGE('',*,*,#404,.F.);
#270=ORIENTED_EDGE('',*,*,#398,.T.);
#271=ORIENTED_EDGE('',*,*,#395,.F.);
#272=ORIENTED_EDGE('',*,*,#392,.F.);
#273=ORIENTED_EDGE('',*,*,#389,.F.);
#274=ORIENTED_EDGE('',*,*,#443,.T.);
#275=ORIENTED_EDGE('',*,*,#386,.F.);
#276=ORIENTED_EDGE('',*,*,#373,.F.);
#277=ORIENTED_EDGE('',*,*,#444,.T.);
#278=ORIENTED_EDGE('',*,*,#445,.F.);
#279=ORIENTED_EDGE('',*,*,#444,.F.);
#280=ORIENTED_EDGE('',*,*,#372,.T.);
#281=ORIENTED_EDGE('',*,*,#446,.T.);
#282=ORIENTED_EDGE('',*,*,#447,.T.);
#283=ORIENTED_EDGE('',*,*,#446,.F.);
#284=ORIENTED_EDGE('',*,*,#371,.F.);
#285=ORIENTED_EDGE('',*,*,#401,.T.);
#286=ORIENTED_EDGE('',*,*,#436,.T.);
#287=ORIENTED_EDGE('',*,*,#403,.T.);
#288=ORIENTED_EDGE('',*,*,#402,.F.);
#289=ORIENTED_EDGE('',*,*,#369,.F.);
#290=ORIENTED_EDGE('',*,*,#448,.T.);
#291=ORIENTED_EDGE('',*,*,#437,.T.);
#292=ORIENTED_EDGE('',*,*,#448,.F.);
#293=ORIENTED_EDGE('',*,*,#368,.F.);
#294=ORIENTED_EDGE('',*,*,#449,.T.);
#295=ORIENTED_EDGE('',*,*,#384,.T.);
#296=ORIENTED_EDGE('',*,*,#438,.T.);
#297=ORIENTED_EDGE('',*,*,#449,.F.);
#298=ORIENTED_EDGE('',*,*,#367,.F.);
#299=ORIENTED_EDGE('',*,*,#385,.T.);
#300=ORIENTED_EDGE('',*,*,#447,.F.);
#301=ORIENTED_EDGE('',*,*,#406,.T.);
#302=ORIENTED_EDGE('',*,*,#409,.F.);
#303=ORIENTED_EDGE('',*,*,#435,.T.);
#304=ORIENTED_EDGE('',*,*,#443,.F.);
#305=ORIENTED_EDGE('',*,*,#445,.T.);
#306=ORIENTED_EDGE('',*,*,#412,.F.);
#307=ORIENTED_EDGE('',*,*,#416,.T.);
#308=ORIENTED_EDGE('',*,*,#419,.T.);
#309=ORIENTED_EDGE('',*,*,#422,.T.);
#310=ORIENTED_EDGE('',*,*,#425,.F.);
#311=ORIENTED_EDGE('',*,*,#428,.T.);
#312=ORIENTED_EDGE('',*,*,#431,.F.);
#313=ORIENTED_EDGE('',*,*,#433,.T.);
#314=ORIENTED_EDGE('',*,*,#365,.T.);
#315=ORIENTED_EDGE('',*,*,#442,.T.);
#316=ORIENTED_EDGE('',*,*,#364,.T.);
#317=ORIENTED_EDGE('',*,*,#441,.T.);
#318=ORIENTED_EDGE('',*,*,#363,.T.);
#319=ORIENTED_EDGE('',*,*,#440,.T.);
#320=ORIENTED_EDGE('',*,*,#362,.T.);
#321=ORIENTED_EDGE('',*,*,#439,.T.);
#322=ORIENTED_EDGE('',*,*,#375,.F.);
#323=ORIENTED_EDGE('',*,*,#450,.F.);
#324=ORIENTED_EDGE('',*,*,#451,.T.);
#325=ORIENTED_EDGE('',*,*,#452,.T.);
#326=ORIENTED_EDGE('',*,*,#374,.T.);
#327=ORIENTED_EDGE('',*,*,#453,.F.);
#328=ORIENTED_EDGE('',*,*,#454,.F.);
#329=ORIENTED_EDGE('',*,*,#450,.T.);
#330=ORIENTED_EDGE('',*,*,#381,.F.);
#331=ORIENTED_EDGE('',*,*,#455,.F.);
#332=ORIENTED_EDGE('',*,*,#456,.T.);
#333=ORIENTED_EDGE('',*,*,#453,.T.);
#334=ORIENTED_EDGE('',*,*,#380,.T.);
#335=ORIENTED_EDGE('',*,*,#457,.F.);
#336=ORIENTED_EDGE('',*,*,#458,.F.);
#337=ORIENTED_EDGE('',*,*,#455,.T.);
#338=ORIENTED_EDGE('',*,*,#379,.F.);
#339=ORIENTED_EDGE('',*,*,#459,.F.);
#340=ORIENTED_EDGE('',*,*,#460,.T.);
#341=ORIENTED_EDGE('',*,*,#457,.T.);
#342=ORIENTED_EDGE('',*,*,#378,.T.);
#343=ORIENTED_EDGE('',*,*,#461,.F.);
#344=ORIENTED_EDGE('',*,*,#462,.F.);
#345=ORIENTED_EDGE('',*,*,#459,.T.);
#346=ORIENTED_EDGE('',*,*,#377,.F.);
#347=ORIENTED_EDGE('',*,*,#463,.F.);
#348=ORIENTED_EDGE('',*,*,#464,.T.);
#349=ORIENTED_EDGE('',*,*,#461,.T.);
#350=ORIENTED_EDGE('',*,*,#376,.F.);
#351=ORIENTED_EDGE('',*,*,#452,.F.);
#352=ORIENTED_EDGE('',*,*,#465,.T.);
#353=ORIENTED_EDGE('',*,*,#463,.T.);
#354=ORIENTED_EDGE('',*,*,#451,.F.);
#355=ORIENTED_EDGE('',*,*,#454,.T.);
#356=ORIENTED_EDGE('',*,*,#456,.F.);
#357=ORIENTED_EDGE('',*,*,#458,.T.);
#358=ORIENTED_EDGE('',*,*,#460,.F.);
#359=ORIENTED_EDGE('',*,*,#462,.T.);
#360=ORIENTED_EDGE('',*,*,#464,.F.);
#361=ORIENTED_EDGE('',*,*,#465,.F.);
#362=EDGE_CURVE('',#466,#466,#538,.T.);
#363=EDGE_CURVE('',#467,#467,#539,.T.);
#364=EDGE_CURVE('',#468,#468,#540,.T.);
#365=EDGE_CURVE('',#469,#469,#541,.T.);
#366=EDGE_CURVE('',#470,#471,#32,.T.);
#367=EDGE_CURVE('',#471,#472,#542,.T.);
#368=EDGE_CURVE('',#472,#473,#33,.T.);
#369=EDGE_CURVE('',#473,#474,#543,.T.);
#370=EDGE_CURVE('',#475,#474,#34,.T.);
#371=EDGE_CURVE('',#475,#476,#544,.T.);
#372=EDGE_CURVE('',#477,#476,#35,.T.);
#373=EDGE_CURVE('',#477,#470,#545,.T.);
#374=EDGE_CURVE('',#478,#479,#36,.T.);
#375=EDGE_CURVE('',#478,#480,#546,.T.);
#376=EDGE_CURVE('',#480,#481,#37,.T.);
#377=EDGE_CURVE('',#481,#482,#547,.T.);
#378=EDGE_CURVE('',#483,#482,#38,.T.);
#379=EDGE_CURVE('',#483,#484,#548,.T.);
#380=EDGE_CURVE('',#485,#484,#39,.T.);
#381=EDGE_CURVE('',#485,#479,#549,.T.);
#382=EDGE_CURVE('',#486,#487,#40,.T.);
#383=EDGE_CURVE('',#488,#487,#41,.T.);
#384=EDGE_CURVE('',#489,#488,#550,.T.);
#385=EDGE_CURVE('',#471,#489,#42,.T.);
#386=EDGE_CURVE('',#470,#490,#43,.T.);
#387=EDGE_CURVE('',#490,#491,#44,.T.);
#388=EDGE_CURVE('',#491,#486,#45,.T.);
#389=EDGE_CURVE('',#487,#492,#551,.T.);
#390=EDGE_CURVE('',#493,#492,#46,.T.);
#391=EDGE_CURVE('',#488,#493,#552,.T.);
#392=EDGE_CURVE('',#492,#494,#47,.T.);
#393=EDGE_CURVE('',#495,#494,#48,.T.);
#394=EDGE_CURVE('',#493,#495,#49,.T.);
#395=EDGE_CURVE('',#494,#496,#553,.T.);
#396=EDGE_CURVE('',#497,#496,#50,.T.);
#397=EDGE_CURVE('',#495,#497,#554,.T.);
#398=EDGE_CURVE('',#498,#496,#51,.T.);
#399=EDGE_CURVE('',#499,#498,#52,.T.);
#400=EDGE_CURVE('',#499,#500,#555,.T.);
#401=EDGE_CURVE('',#475,#500,#53,.T.);
#402=EDGE_CURVE('',#474,#501,#54,.T.);
#403=EDGE_CURVE('',#497,#501,#556,.T.);
#404=EDGE_CURVE('',#498,#502,#557,.T.);
#405=EDGE_CURVE('',#503,#502,#55,.T.);
#406=EDGE_CURVE('',#500,#503,#558,.T.);
#407=EDGE_CURVE('',#504,#502,#56,.T.);
#408=EDGE_CURVE('',#505,#504,#57,.T.);
#409=EDGE_CURVE('',#505,#503,#58,.T.);
#410=EDGE_CURVE('',#506,#507,#59,.T.);
#411=EDGE_CURVE('',#508,#506,#60,.T.);
#412=EDGE_CURVE('',#508,#509,#61,.T.);
#413=EDGE_CURVE('',#509,#507,#62,.T.);
#414=EDGE_CURVE('',#506,#510,#559,.T.);
#415=EDGE_CURVE('',#511,#510,#63,.T.);
#416=EDGE_CURVE('',#508,#511,#560,.T.);
#417=EDGE_CURVE('',#510,#512,#64,.T.);
#418=EDGE_CURVE('',#513,#512,#65,.T.);
#419=EDGE_CURVE('',#511,#513,#66,.T.);
#420=EDGE_CURVE('',#512,#514,#561,.T.);
#421=EDGE_CURVE('',#515,#514,#67,.T.);
#422=EDGE_CURVE('',#513,#515,#562,.T.);
#423=EDGE_CURVE('',#516,#514,#68,.T.);
#424=EDGE_CURVE('',#517,#516,#69,.T.);
#425=EDGE_CURVE('',#517,#515,#70,.T.);
#426=EDGE_CURVE('',#516,#518,#563,.T.);
#427=EDGE_CURVE('',#519,#518,#71,.T.);
#428=EDGE_CURVE('',#517,#519,#564,.T.);
#429=EDGE_CURVE('',#520,#518,#72,.T.);
#430=EDGE_CURVE('',#521,#520,#73,.T.);
#431=EDGE_CURVE('',#521,#519,#74,.T.);
#432=EDGE_CURVE('',#520,#507,#565,.T.);
#433=EDGE_CURVE('',#521,#509,#566,.T.);
#434=EDGE_CURVE('',#504,#486,#567,.T.);
#435=EDGE_CURVE('',#505,#490,#568,.T.);
#436=EDGE_CURVE('',#522,#497,#569,.T.);
#437=EDGE_CURVE('',#523,#522,#75,.T.);
#438=EDGE_CURVE('',#488,#523,#570,.T.);
#439=EDGE_CURVE('',#524,#524,#571,.T.);
#440=EDGE_CURVE('',#525,#525,#572,.T.);
#441=EDGE_CURVE('',#526,#526,#573,.T.);
#442=EDGE_CURVE('',#527,#527,#574,.T.);
#443=EDGE_CURVE('',#528,#490,#575,.T.);
#444=EDGE_CURVE('',#477,#528,#76,.T.);
#445=EDGE_CURVE('',#528,#529,#77,.T.);
#446=EDGE_CURVE('',#476,#529,#78,.T.);
#447=EDGE_CURVE('',#500,#529,#576,.T.);
#448=EDGE_CURVE('',#473,#522,#79,.T.);
#449=EDGE_CURVE('',#472,#523,#80,.T.);
#450=EDGE_CURVE('',#530,#478,#81,.T.);
#451=EDGE_CURVE('',#530,#531,#577,.T.);
#452=EDGE_CURVE('',#531,#480,#82,.T.);
#453=EDGE_CURVE('',#532,#479,#83,.T.);
#454=EDGE_CURVE('',#530,#532,#84,.T.);
#455=EDGE_CURVE('',#533,#485,#85,.T.);
#456=EDGE_CURVE('',#533,#532,#578,.T.);
#457=EDGE_CURVE('',#534,#484,#86,.T.);
#458=EDGE_CURVE('',#533,#534,#87,.T.);
#459=EDGE_CURVE('',#535,#483,#88,.T.);
#460=EDGE_CURVE('',#535,#534,#579,.T.);
#461=EDGE_CURVE('',#536,#482,#89,.T.);
#462=EDGE_CURVE('',#535,#536,#90,.T.);
#463=EDGE_CURVE('',#537,#481,#91,.T.);
#464=EDGE_CURVE('',#537,#536,#580,.T.);
#465=EDGE_CURVE('',#531,#537,#92,.T.);
#466=VERTEX_POINT('',#1077);
#467=VERTEX_POINT('',#1079);
#468=VERTEX_POINT('',#1081);
#469=VERTEX_POINT('',#1083);
#470=VERTEX_POINT('',#1085);
#471=VERTEX_POINT('',#1086);
#472=VERTEX_POINT('',#1088);
#473=VERTEX_POINT('',#1090);
#474=VERTEX_POINT('',#1092);
#475=VERTEX_POINT('',#1094);
#476=VERTEX_POINT('',#1096);
#477=VERTEX_POINT('',#1098);
#478=VERTEX_POINT('',#1101);
#479=VERTEX_POINT('',#1102);
#480=VERTEX_POINT('',#1104);
#481=VERTEX_POINT('',#1106);
#482=VERTEX_POINT('',#1108);
#483=VERTEX_POINT('',#1110);
#484=VERTEX_POINT('',#1112);
#485=VERTEX_POINT('',#1114);
#486=VERTEX_POINT('',#1118);
#487=VERTEX_POINT('',#1119);
#488=VERTEX_POINT('',#1121);
#489=VERTEX_POINT('',#1123);
#490=VERTEX_POINT('',#1126);
#491=VERTEX_POINT('',#1128);
#492=VERTEX_POINT('',#1132);
#493=VERTEX_POINT('',#1134);
#494=VERTEX_POINT('',#1138);
#495=VERTEX_POINT('',#1140);
#496=VERTEX_POINT('',#1144);
#497=VERTEX_POINT('',#1146);
#498=VERTEX_POINT('',#1150);
#499=VERTEX_POINT('',#1152);
#500=VERTEX_POINT('',#1154);
#501=VERTEX_POINT('',#1157);
#502=VERTEX_POINT('',#1161);
#503=VERTEX_POINT('',#1163);
#504=VERTEX_POINT('',#1167);
#505=VERTEX_POINT('',#1169);
#506=VERTEX_POINT('',#1173);
#507=VERTEX_POINT('',#1174);
#508=VERTEX_POINT('',#1176);
#509=VERTEX_POINT('',#1178);
#510=VERTEX_POINT('',#1182);
#511=VERTEX_POINT('',#1184);
#512=VERTEX_POINT('',#1188);
#513=VERTEX_POINT('',#1190);
#514=VERTEX_POINT('',#1194);
#515=VERTEX_POINT('',#1196);
#516=VERTEX_POINT('',#1200);
#517=VERTEX_POINT('',#1202);
#518=VERTEX_POINT('',#1206);
#519=VERTEX_POINT('',#1208);
#520=VERTEX_POINT('',#1212);
#521=VERTEX_POINT('',#1214);
#522=VERTEX_POINT('',#1224);
#523=VERTEX_POINT('',#1226);
#524=VERTEX_POINT('',#1230);
#525=VERTEX_POINT('',#1232);
#526=VERTEX_POINT('',#1234);
#527=VERTEX_POINT('',#1236);
#528=VERTEX_POINT('',#1239);
#529=VERTEX_POINT('',#1243);
#530=VERTEX_POINT('',#1260);
#531=VERTEX_POINT('',#1262);
#532=VERTEX_POINT('',#1266);
#533=VERTEX_POINT('',#1270);
#534=VERTEX_POINT('',#1274);
#535=VERTEX_POINT('',#1278);
#536=VERTEX_POINT('',#1282);
#537=VERTEX_POINT('',#1286);
#538=CIRCLE('',#763,0.0022479);
#539=CIRCLE('',#764,0.0022479);
#540=CIRCLE('',#765,0.0022479);
#541=CIRCLE('',#766,0.0022479);
#542=CIRCLE('',#767,0.00635);
#543=CIRCLE('',#768,0.00635);
#544=CIRCLE('',#769,0.00635);
#545=CIRCLE('',#770,0.00635);
#546=CIRCLE('',#771,0.0127);
#547=CIRCLE('',#772,0.0127);
#548=CIRCLE('',#773,0.0127);
#549=CIRCLE('',#774,0.0127);
#550=CIRCLE('',#776,0.00635);
#551=CIRCLE('',#778,0.00635);
#552=CIRCLE('',#779,0.00635);
#553=CIRCLE('',#782,0.00635);
#554=CIRCLE('',#783,0.00635);
#555=CIRCLE('',#785,0.00635);
#556=CIRCLE('',#786,0.00635);
#557=CIRCLE('',#788,0.00635);
#558=CIRCLE('',#789,0.00635);
#559=CIRCLE('',#793,0.0127);
#560=CIRCLE('',#794,0.0127);
#561=CIRCLE('',#797,0.0127);
#562=CIRCLE('',#798,0.0127);
#563=CIRCLE('',#801,0.0127);
#564=CIRCLE('',#802,0.0127);
#565=CIRCLE('',#805,0.0127);
#566=CIRCLE('',#806,0.0127);
#567=CIRCLE('',#808,0.00635);
#568=CIRCLE('',#809,0.00635);
#569=CIRCLE('',#811,0.00635);
#570=CIRCLE('',#812,0.00635);
#571=CIRCLE('',#814,0.0022479);
#572=CIRCLE('',#815,0.0022479);
#573=CIRCLE('',#816,0.0022479);
#574=CIRCLE('',#817,0.0022479);
#575=CIRCLE('',#819,0.00635);
#576=CIRCLE('',#822,0.00635);
#577=CIRCLE('',#833,0.0127);
#578=CIRCLE('',#836,0.0127);
#579=CIRCLE('',#839,0.0127);
#580=CIRCLE('',#842,0.0127);
#581=EDGE_LOOP('',(#154));
#582=EDGE_LOOP('',(#155));
#583=EDGE_LOOP('',(#156));
#584=EDGE_LOOP('',(#157));
#585=EDGE_LOOP('',(#158,#159,#160,#161,#162,#163,#164,#165));
#586=EDGE_LOOP('',(#166,#167,#168,#169,#170,#171,#172,#173));
#587=EDGE_LOOP('',(#174,#175,#176,#177,#178,#179,#180,#181));
#588=EDGE_LOOP('',(#182,#183,#184,#185));
#589=EDGE_LOOP('',(#186,#187,#188,#189));
#590=EDGE_LOOP('',(#190,#191,#192,#193));
#591=EDGE_LOOP('',(#194,#195,#196,#197,#198,#199,#200,#201));
#592=EDGE_LOOP('',(#202,#203,#204,#205,#206));
#593=EDGE_LOOP('',(#207,#208,#209,#210));
#594=EDGE_LOOP('',(#211,#212,#213,#214));
#595=EDGE_LOOP('',(#215,#216,#217,#218));
#596=EDGE_LOOP('',(#219,#220,#221,#222));
#597=EDGE_LOOP('',(#223,#224,#225,#226));
#598=EDGE_LOOP('',(#227,#228,#229,#230));
#599=EDGE_LOOP('',(#231,#232,#233,#234));
#600=EDGE_LOOP('',(#235,#236,#237,#238));
#601=EDGE_LOOP('',(#239,#240,#241,#242));
#602=EDGE_LOOP('',(#243,#244,#245,#246,#247));
#603=EDGE_LOOP('',(#248,#249,#250,#251,#252,#253));
#604=EDGE_LOOP('',(#254));
#605=EDGE_LOOP('',(#255));
#606=EDGE_LOOP('',(#256));
#607=EDGE_LOOP('',(#257));
#608=EDGE_LOOP('',(#258,#259,#260,#261,#262,#263,#264,#265));
#609=EDGE_LOOP('',(#266,#267,#268,#269,#270,#271,#272,#273));
#610=EDGE_LOOP('',(#274,#275,#276,#277));
#611=EDGE_LOOP('',(#278,#279,#280,#281));
#612=EDGE_LOOP('',(#282,#283,#284,#285));
#613=EDGE_LOOP('',(#286,#287,#288,#289,#290));
#614=EDGE_LOOP('',(#291,#292,#293,#294));
#615=EDGE_LOOP('',(#295,#296,#297,#298,#299));
#616=EDGE_LOOP('',(#300,#301,#302,#303,#304,#305));
#617=EDGE_LOOP('',(#306,#307,#308,#309,#310,#311,#312,#313));
#618=EDGE_LOOP('',(#314));
#619=EDGE_LOOP('',(#315));
#620=EDGE_LOOP('',(#316));
#621=EDGE_LOOP('',(#317));
#622=EDGE_LOOP('',(#318));
#623=EDGE_LOOP('',(#319));
#624=EDGE_LOOP('',(#320));
#625=EDGE_LOOP('',(#321));
#626=EDGE_LOOP('',(#322,#323,#324,#325));
#627=EDGE_LOOP('',(#326,#327,#328,#329));
#628=EDGE_LOOP('',(#330,#331,#332,#333));
#629=EDGE_LOOP('',(#334,#335,#336,#337));
#630=EDGE_LOOP('',(#338,#339,#340,#341));
#631=EDGE_LOOP('',(#342,#343,#344,#345));
#632=EDGE_LOOP('',(#346,#347,#348,#349));
#633=EDGE_LOOP('',(#350,#351,#352,#353));
#634=EDGE_LOOP('',(#354,#355,#356,#357,#358,#359,#360,#361));
#635=FACE_BOUND('',#581,.T.);
#636=FACE_BOUND('',#582,.T.);
#637=FACE_BOUND('',#583,.T.);
#638=FACE_BOUND('',#584,.T.);
#639=FACE_BOUND('',#585,.T.);
#640=FACE_BOUND('',#586,.T.);
#641=FACE_BOUND('',#587,.T.);
#642=FACE_BOUND('',#588,.T.);
#643=FACE_BOUND('',#589,.T.);
#644=FACE_BOUND('',#590,.T.);
#645=FACE_BOUND('',#591,.T.);
#646=FACE_BOUND('',#592,.T.);
#647=FACE_BOUND('',#593,.T.);
#648=FACE_BOUND('',#594,.T.);
#649=FACE_BOUND('',#595,.T.);
#650=FACE_BOUND('',#596,.T.);
#651=FACE_BOUND('',#597,.T.);
#652=FACE_BOUND('',#598,.T.);
#653=FACE_BOUND('',#599,.T.);
#654=FACE_BOUND('',#600,.T.);
#655=FACE_BOUND('',#601,.T.);
#656=FACE_BOUND('',#602,.T.);
#657=FACE_BOUND('',#603,.T.);
#658=FACE_BOUND('',#604,.T.);
#659=FACE_BOUND('',#605,.T.);
#660=FACE_BOUND('',#606,.T.);
#661=FACE_BOUND('',#607,.T.);
#662=FACE_BOUND('',#608,.T.);
#663=FACE_BOUND('',#609,.T.);
#664=FACE_BOUND('',#610,.T.);
#665=FACE_BOUND('',#611,.T.);
#666=FACE_BOUND('',#612,.T.);
#667=FACE_BOUND('',#613,.T.);
#668=FACE_BOUND('',#614,.T.);
#669=FACE_BOUND('',#615,.T.);
#670=FACE_BOUND('',#616,.T.);
#671=FACE_BOUND('',#617,.T.);
#672=FACE_BOUND('',#618,.T.);
#673=FACE_BOUND('',#619,.T.);
#674=FACE_BOUND('',#620,.T.);
#675=FACE_BOUND('',#621,.T.);
#676=FACE_BOUND('',#622,.T.);
#677=FACE_BOUND('',#623,.T.);
#678=FACE_BOUND('',#624,.T.);
#679=FACE_BOUND('',#625,.T.);
#680=FACE_BOUND('',#626,.T.);
#681=FACE_BOUND('',#627,.T.);
#682=FACE_BOUND('',#628,.T.);
#683=FACE_BOUND('',#629,.T.);
#684=FACE_BOUND('',#630,.T.);
#685=FACE_BOUND('',#631,.T.);
#686=FACE_BOUND('',#632,.T.);
#687=FACE_BOUND('',#633,.T.);
#688=FACE_BOUND('',#634,.T.);
#689=PLANE('',#762);
#690=PLANE('',#775);
#691=PLANE('',#780);
#692=PLANE('',#784);
#693=PLANE('',#790);
#694=PLANE('',#791);
#695=PLANE('',#795);
#696=PLANE('',#799);
#697=PLANE('',#803);
#698=PLANE('',#810);
#699=PLANE('',#813);
#700=PLANE('',#820);
#701=PLANE('',#824);
#702=PLANE('',#826);
#703=PLANE('',#827);
#704=PLANE('',#834);
#705=PLANE('',#837);
#706=PLANE('',#840);
#707=PLANE('',#843);
#708=PLANE('',#844);
#709=ADVANCED_FACE('',(#635,#636,#637,#638,#639,#640),#689,.T.);
#710=ADVANCED_FACE('',(#641),#690,.F.);
#711=ADVANCED_FACE('',(#642),#12,.T.);
#712=ADVANCED_FACE('',(#643),#691,.F.);
#713=ADVANCED_FACE('',(#644),#13,.T.);
#714=ADVANCED_FACE('',(#645),#692,.T.);
#715=ADVANCED_FACE('',(#646),#14,.T.);
#716=ADVANCED_FACE('',(#647),#693,.T.);
#717=ADVANCED_FACE('',(#648),#694,.T.);
#718=ADVANCED_FACE('',(#649),#15,.T.);
#719=ADVANCED_FACE('',(#650),#695,.F.);
#720=ADVANCED_FACE('',(#651),#16,.T.);
#721=ADVANCED_FACE('',(#652),#696,.T.);
#722=ADVANCED_FACE('',(#653),#17,.T.);
#723=ADVANCED_FACE('',(#654),#697,.T.);
#724=ADVANCED_FACE('',(#655),#18,.T.);
#725=ADVANCED_FACE('',(#656),#19,.T.);
#726=ADVANCED_FACE('',(#657),#698,.T.);
#727=ADVANCED_FACE('',(#658,#659,#660,#661,#662,#663),#699,.F.);
#728=ADVANCED_FACE('',(#664),#20,.T.);
#729=ADVANCED_FACE('',(#665),#700,.T.);
#730=ADVANCED_FACE('',(#666),#21,.T.);
#731=ADVANCED_FACE('',(#667),#22,.T.);
#732=ADVANCED_FACE('',(#668),#701,.F.);
#733=ADVANCED_FACE('',(#669),#23,.T.);
#734=ADVANCED_FACE('',(#670),#702,.F.);
#735=ADVANCED_FACE('',(#671),#703,.F.);
#736=ADVANCED_FACE('',(#672,#673),#24,.F.);
#737=ADVANCED_FACE('',(#674,#675),#25,.F.);
#738=ADVANCED_FACE('',(#676,#677),#26,.F.);
#739=ADVANCED_FACE('',(#678,#679),#27,.F.);
#740=ADVANCED_FACE('',(#680),#28,.F.);
#741=ADVANCED_FACE('',(#681),#704,.F.);
#742=ADVANCED_FACE('',(#682),#29,.F.);
#743=ADVANCED_FACE('',(#683),#705,.F.);
#744=ADVANCED_FACE('',(#684),#30,.F.);
#745=ADVANCED_FACE('',(#685),#706,.F.);
#746=ADVANCED_FACE('',(#686),#31,.F.);
#747=ADVANCED_FACE('',(#687),#707,.T.);
#748=ADVANCED_FACE('',(#688),#708,.T.);
#749=CLOSED_SHELL('',(#709,#710,#711,#712,#713,#714,#715,#716,#717,#718,
#719,#720,#721,#722,#723,#724,#725,#726,#727,#728,#729,#730,#731,#732,#733,
#734,#735,#736,#737,#738,#739,#740,#741,#742,#743,#744,#745,#746,#747,#748));
#750=STYLED_ITEM('',(#751),#758);
#751=PRESENTATION_STYLE_ASSIGNMENT((#752));
#752=SURFACE_STYLE_USAGE(.BOTH.,#753);
#753=SURFACE_SIDE_STYLE('',(#754));
#754=SURFACE_STYLE_FILL_AREA(#755);
#755=FILL_AREA_STYLE('',(#756));
#756=FILL_AREA_STYLE_COLOUR('',#757);
#757=COLOUR_RGB('',0.615686274509804,0.811764705882353,0.929411764705882);
#758=MANIFOLD_SOLID_BREP('Part 1',#749);
#759=SHAPE_DEFINITION_REPRESENTATION(#1297,#760);
#760=SHAPE_REPRESENTATION('Part 1',(#761),#1292);
#761=AXIS2_PLACEMENT_3D('',#1074,#845,#846);
#762=AXIS2_PLACEMENT_3D('',#1075,#847,#848);
#763=AXIS2_PLACEMENT_3D('',#1076,#849,#850);
#764=AXIS2_PLACEMENT_3D('',#1078,#851,#852);
#765=AXIS2_PLACEMENT_3D('',#1080,#853,#854);
#766=AXIS2_PLACEMENT_3D('',#1082,#855,#856);
#767=AXIS2_PLACEMENT_3D('',#1087,#858,#859);
#768=AXIS2_PLACEMENT_3D('',#1091,#861,#862);
#769=AXIS2_PLACEMENT_3D('',#1095,#864,#865);
#770=AXIS2_PLACEMENT_3D('',#1099,#867,#868);
#771=AXIS2_PLACEMENT_3D('',#1103,#870,#871);
#772=AXIS2_PLACEMENT_3D('',#1107,#873,#874);
#773=AXIS2_PLACEMENT_3D('',#1111,#876,#877);
#774=AXIS2_PLACEMENT_3D('',#1115,#879,#880);
#775=AXIS2_PLACEMENT_3D('',#1116,#881,#882);
#776=AXIS2_PLACEMENT_3D('',#1122,#885,#886);
#777=AXIS2_PLACEMENT_3D('',#1130,#891,#892);
#778=AXIS2_PLACEMENT_3D('',#1131,#893,#894);
#779=AXIS2_PLACEMENT_3D('',#1135,#896,#897);
#780=AXIS2_PLACEMENT_3D('',#1136,#898,#899);
#781=AXIS2_PLACEMENT_3D('',#1142,#903,#904);
#782=AXIS2_PLACEMENT_3D('',#1143,#905,#906);
#783=AXIS2_PLACEMENT_3D('',#1147,#908,#909);
#784=AXIS2_PLACEMENT_3D('',#1148,#910,#911);
#785=AXIS2_PLACEMENT_3D('',#1153,#914,#915);
#786=AXIS2_PLACEMENT_3D('',#1158,#918,#919);
#787=AXIS2_PLACEMENT_3D('',#1159,#920,#921);
#788=AXIS2_PLACEMENT_3D('',#1160,#922,#923);
#789=AXIS2_PLACEMENT_3D('',#1164,#925,#926);
#790=AXIS2_PLACEMENT_3D('',#1165,#927,#928);
#791=AXIS2_PLACEMENT_3D('',#1171,#932,#933);
#792=AXIS2_PLACEMENT_3D('',#1180,#938,#939);
#793=AXIS2_PLACEMENT_3D('',#1181,#940,#941);
#794=AXIS2_PLACEMENT_3D('',#1185,#943,#944);
#795=AXIS2_PLACEMENT_3D('',#1186,#945,#946);
#796=AXIS2_PLACEMENT_3D('',#1192,#950,#951);
#797=AXIS2_PLACEMENT_3D('',#1193,#952,#953);
#798=AXIS2_PLACEMENT_3D('',#1197,#955,#956);
#799=AXIS2_PLACEMENT_3D('',#1198,#957,#958);
#800=AXIS2_PLACEMENT_3D('',#1204,#962,#963);
#801=AXIS2_PLACEMENT_3D('',#1205,#964,#965);
#802=AXIS2_PLACEMENT_3D('',#1209,#967,#968);
#803=AXIS2_PLACEMENT_3D('',#1210,#969,#970);
#804=AXIS2_PLACEMENT_3D('',#1216,#974,#975);
#805=AXIS2_PLACEMENT_3D('',#1217,#976,#977);
#806=AXIS2_PLACEMENT_3D('',#1218,#978,#979);
#807=AXIS2_PLACEMENT_3D('',#1219,#980,#981);
#808=AXIS2_PLACEMENT_3D('',#1220,#982,#983);
#809=AXIS2_PLACEMENT_3D('',#1221,#984,#985);
#810=AXIS2_PLACEMENT_3D('',#1222,#986,#987);
#811=AXIS2_PLACEMENT_3D('',#1223,#988,#989);
#812=AXIS2_PLACEMENT_3D('',#1227,#991,#992);
#813=AXIS2_PLACEMENT_3D('',#1228,#993,#994);
#814=AXIS2_PLACEMENT_3D('',#1229,#995,#996);
#815=AXIS2_PLACEMENT_3D('',#1231,#997,#998);
#816=AXIS2_PLACEMENT_3D('',#1233,#999,#1000);
#817=AXIS2_PLACEMENT_3D('',#1235,#1001,#1002);
#818=AXIS2_PLACEMENT_3D('',#1237,#1003,#1004);
#819=AXIS2_PLACEMENT_3D('',#1238,#1005,#1006);
#820=AXIS2_PLACEMENT_3D('',#1241,#1008,#1009);
#821=AXIS2_PLACEMENT_3D('',#1245,#1012,#1013);
#822=AXIS2_PLACEMENT_3D('',#1246,#1014,#1015);
#823=AXIS2_PLACEMENT_3D('',#1247,#1016,#1017);
#824=AXIS2_PLACEMENT_3D('',#1249,#1019,#1020);
#825=AXIS2_PLACEMENT_3D('',#1251,#1022,#1023);
#826=AXIS2_PLACEMENT_3D('',#1252,#1024,#1025);
#827=AXIS2_PLACEMENT_3D('',#1253,#1026,#1027);
#828=AXIS2_PLACEMENT_3D('',#1254,#1028,#1029);
#829=AXIS2_PLACEMENT_3D('',#1255,#1030,#1031);
#830=AXIS2_PLACEMENT_3D('',#1256,#1032,#1033);
#831=AXIS2_PLACEMENT_3D('',#1257,#1034,#1035);
#832=AXIS2_PLACEMENT_3D('',#1258,#1036,#1037);
#833=AXIS2_PLACEMENT_3D('',#1261,#1039,#1040);
#834=AXIS2_PLACEMENT_3D('',#1264,#1042,#1043);
#835=AXIS2_PLACEMENT_3D('',#1268,#1046,#1047);
#836=AXIS2_PLACEMENT_3D('',#1271,#1049,#1050);
#837=AXIS2_PLACEMENT_3D('',#1272,#1051,#1052);
#838=AXIS2_PLACEMENT_3D('',#1276,#1055,#1056);
#839=AXIS2_PLACEMENT_3D('',#1279,#1058,#1059);
#840=AXIS2_PLACEMENT_3D('',#1280,#1060,#1061);
#841=AXIS2_PLACEMENT_3D('',#1284,#1064,#1065);
#842=AXIS2_PLACEMENT_3D('',#1287,#1067,#1068);
#843=AXIS2_PLACEMENT_3D('',#1288,#1069,#1070);
#844=AXIS2_PLACEMENT_3D('',#1290,#1072,#1073);
#845=DIRECTION('',(0.,0.,1.));
#846=DIRECTION('',(1.,0.,0.));
#847=DIRECTION('',(0.,0.,1.));
#848=DIRECTION('',(1.,0.,0.));
#849=DIRECTION('',(0.,0.,1.));
#850=DIRECTION('',(1.,0.,0.));
#851=DIRECTION('',(0.,0.,1.));
#852=DIRECTION('',(1.,0.,0.));
#853=DIRECTION('',(0.,0.,1.));
#854=DIRECTION('',(1.,0.,0.));
#855=DIRECTION('',(0.,0.,1.));
#856=DIRECTION('',(1.,0.,0.));
#857=DIRECTION('',(0.,-1.,0.));
#858=DIRECTION('',(0.,0.,1.));
#859=DIRECTION('',(1.,0.,0.));
#860=DIRECTION('',(1.,0.,0.));
#861=DIRECTION('',(0.,0.,1.));
#862=DIRECTION('',(1.,0.,0.));
#863=DIRECTION('',(0.,-1.,0.));
#864=DIRECTION('',(0.,0.,1.));
#865=DIRECTION('',(1.,0.,0.));
#866=DIRECTION('',(1.,0.,0.));
#867=DIRECTION('',(0.,0.,1.));
#868=DIRECTION('',(1.,0.,0.));
#869=DIRECTION('',(-1.,0.,0.));
#870=DIRECTION('',(0.,0.,1.));
#871=DIRECTION('',(1.,0.,0.));
#872=DIRECTION('',(2.24870510239642E-16,-1.,0.));
#873=DIRECTION('',(0.,0.,1.));
#874=DIRECTION('',(1.,0.,0.));
#875=DIRECTION('',(1.,0.,0.));
#876=DIRECTION('',(0.,0.,1.));
#877=DIRECTION('',(1.,0.,0.));
#878=DIRECTION('',(2.24676946321771E-16,-1.,0.));
#879=DIRECTION('',(0.,0.,1.));
#880=DIRECTION('',(1.,0.,0.));
#881=DIRECTION('',(1.,0.,0.));
#882=DIRECTION('',(0.,0.,-1.));
#883=DIRECTION('',(0.,-1.,0.));
#884=DIRECTION('',(0.,0.,-1.));
#885=DIRECTION('',(0.,0.,1.));
#886=DIRECTION('',(1.,0.,0.));
#887=DIRECTION('',(0.,0.,-1.));
#888=DIRECTION('',(0.,0.,-1.));
#889=DIRECTION('',(0.,-1.,0.));
#890=DIRECTION('',(0.,0.,-1.));
#891=DIRECTION('',(0.,0.,-1.));
#892=DIRECTION('',(-1.,0.,0.));
#893=DIRECTION('',(0.,0.,1.));
#894=DIRECTION('',(1.,0.,0.));
#895=DIRECTION('',(0.,0.,-1.));
#896=DIRECTION('',(0.,0.,1.));
#897=DIRECTION('',(1.,0.,0.));
#898=DIRECTION('',(0.,1.,0.));
#899=DIRECTION('',(0.,0.,1.));
#900=DIRECTION('',(1.,0.,0.));
#901=DIRECTION('',(0.,0.,-1.));
#902=DIRECTION('',(1.,0.,0.));
#903=DIRECTION('',(0.,0.,-1.));
#904=DIRECTION('',(-1.,0.,0.));
#905=DIRECTION('',(0.,0.,1.));
#906=DIRECTION('',(1.,0.,0.));
#907=DIRECTION('',(0.,0.,-1.));
#908=DIRECTION('',(0.,0.,1.));
#909=DIRECTION('',(1.,0.,0.));
#910=DIRECTION('',(1.,0.,0.));
#911=DIRECTION('',(0.,0.,-1.));
#912=DIRECTION('',(0.,-1.,0.));
#913=DIRECTION('',(0.,0.,-1.));
#914=DIRECTION('',(0.,0.,1.));
#915=DIRECTION('',(1.,0.,0.));
#916=DIRECTION('',(0.,0.,-1.));
#917=DIRECTION('',(0.,0.,-1.));
#918=DIRECTION('',(0.,0.,1.));
#919=DIRECTION('',(1.,0.,0.));
#920=DIRECTION('',(0.,0.,-1.));
#921=DIRECTION('',(-1.,0.,0.));
#922=DIRECTION('',(0.,0.,1.));
#923=DIRECTION('',(1.,0.,0.));
#924=DIRECTION('',(0.,0.,-1.));
#925=DIRECTION('',(0.,0.,1.));
#926=DIRECTION('',(1.,0.,0.));
#927=DIRECTION('',(0.,1.,0.));
#928=DIRECTION('',(0.,0.,1.));
#929=DIRECTION('',(1.,0.,0.));
#930=DIRECTION('',(0.,0.,-1.));
#931=DIRECTION('',(1.,0.,0.));
#932=DIRECTION('',(0.,-1.,0.));
#933=DIRECTION('',(0.,0.,-1.));
#934=DIRECTION('',(-1.,0.,0.));
#935=DIRECTION('',(0.,0.,-1.));
#936=DIRECTION('',(-1.,0.,0.));
#937=DIRECTION('',(0.,0.,-1.));
#938=DIRECTION('',(0.,0.,-1.));
#939=DIRECTION('',(-1.,0.,0.));
#940=DIRECTION('',(0.,0.,1.));
#941=DIRECTION('',(1.,0.,0.));
#942=DIRECTION('',(0.,0.,-1.));
#943=DIRECTION('',(0.,0.,1.));
#944=DIRECTION('',(1.,0.,0.));
#945=DIRECTION('',(1.,0.,0.));
#946=DIRECTION('',(0.,0.,-1.));
#947=DIRECTION('',(0.,-1.,0.));
#948=DIRECTION('',(0.,0.,-1.));
#949=DIRECTION('',(0.,-1.,0.));
#950=DIRECTION('',(0.,0.,-1.));
#951=DIRECTION('',(-1.,0.,0.));
#952=DIRECTION('',(0.,0.,1.));
#953=DIRECTION('',(1.,0.,0.));
#954=DIRECTION('',(0.,0.,-1.));
#955=DIRECTION('',(0.,0.,1.));
#956=DIRECTION('',(1.,0.,0.));
#957=DIRECTION('',(0.,1.,0.));
#958=DIRECTION('',(0.,0.,1.));
#959=DIRECTION('',(1.,0.,0.));
#960=DIRECTION('',(0.,0.,-1.));
#961=DIRECTION('',(1.,0.,0.));
#962=DIRECTION('',(0.,0.,-1.));
#963=DIRECTION('',(-1.,0.,0.));
#964=DIRECTION('',(0.,0.,1.));
#965=DIRECTION('',(1.,0.,0.));
#966=DIRECTION('',(0.,0.,-1.));
#967=DIRECTION('',(0.,0.,1.));
#968=DIRECTION('',(1.,0.,0.));
#969=DIRECTION('',(1.,0.,0.));
#970=DIRECTION('',(0.,0.,-1.));
#971=DIRECTION('',(0.,-1.,0.));
#972=DIRECTION('',(0.,0.,-1.));
#973=DIRECTION('',(0.,-1.,0.));
#974=DIRECTION('',(0.,0.,-1.));
#975=DIRECTION('',(-1.,0.,0.));
#976=DIRECTION('',(0.,0.,1.));
#977=DIRECTION('',(1.,0.,0.));
#978=DIRECTION('',(0.,0.,1.));
#979=DIRECTION('',(1.,0.,0.));
#980=DIRECTION('',(0.,0.,-1.));
#981=DIRECTION('',(-1.,0.,0.));
#982=DIRECTION('',(0.,0.,1.));
#983=DIRECTION('',(1.,0.,0.));
#984=DIRECTION('',(0.,0.,1.));
#985=DIRECTION('',(1.,0.,0.));
#986=DIRECTION('',(0.,0.,1.));
#987=DIRECTION('',(1.,0.,0.));
#988=DIRECTION('',(0.,0.,1.));
#989=DIRECTION('',(1.,0.,0.));
#990=DIRECTION('',(1.,0.,0.));
#991=DIRECTION('',(0.,0.,1.));
#992=DIRECTION('',(1.,0.,0.));
#993=DIRECTION('',(0.,0.,1.));
#994=DIRECTION('',(1.,0.,0.));
#995=DIRECTION('',(0.,0.,-1.));
#996=DIRECTION('',(-1.,0.,0.));
#997=DIRECTION('',(0.,0.,-1.));
#998=DIRECTION('',(-1.,0.,0.));
#999=DIRECTION('',(0.,0.,-1.));
#1000=DIRECTION('',(-1.,0.,0.));
#1001=DIRECTION('',(0.,0.,-1.));
#1002=DIRECTION('',(-1.,0.,0.));
#1003=DIRECTION('',(0.,0.,-1.));
#1004=DIRECTION('',(-1.,0.,0.));
#1005=DIRECTION('',(0.,0.,1.));
#1006=DIRECTION('',(1.,0.,0.));
#1007=DIRECTION('',(0.,0.,-1.));
#1008=DIRECTION('',(0.,1.,0.));
#1009=DIRECTION('',(0.,0.,1.));
#1010=DIRECTION('',(1.,0.,0.));
#1011=DIRECTION('',(0.,0.,-1.));
#1012=DIRECTION('',(0.,0.,-1.));
#1013=DIRECTION('',(-1.,0.,0.));
#1014=DIRECTION('',(0.,0.,1.));
#1015=DIRECTION('',(1.,0.,0.));
#1016=DIRECTION('',(0.,0.,-1.));
#1017=DIRECTION('',(-1.,0.,0.));
#1018=DIRECTION('',(0.,0.,-1.));
#1019=DIRECTION('',(0.,1.,0.));
#1020=DIRECTION('',(0.,0.,1.));
#1021=DIRECTION('',(0.,0.,-1.));
#1022=DIRECTION('',(0.,0.,-1.));
#1023=DIRECTION('',(-1.,0.,0.));
#1024=DIRECTION('',(0.,0.,1.));
#1025=DIRECTION('',(1.,0.,0.));
#1026=DIRECTION('',(0.,0.,1.));
#1027=DIRECTION('',(1.,0.,0.));
#1028=DIRECTION('',(0.,0.,-1.));
#1029=DIRECTION('',(-1.,0.,0.));
#1030=DIRECTION('',(0.,0.,-1.));
#1031=DIRECTION('',(-1.,0.,0.));
#1032=DIRECTION('',(0.,0.,-1.));
#1033=DIRECTION('',(-1.,0.,0.));
#1034=DIRECTION('',(0.,0.,-1.));
#1035=DIRECTION('',(-1.,0.,0.));
#1036=DIRECTION('',(0.,0.,-1.));
#1037=DIRECTION('',(-1.,0.,0.));
#1038=DIRECTION('',(0.,0.,-1.));
#1039=DIRECTION('',(0.,0.,1.));
#1040=DIRECTION('',(1.,0.,0.));
#1041=DIRECTION('',(0.,0.,-1.));
#1042=DIRECTION('',(0.,-1.,0.));
#1043=DIRECTION('',(0.,0.,-1.));
#1044=DIRECTION('',(0.,0.,-1.));
#1045=DIRECTION('',(-1.,0.,0.));
#1046=DIRECTION('',(0.,0.,-1.));
#1047=DIRECTION('',(-1.,0.,0.));
#1048=DIRECTION('',(0.,0.,-1.));
#1049=DIRECTION('',(0.,0.,1.));
#1050=DIRECTION('',(1.,0.,0.));
#1051=DIRECTION('',(1.,2.24676946321771E-16,0.));
#1052=DIRECTION('',(-2.24676946321771E-16,1.,0.));
#1053=DIRECTION('',(0.,0.,-1.));
#1054=DIRECTION('',(2.24676946321771E-16,-1.,0.));
#1055=DIRECTION('',(0.,0.,-1.));
#1056=DIRECTION('',(-1.,0.,0.));
#1057=DIRECTION('',(0.,0.,-1.));
#1058=DIRECTION('',(0.,0.,1.));
#1059=DIRECTION('',(1.,0.,0.));
#1060=DIRECTION('',(0.,1.,0.));
#1061=DIRECTION('',(0.,0.,1.));
#1062=DIRECTION('',(0.,0.,-1.));
#1063=DIRECTION('',(1.,0.,0.));
#1064=DIRECTION('',(0.,0.,-1.));
#1065=DIRECTION('',(-1.,0.,0.));
#1066=DIRECTION('',(0.,0.,-1.));
#1067=DIRECTION('',(0.,0.,1.));
#1068=DIRECTION('',(1.,0.,0.));
#1069=DIRECTION('',(1.,2.24870510239642E-16,0.));
#1070=DIRECTION('',(-2.24870510239642E-16,1.,0.));
#1071=DIRECTION('',(2.24870510239642E-16,-1.,0.));
#1072=DIRECTION('',(0.,0.,1.));
#1073=DIRECTION('',(1.,0.,0.));
#1074=CARTESIAN_POINT('',(0.,0.,0.));
#1075=CARTESIAN_POINT('',(0.003556,0.00523959317326549,0.004064));
#1076=CARTESIAN_POINT('',(0.073406,-0.0647374068267346,0.004064));
#1077=CARTESIAN_POINT('',(0.0756539,-0.0647374068267346,0.004064));
#1078=CARTESIAN_POINT('',(-0.066294,0.0749625931732654,0.004064));
#1079=CARTESIAN_POINT('',(-0.0640461,0.0749625931732654,0.004064));
#1080=CARTESIAN_POINT('',(0.073406,0.0749625931732654,0.004064));
#1081=CARTESIAN_POINT('',(0.0756539,0.0749625931732654,0.004064));
#1082=CARTESIAN_POINT('',(-0.066294,-0.0647374068267345,0.004064));
#1083=CARTESIAN_POINT('',(-0.0640461,-0.0647374068267345,0.004064));
#1084=CARTESIAN_POINT('',(-0.072644,0.0711801192475703,0.004064));
#1085=CARTESIAN_POINT('',(-0.072644,0.0752165931732655,0.004064));
#1086=CARTESIAN_POINT('',(-0.072644,-0.0644834068267345,0.004064));
#1087=CARTESIAN_POINT('',(-0.066294,-0.0644834068267345,0.004064));
#1088=CARTESIAN_POINT('',(-0.066294,-0.0708334068267345,0.004064));
#1089=CARTESIAN_POINT('',(-0.0622575260743048,-0.0708334068267345,0.004064));
#1090=CARTESIAN_POINT('',(0.073406,-0.0708334068267345,0.004064));
#1091=CARTESIAN_POINT('',(0.073406,-0.0644834068267345,0.004064));
#1092=CARTESIAN_POINT('',(0.079756,-0.0644834068267345,0.004064));
#1093=CARTESIAN_POINT('',(0.079756,0.0711801192475703,0.004064));
#1094=CARTESIAN_POINT('',(0.079756,0.0752165931732655,0.004064));
#1095=CARTESIAN_POINT('',(0.073406,0.0752165931732655,0.004064));
#1096=CARTESIAN_POINT('',(0.073406,0.0815665931732655,0.004064));
#1097=CARTESIAN_POINT('',(0.0693695260743048,0.0815665931732655,0.004064));
#1098=CARTESIAN_POINT('',(-0.066294,0.0815665931732655,0.004064));
#1099=CARTESIAN_POINT('',(-0.066294,0.0752165931732655,0.004064));
#1100=CARTESIAN_POINT('',(0.003556,0.0809323081371369,0.004064));
#1101=CARTESIAN_POINT('',(0.0652333472091866,0.0809323081371369,0.004064));
#1102=CARTESIAN_POINT('',(-0.0581213472091867,0.0809323081371369,0.004064));
#1103=CARTESIAN_POINT('',(0.0778961280605346,0.0799607212338001,0.004064));
#1104=CARTESIAN_POINT('',(0.0792692237464708,0.0673351674543707,0.004064));
#1105=CARTESIAN_POINT('',(0.0792692237464708,0.00562059317326553,0.004064));
#1106=CARTESIAN_POINT('',(0.0792692237464709,-0.0560939811078397,0.004064));
#1107=CARTESIAN_POINT('',(0.0778961280605345,-0.068719534887269,0.004064));
#1108=CARTESIAN_POINT('',(0.06532728897376,-0.0705400523990685,0.004064));
#1109=CARTESIAN_POINT('',(0.00355599999999996,-0.0705400523990685,0.004064));
#1110=CARTESIAN_POINT('',(-0.0582152889737601,-0.0705400523990685,0.004064));
#1111=CARTESIAN_POINT('',(-0.0707841280605346,-0.068719534887269,0.004064));
#1112=CARTESIAN_POINT('',(-0.0725799916374597,-0.0561471495124456,0.004064));
#1113=CARTESIAN_POINT('',(-0.0725799916374598,0.00562059317326553,0.004064));
#1114=CARTESIAN_POINT('',(-0.0725799916374598,0.0673883358589767,0.004064));
#1115=CARTESIAN_POINT('',(-0.0707841280605346,0.0799607212338001,0.004064));
#1116=CARTESIAN_POINT('',(-0.072644,0.0709261192475703,0.001524));
#1117=CARTESIAN_POINT('',(-0.072644,0.0709261192475703,0.));
#1118=CARTESIAN_POINT('',(-0.072644,0.0749625931732654,0.));
#1119=CARTESIAN_POINT('',(-0.072644,-0.0647374068267346,0.));
#1120=CARTESIAN_POINT('',(-0.072644,-0.0647374068267346,0.001524));
#1121=CARTESIAN_POINT('',(-0.0726414629336922,-0.0647373081040242,0.001524));
#1122=CARTESIAN_POINT('',(-0.066294,-0.0644834068267345,0.001524));
#1123=CARTESIAN_POINT('',(-0.072644,-0.0644834068267345,0.001524));
#1124=CARTESIAN_POINT('',(-0.072644,-0.0644834068267345,0.004064));
#1125=CARTESIAN_POINT('',(-0.072644,0.0752165931732655,0.004064));
#1126=CARTESIAN_POINT('',(-0.072641462933715,0.0752164944506194,0.001524));
#1127=CARTESIAN_POINT('',(-0.072644,0.0711801192475703,0.001524));
#1128=CARTESIAN_POINT('',(-0.072644,0.0749625931732654,0.001524));
#1129=CARTESIAN_POINT('',(-0.072644,0.0749625931732654,0.001524));
#1130=CARTESIAN_POINT('',(-0.066294,-0.0647374068267346,0.001524));
#1131=CARTESIAN_POINT('',(-0.066294,-0.0647374068267346,0.));
#1132=CARTESIAN_POINT('',(-0.066294,-0.0710874068267346,0.));
#1133=CARTESIAN_POINT('',(-0.066294,-0.0710874068267346,0.001524));
#1134=CARTESIAN_POINT('',(-0.066294,-0.0710874068267346,0.001524));
#1135=CARTESIAN_POINT('',(-0.066294,-0.0647374068267346,0.001524));
#1136=CARTESIAN_POINT('',(-0.0622575260743048,-0.0710874068267346,0.001524));
#1137=CARTESIAN_POINT('',(-0.0622575260743048,-0.0710874068267346,0.));
#1138=CARTESIAN_POINT('',(0.073406,-0.0710874068267346,0.));
#1139=CARTESIAN_POINT('',(0.073406,-0.0710874068267346,0.001524));
#1140=CARTESIAN_POINT('',(0.073406,-0.0710874068267346,0.001524));
#1141=CARTESIAN_POINT('',(-0.0622575260743048,-0.0710874068267346,0.001524));
#1142=CARTESIAN_POINT('',(0.073406,-0.0647374068267345,0.001524));
#1143=CARTESIAN_POINT('',(0.073406,-0.0647374068267345,0.));
#1144=CARTESIAN_POINT('',(0.079756,-0.0647374068267345,0.));
#1145=CARTESIAN_POINT('',(0.079756,-0.0647374068267345,0.001524));
#1146=CARTESIAN_POINT('',(0.0797510009545075,-0.0647372068649148,0.001524));
#1147=CARTESIAN_POINT('',(0.073406,-0.0647374068267345,0.001524));
#1148=CARTESIAN_POINT('',(0.079756,-0.0607009329010393,0.001524));
#1149=CARTESIAN_POINT('',(0.079756,-0.0607009329010393,0.));
#1150=CARTESIAN_POINT('',(0.079756,0.0749625931732655,0.));
#1151=CARTESIAN_POINT('',(0.079756,0.0749625931732655,0.001524));
#1152=CARTESIAN_POINT('',(0.079756,0.0749625931732655,0.001524));
#1153=CARTESIAN_POINT('',(0.073406,0.0749625931732655,0.001524));
#1154=CARTESIAN_POINT('',(0.0797510009545075,0.0752163932114458,0.001524));
#1155=CARTESIAN_POINT('',(0.079756,0.0752165931732655,0.004064));
#1156=CARTESIAN_POINT('',(0.079756,-0.0644834068267345,0.004064));
#1157=CARTESIAN_POINT('',(0.079756,-0.0644834068267345,0.001524));
#1158=CARTESIAN_POINT('',(0.073406,-0.0644834068267345,0.001524));
#1159=CARTESIAN_POINT('',(0.073406,0.0749625931732655,0.001524));
#1160=CARTESIAN_POINT('',(0.073406,0.0749625931732655,0.));
#1161=CARTESIAN_POINT('',(0.073406,0.0813125931732655,0.));
#1162=CARTESIAN_POINT('',(0.073406,0.0813125931732655,0.001524));
#1163=CARTESIAN_POINT('',(0.073406,0.0813125931732655,0.001524));
#1164=CARTESIAN_POINT('',(0.073406,0.0749625931732655,0.001524));
#1165=CARTESIAN_POINT('',(0.0693695260743048,0.0813125931732655,0.001524));
#1166=CARTESIAN_POINT('',(0.0693695260743048,0.0813125931732655,0.));
#1167=CARTESIAN_POINT('',(-0.066294,0.0813125931732655,0.));
#1168=CARTESIAN_POINT('',(-0.066294,0.0813125931732655,0.001524));
#1169=CARTESIAN_POINT('',(-0.066294,0.0813125931732655,0.001524));
#1170=CARTESIAN_POINT('',(0.0693695260743048,0.0813125931732655,0.001524));
#1171=CARTESIAN_POINT('',(0.003556,0.0776041931732655,0.001524));
#1172=CARTESIAN_POINT('',(0.003556,0.0776041931732655,0.));
#1173=CARTESIAN_POINT('',(0.0653313780029562,0.0776041931732655,0.));
#1174=CARTESIAN_POINT('',(-0.0582193780029562,0.0776041931732655,0.));
#1175=CARTESIAN_POINT('',(0.0653313780029562,0.0776041931732655,0.001524));
#1176=CARTESIAN_POINT('',(0.0653313780029562,0.0776041931732655,0.001524));
#1177=CARTESIAN_POINT('',(0.003556,0.0776041931732655,0.001524));
#1178=CARTESIAN_POINT('',(-0.0582193780029562,0.0776041931732655,0.001524));
#1179=CARTESIAN_POINT('',(-0.0582193780029562,0.0776041931732655,0.001524));
#1180=CARTESIAN_POINT('',(0.0778961280605346,0.0794527212338001,0.001524));
#1181=CARTESIAN_POINT('',(0.0778961280605346,0.0794527212338001,0.));
#1182=CARTESIAN_POINT('',(0.0760362561210692,0.0668896453218751,0.));
#1183=CARTESIAN_POINT('',(0.0760362561210692,0.0668896453218751,0.001524));
#1184=CARTESIAN_POINT('',(0.0760362561210692,0.0668896453218751,0.001524));
#1185=CARTESIAN_POINT('',(0.0778961280605346,0.0794527212338001,0.001524));
#1186=CARTESIAN_POINT('',(0.0760362561210692,0.00511259317326548,0.001524));
#1187=CARTESIAN_POINT('',(0.0760362561210692,0.00511259317326548,0.));
#1188=CARTESIAN_POINT('',(0.0760362561210692,-0.0566644589753441,0.));
#1189=CARTESIAN_POINT('',(0.0760362561210692,-0.0566644589753441,0.001524));
#1190=CARTESIAN_POINT('',(0.0760362561210692,-0.0566644589753441,0.001524));
#1191=CARTESIAN_POINT('',(0.0760362561210692,0.00511259317326548,0.001524));
#1192=CARTESIAN_POINT('',(0.0778961280605345,-0.0692275348872691,0.001524));
#1193=CARTESIAN_POINT('',(0.0778961280605345,-0.0692275348872691,0.));
#1194=CARTESIAN_POINT('',(0.0653330521486096,-0.0673676629478037,0.));
#1195=CARTESIAN_POINT('',(0.0653330521486096,-0.0673676629478037,0.001524));
#1196=CARTESIAN_POINT('',(0.0653330521486096,-0.0673676629478037,0.001524));
#1197=CARTESIAN_POINT('',(0.0778961280605345,-0.0692275348872691,0.001524));
#1198=CARTESIAN_POINT('',(0.003556,-0.0673676629478037,0.001524));
#1199=CARTESIAN_POINT('',(0.003556,-0.0673676629478037,0.));
#1200=CARTESIAN_POINT('',(-0.0582210521486096,-0.0673676629478037,0.));
#1201=CARTESIAN_POINT('',(-0.0582210521486096,-0.0673676629478037,0.001524));
#1202=CARTESIAN_POINT('',(-0.0582210521486096,-0.0673676629478037,0.001524));
#1203=CARTESIAN_POINT('',(0.003556,-0.0673676629478037,0.001524));
#1204=CARTESIAN_POINT('',(-0.0707841280605346,-0.0692275348872691,0.001524));
#1205=CARTESIAN_POINT('',(-0.0707841280605346,-0.0692275348872691,0.));
#1206=CARTESIAN_POINT('',(-0.0689242561210692,-0.0566644589753441,0.));
#1207=CARTESIAN_POINT('',(-0.0689242561210692,-0.0566644589753441,0.001524));
#1208=CARTESIAN_POINT('',(-0.0689242561210692,-0.0566644589753441,0.001524));
#1209=CARTESIAN_POINT('',(-0.0707841280605346,-0.0692275348872691,0.001524));
#1210=CARTESIAN_POINT('',(-0.0689242561210692,0.00511259317326548,0.001524));
#1211=CARTESIAN_POINT('',(-0.0689242561210692,0.00511259317326548,0.));
#1212=CARTESIAN_POINT('',(-0.0689242561210692,0.0668896453218751,0.));
#1213=CARTESIAN_POINT('',(-0.0689242561210692,0.0668896453218751,0.001524));
#1214=CARTESIAN_POINT('',(-0.0689242561210692,0.0668896453218751,0.001524));
#1215=CARTESIAN_POINT('',(-0.0689242561210692,0.00511259317326548,0.001524));
#1216=CARTESIAN_POINT('',(-0.0707841280605346,0.0794527212338,0.001524));
#1217=CARTESIAN_POINT('',(-0.0707841280605346,0.0794527212338,0.));
#1218=CARTESIAN_POINT('',(-0.0707841280605346,0.0794527212338,0.001524));
#1219=CARTESIAN_POINT('',(-0.066294,0.0749625931732654,0.001524));
#1220=CARTESIAN_POINT('',(-0.066294,0.0749625931732654,0.));
#1221=CARTESIAN_POINT('',(-0.066294,0.0749625931732654,0.001524));
#1222=CARTESIAN_POINT('',(0.003556,0.00511259317326548,0.001524));
#1223=CARTESIAN_POINT('',(0.073406,-0.0644834068267345,0.001524));
#1224=CARTESIAN_POINT('',(0.073406,-0.0708334068267345,0.001524));
#1225=CARTESIAN_POINT('',(-0.0622575260743048,-0.0708334068267345,0.001524));
#1226=CARTESIAN_POINT('',(-0.066294,-0.0708334068267345,0.001524));
#1227=CARTESIAN_POINT('',(-0.066294,-0.0644834068267345,0.001524));
#1228=CARTESIAN_POINT('',(0.003556,0.00511259317326548,0.));
#1229=CARTESIAN_POINT('',(0.073406,-0.0647374068267346,0.));
#1230=CARTESIAN_POINT('',(0.0711581,-0.0647374068267346,0.));
#1231=CARTESIAN_POINT('',(-0.066294,0.0749625931732654,0.));
#1232=CARTESIAN_POINT('',(-0.0685419,0.0749625931732654,0.));
#1233=CARTESIAN_POINT('',(0.073406,0.0749625931732654,0.));
#1234=CARTESIAN_POINT('',(0.0711581,0.0749625931732654,0.));
#1235=CARTESIAN_POINT('',(-0.066294,-0.0647374068267345,0.));
#1236=CARTESIAN_POINT('',(-0.0685419,-0.0647374068267345,0.));
#1237=CARTESIAN_POINT('',(-0.066294,0.0752165931732655,0.004064));
#1238=CARTESIAN_POINT('',(-0.066294,0.0752165931732655,0.001524));
#1239=CARTESIAN_POINT('',(-0.066294,0.0815665931732655,0.001524));
#1240=CARTESIAN_POINT('',(-0.066294,0.0815665931732655,0.004064));
#1241=CARTESIAN_POINT('',(0.0693695260743048,0.0815665931732655,0.004064));
#1242=CARTESIAN_POINT('',(0.0693695260743048,0.0815665931732655,0.001524));
#1243=CARTESIAN_POINT('',(0.073406,0.0815665931732655,0.001524));
#1244=CARTESIAN_POINT('',(0.073406,0.0815665931732655,0.004064));
#1245=CARTESIAN_POINT('',(0.073406,0.0752165931732655,0.004064));
#1246=CARTESIAN_POINT('',(0.073406,0.0752165931732655,0.001524));
#1247=CARTESIAN_POINT('',(0.073406,-0.0644834068267345,0.004064));
#1248=CARTESIAN_POINT('',(0.073406,-0.0708334068267345,0.004064));
#1249=CARTESIAN_POINT('',(-0.0622575260743048,-0.0708334068267345,0.004064));
#1250=CARTESIAN_POINT('',(-0.066294,-0.0708334068267345,0.004064));
#1251=CARTESIAN_POINT('',(-0.066294,-0.0644834068267345,0.004064));
#1252=CARTESIAN_POINT('',(0.003556,0.00523959317326549,0.001524));
#1253=CARTESIAN_POINT('',(0.003556,0.00523959317326549,0.001524));
#1254=CARTESIAN_POINT('',(-0.066294,-0.0647374068267345,0.0042926));
#1255=CARTESIAN_POINT('',(0.073406,0.0749625931732654,0.0042926));
#1256=CARTESIAN_POINT('',(-0.066294,0.0749625931732654,0.0042926));
#1257=CARTESIAN_POINT('',(0.073406,-0.0647374068267346,0.0042926));
#1258=CARTESIAN_POINT('',(0.0778961280605346,0.0799607212338001,0.00635));
#1259=CARTESIAN_POINT('',(0.0652333472091866,0.0809323081371369,0.00635));
#1260=CARTESIAN_POINT('',(0.0652333472091866,0.0809323081371369,0.00635));
#1261=CARTESIAN_POINT('',(0.0778961280605346,0.0799607212338001,0.00635));
#1262=CARTESIAN_POINT('',(0.0792692237464708,0.0673351674543707,0.00635));
#1263=CARTESIAN_POINT('',(0.0792692237464708,0.0673351674543707,0.00635));
#1264=CARTESIAN_POINT('',(0.003556,0.0809323081371369,0.00635));
#1265=CARTESIAN_POINT('',(-0.0581213472091867,0.0809323081371369,0.00635));
#1266=CARTESIAN_POINT('',(-0.0581213472091867,0.0809323081371369,0.00635));
#1267=CARTESIAN_POINT('',(0.003556,0.0809323081371369,0.00635));
#1268=CARTESIAN_POINT('',(-0.0707841280605346,0.0799607212338001,0.00635));
#1269=CARTESIAN_POINT('',(-0.0725799916374598,0.0673883358589767,0.00635));
#1270=CARTESIAN_POINT('',(-0.0725799916374598,0.0673883358589767,0.00635));
#1271=CARTESIAN_POINT('',(-0.0707841280605346,0.0799607212338001,0.00635));
#1272=CARTESIAN_POINT('',(-0.0725799916374598,0.00562059317326553,0.00635));
#1273=CARTESIAN_POINT('',(-0.0725799916374597,-0.0561471495124456,0.00635));
#1274=CARTESIAN_POINT('',(-0.0725799916374597,-0.0561471495124456,0.00635));
#1275=CARTESIAN_POINT('',(-0.0725799916374598,0.00562059317326553,0.00635));
#1276=CARTESIAN_POINT('',(-0.0707841280605346,-0.068719534887269,0.00635));
#1277=CARTESIAN_POINT('',(-0.0582152889737601,-0.0705400523990685,0.00635));
#1278=CARTESIAN_POINT('',(-0.0582152889737601,-0.0705400523990685,0.00635));
#1279=CARTESIAN_POINT('',(-0.0707841280605346,-0.068719534887269,0.00635));
#1280=CARTESIAN_POINT('',(0.00355599999999996,-0.0705400523990685,0.00635));
#1281=CARTESIAN_POINT('',(0.06532728897376,-0.0705400523990685,0.00635));
#1282=CARTESIAN_POINT('',(0.06532728897376,-0.0705400523990685,0.00635));
#1283=CARTESIAN_POINT('',(0.00355599999999996,-0.0705400523990685,0.00635));
#1284=CARTESIAN_POINT('',(0.0778961280605345,-0.068719534887269,0.00635));
#1285=CARTESIAN_POINT('',(0.0792692237464709,-0.0560939811078397,0.00635));
#1286=CARTESIAN_POINT('',(0.0792692237464709,-0.0560939811078397,0.00635));
#1287=CARTESIAN_POINT('',(0.0778961280605345,-0.068719534887269,0.00635));
#1288=CARTESIAN_POINT('',(0.0792692237464708,0.00562059317326553,0.00635));
#1289=CARTESIAN_POINT('',(0.0792692237464708,0.00562059317326553,0.00635));
#1290=CARTESIAN_POINT('',(0.003556,0.0053665931732655,0.00635));
#1291=MECHANICAL_DESIGN_GEOMETRIC_PRESENTATION_REPRESENTATION('',(#750),
#1292);
#1292=(
GEOMETRIC_REPRESENTATION_CONTEXT(3)
GLOBAL_UNCERTAINTY_ASSIGNED_CONTEXT((#1293))
GLOBAL_UNIT_ASSIGNED_CONTEXT((#1296,#1295,#1294))
REPRESENTATION_CONTEXT('Part 1','TOP_LEVEL_ASSEMBLY_PART')
);
#1293=UNCERTAINTY_MEASURE_WITH_UNIT(LENGTH_MEASURE(2.50779726756332E-5),
#1296,'DISTANCE_ACCURACY_VALUE','Maximum Tolerance applied to model');
#1294=(
NAMED_UNIT(*)
SI_UNIT($,.STERADIAN.)
SOLID_ANGLE_UNIT()
);
#1295=(
NAMED_UNIT(*)
PLANE_ANGLE_UNIT()
SI_UNIT($,.RADIAN.)
);
#1296=(
LENGTH_UNIT()
NAMED_UNIT(*)
SI_UNIT($,.METRE.)
);
#1297=PRODUCT_DEFINITION_SHAPE('','',#1298);
#1298=PRODUCT_DEFINITION('','',#1300,#1299);
#1299=PRODUCT_DEFINITION_CONTEXT('',#1306,'design');
#1300=PRODUCT_DEFINITION_FORMATION_WITH_SPECIFIED_SOURCE('','',#1302,
 .NOT_KNOWN.);
#1301=PRODUCT_RELATED_PRODUCT_CATEGORY('','',(#1302));
#1302=PRODUCT('Part 1','Part 1','Part 1',(#1304));
#1303=PRODUCT_CATEGORY('','');
#1304=PRODUCT_CONTEXT('',#1306,'mechanical');
#1305=APPLICATION_PROTOCOL_DEFINITION('international standard',
'ap242_managed_model_based_3d_engineering',2020,#1306);
#1306=APPLICATION_CONTEXT('managed model based 3d engineering');
ENDSEC;
END-ISO-10303-21;
