ISO-10303-21;
HEADER;
/* Generated by software containing ST-Developer
 * from STEP Tools, Inc. (www.steptools.com) 
 */
/* OPTION: using custom renumber hook */

FILE_DESCRIPTION(
/* description */ ('STEP AP242 Edition 2',
'CAx-IF Rec.Pracs.---Representation and Presentation of Product Manufa
cturing Information (PMI)---4.0---2014-10-13',
'CAx-IF Rec.Pracs.---3D Tessellated Geometry---0.4---2014-09-14','2;1',
'CAx-IF Rec.Pracs.---User Defined Attributes---1.5---2016-08-15'),
/* implementation_level */ '2;1');

FILE_NAME(
/* name */ 'box - Part 1',
/* time_stamp */ '2026-08-18T00:16:18Z',
/* author */ (''),
/* organization */ (''),
/* preprocessor_version */ 'ST-DEVELOPER v20',
/* originating_system */ 'ONSHAPE BY PTC INC, 1.219',
/* authorisation */ '  ');

FILE_SCHEMA (('AP242_MANAGED_MODEL_BASED_3D_ENGINEERING_MIM_LF { 1 0 10303 442 3 1 4 }'));
ENDSEC;

DATA;
#10=SHAPE_REPRESENTATION_RELATIONSHIP('','',#539,#11);
#11=ADVANCED_BREP_SHAPE_REPRESENTATION('',(#537),#1292);
#12=CYLINDRICAL_SURFACE('',#573,0.00201544508850002);
#13=CYLINDRICAL_SURFACE('',#576,0.0010033);
#14=CYLINDRICAL_SURFACE('',#580,0.0016002);
#15=CYLINDRICAL_SURFACE('',#581,0.0010033);
#16=CYLINDRICAL_SURFACE('',#585,0.0016002);
#17=CYLINDRICAL_SURFACE('',#586,0.0010033);
#18=CYLINDRICAL_SURFACE('',#590,0.0016002);
#19=CYLINDRICAL_SURFACE('',#591,0.0010033);
#20=CYLINDRICAL_SURFACE('',#595,0.0016002);
#21=CYLINDRICAL_SURFACE('',#596,0.00115);
#22=CYLINDRICAL_SURFACE('',#597,0.00115);
#23=CYLINDRICAL_SURFACE('',#598,0.00115);
#24=CYLINDRICAL_SURFACE('',#599,0.00115);
#25=B_SPLINE_SURFACE_WITH_KNOTS('',3,1,((#852,#853,#854),(#855,#856,#857),
(#858,#859,#860),(#861,#862,#863),(#864,#865,#866),(#867,#868,#869),(#870,
#871,#872),(#873,#874,#875),(#876,#877,#878),(#879,#880,#881),(#882,#883,
#884),(#885,#886,#887),(#888,#889,#890),(#891,#892,#893),(#894,#895,#896),
(#897,#898,#899),(#900,#901,#902),(#903,#904,#905),(#906,#907,#908),(#909,
#910,#911),(#912,#913,#914),(#915,#916,#917),(#918,#919,#920),(#921,#922,
#923),(#924,#925,#926),(#927,#928,#929),(#930,#931,#932),(#933,#934,#935),
(#936,#937,#938),(#939,#940,#941),(#942,#943,#944),(#945,#946,#947),(#948,
#949,#950),(#951,#952,#953),(#954,#955,#956),(#957,#958,#959),(#960,#961,
#962),(#963,#964,#965),(#966,#967,#968),(#969,#970,#971),(#972,#973,#974),
(#975,#976,#977),(#978,#979,#980),(#981,#982,#983),(#984,#985,#986),(#987,
#988,#989),(#990,#991,#992),(#993,#994,#995),(#996,#997,#998),(#999,#1000,
#1001),(#1002,#1003,#1004),(#1005,#1006,#1007),(#1008,#1009,#1010),(#1011,
#1012,#1013),(#1014,#1015,#1016),(#1017,#1018,#1019),(#1020,#1021,#1022),
(#1023,#1024,#1025),(#1026,#1027,#1028),(#1029,#1030,#1031),(#1032,#1033,
#1034),(#1035,#1036,#1037),(#1038,#1039,#1040),(#1041,#1042,#1043),(#1044,
#1045,#1046),(#1047,#1048,#1049),(#1050,#1051,#1052),(#1053,#1054,#1055),
(#1056,#1057,#1058),(#1059,#1060,#1061),(#1062,#1063,#1064),(#1065,#1066,
#1067),(#1068,#1069,#1070),(#1071,#1072,#1073),(#1074,#1075,#1076),(#1077,
#1078,#1079),(#1080,#1081,#1082),(#1083,#1084,#1085),(#1086,#1087,#1088),
(#1089,#1090,#1091),(#1092,#1093,#1094),(#1095,#1096,#1097),(#1098,#1099,
#1100),(#1101,#1102,#1103),(#1104,#1105,#1106),(#1107,#1108,#1109),(#1110,
#1111,#1112),(#1113,#1114,#1115),(#1116,#1117,#1118),(#1119,#1120,#1121),
(#1122,#1123,#1124),(#1125,#1126,#1127),(#1128,#1129,#1130),(#1131,#1132,
#1133),(#1134,#1135,#1136),(#1137,#1138,#1139),(#1140,#1141,#1142),(#1143,
#1144,#1145),(#1146,#1147,#1148),(#1149,#1150,#1151),(#1152,#1153,#1154),
(#1155,#1156,#1157),(#1158,#1159,#1160),(#1161,#1162,#1163),(#1164,#1165,
#1166),(#1167,#1168,#1169),(#1170,#1171,#1172),(#1173,#1174,#1175),(#1176,
#1177,#1178),(#1179,#1180,#1181),(#1182,#1183,#1184),(#1185,#1186,#1187),
(#1188,#1189,#1190),(#1191,#1192,#1193),(#1194,#1195,#1196),(#1197,#1198,
#1199),(#1200,#1201,#1202),(#1203,#1204,#1205),(#1206,#1207,#1208),(#1209,
#1210,#1211),(#1212,#1213,#1214),(#1215,#1216,#1217),(#1218,#1219,#1220),
(#1221,#1222,#1223),(#1224,#1225,#1226),(#1227,#1228,#1229),(#1230,#1231,
#1232),(#1233,#1234,#1235),(#1236,#1237,#1238),(#1239,#1240,#1241)),
 .RULED_SURF.,.T.,.F.,.F.,(2,2,2,2,2,2,2,2,2,2,2,2,2,2,2,2,2,2,2,2,2,2,
2,2,2,2,2,2,2,2,2,2,2,2,2,2,2,2,2,2,2,2,2,2,2,2,2,2,2,2,2,2,2,2,2,2,2,2,
2,2,2,2,2,2,2,2,2),(2,1,2),(-0.015625,0.,0.015625,0.03125,0.046875,0.0625,
0.078125,0.09375,0.109375,0.125,0.140625,0.15625,0.171875,0.1875,0.203125,
0.21875,0.234375,0.25,0.265625,0.28125,0.296875,0.3125,0.328125,0.34375,
0.359375,0.375,0.390625,0.40625,0.421875,0.4375,0.453125,0.46875,0.484375,
0.5,0.515625,0.53125,0.546875,0.5625,0.578125,0.59375,0.609375,0.625,0.640625,
0.65625,0.671875,0.6875,0.703125,0.71875,0.734375,0.75,0.765625,0.78125,
0.796875,0.8125,0.828125,0.84375,0.859375,0.875,0.890625,0.90625,0.921875,
0.9375,0.953125,0.96875,0.984375,1.,1.015625),(-0.00200058503899586,0.,
0.333333333333333),.UNSPECIFIED.);
#26=B_SPLINE_CURVE_WITH_KNOTS('',3,(#827,#828,#829,#830,#831,#832,#833,
#834,#835,#836,#837,#838,#839),.UNSPECIFIED.,.T.,.F.,(1,1,1,1,1,1,1,1,1,
1,1,1,1,1,1,1,1),(-0.00735903823348361,-0.00490602548898907,-0.00245301274449453,
0.,0.00490602548898907,0.00981205097797814,0.0147180764669672,0.0196241019559563,
0.0245301274449454,0.0294361529339344,0.031889165678429,0.0343421784229235,
0.036795191167418,0.0392482039119126,0.0441542294009016,0.0490602548898907,
0.0539662803788798),.UNSPECIFIED.);
#27=LINE('',#756,#57);
#28=LINE('',#759,#58);
#29=LINE('',#761,#59);
#30=LINE('',#763,#60);
#31=LINE('',#765,#61);
#32=LINE('',#767,#62);
#33=LINE('',#769,#63);
#34=LINE('',#771,#64);
#35=LINE('',#773,#65);
#36=LINE('',#779,#66);
#37=LINE('',#781,#67);
#38=LINE('',#783,#68);
#39=LINE('',#789,#69);
#40=LINE('',#792,#70);
#41=LINE('',#794,#71);
#42=LINE('',#796,#72);
#43=LINE('',#798,#73);
#44=LINE('',#800,#74);
#45=LINE('',#802,#75);
#46=LINE('',#808,#76);
#47=LINE('',#810,#77);
#48=LINE('',#812,#78);
#49=LINE('',#814,#79);
#50=LINE('',#815,#80);
#51=LINE('',#817,#81);
#52=LINE('',#819,#82);
#53=LINE('',#821,#83);
#54=LINE('',#822,#84);
#55=LINE('',#825,#85);
#56=LINE('',#841,#86);
#57=VECTOR('',#608,1.);
#58=VECTOR('',#609,1.);
#59=VECTOR('',#610,1.);
#60=VECTOR('',#611,1.);
#61=VECTOR('',#614,1.);
#62=VECTOR('',#615,1.);
#63=VECTOR('',#616,1.);
#64=VECTOR('',#617,1.);
#65=VECTOR('',#618,1.);
#66=VECTOR('',#625,1.);
#67=VECTOR('',#626,1.);
#68=VECTOR('',#627,1.);
#69=VECTOR('',#634,1.);
#70=VECTOR('',#635,1.);
#71=VECTOR('',#636,1.);
#72=VECTOR('',#637,1.);
#73=VECTOR('',#640,1.);
#74=VECTOR('',#641,1.);
#75=VECTOR('',#642,1.);
#76=VECTOR('',#649,1.);
#77=VECTOR('',#650,1.);
#78=VECTOR('',#651,1.);
#79=VECTOR('',#654,1.);
#80=VECTOR('',#655,1.);
#81=VECTOR('',#658,1.);
#82=VECTOR('',#659,1.);
#83=VECTOR('',#660,1.);
#84=VECTOR('',#661,1.);
#85=VECTOR('',#666,1.);
#86=VECTOR('',#669,1.);
#87=ORIENTED_EDGE('',*,*,#203,.F.);
#88=ORIENTED_EDGE('',*,*,#204,.F.);
#89=ORIENTED_EDGE('',*,*,#205,.F.);
#90=ORIENTED_EDGE('',*,*,#206,.F.);
#91=ORIENTED_EDGE('',*,*,#207,.T.);
#92=ORIENTED_EDGE('',*,*,#208,.T.);
#93=ORIENTED_EDGE('',*,*,#209,.F.);
#94=ORIENTED_EDGE('',*,*,#210,.F.);
#95=ORIENTED_EDGE('',*,*,#211,.F.);
#96=ORIENTED_EDGE('',*,*,#212,.F.);
#97=ORIENTED_EDGE('',*,*,#213,.T.);
#98=ORIENTED_EDGE('',*,*,#206,.T.);
#99=ORIENTED_EDGE('',*,*,#214,.T.);
#100=ORIENTED_EDGE('',*,*,#215,.T.);
#101=ORIENTED_EDGE('',*,*,#212,.T.);
#102=ORIENTED_EDGE('',*,*,#216,.T.);
#103=ORIENTED_EDGE('',*,*,#217,.F.);
#104=ORIENTED_EDGE('',*,*,#218,.F.);
#105=ORIENTED_EDGE('',*,*,#219,.F.);
#106=ORIENTED_EDGE('',*,*,#220,.F.);
#107=ORIENTED_EDGE('',*,*,#221,.F.);
#108=ORIENTED_EDGE('',*,*,#222,.F.);
#109=ORIENTED_EDGE('',*,*,#223,.T.);
#110=ORIENTED_EDGE('',*,*,#224,.T.);
#111=ORIENTED_EDGE('',*,*,#225,.T.);
#112=ORIENTED_EDGE('',*,*,#226,.F.);
#113=ORIENTED_EDGE('',*,*,#227,.F.);
#114=ORIENTED_EDGE('',*,*,#222,.T.);
#115=ORIENTED_EDGE('',*,*,#228,.T.);
#116=ORIENTED_EDGE('',*,*,#229,.T.);
#117=ORIENTED_EDGE('',*,*,#230,.T.);
#118=ORIENTED_EDGE('',*,*,#231,.F.);
#119=ORIENTED_EDGE('',*,*,#232,.F.);
#120=ORIENTED_EDGE('',*,*,#226,.T.);
#121=ORIENTED_EDGE('',*,*,#233,.F.);
#122=ORIENTED_EDGE('',*,*,#224,.F.);
#123=ORIENTED_EDGE('',*,*,#234,.T.);
#124=ORIENTED_EDGE('',*,*,#231,.T.);
#125=ORIENTED_EDGE('',*,*,#217,.T.);
#126=ORIENTED_EDGE('',*,*,#235,.T.);
#127=ORIENTED_EDGE('',*,*,#236,.T.);
#128=ORIENTED_EDGE('',*,*,#237,.T.);
#129=ORIENTED_EDGE('',*,*,#208,.F.);
#130=ORIENTED_EDGE('',*,*,#238,.F.);
#131=ORIENTED_EDGE('',*,*,#223,.F.);
#132=ORIENTED_EDGE('',*,*,#227,.T.);
#133=ORIENTED_EDGE('',*,*,#232,.T.);
#134=ORIENTED_EDGE('',*,*,#234,.F.);
#135=ORIENTED_EDGE('',*,*,#207,.F.);
#136=ORIENTED_EDGE('',*,*,#213,.F.);
#137=ORIENTED_EDGE('',*,*,#218,.T.);
#138=ORIENTED_EDGE('',*,*,#238,.T.);
#139=ORIENTED_EDGE('',*,*,#237,.F.);
#140=ORIENTED_EDGE('',*,*,#239,.T.);
#141=ORIENTED_EDGE('',*,*,#209,.T.);
#142=ORIENTED_EDGE('',*,*,#205,.T.);
#143=ORIENTED_EDGE('',*,*,#240,.F.);
#144=ORIENTED_EDGE('',*,*,#241,.F.);
#145=ORIENTED_EDGE('',*,*,#235,.F.);
#146=ORIENTED_EDGE('',*,*,#216,.F.);
#147=ORIENTED_EDGE('',*,*,#211,.T.);
#148=ORIENTED_EDGE('',*,*,#239,.F.);
#149=ORIENTED_EDGE('',*,*,#236,.F.);
#150=ORIENTED_EDGE('',*,*,#241,.T.);
#151=ORIENTED_EDGE('',*,*,#210,.T.);
#152=ORIENTED_EDGE('',*,*,#242,.T.);
#153=ORIENTED_EDGE('',*,*,#243,.T.);
#154=ORIENTED_EDGE('',*,*,#244,.T.);
#155=ORIENTED_EDGE('',*,*,#245,.T.);
#156=ORIENTED_EDGE('',*,*,#230,.F.);
#157=ORIENTED_EDGE('',*,*,#225,.F.);
#158=ORIENTED_EDGE('',*,*,#221,.T.);
#159=ORIENTED_EDGE('',*,*,#233,.T.);
#160=ORIENTED_EDGE('',*,*,#240,.T.);
#161=ORIENTED_EDGE('',*,*,#246,.T.);
#162=ORIENTED_EDGE('',*,*,#247,.T.);
#163=ORIENTED_EDGE('',*,*,#248,.T.);
#164=ORIENTED_EDGE('',*,*,#249,.T.);
#165=ORIENTED_EDGE('',*,*,#250,.T.);
#166=ORIENTED_EDGE('',*,*,#251,.F.);
#167=ORIENTED_EDGE('',*,*,#246,.F.);
#168=ORIENTED_EDGE('',*,*,#252,.F.);
#169=ORIENTED_EDGE('',*,*,#251,.T.);
#170=ORIENTED_EDGE('',*,*,#252,.T.);
#171=ORIENTED_EDGE('',*,*,#250,.F.);
#172=ORIENTED_EDGE('',*,*,#253,.F.);
#173=ORIENTED_EDGE('',*,*,#253,.T.);
#174=ORIENTED_EDGE('',*,*,#254,.F.);
#175=ORIENTED_EDGE('',*,*,#254,.T.);
#176=ORIENTED_EDGE('',*,*,#245,.F.);
#177=ORIENTED_EDGE('',*,*,#249,.F.);
#178=ORIENTED_EDGE('',*,*,#255,.F.);
#179=ORIENTED_EDGE('',*,*,#255,.T.);
#180=ORIENTED_EDGE('',*,*,#256,.F.);
#181=ORIENTED_EDGE('',*,*,#256,.T.);
#182=ORIENTED_EDGE('',*,*,#244,.F.);
#183=ORIENTED_EDGE('',*,*,#248,.F.);
#184=ORIENTED_EDGE('',*,*,#257,.F.);
#185=ORIENTED_EDGE('',*,*,#257,.T.);
#186=ORIENTED_EDGE('',*,*,#258,.F.);
#187=ORIENTED_EDGE('',*,*,#258,.T.);
#188=ORIENTED_EDGE('',*,*,#243,.F.);
#189=ORIENTED_EDGE('',*,*,#247,.F.);
#190=ORIENTED_EDGE('',*,*,#259,.F.);
#191=ORIENTED_EDGE('',*,*,#259,.T.);
#192=ORIENTED_EDGE('',*,*,#260,.F.);
#193=ORIENTED_EDGE('',*,*,#260,.T.);
#194=ORIENTED_EDGE('',*,*,#242,.F.);
#195=ORIENTED_EDGE('',*,*,#204,.T.);
#196=ORIENTED_EDGE('',*,*,#229,.F.);
#197=ORIENTED_EDGE('',*,*,#203,.T.);
#198=ORIENTED_EDGE('',*,*,#228,.F.);
#199=ORIENTED_EDGE('',*,*,#220,.T.);
#200=ORIENTED_EDGE('',*,*,#215,.F.);
#201=ORIENTED_EDGE('',*,*,#219,.T.);
#202=ORIENTED_EDGE('',*,*,#214,.F.);
#203=EDGE_CURVE('',#261,#261,#309,.T.);
#204=EDGE_CURVE('',#262,#262,#310,.T.);
#205=EDGE_CURVE('',#263,#264,#27,.T.);
#206=EDGE_CURVE('',#265,#263,#28,.T.);
#207=EDGE_CURVE('',#265,#266,#29,.T.);
#208=EDGE_CURVE('',#266,#264,#30,.T.);
#209=EDGE_CURVE('',#267,#263,#31,.T.);
#210=EDGE_CURVE('',#268,#267,#32,.T.);
#211=EDGE_CURVE('',#269,#268,#33,.T.);
#212=EDGE_CURVE('',#270,#269,#34,.T.);
#213=EDGE_CURVE('',#270,#265,#35,.T.);
#214=EDGE_CURVE('',#271,#271,#311,.T.);
#215=EDGE_CURVE('',#272,#272,#312,.T.);
#216=EDGE_CURVE('',#269,#273,#36,.T.);
#217=EDGE_CURVE('',#274,#273,#37,.T.);
#218=EDGE_CURVE('',#270,#274,#38,.T.);
#219=EDGE_CURVE('',#275,#275,#313,.T.);
#220=EDGE_CURVE('',#276,#276,#314,.T.);
#221=EDGE_CURVE('',#277,#278,#39,.T.);
#222=EDGE_CURVE('',#279,#277,#40,.T.);
#223=EDGE_CURVE('',#279,#280,#41,.T.);
#224=EDGE_CURVE('',#280,#278,#42,.T.);
#225=EDGE_CURVE('',#277,#281,#43,.T.);
#226=EDGE_CURVE('',#282,#281,#44,.T.);
#227=EDGE_CURVE('',#279,#282,#45,.T.);
#228=EDGE_CURVE('',#283,#283,#315,.T.);
#229=EDGE_CURVE('',#284,#284,#316,.T.);
#230=EDGE_CURVE('',#281,#285,#46,.T.);
#231=EDGE_CURVE('',#286,#285,#47,.T.);
#232=EDGE_CURVE('',#282,#286,#48,.T.);
#233=EDGE_CURVE('',#278,#285,#49,.T.);
#234=EDGE_CURVE('',#280,#286,#50,.T.);
#235=EDGE_CURVE('',#273,#287,#51,.T.);
#236=EDGE_CURVE('',#287,#288,#52,.T.);
#237=EDGE_CURVE('',#288,#264,#53,.T.);
#238=EDGE_CURVE('',#274,#266,#54,.T.);
#239=EDGE_CURVE('',#288,#267,#55,.T.);
#240=EDGE_CURVE('',#289,#289,#26,.F.);
#241=EDGE_CURVE('',#287,#268,#56,.T.);
#242=EDGE_CURVE('',#290,#290,#317,.T.);
#243=EDGE_CURVE('',#291,#291,#318,.T.);
#244=EDGE_CURVE('',#292,#292,#319,.T.);
#245=EDGE_CURVE('',#293,#293,#320,.T.);
#246=EDGE_CURVE('',#294,#294,#321,.F.);
#247=EDGE_CURVE('',#295,#295,#322,.F.);
#248=EDGE_CURVE('',#296,#296,#323,.F.);
#249=EDGE_CURVE('',#297,#297,#324,.F.);
#250=EDGE_CURVE('',#298,#298,#325,.F.);
#251=EDGE_CURVE('',#299,#299,#326,.T.);
#252=EDGE_CURVE('',#300,#300,#327,.T.);
#253=EDGE_CURVE('',#301,#301,#328,.T.);
#254=EDGE_CURVE('',#302,#302,#329,.T.);
#255=EDGE_CURVE('',#303,#303,#330,.T.);
#256=EDGE_CURVE('',#304,#304,#331,.T.);
#257=EDGE_CURVE('',#305,#305,#332,.T.);
#258=EDGE_CURVE('',#306,#306,#333,.T.);
#259=EDGE_CURVE('',#307,#307,#334,.T.);
#260=EDGE_CURVE('',#308,#308,#335,.T.);
#261=VERTEX_POINT('',#753);
#262=VERTEX_POINT('',#755);
#263=VERTEX_POINT('',#757);
#264=VERTEX_POINT('',#758);
#265=VERTEX_POINT('',#760);
#266=VERTEX_POINT('',#762);
#267=VERTEX_POINT('',#766);
#268=VERTEX_POINT('',#768);
#269=VERTEX_POINT('',#770);
#270=VERTEX_POINT('',#772);
#271=VERTEX_POINT('',#776);
#272=VERTEX_POINT('',#778);
#273=VERTEX_POINT('',#780);
#274=VERTEX_POINT('',#782);
#275=VERTEX_POINT('',#786);
#276=VERTEX_POINT('',#788);
#277=VERTEX_POINT('',#790);
#278=VERTEX_POINT('',#791);
#279=VERTEX_POINT('',#793);
#280=VERTEX_POINT('',#795);
#281=VERTEX_POINT('',#799);
#282=VERTEX_POINT('',#801);
#283=VERTEX_POINT('',#805);
#284=VERTEX_POINT('',#807);
#285=VERTEX_POINT('',#809);
#286=VERTEX_POINT('',#811);
#287=VERTEX_POINT('',#818);
#288=VERTEX_POINT('',#820);
#289=VERTEX_POINT('',#840);
#290=VERTEX_POINT('',#845);
#291=VERTEX_POINT('',#847);
#292=VERTEX_POINT('',#849);
#293=VERTEX_POINT('',#851);
#294=VERTEX_POINT('',#1243);
#295=VERTEX_POINT('',#1246);
#296=VERTEX_POINT('',#1248);
#297=VERTEX_POINT('',#1250);
#298=VERTEX_POINT('',#1252);
#299=VERTEX_POINT('',#1254);
#300=VERTEX_POINT('',#1257);
#301=VERTEX_POINT('',#1261);
#302=VERTEX_POINT('',#1264);
#303=VERTEX_POINT('',#1268);
#304=VERTEX_POINT('',#1271);
#305=VERTEX_POINT('',#1275);
#306=VERTEX_POINT('',#1278);
#307=VERTEX_POINT('',#1282);
#308=VERTEX_POINT('',#1285);
#309=CIRCLE('',#542,0.00115);
#310=CIRCLE('',#543,0.00115);
#311=CIRCLE('',#546,0.00115);
#312=CIRCLE('',#547,0.00115);
#313=CIRCLE('',#549,0.00115);
#314=CIRCLE('',#550,0.00115);
#315=CIRCLE('',#553,0.00115);
#316=CIRCLE('',#554,0.00115);
#317=CIRCLE('',#562,0.0016002);
#318=CIRCLE('',#563,0.0016002);
#319=CIRCLE('',#564,0.0016002);
#320=CIRCLE('',#565,0.0016002);
#321=CIRCLE('',#566,0.00550776499575771);
#322=CIRCLE('',#568,0.0010033);
#323=CIRCLE('',#569,0.0010033);
#324=CIRCLE('',#570,0.0010033);
#325=CIRCLE('',#571,0.0010033);
#326=CIRCLE('',#572,0.00201544508850002);
#327=CIRCLE('',#574,0.00201544508850002);
#328=CIRCLE('',#577,0.0010033);
#329=CIRCLE('',#579,0.0016002);
#330=CIRCLE('',#582,0.0010033);
#331=CIRCLE('',#584,0.0016002);
#332=CIRCLE('',#587,0.0010033);
#333=CIRCLE('',#589,0.0016002);
#334=CIRCLE('',#592,0.0010033);
#335=CIRCLE('',#594,0.0016002);
#336=EDGE_LOOP('',(#87));
#337=EDGE_LOOP('',(#88));
#338=EDGE_LOOP('',(#89,#90,#91,#92));
#339=EDGE_LOOP('',(#93,#94,#95,#96,#97,#98));
#340=EDGE_LOOP('',(#99));
#341=EDGE_LOOP('',(#100));
#342=EDGE_LOOP('',(#101,#102,#103,#104));
#343=EDGE_LOOP('',(#105));
#344=EDGE_LOOP('',(#106));
#345=EDGE_LOOP('',(#107,#108,#109,#110));
#346=EDGE_LOOP('',(#111,#112,#113,#114));
#347=EDGE_LOOP('',(#115));
#348=EDGE_LOOP('',(#116));
#349=EDGE_LOOP('',(#117,#118,#119,#120));
#350=EDGE_LOOP('',(#121,#122,#123,#124));
#351=EDGE_LOOP('',(#125,#126,#127,#128,#129,#130));
#352=EDGE_LOOP('',(#131,#132,#133,#134));
#353=EDGE_LOOP('',(#135,#136,#137,#138));
#354=EDGE_LOOP('',(#139,#140,#141,#142));
#355=EDGE_LOOP('',(#143));
#356=EDGE_LOOP('',(#144,#145,#146,#147));
#357=EDGE_LOOP('',(#148,#149,#150,#151));
#358=EDGE_LOOP('',(#152));
#359=EDGE_LOOP('',(#153));
#360=EDGE_LOOP('',(#154));
#361=EDGE_LOOP('',(#155));
#362=EDGE_LOOP('',(#156,#157,#158,#159));
#363=EDGE_LOOP('',(#160));
#364=EDGE_LOOP('',(#161));
#365=EDGE_LOOP('',(#162));
#366=EDGE_LOOP('',(#163));
#367=EDGE_LOOP('',(#164));
#368=EDGE_LOOP('',(#165));
#369=EDGE_LOOP('',(#166));
#370=EDGE_LOOP('',(#167));
#371=EDGE_LOOP('',(#168));
#372=EDGE_LOOP('',(#169));
#373=EDGE_LOOP('',(#170));
#374=EDGE_LOOP('',(#171));
#375=EDGE_LOOP('',(#172));
#376=EDGE_LOOP('',(#173));
#377=EDGE_LOOP('',(#174));
#378=EDGE_LOOP('',(#175));
#379=EDGE_LOOP('',(#176));
#380=EDGE_LOOP('',(#177));
#381=EDGE_LOOP('',(#178));
#382=EDGE_LOOP('',(#179));
#383=EDGE_LOOP('',(#180));
#384=EDGE_LOOP('',(#181));
#385=EDGE_LOOP('',(#182));
#386=EDGE_LOOP('',(#183));
#387=EDGE_LOOP('',(#184));
#388=EDGE_LOOP('',(#185));
#389=EDGE_LOOP('',(#186));
#390=EDGE_LOOP('',(#187));
#391=EDGE_LOOP('',(#188));
#392=EDGE_LOOP('',(#189));
#393=EDGE_LOOP('',(#190));
#394=EDGE_LOOP('',(#191));
#395=EDGE_LOOP('',(#192));
#396=EDGE_LOOP('',(#193));
#397=EDGE_LOOP('',(#194));
#398=EDGE_LOOP('',(#195));
#399=EDGE_LOOP('',(#196));
#400=EDGE_LOOP('',(#197));
#401=EDGE_LOOP('',(#198));
#402=EDGE_LOOP('',(#199));
#403=EDGE_LOOP('',(#200));
#404=EDGE_LOOP('',(#201));
#405=EDGE_LOOP('',(#202));
#406=FACE_BOUND('',#336,.T.);
#407=FACE_BOUND('',#337,.T.);
#408=FACE_BOUND('',#338,.T.);
#409=FACE_BOUND('',#339,.T.);
#410=FACE_BOUND('',#340,.T.);
#411=FACE_BOUND('',#341,.T.);
#412=FACE_BOUND('',#342,.T.);
#413=FACE_BOUND('',#343,.T.);
#414=FACE_BOUND('',#344,.T.);
#415=FACE_BOUND('',#345,.T.);
#416=FACE_BOUND('',#346,.T.);
#417=FACE_BOUND('',#347,.T.);
#418=FACE_BOUND('',#348,.T.);
#419=FACE_BOUND('',#349,.T.);
#420=FACE_BOUND('',#350,.T.);
#421=FACE_BOUND('',#351,.T.);
#422=FACE_BOUND('',#352,.T.);
#423=FACE_BOUND('',#353,.T.);
#424=FACE_BOUND('',#354,.T.);
#425=FACE_BOUND('',#355,.T.);
#426=FACE_BOUND('',#356,.T.);
#427=FACE_BOUND('',#357,.T.);
#428=FACE_BOUND('',#358,.T.);
#429=FACE_BOUND('',#359,.T.);
#430=FACE_BOUND('',#360,.T.);
#431=FACE_BOUND('',#361,.T.);
#432=FACE_BOUND('',#362,.T.);
#433=FACE_BOUND('',#363,.T.);
#434=FACE_BOUND('',#364,.T.);
#435=FACE_BOUND('',#365,.T.);
#436=FACE_BOUND('',#366,.T.);
#437=FACE_BOUND('',#367,.T.);
#438=FACE_BOUND('',#368,.T.);
#439=FACE_BOUND('',#369,.T.);
#440=FACE_BOUND('',#370,.T.);
#441=FACE_BOUND('',#371,.T.);
#442=FACE_BOUND('',#372,.T.);
#443=FACE_BOUND('',#373,.T.);
#444=FACE_BOUND('',#374,.T.);
#445=FACE_BOUND('',#375,.T.);
#446=FACE_BOUND('',#376,.T.);
#447=FACE_BOUND('',#377,.T.);
#448=FACE_BOUND('',#378,.T.);
#449=FACE_BOUND('',#379,.T.);
#450=FACE_BOUND('',#380,.T.);
#451=FACE_BOUND('',#381,.T.);
#452=FACE_BOUND('',#382,.T.);
#453=FACE_BOUND('',#383,.T.);
#454=FACE_BOUND('',#384,.T.);
#455=FACE_BOUND('',#385,.T.);
#456=FACE_BOUND('',#386,.T.);
#457=FACE_BOUND('',#387,.T.);
#458=FACE_BOUND('',#388,.T.);
#459=FACE_BOUND('',#389,.T.);
#460=FACE_BOUND('',#390,.T.);
#461=FACE_BOUND('',#391,.T.);
#462=FACE_BOUND('',#392,.T.);
#463=FACE_BOUND('',#393,.T.);
#464=FACE_BOUND('',#394,.T.);
#465=FACE_BOUND('',#395,.T.);
#466=FACE_BOUND('',#396,.T.);
#467=FACE_BOUND('',#397,.T.);
#468=FACE_BOUND('',#398,.T.);
#469=FACE_BOUND('',#399,.T.);
#470=FACE_BOUND('',#400,.T.);
#471=FACE_BOUND('',#401,.T.);
#472=FACE_BOUND('',#402,.T.);
#473=FACE_BOUND('',#403,.T.);
#474=FACE_BOUND('',#404,.T.);
#475=FACE_BOUND('',#405,.T.);
#476=PLANE('',#541);
#477=PLANE('',#544);
#478=PLANE('',#545);
#479=PLANE('',#548);
#480=PLANE('',#551);
#481=PLANE('',#552);
#482=PLANE('',#555);
#483=PLANE('',#556);
#484=PLANE('',#557);
#485=PLANE('',#558);
#486=PLANE('',#559);
#487=PLANE('',#560);
#488=PLANE('',#561);
#489=PLANE('',#567);
#490=PLANE('',#575);
#491=PLANE('',#578);
#492=PLANE('',#583);
#493=PLANE('',#588);
#494=PLANE('',#593);
#495=ADVANCED_FACE('',(#406,#407,#408),#476,.T.);
#496=ADVANCED_FACE('',(#409),#477,.T.);
#497=ADVANCED_FACE('',(#410,#411,#412),#478,.F.);
#498=ADVANCED_FACE('',(#413,#414,#415),#479,.T.);
#499=ADVANCED_FACE('',(#416),#480,.F.);
#500=ADVANCED_FACE('',(#417,#418,#419),#481,.F.);
#501=ADVANCED_FACE('',(#420),#482,.T.);
#502=ADVANCED_FACE('',(#421),#483,.F.);
#503=ADVANCED_FACE('',(#422,#423),#484,.T.);
#504=ADVANCED_FACE('',(#424),#485,.F.);
#505=ADVANCED_FACE('',(#425,#426),#486,.T.);
#506=ADVANCED_FACE('',(#427),#487,.T.);
#507=ADVANCED_FACE('',(#428,#429,#430,#431,#432),#488,.F.);
#508=ADVANCED_FACE('',(#433,#434),#25,.T.);
#509=ADVANCED_FACE('',(#435,#436,#437,#438,#439,#440),#489,.T.);
#510=ADVANCED_FACE('',(#441,#442),#12,.F.);
#511=ADVANCED_FACE('',(#443),#490,.T.);
#512=ADVANCED_FACE('',(#444,#445),#13,.F.);
#513=ADVANCED_FACE('',(#446,#447),#491,.T.);
#514=ADVANCED_FACE('',(#448,#449),#14,.F.);
#515=ADVANCED_FACE('',(#450,#451),#15,.F.);
#516=ADVANCED_FACE('',(#452,#453),#492,.T.);
#517=ADVANCED_FACE('',(#454,#455),#16,.F.);
#518=ADVANCED_FACE('',(#456,#457),#17,.F.);
#519=ADVANCED_FACE('',(#458,#459),#493,.T.);
#520=ADVANCED_FACE('',(#460,#461),#18,.F.);
#521=ADVANCED_FACE('',(#462,#463),#19,.F.);
#522=ADVANCED_FACE('',(#464,#465),#494,.T.);
#523=ADVANCED_FACE('',(#466,#467),#20,.F.);
#524=ADVANCED_FACE('',(#468,#469),#21,.F.);
#525=ADVANCED_FACE('',(#470,#471),#22,.F.);
#526=ADVANCED_FACE('',(#472,#473),#23,.F.);
#527=ADVANCED_FACE('',(#474,#475),#24,.F.);
#528=CLOSED_SHELL('',(#495,#496,#497,#498,#499,#500,#501,#502,#503,#504,
#505,#506,#507,#508,#509,#510,#511,#512,#513,#514,#515,#516,#517,#518,#519,
#520,#521,#522,#523,#524,#525,#526,#527));
#529=STYLED_ITEM('',(#530),#537);
#530=PRESENTATION_STYLE_ASSIGNMENT((#531));
#531=SURFACE_STYLE_USAGE(.BOTH.,#532);
#532=SURFACE_SIDE_STYLE('',(#533));
#533=SURFACE_STYLE_FILL_AREA(#534);
#534=FILL_AREA_STYLE('',(#535));
#535=FILL_AREA_STYLE_COLOUR('',#536);
#536=COLOUR_RGB('',0.615686274509804,0.811764705882353,0.929411764705882);
#537=MANIFOLD_SOLID_BREP('Part 1',#528);
#538=SHAPE_DEFINITION_REPRESENTATION(#1297,#539);
#539=SHAPE_REPRESENTATION('Part 1',(#540),#1292);
#540=AXIS2_PLACEMENT_3D('',#750,#600,#601);
#541=AXIS2_PLACEMENT_3D('',#751,#602,#603);
#542=AXIS2_PLACEMENT_3D('',#752,#604,#605);
#543=AXIS2_PLACEMENT_3D('',#754,#606,#607);
#544=AXIS2_PLACEMENT_3D('',#764,#612,#613);
#545=AXIS2_PLACEMENT_3D('',#774,#619,#620);
#546=AXIS2_PLACEMENT_3D('',#775,#621,#622);
#547=AXIS2_PLACEMENT_3D('',#777,#623,#624);
#548=AXIS2_PLACEMENT_3D('',#784,#628,#629);
#549=AXIS2_PLACEMENT_3D('',#785,#630,#631);
#550=AXIS2_PLACEMENT_3D('',#787,#632,#633);
#551=AXIS2_PLACEMENT_3D('',#797,#638,#639);
#552=AXIS2_PLACEMENT_3D('',#803,#643,#644);
#553=AXIS2_PLACEMENT_3D('',#804,#645,#646);
#554=AXIS2_PLACEMENT_3D('',#806,#647,#648);
#555=AXIS2_PLACEMENT_3D('',#813,#652,#653);
#556=AXIS2_PLACEMENT_3D('',#816,#656,#657);
#557=AXIS2_PLACEMENT_3D('',#823,#662,#663);
#558=AXIS2_PLACEMENT_3D('',#824,#664,#665);
#559=AXIS2_PLACEMENT_3D('',#826,#667,#668);
#560=AXIS2_PLACEMENT_3D('',#842,#670,#671);
#561=AXIS2_PLACEMENT_3D('',#843,#672,#673);
#562=AXIS2_PLACEMENT_3D('',#844,#674,#675);
#563=AXIS2_PLACEMENT_3D('',#846,#676,#677);
#564=AXIS2_PLACEMENT_3D('',#848,#678,#679);
#565=AXIS2_PLACEMENT_3D('',#850,#680,#681);
#566=AXIS2_PLACEMENT_3D('',#1242,#682,#683);
#567=AXIS2_PLACEMENT_3D('',#1244,#684,#685);
#568=AXIS2_PLACEMENT_3D('',#1245,#686,#687);
#569=AXIS2_PLACEMENT_3D('',#1247,#688,#689);
#570=AXIS2_PLACEMENT_3D('',#1249,#690,#691);
#571=AXIS2_PLACEMENT_3D('',#1251,#692,#693);
#572=AXIS2_PLACEMENT_3D('',#1253,#694,#695);
#573=AXIS2_PLACEMENT_3D('',#1255,#696,#697);
#574=AXIS2_PLACEMENT_3D('',#1256,#698,#699);
#575=AXIS2_PLACEMENT_3D('',#1258,#700,#701);
#576=AXIS2_PLACEMENT_3D('',#1259,#702,#703);
#577=AXIS2_PLACEMENT_3D('',#1260,#704,#705);
#578=AXIS2_PLACEMENT_3D('',#1262,#706,#707);
#579=AXIS2_PLACEMENT_3D('',#1263,#708,#709);
#580=AXIS2_PLACEMENT_3D('',#1265,#710,#711);
#581=AXIS2_PLACEMENT_3D('',#1266,#712,#713);
#582=AXIS2_PLACEMENT_3D('',#1267,#714,#715);
#583=AXIS2_PLACEMENT_3D('',#1269,#716,#717);
#584=AXIS2_PLACEMENT_3D('',#1270,#718,#719);
#585=AXIS2_PLACEMENT_3D('',#1272,#720,#721);
#586=AXIS2_PLACEMENT_3D('',#1273,#722,#723);
#587=AXIS2_PLACEMENT_3D('',#1274,#724,#725);
#588=AXIS2_PLACEMENT_3D('',#1276,#726,#727);
#589=AXIS2_PLACEMENT_3D('',#1277,#728,#729);
#590=AXIS2_PLACEMENT_3D('',#1279,#730,#731);
#591=AXIS2_PLACEMENT_3D('',#1280,#732,#733);
#592=AXIS2_PLACEMENT_3D('',#1281,#734,#735);
#593=AXIS2_PLACEMENT_3D('',#1283,#736,#737);
#594=AXIS2_PLACEMENT_3D('',#1284,#738,#739);
#595=AXIS2_PLACEMENT_3D('',#1286,#740,#741);
#596=AXIS2_PLACEMENT_3D('',#1287,#742,#743);
#597=AXIS2_PLACEMENT_3D('',#1288,#744,#745);
#598=AXIS2_PLACEMENT_3D('',#1289,#746,#747);
#599=AXIS2_PLACEMENT_3D('',#1290,#748,#749);
#600=DIRECTION('',(0.,0.,1.));
#601=DIRECTION('',(1.,0.,0.));
#602=DIRECTION('',(1.,9.89799997704443E-17,0.));
#603=DIRECTION('',(-9.89799997704443E-17,1.,0.));
#604=DIRECTION('',(1.,9.89799997704443E-17,0.));
#605=DIRECTION('',(-9.89799997704443E-17,1.,0.));
#606=DIRECTION('',(1.,9.89799997704443E-17,0.));
#607=DIRECTION('',(-9.89799997704443E-17,1.,0.));
#608=DIRECTION('',(9.89799997704443E-17,-1.,0.));
#609=DIRECTION('',(0.,0.,-1.));
#610=DIRECTION('',(9.89799997704443E-17,-1.,0.));
#611=DIRECTION('',(0.,0.,-1.));
#612=DIRECTION('',(0.,1.,0.));
#613=DIRECTION('',(0.,0.,1.));
#614=DIRECTION('',(1.,0.,0.));
#615=DIRECTION('',(0.,0.,1.));
#616=DIRECTION('',(1.,0.,0.));
#617=DIRECTION('',(0.,0.,-1.));
#618=DIRECTION('',(1.,0.,0.));
#619=DIRECTION('',(1.,0.,0.));
#620=DIRECTION('',(0.,0.,-1.));
#621=DIRECTION('',(1.,0.,0.));
#622=DIRECTION('',(0.,0.,-1.));
#623=DIRECTION('',(1.,0.,0.));
#624=DIRECTION('',(0.,0.,-1.));
#625=DIRECTION('',(0.,-1.,0.));
#626=DIRECTION('',(0.,0.,-1.));
#627=DIRECTION('',(0.,-1.,0.));
#628=DIRECTION('',(1.,1.39379999676748E-16,0.));
#629=DIRECTION('',(-1.39379999676748E-16,1.,0.));
#630=DIRECTION('',(1.,1.39379999676748E-16,0.));
#631=DIRECTION('',(-1.39379999676748E-16,1.,0.));
#632=DIRECTION('',(1.,1.39379999676748E-16,0.));
#633=DIRECTION('',(-1.39379999676748E-16,1.,0.));
#634=DIRECTION('',(1.39379999676748E-16,-1.,0.));
#635=DIRECTION('',(0.,0.,-1.));
#636=DIRECTION('',(1.39379999676748E-16,-1.,0.));
#637=DIRECTION('',(0.,0.,-1.));
#638=DIRECTION('',(0.,1.,0.));
#639=DIRECTION('',(0.,0.,1.));
#640=DIRECTION('',(1.,0.,0.));
#641=DIRECTION('',(0.,0.,-1.));
#642=DIRECTION('',(1.,0.,0.));
#643=DIRECTION('',(1.,6.96899998383741E-17,0.));
#644=DIRECTION('',(-6.96899998383741E-17,1.,0.));
#645=DIRECTION('',(1.,6.96899998383741E-17,0.));
#646=DIRECTION('',(-6.96899998383741E-17,1.,0.));
#647=DIRECTION('',(1.,6.96899998383741E-17,0.));
#648=DIRECTION('',(-6.96899998383741E-17,1.,0.));
#649=DIRECTION('',(6.96899998383741E-17,-1.,0.));
#650=DIRECTION('',(0.,0.,-1.));
#651=DIRECTION('',(6.96899998383741E-17,-1.,0.));
#652=DIRECTION('',(0.,1.,0.));
#653=DIRECTION('',(0.,0.,1.));
#654=DIRECTION('',(1.,0.,0.));
#655=DIRECTION('',(1.,0.,0.));
#656=DIRECTION('',(0.,1.,0.));
#657=DIRECTION('',(0.,0.,1.));
#658=DIRECTION('',(1.,0.,0.));
#659=DIRECTION('',(0.,0.,1.));
#660=DIRECTION('',(1.,0.,0.));
#661=DIRECTION('',(1.,0.,0.));
#662=DIRECTION('',(0.,0.,1.));
#663=DIRECTION('',(1.,0.,0.));
#664=DIRECTION('',(0.,0.,1.));
#665=DIRECTION('',(1.,0.,0.));
#666=DIRECTION('',(9.89799997704443E-17,1.,0.));
#667=DIRECTION('',(0.,0.,-1.));
#668=DIRECTION('',(1.,0.,0.));
#669=DIRECTION('',(9.89799997704443E-17,1.,0.));
#670=DIRECTION('',(1.,-9.89799997704443E-17,0.));
#671=DIRECTION('',(9.89799997704443E-17,1.,0.));
#672=DIRECTION('',(0.,0.,-1.));
#673=DIRECTION('',(1.,0.,0.));
#674=DIRECTION('',(0.,0.,-1.));
#675=DIRECTION('',(-1.,0.,0.));
#676=DIRECTION('',(0.,0.,-1.));
#677=DIRECTION('',(-1.,0.,0.));
#678=DIRECTION('',(0.,0.,-1.));
#679=DIRECTION('',(-1.,0.,0.));
#680=DIRECTION('',(0.,0.,-1.));
#681=DIRECTION('',(-1.,0.,0.));
#682=DIRECTION('',(0.,0.,-1.));
#683=DIRECTION('',(-1.,0.,0.));
#684=DIRECTION('',(0.,0.,-1.));
#685=DIRECTION('',(1.,0.,0.));
#686=DIRECTION('',(0.,0.,-1.));
#687=DIRECTION('',(-1.,0.,0.));
#688=DIRECTION('',(0.,0.,-1.));
#689=DIRECTION('',(-1.,0.,0.));
#690=DIRECTION('',(0.,0.,-1.));
#691=DIRECTION('',(-1.,0.,0.));
#692=DIRECTION('',(0.,0.,-1.));
#693=DIRECTION('',(-1.,0.,0.));
#694=DIRECTION('',(0.,0.,-1.));
#695=DIRECTION('',(-1.,0.,0.));
#696=DIRECTION('',(0.,0.,-1.));
#697=DIRECTION('',(-1.,0.,0.));
#698=DIRECTION('',(0.,0.,-1.));
#699=DIRECTION('',(-1.,0.,0.));
#700=DIRECTION('',(0.,0.,-1.));
#701=DIRECTION('',(1.,0.,0.));
#702=DIRECTION('',(0.,0.,-1.));
#703=DIRECTION('',(-1.,0.,0.));
#704=DIRECTION('',(0.,0.,-1.));
#705=DIRECTION('',(-1.,0.,0.));
#706=DIRECTION('',(0.,0.,1.));
#707=DIRECTION('',(1.,0.,0.));
#708=DIRECTION('',(0.,0.,-1.));
#709=DIRECTION('',(-1.,0.,0.));
#710=DIRECTION('',(0.,0.,-1.));
#711=DIRECTION('',(-1.,0.,0.));
#712=DIRECTION('',(0.,0.,-1.));
#713=DIRECTION('',(-1.,0.,0.));
#714=DIRECTION('',(0.,0.,-1.));
#715=DIRECTION('',(-1.,0.,0.));
#716=DIRECTION('',(0.,0.,1.));
#717=DIRECTION('',(1.,0.,0.));
#718=DIRECTION('',(0.,0.,-1.));
#719=DIRECTION('',(-1.,0.,0.));
#720=DIRECTION('',(0.,0.,-1.));
#721=DIRECTION('',(-1.,0.,0.));
#722=DIRECTION('',(0.,0.,-1.));
#723=DIRECTION('',(-1.,0.,0.));
#724=DIRECTION('',(0.,0.,-1.));
#725=DIRECTION('',(-1.,0.,0.));
#726=DIRECTION('',(0.,0.,1.));
#727=DIRECTION('',(1.,0.,0.));
#728=DIRECTION('',(0.,0.,-1.));
#729=DIRECTION('',(-1.,0.,0.));
#730=DIRECTION('',(0.,0.,-1.));
#731=DIRECTION('',(-1.,0.,0.));
#732=DIRECTION('',(0.,0.,-1.));
#733=DIRECTION('',(-1.,0.,0.));
#734=DIRECTION('',(0.,0.,-1.));
#735=DIRECTION('',(-1.,0.,0.));
#736=DIRECTION('',(0.,0.,1.));
#737=DIRECTION('',(1.,0.,0.));
#738=DIRECTION('',(0.,0.,-1.));
#739=DIRECTION('',(-1.,0.,0.));
#740=DIRECTION('',(0.,0.,-1.));
#741=DIRECTION('',(-1.,0.,0.));
#742=DIRECTION('',(1.,9.89799997704443E-17,0.));
#743=DIRECTION('',(-9.89799997704443E-17,1.,0.));
#744=DIRECTION('',(1.,9.89799997704443E-17,0.));
#745=DIRECTION('',(-9.89799997704443E-17,1.,0.));
#746=DIRECTION('',(1.,9.89799997704443E-17,0.));
#747=DIRECTION('',(-9.89799997704443E-17,1.,0.));
#748=DIRECTION('',(1.,9.89799997704443E-17,0.));
#749=DIRECTION('',(-9.89799997704443E-17,1.,0.));
#750=CARTESIAN_POINT('',(0.,0.,0.));
#751=CARTESIAN_POINT('',(0.0100889409155453,-0.000702660145142775,0.023876));
#752=CARTESIAN_POINT('',(0.0100889409155453,-0.00527145234624126,0.00177574137483044));
#753=CARTESIAN_POINT('',(0.0100889409155453,-0.00412145234624126,0.00177574137483044));
#754=CARTESIAN_POINT('',(0.0100889409155453,0.0038862,0.00175861706403502));
#755=CARTESIAN_POINT('',(0.0100889409155453,0.0050362,0.00175861706403502));
#756=CARTESIAN_POINT('',(0.0100889409155453,-0.000702660145142775,0.));
#757=CARTESIAN_POINT('',(0.0100889409155453,0.00806033985485723,0.));
#758=CARTESIAN_POINT('',(0.0100889409155453,-0.00946566014514277,0.));
#759=CARTESIAN_POINT('',(0.0100889409155453,0.00806033985485723,0.023876));
#760=CARTESIAN_POINT('',(0.0100889409155453,0.00806033985485723,0.023876));
#761=CARTESIAN_POINT('',(0.0100889409155453,-0.000702660145142775,0.023876));
#762=CARTESIAN_POINT('',(0.0100889409155453,-0.00946566014514277,0.023876));
#763=CARTESIAN_POINT('',(0.0100889409155453,-0.00946566014514277,0.023876));
#764=CARTESIAN_POINT('',(-0.00388105908445468,0.00806033985485723,0.023876));
#765=CARTESIAN_POINT('',(-0.00388105908445468,0.00806033985485723,0.));
#766=CARTESIAN_POINT('',(0.0100583405547207,0.00806033985485723,0.));
#767=CARTESIAN_POINT('',(0.0100583405547207,0.00806033985485723,-0.00254));
#768=CARTESIAN_POINT('',(0.0100583405547207,0.00806033985485723,-0.00254));
#769=CARTESIAN_POINT('',(-0.00388105908445468,0.00806033985485723,-0.00254));
#770=CARTESIAN_POINT('',(-0.0178510590844547,0.00806033985485723,-0.00254));
#771=CARTESIAN_POINT('',(-0.0178510590844547,0.00806033985485723,0.023876));
#772=CARTESIAN_POINT('',(-0.0178510590844547,0.00806033985485723,0.023876));
#773=CARTESIAN_POINT('',(-0.00388105908445468,0.00806033985485723,0.023876));
#774=CARTESIAN_POINT('',(-0.0178510590844547,-0.000702660145142777,0.023876));
#775=CARTESIAN_POINT('',(-0.0178510590844547,-0.00527145234624126,0.00177574137483044));
#776=CARTESIAN_POINT('',(-0.0178510590844547,-0.00527145234624126,0.00062574137483044));
#777=CARTESIAN_POINT('',(-0.0178510590844547,0.0038862,0.00175861706403502));
#778=CARTESIAN_POINT('',(-0.0178510590844547,0.0038862,0.000608617064035025));
#779=CARTESIAN_POINT('',(-0.0178510590844547,-0.000702660145142777,-0.00254));
#780=CARTESIAN_POINT('',(-0.0178510590844547,-0.00946566014514278,-0.00254));
#781=CARTESIAN_POINT('',(-0.0178510590844547,-0.00946566014514278,0.023876));
#782=CARTESIAN_POINT('',(-0.0178510590844547,-0.00946566014514278,0.023876));
#783=CARTESIAN_POINT('',(-0.0178510590844547,-0.000702660145142777,0.023876));
#784=CARTESIAN_POINT('',(-0.0153110590844547,-0.000702660145142781,0.023876));
#785=CARTESIAN_POINT('',(-0.0153110590844547,-0.00527145234624126,0.00177574137483044));
#786=CARTESIAN_POINT('',(-0.0153110590844547,-0.00412145234624126,0.00177574137483044));
#787=CARTESIAN_POINT('',(-0.0153110590844547,0.0038862,0.00175861706403502));
#788=CARTESIAN_POINT('',(-0.0153110590844547,0.0050362,0.00175861706403502));
#789=CARTESIAN_POINT('',(-0.0153110590844547,-0.000702660145142781,0.));
#790=CARTESIAN_POINT('',(-0.0153110590844547,0.00552033985485724,0.));
#791=CARTESIAN_POINT('',(-0.0153110590844547,-0.00692566014514276,0.));
#792=CARTESIAN_POINT('',(-0.0153110590844547,0.00552033985485724,0.023876));
#793=CARTESIAN_POINT('',(-0.0153110590844547,0.00552033985485724,0.023876));
#794=CARTESIAN_POINT('',(-0.0153110590844547,-0.000702660145142781,0.023876));
#795=CARTESIAN_POINT('',(-0.0153110590844547,-0.00692566014514276,0.023876));
#796=CARTESIAN_POINT('',(-0.0153110590844547,-0.00692566014514276,0.023876));
#797=CARTESIAN_POINT('',(-0.00388105908445468,0.00552033985485724,0.023876));
#798=CARTESIAN_POINT('',(-0.00388105908445468,0.00552033985485724,0.));
#799=CARTESIAN_POINT('',(0.00754894091554533,0.00552033985485722,0.));
#800=CARTESIAN_POINT('',(0.00754894091554533,0.00552033985485722,0.023876));
#801=CARTESIAN_POINT('',(0.00754894091554533,0.00552033985485722,0.023876));
#802=CARTESIAN_POINT('',(-0.00388105908445468,0.00552033985485724,0.023876));
#803=CARTESIAN_POINT('',(0.00754894091554533,-0.000702660145142776,0.023876));
#804=CARTESIAN_POINT('',(0.00754894091554532,-0.00527145234624126,0.00177574137483044));
#805=CARTESIAN_POINT('',(0.00754894091554532,-0.00412145234624126,0.00177574137483044));
#806=CARTESIAN_POINT('',(0.00754894091554532,0.0038862,0.00175861706403502));
#807=CARTESIAN_POINT('',(0.00754894091554532,0.0050362,0.00175861706403502));
#808=CARTESIAN_POINT('',(0.00754894091554533,-0.000702660145142776,0.));
#809=CARTESIAN_POINT('',(0.00754894091554533,-0.00692566014514278,0.));
#810=CARTESIAN_POINT('',(0.00754894091554533,-0.00692566014514278,0.023876));
#811=CARTESIAN_POINT('',(0.00754894091554533,-0.00692566014514278,0.023876));
#812=CARTESIAN_POINT('',(0.00754894091554533,-0.000702660145142776,0.023876));
#813=CARTESIAN_POINT('',(-0.00388105908445468,-0.00692566014514276,0.023876));
#814=CARTESIAN_POINT('',(-0.00388105908445468,-0.00692566014514276,0.));
#815=CARTESIAN_POINT('',(-0.00388105908445468,-0.00692566014514276,0.023876));
#816=CARTESIAN_POINT('',(-0.00388105908445468,-0.00946566014514277,0.023876));
#817=CARTESIAN_POINT('',(-0.00388105908445468,-0.00946566014514277,-0.00254));
#818=CARTESIAN_POINT('',(0.0100583405547207,-0.00946566014514277,-0.00254));
#819=CARTESIAN_POINT('',(0.0100583405547207,-0.00946566014514277,-0.00254));
#820=CARTESIAN_POINT('',(0.0100583405547207,-0.00946566014514277,0.));
#821=CARTESIAN_POINT('',(-0.00388105908445468,-0.00946566014514277,0.));
#822=CARTESIAN_POINT('',(-0.00388105908445468,-0.00946566014514277,0.023876));
#823=CARTESIAN_POINT('',(-0.00388105908445468,-0.000702660145142777,0.023876));
#824=CARTESIAN_POINT('',(-0.00388105908445468,-0.000702660145142777,0.));
#825=CARTESIAN_POINT('',(0.0100583405547207,-0.000702660145142775,0.));
#826=CARTESIAN_POINT('',(-0.00388105908445468,-0.000702660145142777,-0.00254));
#827=CARTESIAN_POINT('',(-0.00947779271665141,0.00170162918769826,-0.00254));
#828=CARTESIAN_POINT('',(-0.0101367118470929,-0.00160221449640378,-0.00254));
#829=CARTESIAN_POINT('',(-0.0084341214097334,-0.00568750727632477,-0.00254));
#830=CARTESIAN_POINT('',(-0.00351546404192933,-0.00771599091186003,-0.00254));
#831=CARTESIAN_POINT('',(0.00140153007681681,-0.00567112588768439,-0.00254));
#832=CARTESIAN_POINT('',(0.00343032209456767,-0.000745957377464381,-0.00254));
#833=CARTESIAN_POINT('',(0.00138561623336526,0.00416604605886176,-0.00254));
#834=CARTESIAN_POINT('',(-0.00270931528437159,0.00585220806388178,-0.00254));
#835=CARTESIAN_POINT('',(-0.0060003934646938,0.00518647143240774,-0.00254));
#836=CARTESIAN_POINT('',(-0.00808704978001733,0.00378766090582987,-0.00254));
#837=CARTESIAN_POINT('',(-0.00947779271665141,0.00170162918769826,-0.00254));
#838=CARTESIAN_POINT('',(-0.0101367118470929,-0.00160221449640378,-0.00254));
#839=CARTESIAN_POINT('',(-0.0084341214097334,-0.00568750727632477,-0.00254));
#840=CARTESIAN_POINT('',(-0.00980356610778845,-0.0007732861203645,-0.00254));
#841=CARTESIAN_POINT('',(0.0100583405547207,-0.000702660145142775,-0.00254));
#842=CARTESIAN_POINT('',(0.0100583405547207,-0.000702660145142775,-0.00254));
#843=CARTESIAN_POINT('',(-0.00388105908445468,-0.000702660145142777,0.));
#844=CARTESIAN_POINT('',(-0.0063246,-0.00380553637184703,0.));
#845=CARTESIAN_POINT('',(-0.0079248,-0.00380553637184703,0.));
#846=CARTESIAN_POINT('',(-0.000673373501382175,-0.00380374241064192,0.));
#847=CARTESIAN_POINT('',(-0.00227357350138218,-0.00380374241064192,0.));
#848=CARTESIAN_POINT('',(-0.000633244066049544,0.00236081202389898,0.));
#849=CARTESIAN_POINT('',(-0.00223344406604954,0.00236081202389898,0.));
#850=CARTESIAN_POINT('',(-0.00637592339411115,0.00241102933814539,0.));
#851=CARTESIAN_POINT('',(-0.00797612339411115,0.00241102933814539,0.));
#852=CARTESIAN_POINT('',(-0.00902787195660758,-0.000589124580592803,-0.00381762222899857));
#853=CARTESIAN_POINT('',(-0.00903250237850062,-0.000588997693003903,-0.00381));
#854=CARTESIAN_POINT('',(-0.0098040136785761,-0.000567855945893766,-0.00254));
#855=CARTESIAN_POINT('',(-0.00902787732902811,-0.000949304600343704,-0.00381762222899857));
#856=CARTESIAN_POINT('',(-0.00903250237850062,-0.000949480069011642,-0.00381));
#857=CARTESIAN_POINT('',(-0.00980311853700079,-0.000978716294835225,-0.00254));
#858=CARTESIAN_POINT('',(-0.00901903277406579,-0.00112939446348294,-0.00381762222899857));
#859=CARTESIAN_POINT('',(-0.00902364771043848,-0.00112972097808049,-0.00381));
#860=CARTESIAN_POINT('',(-0.00979257884520469,-0.00118412416368052,-0.00254));
#861=CARTESIAN_POINT('',(-0.00898373430507682,-0.00148784064458082,-0.00381762222899857));
#862=CARTESIAN_POINT('',(-0.008988314258803,-0.0014884675329179,-0.00381));
#863=CARTESIAN_POINT('',(-0.00975141665750269,-0.00159291836852487,-0.00254));
#864=CARTESIAN_POINT('',(-0.00895728044567686,-0.00166619640782059,-0.00381762222899857));
#865=CARTESIAN_POINT('',(-0.00896183552991048,-0.00166697262350272,-0.00381));
#866=CARTESIAN_POINT('',(-0.00972079422529797,-0.00179630407188818,-0.00254));
#867=CARTESIAN_POINT('',(-0.00888701807883085,-0.00201945671759487,-0.00381762222899857));
#868=CARTESIAN_POINT('',(-0.00889150890709399,-0.0020205284317359,-0.00381));
#869=CARTESIAN_POINT('',(-0.00963976140583838,-0.00219909522097312,-0.00254));
#870=CARTESIAN_POINT('',(-0.00884320968012042,-0.00219436071743597,-0.00381762222899857));
#871=CARTESIAN_POINT('',(-0.00884766112200507,-0.00219557860223353,-0.00381));
#872=CARTESIAN_POINT('',(-0.0095893511439871,-0.00239850004334913,-0.00254));
#873=CARTESIAN_POINT('',(-0.00873866008041943,-0.00253903306599179,-0.00381762222899857));
#874=CARTESIAN_POINT('',(-0.00874301861182974,-0.00254053872815592,-0.00381));
#875=CARTESIAN_POINT('',(-0.00946922808311837,-0.00279140903772094,-0.00254));
#876=CARTESIAN_POINT('',(-0.00867791904122621,-0.00270880088130353,-0.00381762222899857));
#877=CARTESIAN_POINT('',(-0.00868222404868445,-0.00271044814973234,-0.00381));
#878=CARTESIAN_POINT('',(-0.0093995154699992,-0.0029849126016644,-0.00254));
#879=CARTESIAN_POINT('',(-0.00854008907846798,-0.00304156588550722,-0.00381762222899857));
#880=CARTESIAN_POINT('',(-0.00854427341572669,-0.00304349043875692,-0.00381));
#881=CARTESIAN_POINT('',(-0.00924145901846344,-0.00336415551292136,-0.00254));
#882=CARTESIAN_POINT('',(-0.00846300036820384,-0.00320456255942359,-0.00381762222899857));
#883=CARTESIAN_POINT('',(-0.00846711755940183,-0.00320662279080039,-0.00381));
#884=CARTESIAN_POINT('',(-0.00915311542464953,-0.00354989427333168,-0.00254));
#885=CARTESIAN_POINT('',(-0.00829321742027525,-0.00352221551037683,-0.00381762222899857));
#886=CARTESIAN_POINT('',(-0.0082971873436685,-0.00352453986362444,-0.00381));
#887=CARTESIAN_POINT('',(-0.00895864775247747,-0.00391181878492315,-0.00254));
#888=CARTESIAN_POINT('',(-0.008200523445361,-0.00367687129582498,-0.00381762222899857));
#889=CARTESIAN_POINT('',(-0.00820441324723815,-0.00367932409240756,-0.00381));
#890=CARTESIAN_POINT('',(-0.00885252397507075,-0.00408800397600245,-0.00254));
#891=CARTESIAN_POINT('',(-0.00800042261486341,-0.00397635302196332,-0.00381762222899857));
#892=CARTESIAN_POINT('',(-0.00800413996960007,-0.00397905423382862,-0.00381));
#893=CARTESIAN_POINT('',(-0.00862351791225226,-0.00442912455703371,-0.00254));
#894=CARTESIAN_POINT('',(-0.00789301606894916,-0.00412117849918595,-0.00381762222899857));
#895=CARTESIAN_POINT('',(-0.00789664109832832,-0.00412399968261456,-0.00381));
#896=CARTESIAN_POINT('',(-0.00850063598124231,-0.00459405941907929,-0.00254));
#897=CARTESIAN_POINT('',(-0.00766452443626649,-0.0043996048277733,-0.00381762222899857));
#898=CARTESIAN_POINT('',(-0.00766795349992966,-0.00440265632752158,-0.00381));
#899=CARTESIAN_POINT('',(-0.00823929698134977,-0.00491109089187955,-0.00254));
#900=CARTESIAN_POINT('',(-0.00754343970310379,-0.00453320524825508,-0.00381762222899857));
#901=CARTESIAN_POINT('',(-0.00754676512671174,-0.00453636709240329,-0.00381));
#902=CARTESIAN_POINT('',(-0.00810084031690634,-0.00506318701200731,-0.00254));
#903=CARTESIAN_POINT('',(-0.00728875776756502,-0.00478789478154383,-0.00381762222899857));
#904=CARTESIAN_POINT('',(-0.00729186559413843,-0.0047912666249766,-0.00381));
#905=CARTESIAN_POINT('',(-0.00780968521737114,-0.00535307619018647,-0.00254));
#906=CARTESIAN_POINT('',(-0.00715516095932587,-0.00490898350020211,-0.00381762222899857));
#907=CARTESIAN_POINT('',(-0.00715815482925672,-0.00491245499819452,-0.00381));
#908=CARTESIAN_POINT('',(-0.00765698723286091,-0.00549086879961541,-0.00254));
#909=CARTESIAN_POINT('',(-0.00687674144719353,-0.00513748343875924,-0.00381762222899857));
#910=CARTESIAN_POINT('',(-0.0068794981843497,-0.00514114259659319,-0.00381));
#911=CARTESIAN_POINT('',(-0.00733882001645315,-0.00575082389191805,-0.00254));
#912=CARTESIAN_POINT('',(-0.00673191917417273,-0.00524489430503951,-0.00381762222899857));
#913=CARTESIAN_POINT('',(-0.00673455273556376,-0.00524864146786493,-0.00381));
#914=CARTESIAN_POINT('',(-0.00717335127694017,-0.00587298597249426,-0.00254));
#915=CARTESIAN_POINT('',(-0.00643244341754824,-0.00544500406954594,-0.00381762222899857));
#916=CARTESIAN_POINT('',(-0.0064348225941427,-0.00544891474550301,-0.00381));
#917=CARTESIAN_POINT('',(-0.00683123606788175,-0.00610050346927561,-0.00254));
#918=CARTESIAN_POINT('',(-0.00627779039740288,-0.00553770265808916,-0.00381762222899857));
#919=CARTESIAN_POINT('',(-0.00628003836535957,-0.00554168884193336,-0.00381));
#920=CARTESIAN_POINT('',(-0.00665459012778194,-0.00620585853338255,-0.00254));
#921=CARTESIAN_POINT('',(-0.00596014251153266,-0.00570749508212156,-0.00381762222899857));
#922=CARTESIAN_POINT('',(-0.00596212129253553,-0.00571161905766669,-0.00381));
#923=CARTESIAN_POINT('',(-0.00629182168255529,-0.00639874731677488,-0.00254));
#924=CARTESIAN_POINT('',(-0.00579714813738866,-0.00578458865484587,-0.00381762222899857));
#925=CARTESIAN_POINT('',(-0.00579898894049206,-0.00578877491399155,-0.00381));
#926=CARTESIAN_POINT('',(-0.00610569973883631,-0.00648628073755226,-0.00254));
#927=CARTESIAN_POINT('',(-0.00546438724505762,-0.00592242854454284,-0.00381762222899857));
#928=CARTESIAN_POINT('',(-0.00546594665146747,-0.00592672554694932,-0.00381));
#929=CARTESIAN_POINT('',(-0.00572577171587836,-0.00664268318312778,-0.00254));
#930=CARTESIAN_POINT('',(-0.0052946212418398,-0.00598317464819926,-0.00381762222899857));
#931=CARTESIAN_POINT('',(-0.00529603722989106,-0.0059875201100946,-0.00381));
#932=CARTESIAN_POINT('',(-0.00553196622460283,-0.00671155196588289,-0.00254));
#933=CARTESIAN_POINT('',(-0.0049499520123467,-0.00608773453007206,-0.00381762222899857));
#934=CARTESIAN_POINT('',(-0.00495107710396867,-0.00609216262026993,-0.00381));
#935=CARTESIAN_POINT('',(-0.00513853753846445,-0.00682996183259242,-0.00254));
#936=CARTESIAN_POINT('',(-0.00477504931946957,-0.00613154814647519,-0.00381762222899857));
#937=CARTESIAN_POINT('',(-0.00477602693347102,-0.00613601040535885,-0.00381));
#938=CARTESIAN_POINT('',(-0.0049389149524582,-0.00687950273329982,-0.00254));
#939=CARTESIAN_POINT('',(-0.00442179110590979,-0.00620182105170314,-0.00381762222899857));
#940=CARTESIAN_POINT('',(-0.00442247112523785,-0.00620633702817534,-0.00381));
#941=CARTESIAN_POINT('',(-0.00453577453645691,-0.00695877966939753,-0.00254));
#942=CARTESIAN_POINT('',(-0.00424343613191731,-0.00622828023177606,-0.00381762222899857));
#943=CARTESIAN_POINT('',(-0.00424396603465303,-0.00623281575706786,-0.00381));
#944=CARTESIAN_POINT('',(-0.004332257330348,-0.00698851558210159,-0.00254));
#945=CARTESIAN_POINT('',(-0.00388499100399802,-0.00626358939386675,-0.00381762222899857));
#946=CARTESIAN_POINT('',(-0.00388521947981563,-0.00626814920870335,-0.00381));
#947=CARTESIAN_POINT('',(-0.00392328764706884,-0.00702789610735569,-0.00254));
#948=CARTESIAN_POINT('',(-0.00370490140478848,-0.00627243932124128,-0.00381762222899857));
#949=CARTESIAN_POINT('',(-0.00370497857074678,-0.00627700387676548,-0.00381));
#950=CARTESIAN_POINT('',(-0.00371783580280592,-0.00703754065896177,-0.00254));
#951=CARTESIAN_POINT('',(-0.00334472138503758,-0.00627244469366181,-0.00381762222899857));
#952=CARTESIAN_POINT('',(-0.00334449619473904,-0.00627700387676548,-0.00381));
#953=CARTESIAN_POINT('',(-0.00330697545386446,-0.00703664551738646,-0.00254));
#954=CARTESIAN_POINT('',(-0.00316463152189835,-0.00626360013869949,-0.00381762222899857));
#955=CARTESIAN_POINT('',(-0.00316425528567019,-0.00626814920870335,-0.00381));
#956=CARTESIAN_POINT('',(-0.00310156758501916,-0.00702610582559036,-0.00254));
#957=CARTESIAN_POINT('',(-0.00280618534080046,-0.00622830166971052,-0.00381762222899857));
#958=CARTESIAN_POINT('',(-0.00280550873083278,-0.00623281575706786,-0.00381));
#959=CARTESIAN_POINT('',(-0.00269277338017482,-0.00698494363788836,-0.00254));
#960=CARTESIAN_POINT('',(-0.0026278295775607,-0.00620184781031055,-0.00381762222899857));
#961=CARTESIAN_POINT('',(-0.00262700364024797,-0.00620633702817534,-0.00381));
#962=CARTESIAN_POINT('',(-0.00248938767681151,-0.00695432120568363,-0.00254));
#963=CARTESIAN_POINT('',(-0.00227456926778642,-0.00613158544346455,-0.00381762222899857));
#964=CARTESIAN_POINT('',(-0.0022734478320148,-0.00613601040535885,-0.00381));
#965=CARTESIAN_POINT('',(-0.00208659652772656,-0.00687328838622405,-0.00254));
#966=CARTESIAN_POINT('',(-0.00209966526794531,-0.00608777704475412,-0.00381762222899857));
#967=CARTESIAN_POINT('',(-0.00209839766151715,-0.00609216262026993,-0.00381));
#968=CARTESIAN_POINT('',(-0.00188719170535056,-0.00682287812437277,-0.00254));
#969=CARTESIAN_POINT('',(-0.00175499291938949,-0.00598322744505313,-0.00381762222899857));
#970=CARTESIAN_POINT('',(-0.00175343753559476,-0.0059875201100946,-0.00381));
#971=CARTESIAN_POINT('',(-0.00149428271097875,-0.00670275506350404,-0.00254));
#972=CARTESIAN_POINT('',(-0.00158522510407776,-0.00592248640585991,-0.00381762222899857));
#973=CARTESIAN_POINT('',(-0.00158352811401834,-0.00592672554694932,-0.00381));
#974=CARTESIAN_POINT('',(-0.00130077914703529,-0.00663304245038488,-0.00254));
#975=CARTESIAN_POINT('',(-0.00125246009987406,-0.00578465644310167,-0.00381762222899857));
#976=CARTESIAN_POINT('',(-0.00125048582499376,-0.00578877491399155,-0.00381));
#977=CARTESIAN_POINT('',(-0.00092153623577832,-0.00647498599884911,-0.00254));
#978=CARTESIAN_POINT('',(-0.00108946342595769,-0.00570756773283754,-0.00381762222899857));
#979=CARTESIAN_POINT('',(-0.00108735347295029,-0.00571161905766669,-0.00381));
#980=CARTESIAN_POINT('',(-0.000735797475367996,-0.0063866424050352,-0.00254));
#981=CARTESIAN_POINT('',(-0.000771810475004452,-0.00553778478490894,-0.00381762222899857));
#982=CARTESIAN_POINT('',(-0.000769436400126247,-0.00554168884193336,-0.00381));
#983=CARTESIAN_POINT('',(-0.000373872963776536,-0.00619217473286314,-0.00254));
#984=CARTESIAN_POINT('',(-0.000617154689556293,-0.0054450908099947,-0.00381762222899857));
#985=CARTESIAN_POINT('',(-0.000614652171343118,-0.00544891474550301,-0.00381));
#986=CARTESIAN_POINT('',(-0.00019768777269723,-0.00608605095545642,-0.00254));
#987=CARTESIAN_POINT('',(-0.000317672963417963,-0.00524498997949711,-0.00381762222899857));
#988=CARTESIAN_POINT('',(-0.000314922029922063,-0.00524864146786493,-0.00381));
#989=CARTESIAN_POINT('',(0.000143432808334035,-0.00585704489263792,-0.00254));
#990=CARTESIAN_POINT('',(-0.000172847486195332,-0.00513758343358285,-0.00381762222899857));
#991=CARTESIAN_POINT('',(-0.000169976581136116,-0.00514114259659318,-0.00381));
#992=CARTESIAN_POINT('',(0.000308367670379608,-0.00573416296162798,-0.00254));
#993=CARTESIAN_POINT('',(0.000105578842392015,-0.00490909180090019,-0.00381762222899857));
#994=CARTESIAN_POINT('',(0.000108680063770903,-0.00491245499819452,-0.00381));
#995=CARTESIAN_POINT('',(0.000625399143179867,-0.00547282396173544,-0.00254));
#996=CARTESIAN_POINT('',(0.000239179262873797,-0.00478800706773749,-0.00381762222899857));
#997=CARTESIAN_POINT('',(0.00024239082865261,-0.0047912666249766,-0.00381));
#998=CARTESIAN_POINT('',(0.000777495263307635,-0.00533436729729201,-0.00254));
#999=CARTESIAN_POINT('',(0.000493868796162551,-0.00453332513219872,-0.00381762222899857));
#1000=CARTESIAN_POINT('',(0.000497290361225921,-0.00453636709240329,-0.00381));
#1001=CARTESIAN_POINT('',(0.00106738444148679,-0.00504321219775681,-0.00254));
#1002=CARTESIAN_POINT('',(0.000614957514820827,-0.00439972832395957,-0.00381762222899857));
#1003=CARTESIAN_POINT('',(0.00061847873444384,-0.00440265632752158,-0.00381));
#1004=CARTESIAN_POINT('',(0.00120517705091573,-0.00489051421324658,-0.00254));
#1005=CARTESIAN_POINT('',(0.000843457453377957,-0.00412130881182723,-0.00381762222899857));
#1006=CARTESIAN_POINT('',(0.000847166332842504,-0.00412399968261456,-0.00381));
#1007=CARTESIAN_POINT('',(0.00146513214321837,-0.00457234699683882,-0.00254));
#1008=CARTESIAN_POINT('',(0.000950868319658226,-0.00397648653880642,-0.00381762222899857));
#1009=CARTESIAN_POINT('',(0.000954665204114247,-0.00397905423382862,-0.00381));
#1010=CARTESIAN_POINT('',(0.00158729422379458,-0.00440687825732584,-0.00254));
#1011=CARTESIAN_POINT('',(0.00115097808416465,-0.00367701078218194,-0.00381762222899857));
#1012=CARTESIAN_POINT('',(0.00115493848175233,-0.00367932409240756,-0.00381));
#1013=CARTESIAN_POINT('',(0.00181481172057593,-0.00406476304826742,-0.00254));
#1014=CARTESIAN_POINT('',(0.00124367667270788,-0.00352235776203657,-0.00381762222899857));
#1015=CARTESIAN_POINT('',(0.00124771257818268,-0.00352453986362443,-0.00381));
#1016=CARTESIAN_POINT('',(0.00192016678468287,-0.00388811710816761,-0.00254));
#1017=CARTESIAN_POINT('',(0.00141346909674028,-0.00320470987616635,-0.00381762222899857));
#1018=CARTESIAN_POINT('',(0.00141764279391601,-0.00320662279080039,-0.00381));
#1019=CARTESIAN_POINT('',(0.0021130555680752,-0.00352534866294096,-0.00254));
#1020=CARTESIAN_POINT('',(0.00149056266946459,-0.00304171550202237,-0.00381762222899857));
#1021=CARTESIAN_POINT('',(0.00149479865024087,-0.00304349043875692,-0.00381));
#1022=CARTESIAN_POINT('',(0.00220058898885258,-0.00333922671922198,-0.00254));
#1023=CARTESIAN_POINT('',(0.00162840255916156,-0.00270895460969132,-0.00381762222899857));
#1024=CARTESIAN_POINT('',(0.00163274928319863,-0.00271044814973234,-0.00381));
#1025=CARTESIAN_POINT('',(0.00235699143442809,-0.00295929869626403,-0.00254));
#1026=CARTESIAN_POINT('',(0.00168914866281798,-0.0025391886064735,-0.00381762222899857));
#1027=CARTESIAN_POINT('',(0.00169354384634392,-0.00254053872815592,-0.00381));
#1028=CARTESIAN_POINT('',(0.00242586021718321,-0.0027654932049885,-0.00254));
#1029=CARTESIAN_POINT('',(0.00179370854469078,-0.0021945193769804,-0.00381762222899857));
#1030=CARTESIAN_POINT('',(0.00179818635651925,-0.00219557860223353,-0.00381));
#1031=CARTESIAN_POINT('',(0.00254427008389273,-0.00237206451885012,-0.00254));
#1032=CARTESIAN_POINT('',(0.00183752216109391,-0.00201961668410327,-0.00381762222899857));
#1033=CARTESIAN_POINT('',(0.00184203414160817,-0.00202052843173589,-0.00381));
#1034=CARTESIAN_POINT('',(0.00259381098460014,-0.00217244193284387,-0.00254));
#1035=CARTESIAN_POINT('',(0.00190779506632187,-0.0016663584705435,-0.00381762222899857));
#1036=CARTESIAN_POINT('',(0.00191236076442466,-0.00166697262350272,-0.00381));
#1037=CARTESIAN_POINT('',(0.00267308792069785,-0.00176930151684258,-0.00254));
#1038=CARTESIAN_POINT('',(0.00193425424639478,-0.00148800349655102,-0.00381762222899857));
#1039=CARTESIAN_POINT('',(0.00193883949331718,-0.0014884675329179,-0.00381));
#1040=CARTESIAN_POINT('',(0.00270282383340191,-0.00156578431073367,-0.00254));
#1041=CARTESIAN_POINT('',(0.00196956340848546,-0.00112955836863173,-0.00381762222899857));
#1042=CARTESIAN_POINT('',(0.00197417294495266,-0.00112972097808049,-0.00381));
#1043=CARTESIAN_POINT('',(0.00274220435865601,-0.00115681462745451,-0.00254));
#1044=CARTESIAN_POINT('',(0.00197841333586,-0.000949468769422178,-0.00381762222899857));
#1045=CARTESIAN_POINT('',(0.0019830276130148,-0.000949480069011641,-0.00381));
#1046=CARTESIAN_POINT('',(0.00275184891026209,-0.000951362783191585,-0.00254));
#1047=CARTESIAN_POINT('',(0.00197841870828053,-0.000589288749671278,-0.00381762222899857));
#1048=CARTESIAN_POINT('',(0.0019830276130148,-0.000588997693003903,-0.00381));
#1049=CARTESIAN_POINT('',(0.00275095376868679,-0.000540502434250126,-0.00254));
#1050=CARTESIAN_POINT('',(0.00196957415331821,-0.000409198886532041,-0.00381762222899857));
#1051=CARTESIAN_POINT('',(0.00197417294495266,-0.000408756783935048,-0.00381));
#1052=CARTESIAN_POINT('',(0.00274041407689068,-0.000335094565404831,-0.00254));
#1053=CARTESIAN_POINT('',(0.00193427568432924,-5.07527054341581E-5,-0.00381762222899857));
#1054=CARTESIAN_POINT('',(0.00193883949331718,-5.00102290976433E-5,-0.00381));
#1055=CARTESIAN_POINT('',(0.00269925188918868,7.36996394395164E-5,-0.00254));
#1056=CARTESIAN_POINT('',(0.00190782182492928,0.000127603057805602,-0.00381762222899857));
#1057=CARTESIAN_POINT('',(0.00191236076442466,0.000128494861487174,-0.00381));
#1058=CARTESIAN_POINT('',(0.00266862945698396,0.000277085342802828,-0.00254));
#1059=CARTESIAN_POINT('',(0.00183755945808327,0.000480863367579881,-0.00381762222899857));
#1060=CARTESIAN_POINT('',(0.00184203414160817,0.000482050669720347,-0.00381));
#1061=CARTESIAN_POINT('',(0.00258759663752437,0.000679876491887769,-0.00254));
#1062=CARTESIAN_POINT('',(0.00179375105937283,0.000655767367420988,-0.00381762222899857));
#1063=CARTESIAN_POINT('',(0.00179818635651925,0.000657100840217987,-0.00381));
#1064=CARTESIAN_POINT('',(0.00253718637567309,0.000879281314263778,-0.00254));
#1065=CARTESIAN_POINT('',(0.00168920145967184,0.00100043971597681,-0.00381762222899857));
#1066=CARTESIAN_POINT('',(0.00169354384634391,0.00100206096614038,-0.00381));
#1067=CARTESIAN_POINT('',(0.00241706331480435,0.00127219030863559,-0.00254));
#1068=CARTESIAN_POINT('',(0.00162846042047863,0.00117020753128853,-0.00381762222899857));
#1069=CARTESIAN_POINT('',(0.00163274928319863,0.00117197038771679,-0.00381));
#1070=CARTESIAN_POINT('',(0.00234735070168519,0.00146569387257904,-0.00254));
#1071=CARTESIAN_POINT('',(0.00149063045772039,0.00150297253549223,-0.00381762222899857));
#1072=CARTESIAN_POINT('',(0.00149479865024087,0.00150501267674137,-0.00381));
#1073=CARTESIAN_POINT('',(0.00218929425014943,0.00184493678383601,-0.00254));
#1074=CARTESIAN_POINT('',(0.00141354174745625,0.00166596920940861,-0.00381762222899857));
#1075=CARTESIAN_POINT('',(0.00141764279391601,0.00166814502878485,-0.00381));
#1076=CARTESIAN_POINT('',(0.00210095065633552,0.00203067554424633,-0.00254));
#1077=CARTESIAN_POINT('',(0.00124375879952766,0.00198362216036185,-0.00381762222899857));
#1078=CARTESIAN_POINT('',(0.00124771257818268,0.00198606210160889,-0.00381));
#1079=CARTESIAN_POINT('',(0.00190648298416346,0.00239260005583779,-0.00254));
#1080=CARTESIAN_POINT('',(0.00115106482461342,0.00213827794581001,-0.00381762222899857));
#1081=CARTESIAN_POINT('',(0.00115493848175232,0.00214084633039202,-0.00381));
#1082=CARTESIAN_POINT('',(0.00180035920675674,0.0025687852469171,-0.00254));
#1083=CARTESIAN_POINT('',(0.000950963994115819,0.00243775967194834,-0.00381762222899857));
#1084=CARTESIAN_POINT('',(0.000954665204114242,0.00244057647181308,-0.00381));
#1085=CARTESIAN_POINT('',(0.00157135314393824,0.00290990582794836,-0.00254));
#1086=CARTESIAN_POINT('',(0.000843557448201576,0.00258258514917097,-0.00381762222899857));
#1087=CARTESIAN_POINT('',(0.000847166332842501,0.00258552192059902,-0.00381));
#1088=CARTESIAN_POINT('',(0.0014484712129283,0.00307484068999393,-0.00254));
#1089=CARTESIAN_POINT('',(0.000615065815518906,0.00286101147775831,-0.00381762222899857));
#1090=CARTESIAN_POINT('',(0.000618478734443838,0.00286417856550604,-0.00381));
#1091=CARTESIAN_POINT('',(0.00118713221303576,0.00339187216279419,-0.00254));
#1092=CARTESIAN_POINT('',(0.000493981082356212,0.00299461189824009,-0.00381762222899857));
#1093=CARTESIAN_POINT('',(0.000497290361225919,0.00299788933038775,-0.00381));
#1094=CARTESIAN_POINT('',(0.00104867554859233,0.00354396828292196,-0.00254));
#1095=CARTESIAN_POINT('',(0.000239299146817433,0.00324930143152885,-0.00381762222899857));
#1096=CARTESIAN_POINT('',(0.000242390828652608,0.00325278886296105,-0.00381));
#1097=CARTESIAN_POINT('',(0.000757520449057127,0.00383385746110112,-0.00254));
#1098=CARTESIAN_POINT('',(0.000105702338578286,0.00337039015018713,-0.00381762222899857));
#1099=CARTESIAN_POINT('',(0.000108680063770898,0.00337397723617898,-0.00381));
#1100=CARTESIAN_POINT('',(0.000604822464546899,0.00397165007053006,-0.00254));
#1101=CARTESIAN_POINT('',(-0.000172717173554053,0.00359889008874426,-0.00381762222899857));
#1102=CARTESIAN_POINT('',(-0.00016997658113612,0.00360266483457764,-0.00381));
#1103=CARTESIAN_POINT('',(0.000286655248139138,0.0042316051628327,-0.00254));
#1104=CARTESIAN_POINT('',(-0.000317539446574858,0.00370630095502452,-0.00381762222899857));
#1105=CARTESIAN_POINT('',(-0.000314922029922065,0.00371016370584938,-0.00381));
#1106=CARTESIAN_POINT('',(0.000121186508626162,0.00435376724340891,-0.00254));
#1107=CARTESIAN_POINT('',(-0.000617015203199336,0.00390641071953095,-0.00381762222899857));
#1108=CARTESIAN_POINT('',(-0.000614652171343119,0.00391043698348746,-0.00381));
#1109=CARTESIAN_POINT('',(-0.000220928700432261,0.00458128474019025,-0.00254));
#1110=CARTESIAN_POINT('',(-0.000771668223344704,0.00399910930807417,-0.00381762222899857));
#1111=CARTESIAN_POINT('',(-0.000769436400126248,0.00400321107991781,-0.00381));
#1112=CARTESIAN_POINT('',(-0.000397574640532064,0.0046866398042972,-0.00254));
#1113=CARTESIAN_POINT('',(-0.00108931610921493,0.00416890173210658,-0.00381762222899857));
#1114=CARTESIAN_POINT('',(-0.00108735347295029,0.00417314129565115,-0.00381));
#1115=CARTESIAN_POINT('',(-0.000760343085758719,0.00487952858768952,-0.00254));
#1116=CARTESIAN_POINT('',(-0.00125231048335892,0.00424599530483089,-0.00381762222899857));
#1117=CARTESIAN_POINT('',(-0.00125048582499376,0.00425029715197601,-0.00381));
#1118=CARTESIAN_POINT('',(-0.000946465029477698,0.00496706200846691,-0.00254));
#1119=CARTESIAN_POINT('',(-0.00158507137568996,0.00438383519452786,-0.00381762222899857));
#1120=CARTESIAN_POINT('',(-0.00158352811401835,0.00438824778493377,-0.00381));
#1121=CARTESIAN_POINT('',(-0.00132639305243565,0.00512346445404242,-0.00254));
#1122=CARTESIAN_POINT('',(-0.00175483737890778,0.00444458129818428,-0.00381762222899857));
#1123=CARTESIAN_POINT('',(-0.00175343753559476,0.00444904234807905,-0.00381));
#1124=CARTESIAN_POINT('',(-0.00152019854371118,0.00519233323679754,-0.00254));
#1125=CARTESIAN_POINT('',(-0.00209950660840088,0.00454914118005708,-0.00381762222899857));
#1126=CARTESIAN_POINT('',(-0.00209839766151715,0.00455368485825438,-0.00381));
#1127=CARTESIAN_POINT('',(-0.00191362722984956,0.00531074310350706,-0.00254));
#1128=CARTESIAN_POINT('',(-0.00227440930127801,0.00459295479646021,-0.00381762222899857));
#1129=CARTESIAN_POINT('',(-0.0022734478320148,0.00459753264334331,-0.00381));
#1130=CARTESIAN_POINT('',(-0.00211324981585581,0.00536028400421447,-0.00254));
#1131=CARTESIAN_POINT('',(-0.00262766751483778,0.00466322770168817,-0.00381762222899857));
#1132=CARTESIAN_POINT('',(-0.00262700364024797,0.0046678592661598,-0.00381));
#1133=CARTESIAN_POINT('',(-0.0025163902318571,0.00543956094031218,-0.00254));
#1134=CARTESIAN_POINT('',(-0.00280602248883026,0.00468968688176108,-0.00381762222899857));
#1135=CARTESIAN_POINT('',(-0.00280550873083278,0.00469433799505232,-0.00381));
#1136=CARTESIAN_POINT('',(-0.00271990743796601,0.00546929685301625,-0.00254));
#1137=CARTESIAN_POINT('',(-0.00316446761674955,0.00472499604385176,-0.00381762222899857));
#1138=CARTESIAN_POINT('',(-0.00316425528567018,0.0047296714466878,-0.00381));
#1139=CARTESIAN_POINT('',(-0.00312887712124516,0.00550867737827033,-0.00254));
#1140=CARTESIAN_POINT('',(-0.0033445572159591,0.0047338459712263,-0.00381762222899857));
#1141=CARTESIAN_POINT('',(-0.00334449619473904,0.00473852611474994,-0.00381));
#1142=CARTESIAN_POINT('',(-0.0033343289655081,0.00551832192987642,-0.00254));
#1143=CARTESIAN_POINT('',(-0.00370473723571,0.00473385134364683,-0.00381762222899857));
#1144=CARTESIAN_POINT('',(-0.00370497857074678,0.00473852611474994,-0.00381));
#1145=CARTESIAN_POINT('',(-0.00374518931444956,0.00551742678830112,-0.00254));
#1146=CARTESIAN_POINT('',(-0.00388482709884924,0.00472500678868451,-0.00381762222899857));
#1147=CARTESIAN_POINT('',(-0.00388521947981563,0.0047296714466878,-0.00381));
#1148=CARTESIAN_POINT('',(-0.00395059718329485,0.00550688709650501,-0.00254));
#1149=CARTESIAN_POINT('',(-0.00424327327994713,0.00468970831969554,-0.00381762222899857));
#1150=CARTESIAN_POINT('',(-0.00424396603465304,0.00469433799505232,-0.00381));
#1151=CARTESIAN_POINT('',(-0.0043593913881392,0.00546572490880301,-0.00254));
#1152=CARTESIAN_POINT('',(-0.00442162904318688,0.00466325446029558,-0.00381762222899857));
#1153=CARTESIAN_POINT('',(-0.00442247112523786,0.0046678592661598,-0.00381));
#1154=CARTESIAN_POINT('',(-0.0045627770915025,0.00543510247659829,-0.00254));
#1155=CARTESIAN_POINT('',(-0.00477488935296116,0.00459299209344957,-0.00381762222899857));
#1156=CARTESIAN_POINT('',(-0.00477602693347103,0.00459753264334331,-0.00381));
#1157=CARTESIAN_POINT('',(-0.00496556824058745,0.0053540696571387,-0.00254));
#1158=CARTESIAN_POINT('',(-0.00494979335280227,0.00454918369473913,-0.00381762222899857));
#1159=CARTESIAN_POINT('',(-0.00495107710396867,0.00455368485825438,-0.00381));
#1160=CARTESIAN_POINT('',(-0.00516497306296346,0.00530365939528741,-0.00254));
#1161=CARTESIAN_POINT('',(-0.00529446570135809,0.00444463409503814,-0.00381762222899857));
#1162=CARTESIAN_POINT('',(-0.00529603722989106,0.00444904234807905,-0.00381));
#1163=CARTESIAN_POINT('',(-0.00555788205733527,0.00518353633441869,-0.00254));
#1164=CARTESIAN_POINT('',(-0.00546423351666982,0.00438389305584493,-0.00381762222899857));
#1165=CARTESIAN_POINT('',(-0.00546594665146747,0.00438824778493377,-0.00381));
#1166=CARTESIAN_POINT('',(-0.00575138562127872,0.00511382372129953,-0.00254));
#1167=CARTESIAN_POINT('',(-0.00579699852087352,0.0042460630930867,-0.00381762222899857));
#1168=CARTESIAN_POINT('',(-0.00579898894049206,0.00425029715197601,-0.00381));
#1169=CARTESIAN_POINT('',(-0.00613062853253569,0.00495576726976376,-0.00254));
#1170=CARTESIAN_POINT('',(-0.00595999519478989,0.00416897438282255,-0.00381762222899857));
#1171=CARTESIAN_POINT('',(-0.00596212129253553,0.00417314129565115,-0.00381));
#1172=CARTESIAN_POINT('',(-0.00631636729294601,0.00486742367594985,-0.00254));
#1173=CARTESIAN_POINT('',(-0.00627764814574313,0.00399919143489396,-0.00381762222899857));
#1174=CARTESIAN_POINT('',(-0.00628003836535957,0.00400321107991781,-0.00381));
#1175=CARTESIAN_POINT('',(-0.00667829180453747,0.00467295600377779,-0.00254));
#1176=CARTESIAN_POINT('',(-0.00643230393119129,0.00390649745997972,-0.00381762222899857));
#1177=CARTESIAN_POINT('',(-0.0064348225941427,0.00391043698348746,-0.00381));
#1178=CARTESIAN_POINT('',(-0.00685447699561678,0.00456683222637107,-0.00254));
#1179=CARTESIAN_POINT('',(-0.00673178565732962,0.00370639662948212,-0.00381762222899857));
#1180=CARTESIAN_POINT('',(-0.00673455273556376,0.00371016370584938,-0.00381));
#1181=CARTESIAN_POINT('',(-0.00719559757664805,0.00433782616355257,-0.00254));
#1182=CARTESIAN_POINT('',(-0.00687661113455225,0.00359899008356788,-0.00381762222899857));
#1183=CARTESIAN_POINT('',(-0.0068794981843497,0.00360266483457764,-0.00381));
#1184=CARTESIAN_POINT('',(-0.00736053243869362,0.00421494423254263,-0.00254));
#1185=CARTESIAN_POINT('',(-0.00715503746313959,0.00337049845088521,-0.00381762222899857));
#1186=CARTESIAN_POINT('',(-0.00715815482925672,0.00337397723617898,-0.00381));
#1187=CARTESIAN_POINT('',(-0.00767756391149388,0.00395360523265009,-0.00254));
#1188=CARTESIAN_POINT('',(-0.00728863788362138,0.00324941371772251,-0.00381762222899857));
#1189=CARTESIAN_POINT('',(-0.00729186559413843,0.00325278886296105,-0.00381));
#1190=CARTESIAN_POINT('',(-0.00782966003162165,0.00381514856820665,-0.00254));
#1191=CARTESIAN_POINT('',(-0.00754332741691013,0.00299473178218373,-0.00381762222899857));
#1192=CARTESIAN_POINT('',(-0.00754676512671174,0.00299788933038775,-0.00381));
#1193=CARTESIAN_POINT('',(-0.0081195492098008,0.00352399346867146,-0.00254));
#1194=CARTESIAN_POINT('',(-0.00766441613556841,0.00286113497394459,-0.00381762222899857));
#1195=CARTESIAN_POINT('',(-0.00766795349992966,0.00286417856550604,-0.00381));
#1196=CARTESIAN_POINT('',(-0.00825734181922974,0.00337129548416123,-0.00254));
#1197=CARTESIAN_POINT('',(-0.00789291607412554,0.00258271546181225,-0.00381762222899857));
#1198=CARTESIAN_POINT('',(-0.00789664109832832,0.00258552192059902,-0.00381));
#1199=CARTESIAN_POINT('',(-0.00851729691153238,0.00305312826775347,-0.00254));
#1200=CARTESIAN_POINT('',(-0.0080003269404058,0.00243789318879144,-0.00381762222899857));
#1201=CARTESIAN_POINT('',(-0.00800413996960006,0.00244057647181308,-0.00381));
#1202=CARTESIAN_POINT('',(-0.00863945899210858,0.0028876595282405,-0.00254));
#1203=CARTESIAN_POINT('',(-0.00820043670491223,0.00213841743216697,-0.00381762222899857));
#1204=CARTESIAN_POINT('',(-0.00820441324723814,0.00214084633039202,-0.00381));
#1205=CARTESIAN_POINT('',(-0.00886697648888993,0.00254554431918207,-0.00254));
#1206=CARTESIAN_POINT('',(-0.00829313529345546,0.0019837644120216,-0.00381762222899857));
#1207=CARTESIAN_POINT('',(-0.0082971873436685,0.00198606210160889,-0.00381));
#1208=CARTESIAN_POINT('',(-0.00897233155299687,0.00236889837908227,-0.00254));
#1209=CARTESIAN_POINT('',(-0.00846292771748786,0.00166611652615137,-0.00381762222899857));
#1210=CARTESIAN_POINT('',(-0.00846711755940183,0.00166814502878485,-0.00381));
#1211=CARTESIAN_POINT('',(-0.00916522033638921,0.00200612993385561,-0.00254));
#1212=CARTESIAN_POINT('',(-0.00854002129021217,0.00150312215200738,-0.00381762222899857));
#1213=CARTESIAN_POINT('',(-0.00854427341572669,0.00150501267674137,-0.00381));
#1214=CARTESIAN_POINT('',(-0.0092527537571666,0.00182000799013663,-0.00254));
#1215=CARTESIAN_POINT('',(-0.00867786117990914,0.00117036125967634,-0.00381762222899857));
#1216=CARTESIAN_POINT('',(-0.00868222404868446,0.00117197038771679,-0.00381));
#1217=CARTESIAN_POINT('',(-0.00940915620274211,0.00144007996717868,-0.00254));
#1218=CARTESIAN_POINT('',(-0.00873860728356556,0.00100059525645852,-0.00381762222899857));
#1219=CARTESIAN_POINT('',(-0.00874301861182974,0.00100206096614037,-0.00381));
#1220=CARTESIAN_POINT('',(-0.00947802498549722,0.00124627447590315,-0.00254));
#1221=CARTESIAN_POINT('',(-0.00884316716543837,0.000655926026965418,-0.00381762222899857));
#1222=CARTESIAN_POINT('',(-0.00884766112200507,0.000657100840217985,-0.00381));
#1223=CARTESIAN_POINT('',(-0.00959643485220675,0.000852845789764769,-0.00254));
#1224=CARTESIAN_POINT('',(-0.00888698078184149,0.000481023334088294,-0.00381762222899857));
#1225=CARTESIAN_POINT('',(-0.00889150890709399,0.000482050669720345,-0.00381));
#1226=CARTESIAN_POINT('',(-0.00964597575291415,0.000653223203758528,-0.00254));
#1227=CARTESIAN_POINT('',(-0.00895725368706945,0.000127765120528517,-0.00381762222899857));
#1228=CARTESIAN_POINT('',(-0.00896183552991048,0.000128494861487172,-0.00381));
#1229=CARTESIAN_POINT('',(-0.00972525268901185,0.000250082787757233,-0.00254));
#1230=CARTESIAN_POINT('',(-0.00898371286714236,-5.05898534639665E-5,-0.00381762222899857));
#1231=CARTESIAN_POINT('',(-0.008988314258803,-5.00102290976447E-5,-0.00381));
#1232=CARTESIAN_POINT('',(-0.00975498860171593,4.65655816483117E-5,-0.00254));
#1233=CARTESIAN_POINT('',(-0.00901902202923304,-0.000409034981383255,-0.00381762222899857));
#1234=CARTESIAN_POINT('',(-0.00902364771043848,-0.00040875678393505,-0.00381));
#1235=CARTESIAN_POINT('',(-0.00979436912697002,-0.00036240410163084,-0.00254));
#1236=CARTESIAN_POINT('',(-0.00902787195660758,-0.000589124580592803,-0.00381762222899857));
#1237=CARTESIAN_POINT('',(-0.00903250237850062,-0.000588997693003903,-0.00381));
#1238=CARTESIAN_POINT('',(-0.0098040136785761,-0.000567855945893766,-0.00254));
#1239=CARTESIAN_POINT('',(-0.00902787732902811,-0.000949304600343704,-0.00381762222899857));
#1240=CARTESIAN_POINT('',(-0.00903250237850062,-0.000949480069011642,-0.00381));
#1241=CARTESIAN_POINT('',(-0.00980311853700079,-0.000978716294835225,-0.00254));
#1242=CARTESIAN_POINT('',(-0.00352473738274291,-0.000769238881007773,-0.00381));
#1243=CARTESIAN_POINT('',(-0.00903250237850062,-0.000769238881007773,-0.00381));
#1244=CARTESIAN_POINT('',(-0.00352473738274291,-0.000769238881007772,-0.00381));
#1245=CARTESIAN_POINT('',(-0.0063246,-0.00380553637184703,-0.00381));
#1246=CARTESIAN_POINT('',(-0.0073279,-0.00380553637184703,-0.00381));
#1247=CARTESIAN_POINT('',(-0.000673373501382175,-0.00380374241064192,-0.00381));
#1248=CARTESIAN_POINT('',(-0.00167667350138217,-0.00380374241064192,-0.00381));
#1249=CARTESIAN_POINT('',(-0.000633244066049544,0.00236081202389898,-0.00381));
#1250=CARTESIAN_POINT('',(-0.00163654406604954,0.00236081202389898,-0.00381));
#1251=CARTESIAN_POINT('',(-0.00637592339411115,0.00241102933814539,-0.00381));
#1252=CARTESIAN_POINT('',(-0.00737922339411115,0.00241102933814539,-0.00381));
#1253=CARTESIAN_POINT('',(-0.00330324829652576,-0.000746146684749878,-0.00381));
#1254=CARTESIAN_POINT('',(-0.00531869338502578,-0.000746146684749878,-0.00381));
#1255=CARTESIAN_POINT('',(-0.00330324829652576,-0.000746146684749878,-0.003048));
#1256=CARTESIAN_POINT('',(-0.00330324829652576,-0.000746146684749878,-0.003048));
#1257=CARTESIAN_POINT('',(-0.00531869338502578,-0.000746146684749878,-0.003048));
#1258=CARTESIAN_POINT('',(-0.00352473738274291,-0.000769238881007772,-0.003048));
#1259=CARTESIAN_POINT('',(-0.00637592339411115,0.00241102933814539,0.));
#1260=CARTESIAN_POINT('',(-0.00637592339411115,0.00241102933814539,-0.000889));
#1261=CARTESIAN_POINT('',(-0.00737922339411115,0.00241102933814539,-0.000889));
#1262=CARTESIAN_POINT('',(-0.00477572339411115,0.00241102933814539,-0.000889));
#1263=CARTESIAN_POINT('',(-0.00637592339411115,0.00241102933814539,-0.000889));
#1264=CARTESIAN_POINT('',(-0.00797612339411115,0.00241102933814539,-0.000889));
#1265=CARTESIAN_POINT('',(-0.00637592339411115,0.00241102933814539,0.));
#1266=CARTESIAN_POINT('',(-0.000633244066049544,0.00236081202389898,0.));
#1267=CARTESIAN_POINT('',(-0.000633244066049544,0.00236081202389898,-0.000889));
#1268=CARTESIAN_POINT('',(-0.00163654406604954,0.00236081202389898,-0.000889));
#1269=CARTESIAN_POINT('',(0.000966955933950456,0.00236081202389898,-0.000889));
#1270=CARTESIAN_POINT('',(-0.000633244066049544,0.00236081202389898,-0.000889));
#1271=CARTESIAN_POINT('',(-0.00223344406604954,0.00236081202389898,-0.000889));
#1272=CARTESIAN_POINT('',(-0.000633244066049544,0.00236081202389898,0.));
#1273=CARTESIAN_POINT('',(-0.000673373501382175,-0.00380374241064192,0.));
#1274=CARTESIAN_POINT('',(-0.000673373501382175,-0.00380374241064192,-0.000889));
#1275=CARTESIAN_POINT('',(-0.00167667350138217,-0.00380374241064192,-0.000889));
#1276=CARTESIAN_POINT('',(0.000926826498617825,-0.00380374241064192,-0.000889));
#1277=CARTESIAN_POINT('',(-0.000673373501382175,-0.00380374241064192,-0.000889));
#1278=CARTESIAN_POINT('',(-0.00227357350138218,-0.00380374241064192,-0.000889));
#1279=CARTESIAN_POINT('',(-0.000673373501382175,-0.00380374241064192,0.));
#1280=CARTESIAN_POINT('',(-0.0063246,-0.00380553637184703,0.));
#1281=CARTESIAN_POINT('',(-0.0063246,-0.00380553637184703,-0.000889));
#1282=CARTESIAN_POINT('',(-0.0073279,-0.00380553637184703,-0.000889));
#1283=CARTESIAN_POINT('',(-0.0047244,-0.00380553637184703,-0.000889));
#1284=CARTESIAN_POINT('',(-0.0063246,-0.00380553637184703,-0.000889));
#1285=CARTESIAN_POINT('',(-0.0079248,-0.00380553637184703,-0.000889));
#1286=CARTESIAN_POINT('',(-0.0063246,-0.00380553637184703,0.));
#1287=CARTESIAN_POINT('',(-0.0329828620193063,0.0038862,0.00175861706403502));
#1288=CARTESIAN_POINT('',(-0.0329828620193063,-0.00527145234624126,0.00177574137483044));
#1289=CARTESIAN_POINT('',(-0.0329828620193063,0.0038862,0.00175861706403502));
#1290=CARTESIAN_POINT('',(-0.0329828620193063,-0.00527145234624126,0.00177574137483044));
#1291=MECHANICAL_DESIGN_GEOMETRIC_PRESENTATION_REPRESENTATION('',(#529),
#1292);
#1292=(
GEOMETRIC_REPRESENTATION_CONTEXT(3)
GLOBAL_UNCERTAINTY_ASSIGNED_CONTEXT((#1293))
GLOBAL_UNIT_ASSIGNED_CONTEXT((#1296,#1295,#1294))
REPRESENTATION_CONTEXT('Part 1','TOP_LEVEL_ASSEMBLY_PART')
);
#1293=UNCERTAINTY_MEASURE_WITH_UNIT(LENGTH_MEASURE(2.E-5),#1296,
'DISTANCE_ACCURACY_VALUE','Maximum Tolerance applied to model');
#1294=(
NAMED_UNIT(*)
SI_UNIT($,.STERADIAN.)
SOLID_ANGLE_UNIT()
);
#1295=(
NAMED_UNIT(*)
PLANE_ANGLE_UNIT()
SI_UNIT($,.RADIAN.)
);
#1296=(
LENGTH_UNIT()
NAMED_UNIT(*)
SI_UNIT($,.METRE.)
);
#1297=PRODUCT_DEFINITION_SHAPE('','',#1298);
#1298=PRODUCT_DEFINITION('','',#1300,#1299);
#1299=PRODUCT_DEFINITION_CONTEXT('',#1306,'design');
#1300=PRODUCT_DEFINITION_FORMATION_WITH_SPECIFIED_SOURCE('','',#1302,
 .NOT_KNOWN.);
#1301=PRODUCT_RELATED_PRODUCT_CATEGORY('','',(#1302));
#1302=PRODUCT('Part 1','Part 1','Part 1',(#1304));
#1303=PRODUCT_CATEGORY('','');
#1304=PRODUCT_CONTEXT('',#1306,'mechanical');
#1305=APPLICATION_PROTOCOL_DEFINITION('international standard',
'ap242_managed_model_based_3d_engineering',2020,#1306);
#1306=APPLICATION_CONTEXT('managed model based 3d engineering');
ENDSEC;
END-ISO-10303-21;
