ISO-10303-21;
HEADER;
/* Generated by software containing ST-Developer
 * from STEP Tools, Inc. (www.steptools.com) 
 */
/* OPTION: using custom renumber hook */

FILE_DESCRIPTION(
/* description */ ('STEP AP242 Edition 2',
'CAx-IF Rec.Pracs.---Representation and Presentation of Product Manufa
cturing Information (PMI)---4.0---2014-10-13',
'CAx-IF Rec.Pracs.---3D Tessellated Geometry---0.4---2014-09-14','2;1',
'CAx-IF Rec.Pracs.---User Defined Attributes---1.5---2016-08-15'),
/* implementation_level */ '2;1');

FILE_NAME(
/* name */ 'box servo - Part 1',
/* time_stamp */ '2026-08-18T00:16:02Z',
/* author */ (''),
/* organization */ (''),
/* preprocessor_version */ 'ST-DEVELOPER v20',
/* originating_system */ 'ONSHAPE BY PTC INC, 1.219',
/* authorisation */ '  ');

FILE_SCHEMA (('AP242_MANAGED_MODEL_BASED_3D_ENGINEERING_MIM_LF { 1 0 10303 442 3 1 4 }'));
ENDSEC;

DATA;
#10=SHAPE_REPRESENTATION_RELATIONSHIP('','',#287,#11);
#11=ADVANCED_BREP_SHAPE_REPRESENTATION('',(#285),#461);
#12=CIRCLE('',#299,0.0059436);
#13=CIRCLE('',#300,0.0059436);
#14=CIRCLE('',#302,0.001143);
#15=CIRCLE('',#303,0.001143);
#16=CIRCLE('',#305,0.003048);
#17=CIRCLE('',#306,0.003048);
#18=CIRCLE('',#308,0.001143);
#19=CIRCLE('',#309,0.001143);
#20=CYLINDRICAL_SURFACE('',#298,0.0059436);
#21=CYLINDRICAL_SURFACE('',#301,0.001143);
#22=CYLINDRICAL_SURFACE('',#304,0.003048);
#23=CYLINDRICAL_SURFACE('',#307,0.001143);
#24=ORIENTED_EDGE('',*,*,#92,.F.);
#25=ORIENTED_EDGE('',*,*,#93,.F.);
#26=ORIENTED_EDGE('',*,*,#94,.T.);
#27=ORIENTED_EDGE('',*,*,#95,.T.);
#28=ORIENTED_EDGE('',*,*,#96,.F.);
#29=ORIENTED_EDGE('',*,*,#97,.F.);
#30=ORIENTED_EDGE('',*,*,#98,.T.);
#31=ORIENTED_EDGE('',*,*,#93,.T.);
#32=ORIENTED_EDGE('',*,*,#99,.T.);
#33=ORIENTED_EDGE('',*,*,#100,.F.);
#34=ORIENTED_EDGE('',*,*,#101,.F.);
#35=ORIENTED_EDGE('',*,*,#97,.T.);
#36=ORIENTED_EDGE('',*,*,#102,.F.);
#37=ORIENTED_EDGE('',*,*,#103,.F.);
#38=ORIENTED_EDGE('',*,*,#104,.T.);
#39=ORIENTED_EDGE('',*,*,#105,.T.);
#40=ORIENTED_EDGE('',*,*,#106,.T.);
#41=ORIENTED_EDGE('',*,*,#107,.F.);
#42=ORIENTED_EDGE('',*,*,#108,.F.);
#43=ORIENTED_EDGE('',*,*,#103,.T.);
#44=ORIENTED_EDGE('',*,*,#109,.T.);
#45=ORIENTED_EDGE('',*,*,#110,.F.);
#46=ORIENTED_EDGE('',*,*,#111,.F.);
#47=ORIENTED_EDGE('',*,*,#107,.T.);
#48=ORIENTED_EDGE('',*,*,#112,.F.);
#49=ORIENTED_EDGE('',*,*,#105,.F.);
#50=ORIENTED_EDGE('',*,*,#113,.T.);
#51=ORIENTED_EDGE('',*,*,#110,.T.);
#52=ORIENTED_EDGE('',*,*,#114,.T.);
#53=ORIENTED_EDGE('',*,*,#95,.F.);
#54=ORIENTED_EDGE('',*,*,#115,.F.);
#55=ORIENTED_EDGE('',*,*,#100,.T.);
#56=ORIENTED_EDGE('',*,*,#102,.T.);
#57=ORIENTED_EDGE('',*,*,#112,.T.);
#58=ORIENTED_EDGE('',*,*,#109,.F.);
#59=ORIENTED_EDGE('',*,*,#106,.F.);
#60=ORIENTED_EDGE('',*,*,#92,.T.);
#61=ORIENTED_EDGE('',*,*,#114,.F.);
#62=ORIENTED_EDGE('',*,*,#99,.F.);
#63=ORIENTED_EDGE('',*,*,#96,.T.);
#64=ORIENTED_EDGE('',*,*,#116,.F.);
#65=ORIENTED_EDGE('',*,*,#117,.F.);
#66=ORIENTED_EDGE('',*,*,#118,.T.);
#67=ORIENTED_EDGE('',*,*,#119,.T.);
#68=ORIENTED_EDGE('',*,*,#120,.T.);
#69=ORIENTED_EDGE('',*,*,#121,.F.);
#70=ORIENTED_EDGE('',*,*,#122,.F.);
#71=ORIENTED_EDGE('',*,*,#119,.F.);
#72=ORIENTED_EDGE('',*,*,#123,.T.);
#73=ORIENTED_EDGE('',*,*,#117,.T.);
#74=ORIENTED_EDGE('',*,*,#124,.T.);
#75=ORIENTED_EDGE('',*,*,#125,.F.);
#76=ORIENTED_EDGE('',*,*,#94,.F.);
#77=ORIENTED_EDGE('',*,*,#98,.F.);
#78=ORIENTED_EDGE('',*,*,#101,.T.);
#79=ORIENTED_EDGE('',*,*,#115,.T.);
#80=ORIENTED_EDGE('',*,*,#118,.F.);
#81=ORIENTED_EDGE('',*,*,#123,.F.);
#82=ORIENTED_EDGE('',*,*,#120,.F.);
#83=ORIENTED_EDGE('',*,*,#124,.F.);
#84=ORIENTED_EDGE('',*,*,#104,.F.);
#85=ORIENTED_EDGE('',*,*,#108,.T.);
#86=ORIENTED_EDGE('',*,*,#111,.T.);
#87=ORIENTED_EDGE('',*,*,#113,.F.);
#88=ORIENTED_EDGE('',*,*,#116,.T.);
#89=ORIENTED_EDGE('',*,*,#122,.T.);
#90=ORIENTED_EDGE('',*,*,#121,.T.);
#91=ORIENTED_EDGE('',*,*,#125,.T.);
#92=EDGE_CURVE('',#126,#127,#150,.T.);
#93=EDGE_CURVE('',#128,#126,#151,.T.);
#94=EDGE_CURVE('',#128,#129,#152,.T.);
#95=EDGE_CURVE('',#129,#127,#153,.T.);
#96=EDGE_CURVE('',#130,#126,#154,.T.);
#97=EDGE_CURVE('',#131,#130,#155,.T.);
#98=EDGE_CURVE('',#131,#128,#156,.T.);
#99=EDGE_CURVE('',#130,#132,#157,.T.);
#100=EDGE_CURVE('',#133,#132,#158,.T.);
#101=EDGE_CURVE('',#131,#133,#159,.T.);
#102=EDGE_CURVE('',#134,#135,#160,.T.);
#103=EDGE_CURVE('',#136,#134,#161,.T.);
#104=EDGE_CURVE('',#136,#137,#162,.T.);
#105=EDGE_CURVE('',#137,#135,#163,.T.);
#106=EDGE_CURVE('',#134,#138,#164,.T.);
#107=EDGE_CURVE('',#139,#138,#165,.T.);
#108=EDGE_CURVE('',#136,#139,#166,.T.);
#109=EDGE_CURVE('',#138,#140,#167,.T.);
#110=EDGE_CURVE('',#141,#140,#168,.T.);
#111=EDGE_CURVE('',#139,#141,#169,.T.);
#112=EDGE_CURVE('',#135,#140,#170,.T.);
#113=EDGE_CURVE('',#137,#141,#171,.T.);
#114=EDGE_CURVE('',#132,#127,#172,.T.);
#115=EDGE_CURVE('',#133,#129,#173,.T.);
#116=EDGE_CURVE('',#142,#143,#12,.T.);
#117=EDGE_CURVE('',#144,#142,#174,.T.);
#118=EDGE_CURVE('',#144,#145,#13,.T.);
#119=EDGE_CURVE('',#145,#143,#175,.T.);
#120=EDGE_CURVE('',#146,#146,#14,.T.);
#121=EDGE_CURVE('',#147,#147,#15,.T.);
#122=EDGE_CURVE('',#143,#142,#16,.T.);
#123=EDGE_CURVE('',#145,#144,#17,.T.);
#124=EDGE_CURVE('',#148,#148,#18,.T.);
#125=EDGE_CURVE('',#149,#149,#19,.T.);
#126=VERTEX_POINT('',#389);
#127=VERTEX_POINT('',#390);
#128=VERTEX_POINT('',#392);
#129=VERTEX_POINT('',#394);
#130=VERTEX_POINT('',#398);
#131=VERTEX_POINT('',#400);
#132=VERTEX_POINT('',#404);
#133=VERTEX_POINT('',#406);
#134=VERTEX_POINT('',#410);
#135=VERTEX_POINT('',#411);
#136=VERTEX_POINT('',#413);
#137=VERTEX_POINT('',#415);
#138=VERTEX_POINT('',#419);
#139=VERTEX_POINT('',#421);
#140=VERTEX_POINT('',#425);
#141=VERTEX_POINT('',#427);
#142=VERTEX_POINT('',#438);
#143=VERTEX_POINT('',#439);
#144=VERTEX_POINT('',#441);
#145=VERTEX_POINT('',#443);
#146=VERTEX_POINT('',#447);
#147=VERTEX_POINT('',#449);
#148=VERTEX_POINT('',#455);
#149=VERTEX_POINT('',#457);
#150=LINE('',#388,#176);
#151=LINE('',#391,#177);
#152=LINE('',#393,#178);
#153=LINE('',#395,#179);
#154=LINE('',#397,#180);
#155=LINE('',#399,#181);
#156=LINE('',#401,#182);
#157=LINE('',#403,#183);
#158=LINE('',#405,#184);
#159=LINE('',#407,#185);
#160=LINE('',#409,#186);
#161=LINE('',#412,#187);
#162=LINE('',#414,#188);
#163=LINE('',#416,#189);
#164=LINE('',#418,#190);
#165=LINE('',#420,#191);
#166=LINE('',#422,#192);
#167=LINE('',#424,#193);
#168=LINE('',#426,#194);
#169=LINE('',#428,#195);
#170=LINE('',#430,#196);
#171=LINE('',#431,#197);
#172=LINE('',#433,#198);
#173=LINE('',#434,#199);
#174=LINE('',#440,#200);
#175=LINE('',#444,#201);
#176=VECTOR('',#316,1.);
#177=VECTOR('',#317,1.);
#178=VECTOR('',#318,1.);
#179=VECTOR('',#319,1.);
#180=VECTOR('',#322,1.);
#181=VECTOR('',#323,1.);
#182=VECTOR('',#324,1.);
#183=VECTOR('',#327,1.);
#184=VECTOR('',#328,1.);
#185=VECTOR('',#329,1.);
#186=VECTOR('',#332,1.);
#187=VECTOR('',#333,1.);
#188=VECTOR('',#334,1.);
#189=VECTOR('',#335,1.);
#190=VECTOR('',#338,1.);
#191=VECTOR('',#339,1.);
#192=VECTOR('',#340,1.);
#193=VECTOR('',#343,1.);
#194=VECTOR('',#344,1.);
#195=VECTOR('',#345,1.);
#196=VECTOR('',#348,1.);
#197=VECTOR('',#349,1.);
#198=VECTOR('',#352,1.);
#199=VECTOR('',#353,1.);
#200=VECTOR('',#360,1.);
#201=VECTOR('',#363,1.);
#202=EDGE_LOOP('',(#24,#25,#26,#27));
#203=EDGE_LOOP('',(#28,#29,#30,#31));
#204=EDGE_LOOP('',(#32,#33,#34,#35));
#205=EDGE_LOOP('',(#36,#37,#38,#39));
#206=EDGE_LOOP('',(#40,#41,#42,#43));
#207=EDGE_LOOP('',(#44,#45,#46,#47));
#208=EDGE_LOOP('',(#48,#49,#50,#51));
#209=EDGE_LOOP('',(#52,#53,#54,#55));
#210=EDGE_LOOP('',(#56,#57,#58,#59));
#211=EDGE_LOOP('',(#60,#61,#62,#63));
#212=EDGE_LOOP('',(#64,#65,#66,#67));
#213=EDGE_LOOP('',(#68));
#214=EDGE_LOOP('',(#69));
#215=EDGE_LOOP('',(#70,#71,#72,#73));
#216=EDGE_LOOP('',(#74));
#217=EDGE_LOOP('',(#75));
#218=EDGE_LOOP('',(#76,#77,#78,#79));
#219=EDGE_LOOP('',(#80,#81));
#220=EDGE_LOOP('',(#82));
#221=EDGE_LOOP('',(#83));
#222=EDGE_LOOP('',(#84,#85,#86,#87));
#223=EDGE_LOOP('',(#88,#89));
#224=EDGE_LOOP('',(#90));
#225=EDGE_LOOP('',(#91));
#226=FACE_BOUND('',#202,.T.);
#227=FACE_BOUND('',#203,.T.);
#228=FACE_BOUND('',#204,.T.);
#229=FACE_BOUND('',#205,.T.);
#230=FACE_BOUND('',#206,.T.);
#231=FACE_BOUND('',#207,.T.);
#232=FACE_BOUND('',#208,.T.);
#233=FACE_BOUND('',#209,.T.);
#234=FACE_BOUND('',#210,.T.);
#235=FACE_BOUND('',#211,.T.);
#236=FACE_BOUND('',#212,.T.);
#237=FACE_BOUND('',#213,.T.);
#238=FACE_BOUND('',#214,.T.);
#239=FACE_BOUND('',#215,.T.);
#240=FACE_BOUND('',#216,.T.);
#241=FACE_BOUND('',#217,.T.);
#242=FACE_BOUND('',#218,.T.);
#243=FACE_BOUND('',#219,.T.);
#244=FACE_BOUND('',#220,.T.);
#245=FACE_BOUND('',#221,.T.);
#246=FACE_BOUND('',#222,.T.);
#247=FACE_BOUND('',#223,.T.);
#248=FACE_BOUND('',#224,.T.);
#249=FACE_BOUND('',#225,.T.);
#250=PLANE('',#289);
#251=PLANE('',#290);
#252=PLANE('',#291);
#253=PLANE('',#292);
#254=PLANE('',#293);
#255=PLANE('',#294);
#256=PLANE('',#295);
#257=PLANE('',#296);
#258=PLANE('',#297);
#259=PLANE('',#310);
#260=PLANE('',#311);
#261=ADVANCED_FACE('',(#226),#250,.T.);
#262=ADVANCED_FACE('',(#227),#251,.T.);
#263=ADVANCED_FACE('',(#228),#252,.F.);
#264=ADVANCED_FACE('',(#229),#253,.T.);
#265=ADVANCED_FACE('',(#230),#254,.F.);
#266=ADVANCED_FACE('',(#231),#255,.F.);
#267=ADVANCED_FACE('',(#232),#256,.T.);
#268=ADVANCED_FACE('',(#233),#257,.F.);
#269=ADVANCED_FACE('',(#234,#235),#258,.F.);
#270=ADVANCED_FACE('',(#236),#20,.F.);
#271=ADVANCED_FACE('',(#237,#238),#21,.F.);
#272=ADVANCED_FACE('',(#239),#22,.F.);
#273=ADVANCED_FACE('',(#240,#241),#23,.F.);
#274=ADVANCED_FACE('',(#242,#243,#244,#245),#259,.T.);
#275=ADVANCED_FACE('',(#246,#247,#248,#249),#260,.F.);
#276=CLOSED_SHELL('',(#261,#262,#263,#264,#265,#266,#267,#268,#269,#270,
#271,#272,#273,#274,#275));
#277=STYLED_ITEM('',(#278),#285);
#278=PRESENTATION_STYLE_ASSIGNMENT((#279));
#279=SURFACE_STYLE_USAGE(.BOTH.,#280);
#280=SURFACE_SIDE_STYLE('',(#281));
#281=SURFACE_STYLE_FILL_AREA(#282);
#282=FILL_AREA_STYLE('',(#283));
#283=FILL_AREA_STYLE_COLOUR('',#284);
#284=COLOUR_RGB('',0.615686274509804,0.811764705882353,0.929411764705882);
#285=MANIFOLD_SOLID_BREP('Part 1',#276);
#286=SHAPE_DEFINITION_REPRESENTATION(#466,#287);
#287=SHAPE_REPRESENTATION('Part 1',(#288),#461);
#288=AXIS2_PLACEMENT_3D('',#386,#312,#313);
#289=AXIS2_PLACEMENT_3D('',#387,#314,#315);
#290=AXIS2_PLACEMENT_3D('',#396,#320,#321);
#291=AXIS2_PLACEMENT_3D('',#402,#325,#326);
#292=AXIS2_PLACEMENT_3D('',#408,#330,#331);
#293=AXIS2_PLACEMENT_3D('',#417,#336,#337);
#294=AXIS2_PLACEMENT_3D('',#423,#341,#342);
#295=AXIS2_PLACEMENT_3D('',#429,#346,#347);
#296=AXIS2_PLACEMENT_3D('',#432,#350,#351);
#297=AXIS2_PLACEMENT_3D('',#435,#354,#355);
#298=AXIS2_PLACEMENT_3D('',#436,#356,#357);
#299=AXIS2_PLACEMENT_3D('',#437,#358,#359);
#300=AXIS2_PLACEMENT_3D('',#442,#361,#362);
#301=AXIS2_PLACEMENT_3D('',#445,#364,#365);
#302=AXIS2_PLACEMENT_3D('',#446,#366,#367);
#303=AXIS2_PLACEMENT_3D('',#448,#368,#369);
#304=AXIS2_PLACEMENT_3D('',#450,#370,#371);
#305=AXIS2_PLACEMENT_3D('',#451,#372,#373);
#306=AXIS2_PLACEMENT_3D('',#452,#374,#375);
#307=AXIS2_PLACEMENT_3D('',#453,#376,#377);
#308=AXIS2_PLACEMENT_3D('',#454,#378,#379);
#309=AXIS2_PLACEMENT_3D('',#456,#380,#381);
#310=AXIS2_PLACEMENT_3D('',#458,#382,#383);
#311=AXIS2_PLACEMENT_3D('',#459,#384,#385);
#312=DIRECTION('',(0.,0.,1.));
#313=DIRECTION('',(1.,0.,0.));
#314=DIRECTION('',(1.,0.,0.));
#315=DIRECTION('',(0.,0.,-1.));
#316=DIRECTION('',(0.,-1.,0.));
#317=DIRECTION('',(0.,0.,-1.));
#318=DIRECTION('',(0.,-1.,0.));
#319=DIRECTION('',(0.,0.,-1.));
#320=DIRECTION('',(0.,1.,0.));
#321=DIRECTION('',(0.,0.,1.));
#322=DIRECTION('',(1.,0.,0.));
#323=DIRECTION('',(0.,0.,-1.));
#324=DIRECTION('',(1.,0.,0.));
#325=DIRECTION('',(1.,0.,0.));
#326=DIRECTION('',(0.,0.,-1.));
#327=DIRECTION('',(0.,-1.,0.));
#328=DIRECTION('',(0.,0.,-1.));
#329=DIRECTION('',(0.,-1.,0.));
#330=DIRECTION('',(1.,0.,0.));
#331=DIRECTION('',(0.,0.,-1.));
#332=DIRECTION('',(0.,-1.,0.));
#333=DIRECTION('',(0.,0.,-1.));
#334=DIRECTION('',(0.,-1.,0.));
#335=DIRECTION('',(0.,0.,-1.));
#336=DIRECTION('',(0.,1.,0.));
#337=DIRECTION('',(0.,0.,1.));
#338=DIRECTION('',(1.,0.,0.));
#339=DIRECTION('',(0.,0.,-1.));
#340=DIRECTION('',(1.,0.,0.));
#341=DIRECTION('',(1.,1.39379999676748E-16,0.));
#342=DIRECTION('',(-1.39379999676748E-16,1.,0.));
#343=DIRECTION('',(1.39379999676748E-16,-1.,0.));
#344=DIRECTION('',(0.,0.,-1.));
#345=DIRECTION('',(1.39379999676748E-16,-1.,0.));
#346=DIRECTION('',(0.,1.,0.));
#347=DIRECTION('',(0.,0.,1.));
#348=DIRECTION('',(1.,0.,0.));
#349=DIRECTION('',(1.,0.,0.));
#350=DIRECTION('',(0.,1.,0.));
#351=DIRECTION('',(0.,0.,1.));
#352=DIRECTION('',(1.,0.,0.));
#353=DIRECTION('',(1.,0.,0.));
#354=DIRECTION('',(0.,0.,1.));
#355=DIRECTION('',(1.,0.,0.));
#356=DIRECTION('',(0.,0.,-1.));
#357=DIRECTION('',(-1.,0.,0.));
#358=DIRECTION('',(0.,0.,1.));
#359=DIRECTION('',(1.,0.,0.));
#360=DIRECTION('',(0.,0.,-1.));
#361=DIRECTION('',(0.,0.,1.));
#362=DIRECTION('',(1.,0.,0.));
#363=DIRECTION('',(0.,0.,-1.));
#364=DIRECTION('',(0.,0.,-1.));
#365=DIRECTION('',(-1.,0.,0.));
#366=DIRECTION('',(0.,0.,1.));
#367=DIRECTION('',(1.,0.,0.));
#368=DIRECTION('',(0.,0.,1.));
#369=DIRECTION('',(1.,0.,0.));
#370=DIRECTION('',(0.,0.,-1.));
#371=DIRECTION('',(-1.,0.,0.));
#372=DIRECTION('',(0.,0.,1.));
#373=DIRECTION('',(1.,0.,0.));
#374=DIRECTION('',(0.,0.,1.));
#375=DIRECTION('',(1.,0.,0.));
#376=DIRECTION('',(0.,0.,-1.));
#377=DIRECTION('',(-1.,0.,0.));
#378=DIRECTION('',(0.,0.,1.));
#379=DIRECTION('',(1.,0.,0.));
#380=DIRECTION('',(0.,0.,1.));
#381=DIRECTION('',(1.,0.,0.));
#382=DIRECTION('',(0.,0.,1.));
#383=DIRECTION('',(1.,0.,0.));
#384=DIRECTION('',(0.,0.,1.));
#385=DIRECTION('',(1.,0.,0.));
#386=CARTESIAN_POINT('',(0.,0.,0.));
#387=CARTESIAN_POINT('',(0.0166325646370649,0.000192134040534502,0.027178));
#388=CARTESIAN_POINT('',(0.0166325646370649,0.000192134040534502,0.));
#389=CARTESIAN_POINT('',(0.0166325646370649,0.0089551340405345,0.));
#390=CARTESIAN_POINT('',(0.0166325646370649,-0.0085708659594655,0.));
#391=CARTESIAN_POINT('',(0.0166325646370649,0.0089551340405345,0.027178));
#392=CARTESIAN_POINT('',(0.0166325646370649,0.0089551340405345,0.029718));
#393=CARTESIAN_POINT('',(0.0166325646370649,0.000192134040534502,0.029718));
#394=CARTESIAN_POINT('',(0.0166325646370649,-0.0085708659594655,0.029718));
#395=CARTESIAN_POINT('',(0.0166325646370649,-0.0085708659594655,0.027178));
#396=CARTESIAN_POINT('',(-0.00229043536293507,0.0089551340405345,0.027178));
#397=CARTESIAN_POINT('',(-0.00229043536293507,0.0089551340405345,0.));
#398=CARTESIAN_POINT('',(-0.0212134353629351,0.0089551340405345,0.));
#399=CARTESIAN_POINT('',(-0.0212134353629351,0.0089551340405345,0.027178));
#400=CARTESIAN_POINT('',(-0.0212134353629351,0.0089551340405345,0.029718));
#401=CARTESIAN_POINT('',(-0.00229043536293507,0.0089551340405345,0.029718));
#402=CARTESIAN_POINT('',(-0.0212134353629351,0.000192134040534501,0.027178));
#403=CARTESIAN_POINT('',(-0.0212134353629351,0.000192134040534501,0.));
#404=CARTESIAN_POINT('',(-0.0212134353629351,-0.0085708659594655,0.));
#405=CARTESIAN_POINT('',(-0.0212134353629351,-0.0085708659594655,0.027178));
#406=CARTESIAN_POINT('',(-0.0212134353629351,-0.0085708659594655,0.029718));
#407=CARTESIAN_POINT('',(-0.0212134353629351,0.000192134040534501,0.029718));
#408=CARTESIAN_POINT('',(-0.0186734353629351,0.000192134040534501,0.027178));
#409=CARTESIAN_POINT('',(-0.0186734353629351,0.000192134040534501,0.));
#410=CARTESIAN_POINT('',(-0.0186734353629351,0.00641513404053452,0.));
#411=CARTESIAN_POINT('',(-0.0186734353629351,-0.00603086595946549,0.));
#412=CARTESIAN_POINT('',(-0.0186734353629351,0.00641513404053452,0.027178));
#413=CARTESIAN_POINT('',(-0.0186734353629351,0.00641513404053452,0.027178));
#414=CARTESIAN_POINT('',(-0.0186734353629351,0.000192134040534501,0.027178));
#415=CARTESIAN_POINT('',(-0.0186734353629351,-0.00603086595946549,0.027178));
#416=CARTESIAN_POINT('',(-0.0186734353629351,-0.00603086595946549,0.027178));
#417=CARTESIAN_POINT('',(-0.00229043536293507,0.00641513404053452,0.027178));
#418=CARTESIAN_POINT('',(-0.00229043536293507,0.00641513404053452,0.));
#419=CARTESIAN_POINT('',(0.0140925646370649,0.0064151340405345,0.));
#420=CARTESIAN_POINT('',(0.0140925646370649,0.0064151340405345,0.027178));
#421=CARTESIAN_POINT('',(0.0140925646370649,0.0064151340405345,0.027178));
#422=CARTESIAN_POINT('',(-0.00229043536293507,0.00641513404053452,0.027178));
#423=CARTESIAN_POINT('',(0.0140925646370649,0.000192134040534501,0.027178));
#424=CARTESIAN_POINT('',(0.0140925646370649,0.000192134040534501,0.));
#425=CARTESIAN_POINT('',(0.0140925646370649,-0.0060308659594655,0.));
#426=CARTESIAN_POINT('',(0.0140925646370649,-0.0060308659594655,0.027178));
#427=CARTESIAN_POINT('',(0.0140925646370649,-0.0060308659594655,0.027178));
#428=CARTESIAN_POINT('',(0.0140925646370649,0.000192134040534501,0.027178));
#429=CARTESIAN_POINT('',(-0.00229043536293507,-0.00603086595946549,0.027178));
#430=CARTESIAN_POINT('',(-0.00229043536293507,-0.00603086595946549,0.));
#431=CARTESIAN_POINT('',(-0.00229043536293507,-0.00603086595946549,0.027178));
#432=CARTESIAN_POINT('',(-0.00229043536293507,-0.0085708659594655,0.027178));
#433=CARTESIAN_POINT('',(-0.00229043536293507,-0.0085708659594655,0.));
#434=CARTESIAN_POINT('',(-0.00229043536293507,-0.0085708659594655,0.029718));
#435=CARTESIAN_POINT('',(-0.00229043536293508,0.000192134040534501,0.));
#436=CARTESIAN_POINT('',(-0.00792301958156172,0.000426479848670964,0.029718));
#437=CARTESIAN_POINT('',(-0.00792301958156172,0.000426479848670964,0.027178));
#438=CARTESIAN_POINT('',(-0.00276095804310017,0.00337257924162024,0.027178));
#439=CARTESIAN_POINT('',(-0.00276095804310017,-0.00251961954427831,0.027178));
#440=CARTESIAN_POINT('',(-0.00276095804310017,0.00337257924162024,0.029718));
#441=CARTESIAN_POINT('',(-0.00276095804310017,0.00337257924162024,0.029718));
#442=CARTESIAN_POINT('',(-0.00792301958156172,0.000426479848670964,0.029718));
#443=CARTESIAN_POINT('',(-0.00276095804310017,-0.00251961954427831,0.029718));
#444=CARTESIAN_POINT('',(-0.00276095804310017,-0.00251961954427831,0.029718));
#445=CARTESIAN_POINT('',(0.0116393802817907,0.000426479848670964,0.029718));
#446=CARTESIAN_POINT('',(0.0116393802817907,0.000426479848670964,0.029718));
#447=CARTESIAN_POINT('',(0.0127823802817907,0.000426479848670964,0.029718));
#448=CARTESIAN_POINT('',(0.0116393802817907,0.000426479848670964,0.027178));
#449=CARTESIAN_POINT('',(0.0127823802817907,0.000426479848670964,0.027178));
#450=CARTESIAN_POINT('',(-0.00197941958156172,0.000426479848670964,0.029718));
#451=CARTESIAN_POINT('',(-0.00197941958156172,0.000426479848670964,0.027178));
#452=CARTESIAN_POINT('',(-0.00197941958156172,0.000426479848670964,0.029718));
#453=CARTESIAN_POINT('',(-0.0163582930220512,0.000359990089817289,0.029718));
#454=CARTESIAN_POINT('',(-0.0163582930220512,0.000359990089817289,0.029718));
#455=CARTESIAN_POINT('',(-0.0152152930220512,0.000359990089817289,0.029718));
#456=CARTESIAN_POINT('',(-0.0163582930220512,0.000359990089817289,0.027178));
#457=CARTESIAN_POINT('',(-0.0152152930220512,0.000359990089817289,0.027178));
#458=CARTESIAN_POINT('',(-0.00229043536293508,0.000192134040534503,0.029718));
#459=CARTESIAN_POINT('',(-0.00229043536293508,0.000192134040534503,0.027178));
#460=MECHANICAL_DESIGN_GEOMETRIC_PRESENTATION_REPRESENTATION('',(#277),
#461);
#461=(
GEOMETRIC_REPRESENTATION_CONTEXT(3)
GLOBAL_UNCERTAINTY_ASSIGNED_CONTEXT((#462))
GLOBAL_UNIT_ASSIGNED_CONTEXT((#465,#464,#463))
REPRESENTATION_CONTEXT('Part 1','TOP_LEVEL_ASSEMBLY_PART')
);
#462=UNCERTAINTY_MEASURE_WITH_UNIT(LENGTH_MEASURE(1.E-8),#465,
'DISTANCE_ACCURACY_VALUE','Maximum Tolerance applied to model');
#463=(
NAMED_UNIT(*)
SI_UNIT($,.STERADIAN.)
SOLID_ANGLE_UNIT()
);
#464=(
NAMED_UNIT(*)
PLANE_ANGLE_UNIT()
SI_UNIT($,.RADIAN.)
);
#465=(
LENGTH_UNIT()
NAMED_UNIT(*)
SI_UNIT($,.METRE.)
);
#466=PRODUCT_DEFINITION_SHAPE('','',#467);
#467=PRODUCT_DEFINITION('','',#469,#468);
#468=PRODUCT_DEFINITION_CONTEXT('',#475,'design');
#469=PRODUCT_DEFINITION_FORMATION_WITH_SPECIFIED_SOURCE('','',#471,
 .NOT_KNOWN.);
#470=PRODUCT_RELATED_PRODUCT_CATEGORY('','',(#471));
#471=PRODUCT('Part 1','Part 1','Part 1',(#473));
#472=PRODUCT_CATEGORY('','');
#473=PRODUCT_CONTEXT('',#475,'mechanical');
#474=APPLICATION_PROTOCOL_DEFINITION('international standard',
'ap242_managed_model_based_3d_engineering',2020,#475);
#475=APPLICATION_CONTEXT('managed model based 3d engineering');
ENDSEC;
END-ISO-10303-21;
