ISO-10303-21;
HEADER;
/* Generated by software containing ST-Developer
 * from STEP Tools, Inc. (www.steptools.com) 
 */
/* OPTION: using custom renumber hook */

FILE_DESCRIPTION(
/* description */ ('STEP AP242 Edition 2',
'CAx-IF Rec.Pracs.---Representation and Presentation of Product Manufa
cturing Information (PMI)---4.0---2014-10-13',
'CAx-IF Rec.Pracs.---3D Tessellated Geometry---0.4---2014-09-14','2;1',
'CAx-IF Rec.Pracs.---User Defined Attributes---1.5---2016-08-15'),
/* implementation_level */ '2;1');

FILE_NAME(
/* name */ 'clock cover base - Part 1',
/* time_stamp */ '2026-08-18T00:14:55Z',
/* author */ (''),
/* organization */ (''),
/* preprocessor_version */ 'ST-DEVELOPER v20',
/* originating_system */ 'ONSHAPE BY PTC INC, 1.219',
/* authorisation */ '  ');

FILE_SCHEMA (('AP242_MANAGED_MODEL_BASED_3D_ENGINEERING_MIM_LF { 1 0 10303 442 3 1 4 }'));
ENDSEC;

DATA;
#10=SHAPE_REPRESENTATION_RELATIONSHIP('','',#1183,#11);
#11=ADVANCED_BREP_SHAPE_REPRESENTATION('',(#1181),#2003);
#12=CIRCLE('',#1187,0.03048);
#13=CIRCLE('',#1188,0.03048);
#14=CIRCLE('',#1191,0.03048);
#15=CIRCLE('',#1192,0.03048);
#16=CIRCLE('',#1195,0.03048);
#17=CIRCLE('',#1196,0.03048);
#18=CIRCLE('',#1199,0.03048);
#19=CIRCLE('',#1200,0.03048);
#20=CIRCLE('',#1203,0.03048);
#21=CIRCLE('',#1204,0.03048);
#22=CIRCLE('',#1207,0.03048);
#23=CIRCLE('',#1208,0.03048);
#24=CIRCLE('',#1211,0.03048);
#25=CIRCLE('',#1212,0.03048);
#26=CIRCLE('',#1215,0.03048);
#27=CIRCLE('',#1216,0.03048);
#28=CIRCLE('',#1219,0.03048);
#29=CIRCLE('',#1220,0.03048);
#30=CIRCLE('',#1223,0.03048);
#31=CIRCLE('',#1224,0.03048);
#32=CIRCLE('',#1227,0.03048);
#33=CIRCLE('',#1228,0.03048);
#34=CIRCLE('',#1231,0.03048);
#35=CIRCLE('',#1232,0.03048);
#36=CIRCLE('',#1235,0.03048);
#37=CIRCLE('',#1236,0.03048);
#38=CIRCLE('',#1239,0.03048);
#39=CIRCLE('',#1240,0.03048);
#40=CIRCLE('',#1243,0.03048);
#41=CIRCLE('',#1244,0.03048);
#42=CIRCLE('',#1247,0.03048);
#43=CIRCLE('',#1248,0.03048);
#44=CIRCLE('',#1251,0.0022479);
#45=CIRCLE('',#1252,0.0022479);
#46=CIRCLE('',#1253,0.0022479);
#47=CIRCLE('',#1254,0.0022479);
#48=CIRCLE('',#1255,0.03048);
#49=CIRCLE('',#1256,0.03048);
#50=CIRCLE('',#1257,0.03048);
#51=CIRCLE('',#1258,0.03048);
#52=CIRCLE('',#1259,0.03048);
#53=CIRCLE('',#1260,0.03048);
#54=CIRCLE('',#1261,0.03048);
#55=CIRCLE('',#1262,0.03048);
#56=CIRCLE('',#1264,0.0022479);
#57=CIRCLE('',#1265,0.0022479);
#58=CIRCLE('',#1266,0.0022479);
#59=CIRCLE('',#1267,0.0022479);
#60=CIRCLE('',#1268,0.0022479);
#61=CIRCLE('',#1269,0.0381);
#62=CIRCLE('',#1270,0.0022479);
#63=CIRCLE('',#1271,0.0022479);
#64=CIRCLE('',#1272,0.0022479);
#65=CIRCLE('',#1273,0.03048);
#66=CIRCLE('',#1274,0.03048);
#67=CIRCLE('',#1275,0.03048);
#68=CIRCLE('',#1276,0.03048);
#69=CIRCLE('',#1277,0.03048);
#70=CIRCLE('',#1278,0.03048);
#71=CIRCLE('',#1279,0.03048);
#72=CIRCLE('',#1280,0.03048);
#73=CIRCLE('',#1298,0.0022479);
#74=CIRCLE('',#1299,0.0022479);
#75=CIRCLE('',#1300,0.0022479);
#76=CIRCLE('',#1301,0.0022479);
#77=CIRCLE('',#1302,0.0381);
#78=CYLINDRICAL_SURFACE('',#1186,0.03048);
#79=CYLINDRICAL_SURFACE('',#1190,0.03048);
#80=CYLINDRICAL_SURFACE('',#1194,0.03048);
#81=CYLINDRICAL_SURFACE('',#1198,0.03048);
#82=CYLINDRICAL_SURFACE('',#1202,0.03048);
#83=CYLINDRICAL_SURFACE('',#1206,0.03048);
#84=CYLINDRICAL_SURFACE('',#1210,0.03048);
#85=CYLINDRICAL_SURFACE('',#1214,0.03048);
#86=CYLINDRICAL_SURFACE('',#1218,0.03048);
#87=CYLINDRICAL_SURFACE('',#1222,0.03048);
#88=CYLINDRICAL_SURFACE('',#1226,0.03048);
#89=CYLINDRICAL_SURFACE('',#1230,0.03048);
#90=CYLINDRICAL_SURFACE('',#1234,0.03048);
#91=CYLINDRICAL_SURFACE('',#1238,0.03048);
#92=CYLINDRICAL_SURFACE('',#1242,0.03048);
#93=CYLINDRICAL_SURFACE('',#1246,0.03048);
#94=CYLINDRICAL_SURFACE('',#1281,0.03048);
#95=CYLINDRICAL_SURFACE('',#1283,0.03048);
#96=CYLINDRICAL_SURFACE('',#1285,0.03048);
#97=CYLINDRICAL_SURFACE('',#1287,0.03048);
#98=CYLINDRICAL_SURFACE('',#1289,0.03048);
#99=CYLINDRICAL_SURFACE('',#1291,0.03048);
#100=CYLINDRICAL_SURFACE('',#1293,0.03048);
#101=CYLINDRICAL_SURFACE('',#1295,0.03048);
#102=CYLINDRICAL_SURFACE('',#1303,0.0022479);
#103=CYLINDRICAL_SURFACE('',#1304,0.0022479);
#104=CYLINDRICAL_SURFACE('',#1305,0.0022479);
#105=CYLINDRICAL_SURFACE('',#1306,0.0381);
#106=CYLINDRICAL_SURFACE('',#1307,0.0022479);
#107=CYLINDRICAL_SURFACE('',#1308,0.0022479);
#108=CYLINDRICAL_SURFACE('',#1309,0.0022479);
#109=CYLINDRICAL_SURFACE('',#1310,0.0022479);
#110=CYLINDRICAL_SURFACE('',#1311,0.0022479);
#111=ORIENTED_EDGE('',*,*,#435,.T.);
#112=ORIENTED_EDGE('',*,*,#436,.F.);
#113=ORIENTED_EDGE('',*,*,#437,.F.);
#114=ORIENTED_EDGE('',*,*,#438,.T.);
#115=ORIENTED_EDGE('',*,*,#439,.T.);
#116=ORIENTED_EDGE('',*,*,#440,.F.);
#117=ORIENTED_EDGE('',*,*,#441,.F.);
#118=ORIENTED_EDGE('',*,*,#436,.T.);
#119=ORIENTED_EDGE('',*,*,#442,.T.);
#120=ORIENTED_EDGE('',*,*,#443,.F.);
#121=ORIENTED_EDGE('',*,*,#444,.F.);
#122=ORIENTED_EDGE('',*,*,#440,.T.);
#123=ORIENTED_EDGE('',*,*,#445,.T.);
#124=ORIENTED_EDGE('',*,*,#446,.F.);
#125=ORIENTED_EDGE('',*,*,#447,.F.);
#126=ORIENTED_EDGE('',*,*,#443,.T.);
#127=ORIENTED_EDGE('',*,*,#448,.T.);
#128=ORIENTED_EDGE('',*,*,#449,.F.);
#129=ORIENTED_EDGE('',*,*,#450,.F.);
#130=ORIENTED_EDGE('',*,*,#446,.T.);
#131=ORIENTED_EDGE('',*,*,#451,.T.);
#132=ORIENTED_EDGE('',*,*,#452,.F.);
#133=ORIENTED_EDGE('',*,*,#453,.F.);
#134=ORIENTED_EDGE('',*,*,#449,.T.);
#135=ORIENTED_EDGE('',*,*,#454,.T.);
#136=ORIENTED_EDGE('',*,*,#455,.F.);
#137=ORIENTED_EDGE('',*,*,#456,.F.);
#138=ORIENTED_EDGE('',*,*,#452,.T.);
#139=ORIENTED_EDGE('',*,*,#457,.T.);
#140=ORIENTED_EDGE('',*,*,#458,.F.);
#141=ORIENTED_EDGE('',*,*,#459,.F.);
#142=ORIENTED_EDGE('',*,*,#455,.T.);
#143=ORIENTED_EDGE('',*,*,#460,.T.);
#144=ORIENTED_EDGE('',*,*,#461,.F.);
#145=ORIENTED_EDGE('',*,*,#462,.F.);
#146=ORIENTED_EDGE('',*,*,#458,.T.);
#147=ORIENTED_EDGE('',*,*,#463,.T.);
#148=ORIENTED_EDGE('',*,*,#464,.F.);
#149=ORIENTED_EDGE('',*,*,#465,.F.);
#150=ORIENTED_EDGE('',*,*,#461,.T.);
#151=ORIENTED_EDGE('',*,*,#466,.T.);
#152=ORIENTED_EDGE('',*,*,#467,.F.);
#153=ORIENTED_EDGE('',*,*,#468,.F.);
#154=ORIENTED_EDGE('',*,*,#464,.T.);
#155=ORIENTED_EDGE('',*,*,#469,.T.);
#156=ORIENTED_EDGE('',*,*,#470,.F.);
#157=ORIENTED_EDGE('',*,*,#471,.F.);
#158=ORIENTED_EDGE('',*,*,#467,.T.);
#159=ORIENTED_EDGE('',*,*,#472,.T.);
#160=ORIENTED_EDGE('',*,*,#473,.F.);
#161=ORIENTED_EDGE('',*,*,#474,.F.);
#162=ORIENTED_EDGE('',*,*,#470,.T.);
#163=ORIENTED_EDGE('',*,*,#475,.T.);
#164=ORIENTED_EDGE('',*,*,#476,.F.);
#165=ORIENTED_EDGE('',*,*,#477,.F.);
#166=ORIENTED_EDGE('',*,*,#473,.T.);
#167=ORIENTED_EDGE('',*,*,#478,.T.);
#168=ORIENTED_EDGE('',*,*,#479,.F.);
#169=ORIENTED_EDGE('',*,*,#480,.F.);
#170=ORIENTED_EDGE('',*,*,#476,.T.);
#171=ORIENTED_EDGE('',*,*,#481,.F.);
#172=ORIENTED_EDGE('',*,*,#482,.F.);
#173=ORIENTED_EDGE('',*,*,#483,.T.);
#174=ORIENTED_EDGE('',*,*,#484,.T.);
#175=ORIENTED_EDGE('',*,*,#485,.F.);
#176=ORIENTED_EDGE('',*,*,#486,.F.);
#177=ORIENTED_EDGE('',*,*,#487,.T.);
#178=ORIENTED_EDGE('',*,*,#482,.T.);
#179=ORIENTED_EDGE('',*,*,#488,.F.);
#180=ORIENTED_EDGE('',*,*,#489,.F.);
#181=ORIENTED_EDGE('',*,*,#490,.T.);
#182=ORIENTED_EDGE('',*,*,#486,.T.);
#183=ORIENTED_EDGE('',*,*,#491,.F.);
#184=ORIENTED_EDGE('',*,*,#492,.F.);
#185=ORIENTED_EDGE('',*,*,#493,.T.);
#186=ORIENTED_EDGE('',*,*,#489,.T.);
#187=ORIENTED_EDGE('',*,*,#494,.F.);
#188=ORIENTED_EDGE('',*,*,#495,.F.);
#189=ORIENTED_EDGE('',*,*,#496,.T.);
#190=ORIENTED_EDGE('',*,*,#492,.T.);
#191=ORIENTED_EDGE('',*,*,#497,.F.);
#192=ORIENTED_EDGE('',*,*,#498,.F.);
#193=ORIENTED_EDGE('',*,*,#499,.T.);
#194=ORIENTED_EDGE('',*,*,#495,.T.);
#195=ORIENTED_EDGE('',*,*,#500,.F.);
#196=ORIENTED_EDGE('',*,*,#501,.F.);
#197=ORIENTED_EDGE('',*,*,#502,.T.);
#198=ORIENTED_EDGE('',*,*,#498,.T.);
#199=ORIENTED_EDGE('',*,*,#503,.F.);
#200=ORIENTED_EDGE('',*,*,#504,.F.);
#201=ORIENTED_EDGE('',*,*,#505,.T.);
#202=ORIENTED_EDGE('',*,*,#501,.T.);
#203=ORIENTED_EDGE('',*,*,#506,.F.);
#204=ORIENTED_EDGE('',*,*,#507,.F.);
#205=ORIENTED_EDGE('',*,*,#508,.T.);
#206=ORIENTED_EDGE('',*,*,#504,.T.);
#207=ORIENTED_EDGE('',*,*,#509,.F.);
#208=ORIENTED_EDGE('',*,*,#510,.F.);
#209=ORIENTED_EDGE('',*,*,#511,.T.);
#210=ORIENTED_EDGE('',*,*,#507,.T.);
#211=ORIENTED_EDGE('',*,*,#512,.F.);
#212=ORIENTED_EDGE('',*,*,#513,.F.);
#213=ORIENTED_EDGE('',*,*,#514,.T.);
#214=ORIENTED_EDGE('',*,*,#510,.T.);
#215=ORIENTED_EDGE('',*,*,#515,.F.);
#216=ORIENTED_EDGE('',*,*,#516,.F.);
#217=ORIENTED_EDGE('',*,*,#517,.T.);
#218=ORIENTED_EDGE('',*,*,#513,.T.);
#219=ORIENTED_EDGE('',*,*,#518,.F.);
#220=ORIENTED_EDGE('',*,*,#519,.F.);
#221=ORIENTED_EDGE('',*,*,#520,.T.);
#222=ORIENTED_EDGE('',*,*,#516,.T.);
#223=ORIENTED_EDGE('',*,*,#521,.F.);
#224=ORIENTED_EDGE('',*,*,#522,.F.);
#225=ORIENTED_EDGE('',*,*,#523,.T.);
#226=ORIENTED_EDGE('',*,*,#519,.T.);
#227=ORIENTED_EDGE('',*,*,#524,.F.);
#228=ORIENTED_EDGE('',*,*,#525,.F.);
#229=ORIENTED_EDGE('',*,*,#526,.T.);
#230=ORIENTED_EDGE('',*,*,#522,.T.);
#231=ORIENTED_EDGE('',*,*,#527,.F.);
#232=ORIENTED_EDGE('',*,*,#484,.F.);
#233=ORIENTED_EDGE('',*,*,#528,.T.);
#234=ORIENTED_EDGE('',*,*,#525,.T.);
#235=ORIENTED_EDGE('',*,*,#529,.T.);
#236=ORIENTED_EDGE('',*,*,#438,.F.);
#237=ORIENTED_EDGE('',*,*,#530,.F.);
#238=ORIENTED_EDGE('',*,*,#479,.T.);
#239=ORIENTED_EDGE('',*,*,#481,.T.);
#240=ORIENTED_EDGE('',*,*,#527,.T.);
#241=ORIENTED_EDGE('',*,*,#524,.T.);
#242=ORIENTED_EDGE('',*,*,#521,.T.);
#243=ORIENTED_EDGE('',*,*,#518,.T.);
#244=ORIENTED_EDGE('',*,*,#515,.T.);
#245=ORIENTED_EDGE('',*,*,#512,.T.);
#246=ORIENTED_EDGE('',*,*,#509,.T.);
#247=ORIENTED_EDGE('',*,*,#506,.T.);
#248=ORIENTED_EDGE('',*,*,#503,.T.);
#249=ORIENTED_EDGE('',*,*,#500,.T.);
#250=ORIENTED_EDGE('',*,*,#497,.T.);
#251=ORIENTED_EDGE('',*,*,#494,.T.);
#252=ORIENTED_EDGE('',*,*,#491,.T.);
#253=ORIENTED_EDGE('',*,*,#488,.T.);
#254=ORIENTED_EDGE('',*,*,#485,.T.);
#255=ORIENTED_EDGE('',*,*,#435,.F.);
#256=ORIENTED_EDGE('',*,*,#529,.F.);
#257=ORIENTED_EDGE('',*,*,#478,.F.);
#258=ORIENTED_EDGE('',*,*,#475,.F.);
#259=ORIENTED_EDGE('',*,*,#472,.F.);
#260=ORIENTED_EDGE('',*,*,#469,.F.);
#261=ORIENTED_EDGE('',*,*,#466,.F.);
#262=ORIENTED_EDGE('',*,*,#463,.F.);
#263=ORIENTED_EDGE('',*,*,#460,.F.);
#264=ORIENTED_EDGE('',*,*,#457,.F.);
#265=ORIENTED_EDGE('',*,*,#454,.F.);
#266=ORIENTED_EDGE('',*,*,#451,.F.);
#267=ORIENTED_EDGE('',*,*,#448,.F.);
#268=ORIENTED_EDGE('',*,*,#445,.F.);
#269=ORIENTED_EDGE('',*,*,#442,.F.);
#270=ORIENTED_EDGE('',*,*,#439,.F.);
#271=ORIENTED_EDGE('',*,*,#531,.F.);
#272=ORIENTED_EDGE('',*,*,#532,.F.);
#273=ORIENTED_EDGE('',*,*,#533,.F.);
#274=ORIENTED_EDGE('',*,*,#534,.F.);
#275=ORIENTED_EDGE('',*,*,#530,.T.);
#276=ORIENTED_EDGE('',*,*,#437,.T.);
#277=ORIENTED_EDGE('',*,*,#441,.T.);
#278=ORIENTED_EDGE('',*,*,#444,.T.);
#279=ORIENTED_EDGE('',*,*,#447,.T.);
#280=ORIENTED_EDGE('',*,*,#450,.T.);
#281=ORIENTED_EDGE('',*,*,#453,.T.);
#282=ORIENTED_EDGE('',*,*,#456,.T.);
#283=ORIENTED_EDGE('',*,*,#459,.T.);
#284=ORIENTED_EDGE('',*,*,#462,.T.);
#285=ORIENTED_EDGE('',*,*,#465,.T.);
#286=ORIENTED_EDGE('',*,*,#468,.T.);
#287=ORIENTED_EDGE('',*,*,#471,.T.);
#288=ORIENTED_EDGE('',*,*,#474,.T.);
#289=ORIENTED_EDGE('',*,*,#477,.T.);
#290=ORIENTED_EDGE('',*,*,#480,.T.);
#291=ORIENTED_EDGE('',*,*,#535,.F.);
#292=ORIENTED_EDGE('',*,*,#536,.F.);
#293=ORIENTED_EDGE('',*,*,#537,.F.);
#294=ORIENTED_EDGE('',*,*,#538,.F.);
#295=ORIENTED_EDGE('',*,*,#539,.F.);
#296=ORIENTED_EDGE('',*,*,#540,.F.);
#297=ORIENTED_EDGE('',*,*,#541,.F.);
#298=ORIENTED_EDGE('',*,*,#542,.F.);
#299=ORIENTED_EDGE('',*,*,#543,.F.);
#300=ORIENTED_EDGE('',*,*,#544,.F.);
#301=ORIENTED_EDGE('',*,*,#545,.F.);
#302=ORIENTED_EDGE('',*,*,#546,.F.);
#303=ORIENTED_EDGE('',*,*,#547,.F.);
#304=ORIENTED_EDGE('',*,*,#548,.F.);
#305=ORIENTED_EDGE('',*,*,#549,.F.);
#306=ORIENTED_EDGE('',*,*,#550,.F.);
#307=ORIENTED_EDGE('',*,*,#551,.F.);
#308=ORIENTED_EDGE('',*,*,#552,.F.);
#309=ORIENTED_EDGE('',*,*,#553,.F.);
#310=ORIENTED_EDGE('',*,*,#554,.F.);
#311=ORIENTED_EDGE('',*,*,#555,.F.);
#312=ORIENTED_EDGE('',*,*,#556,.F.);
#313=ORIENTED_EDGE('',*,*,#557,.F.);
#314=ORIENTED_EDGE('',*,*,#558,.F.);
#315=ORIENTED_EDGE('',*,*,#559,.F.);
#316=ORIENTED_EDGE('',*,*,#560,.T.);
#317=ORIENTED_EDGE('',*,*,#561,.T.);
#318=ORIENTED_EDGE('',*,*,#562,.T.);
#319=ORIENTED_EDGE('',*,*,#563,.T.);
#320=ORIENTED_EDGE('',*,*,#564,.T.);
#321=ORIENTED_EDGE('',*,*,#565,.T.);
#322=ORIENTED_EDGE('',*,*,#566,.T.);
#323=ORIENTED_EDGE('',*,*,#567,.T.);
#324=ORIENTED_EDGE('',*,*,#568,.T.);
#325=ORIENTED_EDGE('',*,*,#569,.T.);
#326=ORIENTED_EDGE('',*,*,#570,.T.);
#327=ORIENTED_EDGE('',*,*,#571,.T.);
#328=ORIENTED_EDGE('',*,*,#572,.T.);
#329=ORIENTED_EDGE('',*,*,#573,.T.);
#330=ORIENTED_EDGE('',*,*,#574,.T.);
#331=ORIENTED_EDGE('',*,*,#575,.T.);
#332=ORIENTED_EDGE('',*,*,#536,.T.);
#333=ORIENTED_EDGE('',*,*,#576,.F.);
#334=ORIENTED_EDGE('',*,*,#575,.F.);
#335=ORIENTED_EDGE('',*,*,#577,.T.);
#336=ORIENTED_EDGE('',*,*,#537,.T.);
#337=ORIENTED_EDGE('',*,*,#577,.F.);
#338=ORIENTED_EDGE('',*,*,#574,.F.);
#339=ORIENTED_EDGE('',*,*,#578,.T.);
#340=ORIENTED_EDGE('',*,*,#538,.T.);
#341=ORIENTED_EDGE('',*,*,#578,.F.);
#342=ORIENTED_EDGE('',*,*,#573,.F.);
#343=ORIENTED_EDGE('',*,*,#579,.T.);
#344=ORIENTED_EDGE('',*,*,#539,.T.);
#345=ORIENTED_EDGE('',*,*,#579,.F.);
#346=ORIENTED_EDGE('',*,*,#572,.F.);
#347=ORIENTED_EDGE('',*,*,#580,.T.);
#348=ORIENTED_EDGE('',*,*,#540,.T.);
#349=ORIENTED_EDGE('',*,*,#580,.F.);
#350=ORIENTED_EDGE('',*,*,#571,.F.);
#351=ORIENTED_EDGE('',*,*,#581,.T.);
#352=ORIENTED_EDGE('',*,*,#541,.T.);
#353=ORIENTED_EDGE('',*,*,#581,.F.);
#354=ORIENTED_EDGE('',*,*,#570,.F.);
#355=ORIENTED_EDGE('',*,*,#582,.T.);
#356=ORIENTED_EDGE('',*,*,#542,.T.);
#357=ORIENTED_EDGE('',*,*,#582,.F.);
#358=ORIENTED_EDGE('',*,*,#569,.F.);
#359=ORIENTED_EDGE('',*,*,#583,.T.);
#360=ORIENTED_EDGE('',*,*,#543,.T.);
#361=ORIENTED_EDGE('',*,*,#583,.F.);
#362=ORIENTED_EDGE('',*,*,#568,.F.);
#363=ORIENTED_EDGE('',*,*,#584,.T.);
#364=ORIENTED_EDGE('',*,*,#544,.T.);
#365=ORIENTED_EDGE('',*,*,#584,.F.);
#366=ORIENTED_EDGE('',*,*,#567,.F.);
#367=ORIENTED_EDGE('',*,*,#585,.T.);
#368=ORIENTED_EDGE('',*,*,#545,.T.);
#369=ORIENTED_EDGE('',*,*,#585,.F.);
#370=ORIENTED_EDGE('',*,*,#566,.F.);
#371=ORIENTED_EDGE('',*,*,#586,.T.);
#372=ORIENTED_EDGE('',*,*,#546,.T.);
#373=ORIENTED_EDGE('',*,*,#586,.F.);
#374=ORIENTED_EDGE('',*,*,#565,.F.);
#375=ORIENTED_EDGE('',*,*,#587,.T.);
#376=ORIENTED_EDGE('',*,*,#547,.T.);
#377=ORIENTED_EDGE('',*,*,#587,.F.);
#378=ORIENTED_EDGE('',*,*,#564,.F.);
#379=ORIENTED_EDGE('',*,*,#588,.T.);
#380=ORIENTED_EDGE('',*,*,#548,.T.);
#381=ORIENTED_EDGE('',*,*,#588,.F.);
#382=ORIENTED_EDGE('',*,*,#563,.F.);
#383=ORIENTED_EDGE('',*,*,#589,.T.);
#384=ORIENTED_EDGE('',*,*,#549,.T.);
#385=ORIENTED_EDGE('',*,*,#589,.F.);
#386=ORIENTED_EDGE('',*,*,#562,.F.);
#387=ORIENTED_EDGE('',*,*,#590,.T.);
#388=ORIENTED_EDGE('',*,*,#550,.T.);
#389=ORIENTED_EDGE('',*,*,#590,.F.);
#390=ORIENTED_EDGE('',*,*,#561,.F.);
#391=ORIENTED_EDGE('',*,*,#591,.T.);
#392=ORIENTED_EDGE('',*,*,#535,.T.);
#393=ORIENTED_EDGE('',*,*,#591,.F.);
#394=ORIENTED_EDGE('',*,*,#560,.F.);
#395=ORIENTED_EDGE('',*,*,#576,.T.);
#396=ORIENTED_EDGE('',*,*,#592,.T.);
#397=ORIENTED_EDGE('',*,*,#593,.T.);
#398=ORIENTED_EDGE('',*,*,#594,.T.);
#399=ORIENTED_EDGE('',*,*,#595,.T.);
#400=ORIENTED_EDGE('',*,*,#596,.F.);
#401=ORIENTED_EDGE('',*,*,#483,.F.);
#402=ORIENTED_EDGE('',*,*,#487,.F.);
#403=ORIENTED_EDGE('',*,*,#490,.F.);
#404=ORIENTED_EDGE('',*,*,#493,.F.);
#405=ORIENTED_EDGE('',*,*,#496,.F.);
#406=ORIENTED_EDGE('',*,*,#499,.F.);
#407=ORIENTED_EDGE('',*,*,#502,.F.);
#408=ORIENTED_EDGE('',*,*,#505,.F.);
#409=ORIENTED_EDGE('',*,*,#508,.F.);
#410=ORIENTED_EDGE('',*,*,#511,.F.);
#411=ORIENTED_EDGE('',*,*,#514,.F.);
#412=ORIENTED_EDGE('',*,*,#517,.F.);
#413=ORIENTED_EDGE('',*,*,#520,.F.);
#414=ORIENTED_EDGE('',*,*,#523,.F.);
#415=ORIENTED_EDGE('',*,*,#526,.F.);
#416=ORIENTED_EDGE('',*,*,#528,.F.);
#417=ORIENTED_EDGE('',*,*,#559,.T.);
#418=ORIENTED_EDGE('',*,*,#534,.T.);
#419=ORIENTED_EDGE('',*,*,#558,.T.);
#420=ORIENTED_EDGE('',*,*,#533,.T.);
#421=ORIENTED_EDGE('',*,*,#557,.T.);
#422=ORIENTED_EDGE('',*,*,#532,.T.);
#423=ORIENTED_EDGE('',*,*,#556,.T.);
#424=ORIENTED_EDGE('',*,*,#596,.T.);
#425=ORIENTED_EDGE('',*,*,#555,.T.);
#426=ORIENTED_EDGE('',*,*,#531,.T.);
#427=ORIENTED_EDGE('',*,*,#595,.F.);
#428=ORIENTED_EDGE('',*,*,#554,.T.);
#429=ORIENTED_EDGE('',*,*,#594,.F.);
#430=ORIENTED_EDGE('',*,*,#553,.T.);
#431=ORIENTED_EDGE('',*,*,#593,.F.);
#432=ORIENTED_EDGE('',*,*,#552,.T.);
#433=ORIENTED_EDGE('',*,*,#592,.F.);
#434=ORIENTED_EDGE('',*,*,#551,.T.);
#435=EDGE_CURVE('',#597,#598,#711,.T.);
#436=EDGE_CURVE('',#599,#598,#712,.T.);
#437=EDGE_CURVE('',#600,#599,#713,.T.);
#438=EDGE_CURVE('',#600,#597,#714,.T.);
#439=EDGE_CURVE('',#598,#601,#12,.T.);
#440=EDGE_CURVE('',#602,#601,#715,.T.);
#441=EDGE_CURVE('',#599,#602,#13,.T.);
#442=EDGE_CURVE('',#601,#603,#716,.T.);
#443=EDGE_CURVE('',#604,#603,#717,.T.);
#444=EDGE_CURVE('',#602,#604,#718,.T.);
#445=EDGE_CURVE('',#603,#605,#14,.T.);
#446=EDGE_CURVE('',#606,#605,#719,.T.);
#447=EDGE_CURVE('',#604,#606,#15,.T.);
#448=EDGE_CURVE('',#605,#607,#720,.T.);
#449=EDGE_CURVE('',#608,#607,#721,.T.);
#450=EDGE_CURVE('',#606,#608,#722,.T.);
#451=EDGE_CURVE('',#607,#609,#16,.T.);
#452=EDGE_CURVE('',#610,#609,#723,.T.);
#453=EDGE_CURVE('',#608,#610,#17,.T.);
#454=EDGE_CURVE('',#609,#611,#724,.T.);
#455=EDGE_CURVE('',#612,#611,#725,.T.);
#456=EDGE_CURVE('',#610,#612,#726,.T.);
#457=EDGE_CURVE('',#611,#613,#18,.T.);
#458=EDGE_CURVE('',#614,#613,#727,.T.);
#459=EDGE_CURVE('',#612,#614,#19,.T.);
#460=EDGE_CURVE('',#613,#615,#728,.T.);
#461=EDGE_CURVE('',#616,#615,#729,.T.);
#462=EDGE_CURVE('',#614,#616,#730,.T.);
#463=EDGE_CURVE('',#615,#617,#20,.T.);
#464=EDGE_CURVE('',#618,#617,#731,.T.);
#465=EDGE_CURVE('',#616,#618,#21,.T.);
#466=EDGE_CURVE('',#617,#619,#732,.T.);
#467=EDGE_CURVE('',#620,#619,#733,.T.);
#468=EDGE_CURVE('',#618,#620,#734,.T.);
#469=EDGE_CURVE('',#619,#621,#22,.T.);
#470=EDGE_CURVE('',#622,#621,#735,.T.);
#471=EDGE_CURVE('',#620,#622,#23,.T.);
#472=EDGE_CURVE('',#621,#623,#736,.T.);
#473=EDGE_CURVE('',#624,#623,#737,.T.);
#474=EDGE_CURVE('',#622,#624,#738,.T.);
#475=EDGE_CURVE('',#623,#625,#24,.T.);
#476=EDGE_CURVE('',#626,#625,#739,.T.);
#477=EDGE_CURVE('',#624,#626,#25,.T.);
#478=EDGE_CURVE('',#625,#627,#740,.T.);
#479=EDGE_CURVE('',#628,#627,#741,.T.);
#480=EDGE_CURVE('',#626,#628,#742,.T.);
#481=EDGE_CURVE('',#629,#630,#26,.T.);
#482=EDGE_CURVE('',#631,#629,#743,.T.);
#483=EDGE_CURVE('',#631,#632,#27,.T.);
#484=EDGE_CURVE('',#632,#630,#744,.T.);
#485=EDGE_CURVE('',#633,#629,#745,.T.);
#486=EDGE_CURVE('',#634,#633,#746,.T.);
#487=EDGE_CURVE('',#634,#631,#747,.T.);
#488=EDGE_CURVE('',#635,#633,#28,.T.);
#489=EDGE_CURVE('',#636,#635,#748,.T.);
#490=EDGE_CURVE('',#636,#634,#29,.T.);
#491=EDGE_CURVE('',#637,#635,#749,.T.);
#492=EDGE_CURVE('',#638,#637,#750,.T.);
#493=EDGE_CURVE('',#638,#636,#751,.T.);
#494=EDGE_CURVE('',#639,#637,#30,.T.);
#495=EDGE_CURVE('',#640,#639,#752,.T.);
#496=EDGE_CURVE('',#640,#638,#31,.T.);
#497=EDGE_CURVE('',#641,#639,#753,.T.);
#498=EDGE_CURVE('',#642,#641,#754,.T.);
#499=EDGE_CURVE('',#642,#640,#755,.T.);
#500=EDGE_CURVE('',#643,#641,#32,.T.);
#501=EDGE_CURVE('',#644,#643,#756,.T.);
#502=EDGE_CURVE('',#644,#642,#33,.T.);
#503=EDGE_CURVE('',#645,#643,#757,.T.);
#504=EDGE_CURVE('',#646,#645,#758,.T.);
#505=EDGE_CURVE('',#646,#644,#759,.T.);
#506=EDGE_CURVE('',#647,#645,#34,.T.);
#507=EDGE_CURVE('',#648,#647,#760,.T.);
#508=EDGE_CURVE('',#648,#646,#35,.T.);
#509=EDGE_CURVE('',#649,#647,#761,.T.);
#510=EDGE_CURVE('',#650,#649,#762,.T.);
#511=EDGE_CURVE('',#650,#648,#763,.T.);
#512=EDGE_CURVE('',#651,#649,#36,.T.);
#513=EDGE_CURVE('',#652,#651,#764,.T.);
#514=EDGE_CURVE('',#652,#650,#37,.T.);
#515=EDGE_CURVE('',#653,#651,#765,.T.);
#516=EDGE_CURVE('',#654,#653,#766,.T.);
#517=EDGE_CURVE('',#654,#652,#767,.T.);
#518=EDGE_CURVE('',#655,#653,#38,.T.);
#519=EDGE_CURVE('',#656,#655,#768,.T.);
#520=EDGE_CURVE('',#656,#654,#39,.T.);
#521=EDGE_CURVE('',#657,#655,#769,.T.);
#522=EDGE_CURVE('',#658,#657,#770,.T.);
#523=EDGE_CURVE('',#658,#656,#771,.T.);
#524=EDGE_CURVE('',#659,#657,#40,.T.);
#525=EDGE_CURVE('',#660,#659,#772,.T.);
#526=EDGE_CURVE('',#660,#658,#41,.T.);
#527=EDGE_CURVE('',#630,#659,#773,.T.);
#528=EDGE_CURVE('',#632,#660,#774,.T.);
#529=EDGE_CURVE('',#627,#597,#42,.T.);
#530=EDGE_CURVE('',#628,#600,#43,.T.);
#531=EDGE_CURVE('',#661,#661,#44,.T.);
#532=EDGE_CURVE('',#662,#662,#45,.T.);
#533=EDGE_CURVE('',#663,#663,#46,.T.);
#534=EDGE_CURVE('',#664,#664,#47,.T.);
#535=EDGE_CURVE('',#665,#666,#775,.T.);
#536=EDGE_CURVE('',#667,#665,#48,.T.);
#537=EDGE_CURVE('',#668,#667,#776,.T.);
#538=EDGE_CURVE('',#669,#668,#49,.T.);
#539=EDGE_CURVE('',#670,#669,#777,.T.);
#540=EDGE_CURVE('',#671,#670,#50,.T.);
#541=EDGE_CURVE('',#672,#671,#778,.T.);
#542=EDGE_CURVE('',#673,#672,#51,.T.);
#543=EDGE_CURVE('',#674,#673,#779,.T.);
#544=EDGE_CURVE('',#675,#674,#52,.T.);
#545=EDGE_CURVE('',#676,#675,#780,.T.);
#546=EDGE_CURVE('',#677,#676,#53,.T.);
#547=EDGE_CURVE('',#678,#677,#781,.T.);
#548=EDGE_CURVE('',#679,#678,#54,.T.);
#549=EDGE_CURVE('',#680,#679,#782,.T.);
#550=EDGE_CURVE('',#666,#680,#55,.T.);
#551=EDGE_CURVE('',#681,#681,#56,.T.);
#552=EDGE_CURVE('',#682,#682,#57,.T.);
#553=EDGE_CURVE('',#683,#683,#58,.T.);
#554=EDGE_CURVE('',#684,#684,#59,.T.);
#555=EDGE_CURVE('',#685,#685,#60,.T.);
#556=EDGE_CURVE('',#686,#686,#61,.T.);
#557=EDGE_CURVE('',#687,#687,#62,.T.);
#558=EDGE_CURVE('',#688,#688,#63,.T.);
#559=EDGE_CURVE('',#689,#689,#64,.T.);
#560=EDGE_CURVE('',#690,#691,#783,.T.);
#561=EDGE_CURVE('',#691,#692,#65,.T.);
#562=EDGE_CURVE('',#692,#693,#784,.T.);
#563=EDGE_CURVE('',#693,#694,#66,.T.);
#564=EDGE_CURVE('',#694,#695,#785,.T.);
#565=EDGE_CURVE('',#695,#696,#67,.T.);
#566=EDGE_CURVE('',#696,#697,#786,.T.);
#567=EDGE_CURVE('',#697,#698,#68,.T.);
#568=EDGE_CURVE('',#698,#699,#787,.T.);
#569=EDGE_CURVE('',#699,#700,#69,.T.);
#570=EDGE_CURVE('',#700,#701,#788,.T.);
#571=EDGE_CURVE('',#701,#702,#70,.T.);
#572=EDGE_CURVE('',#702,#703,#789,.T.);
#573=EDGE_CURVE('',#703,#704,#71,.T.);
#574=EDGE_CURVE('',#704,#705,#790,.T.);
#575=EDGE_CURVE('',#705,#690,#72,.T.);
#576=EDGE_CURVE('',#690,#665,#791,.T.);
#577=EDGE_CURVE('',#705,#667,#792,.T.);
#578=EDGE_CURVE('',#704,#668,#793,.T.);
#579=EDGE_CURVE('',#703,#669,#794,.T.);
#580=EDGE_CURVE('',#702,#670,#795,.T.);
#581=EDGE_CURVE('',#701,#671,#796,.T.);
#582=EDGE_CURVE('',#700,#672,#797,.T.);
#583=EDGE_CURVE('',#699,#673,#798,.T.);
#584=EDGE_CURVE('',#698,#674,#799,.T.);
#585=EDGE_CURVE('',#697,#675,#800,.T.);
#586=EDGE_CURVE('',#696,#676,#801,.T.);
#587=EDGE_CURVE('',#695,#677,#802,.T.);
#588=EDGE_CURVE('',#694,#678,#803,.T.);
#589=EDGE_CURVE('',#693,#679,#804,.T.);
#590=EDGE_CURVE('',#692,#680,#805,.T.);
#591=EDGE_CURVE('',#691,#666,#806,.T.);
#592=EDGE_CURVE('',#706,#706,#73,.T.);
#593=EDGE_CURVE('',#707,#707,#74,.T.);
#594=EDGE_CURVE('',#708,#708,#75,.T.);
#595=EDGE_CURVE('',#709,#709,#76,.T.);
#596=EDGE_CURVE('',#710,#710,#77,.T.);
#597=VERTEX_POINT('',#1667);
#598=VERTEX_POINT('',#1668);
#599=VERTEX_POINT('',#1670);
#600=VERTEX_POINT('',#1672);
#601=VERTEX_POINT('',#1676);
#602=VERTEX_POINT('',#1678);
#603=VERTEX_POINT('',#1682);
#604=VERTEX_POINT('',#1684);
#605=VERTEX_POINT('',#1688);
#606=VERTEX_POINT('',#1690);
#607=VERTEX_POINT('',#1694);
#608=VERTEX_POINT('',#1696);
#609=VERTEX_POINT('',#1700);
#610=VERTEX_POINT('',#1702);
#611=VERTEX_POINT('',#1706);
#612=VERTEX_POINT('',#1708);
#613=VERTEX_POINT('',#1712);
#614=VERTEX_POINT('',#1714);
#615=VERTEX_POINT('',#1718);
#616=VERTEX_POINT('',#1720);
#617=VERTEX_POINT('',#1724);
#618=VERTEX_POINT('',#1726);
#619=VERTEX_POINT('',#1730);
#620=VERTEX_POINT('',#1732);
#621=VERTEX_POINT('',#1736);
#622=VERTEX_POINT('',#1738);
#623=VERTEX_POINT('',#1742);
#624=VERTEX_POINT('',#1744);
#625=VERTEX_POINT('',#1748);
#626=VERTEX_POINT('',#1750);
#627=VERTEX_POINT('',#1754);
#628=VERTEX_POINT('',#1756);
#629=VERTEX_POINT('',#1760);
#630=VERTEX_POINT('',#1761);
#631=VERTEX_POINT('',#1763);
#632=VERTEX_POINT('',#1765);
#633=VERTEX_POINT('',#1769);
#634=VERTEX_POINT('',#1771);
#635=VERTEX_POINT('',#1775);
#636=VERTEX_POINT('',#1777);
#637=VERTEX_POINT('',#1781);
#638=VERTEX_POINT('',#1783);
#639=VERTEX_POINT('',#1787);
#640=VERTEX_POINT('',#1789);
#641=VERTEX_POINT('',#1793);
#642=VERTEX_POINT('',#1795);
#643=VERTEX_POINT('',#1799);
#644=VERTEX_POINT('',#1801);
#645=VERTEX_POINT('',#1805);
#646=VERTEX_POINT('',#1807);
#647=VERTEX_POINT('',#1811);
#648=VERTEX_POINT('',#1813);
#649=VERTEX_POINT('',#1817);
#650=VERTEX_POINT('',#1819);
#651=VERTEX_POINT('',#1823);
#652=VERTEX_POINT('',#1825);
#653=VERTEX_POINT('',#1829);
#654=VERTEX_POINT('',#1831);
#655=VERTEX_POINT('',#1835);
#656=VERTEX_POINT('',#1837);
#657=VERTEX_POINT('',#1841);
#658=VERTEX_POINT('',#1843);
#659=VERTEX_POINT('',#1847);
#660=VERTEX_POINT('',#1849);
#661=VERTEX_POINT('',#1860);
#662=VERTEX_POINT('',#1862);
#663=VERTEX_POINT('',#1864);
#664=VERTEX_POINT('',#1866);
#665=VERTEX_POINT('',#1868);
#666=VERTEX_POINT('',#1869);
#667=VERTEX_POINT('',#1871);
#668=VERTEX_POINT('',#1873);
#669=VERTEX_POINT('',#1875);
#670=VERTEX_POINT('',#1877);
#671=VERTEX_POINT('',#1879);
#672=VERTEX_POINT('',#1881);
#673=VERTEX_POINT('',#1883);
#674=VERTEX_POINT('',#1885);
#675=VERTEX_POINT('',#1887);
#676=VERTEX_POINT('',#1889);
#677=VERTEX_POINT('',#1891);
#678=VERTEX_POINT('',#1893);
#679=VERTEX_POINT('',#1895);
#680=VERTEX_POINT('',#1897);
#681=VERTEX_POINT('',#1901);
#682=VERTEX_POINT('',#1903);
#683=VERTEX_POINT('',#1905);
#684=VERTEX_POINT('',#1907);
#685=VERTEX_POINT('',#1909);
#686=VERTEX_POINT('',#1911);
#687=VERTEX_POINT('',#1913);
#688=VERTEX_POINT('',#1915);
#689=VERTEX_POINT('',#1917);
#690=VERTEX_POINT('',#1919);
#691=VERTEX_POINT('',#1920);
#692=VERTEX_POINT('',#1922);
#693=VERTEX_POINT('',#1924);
#694=VERTEX_POINT('',#1926);
#695=VERTEX_POINT('',#1928);
#696=VERTEX_POINT('',#1930);
#697=VERTEX_POINT('',#1932);
#698=VERTEX_POINT('',#1934);
#699=VERTEX_POINT('',#1936);
#700=VERTEX_POINT('',#1938);
#701=VERTEX_POINT('',#1940);
#702=VERTEX_POINT('',#1942);
#703=VERTEX_POINT('',#1944);
#704=VERTEX_POINT('',#1946);
#705=VERTEX_POINT('',#1948);
#706=VERTEX_POINT('',#1984);
#707=VERTEX_POINT('',#1986);
#708=VERTEX_POINT('',#1988);
#709=VERTEX_POINT('',#1990);
#710=VERTEX_POINT('',#1992);
#711=LINE('',#1666,#807);
#712=LINE('',#1669,#808);
#713=LINE('',#1671,#809);
#714=LINE('',#1673,#810);
#715=LINE('',#1677,#811);
#716=LINE('',#1681,#812);
#717=LINE('',#1683,#813);
#718=LINE('',#1685,#814);
#719=LINE('',#1689,#815);
#720=LINE('',#1693,#816);
#721=LINE('',#1695,#817);
#722=LINE('',#1697,#818);
#723=LINE('',#1701,#819);
#724=LINE('',#1705,#820);
#725=LINE('',#1707,#821);
#726=LINE('',#1709,#822);
#727=LINE('',#1713,#823);
#728=LINE('',#1717,#824);
#729=LINE('',#1719,#825);
#730=LINE('',#1721,#826);
#731=LINE('',#1725,#827);
#732=LINE('',#1729,#828);
#733=LINE('',#1731,#829);
#734=LINE('',#1733,#830);
#735=LINE('',#1737,#831);
#736=LINE('',#1741,#832);
#737=LINE('',#1743,#833);
#738=LINE('',#1745,#834);
#739=LINE('',#1749,#835);
#740=LINE('',#1753,#836);
#741=LINE('',#1755,#837);
#742=LINE('',#1757,#838);
#743=LINE('',#1762,#839);
#744=LINE('',#1766,#840);
#745=LINE('',#1768,#841);
#746=LINE('',#1770,#842);
#747=LINE('',#1772,#843);
#748=LINE('',#1776,#844);
#749=LINE('',#1780,#845);
#750=LINE('',#1782,#846);
#751=LINE('',#1784,#847);
#752=LINE('',#1788,#848);
#753=LINE('',#1792,#849);
#754=LINE('',#1794,#850);
#755=LINE('',#1796,#851);
#756=LINE('',#1800,#852);
#757=LINE('',#1804,#853);
#758=LINE('',#1806,#854);
#759=LINE('',#1808,#855);
#760=LINE('',#1812,#856);
#761=LINE('',#1816,#857);
#762=LINE('',#1818,#858);
#763=LINE('',#1820,#859);
#764=LINE('',#1824,#860);
#765=LINE('',#1828,#861);
#766=LINE('',#1830,#862);
#767=LINE('',#1832,#863);
#768=LINE('',#1836,#864);
#769=LINE('',#1840,#865);
#770=LINE('',#1842,#866);
#771=LINE('',#1844,#867);
#772=LINE('',#1848,#868);
#773=LINE('',#1852,#869);
#774=LINE('',#1853,#870);
#775=LINE('',#1867,#871);
#776=LINE('',#1872,#872);
#777=LINE('',#1876,#873);
#778=LINE('',#1880,#874);
#779=LINE('',#1884,#875);
#780=LINE('',#1888,#876);
#781=LINE('',#1892,#877);
#782=LINE('',#1896,#878);
#783=LINE('',#1918,#879);
#784=LINE('',#1923,#880);
#785=LINE('',#1927,#881);
#786=LINE('',#1931,#882);
#787=LINE('',#1935,#883);
#788=LINE('',#1939,#884);
#789=LINE('',#1943,#885);
#790=LINE('',#1947,#886);
#791=LINE('',#1951,#887);
#792=LINE('',#1952,#888);
#793=LINE('',#1954,#889);
#794=LINE('',#1956,#890);
#795=LINE('',#1958,#891);
#796=LINE('',#1960,#892);
#797=LINE('',#1962,#893);
#798=LINE('',#1964,#894);
#799=LINE('',#1966,#895);
#800=LINE('',#1968,#896);
#801=LINE('',#1970,#897);
#802=LINE('',#1972,#898);
#803=LINE('',#1974,#899);
#804=LINE('',#1976,#900);
#805=LINE('',#1978,#901);
#806=LINE('',#1980,#902);
#807=VECTOR('',#1316,1.);
#808=VECTOR('',#1317,1.);
#809=VECTOR('',#1318,1.);
#810=VECTOR('',#1319,1.);
#811=VECTOR('',#1324,1.);
#812=VECTOR('',#1329,1.);
#813=VECTOR('',#1330,1.);
#814=VECTOR('',#1331,1.);
#815=VECTOR('',#1336,1.);
#816=VECTOR('',#1341,1.);
#817=VECTOR('',#1342,1.);
#818=VECTOR('',#1343,1.);
#819=VECTOR('',#1348,1.);
#820=VECTOR('',#1353,1.);
#821=VECTOR('',#1354,1.);
#822=VECTOR('',#1355,1.);
#823=VECTOR('',#1360,1.);
#824=VECTOR('',#1365,1.);
#825=VECTOR('',#1366,1.);
#826=VECTOR('',#1367,1.);
#827=VECTOR('',#1372,1.);
#828=VECTOR('',#1377,1.);
#829=VECTOR('',#1378,1.);
#830=VECTOR('',#1379,1.);
#831=VECTOR('',#1384,1.);
#832=VECTOR('',#1389,1.);
#833=VECTOR('',#1390,1.);
#834=VECTOR('',#1391,1.);
#835=VECTOR('',#1396,1.);
#836=VECTOR('',#1401,1.);
#837=VECTOR('',#1402,1.);
#838=VECTOR('',#1403,1.);
#839=VECTOR('',#1408,1.);
#840=VECTOR('',#1411,1.);
#841=VECTOR('',#1414,1.);
#842=VECTOR('',#1415,1.);
#843=VECTOR('',#1416,1.);
#844=VECTOR('',#1421,1.);
#845=VECTOR('',#1426,1.);
#846=VECTOR('',#1427,1.);
#847=VECTOR('',#1428,1.);
#848=VECTOR('',#1433,1.);
#849=VECTOR('',#1438,1.);
#850=VECTOR('',#1439,1.);
#851=VECTOR('',#1440,1.);
#852=VECTOR('',#1445,1.);
#853=VECTOR('',#1450,1.);
#854=VECTOR('',#1451,1.);
#855=VECTOR('',#1452,1.);
#856=VECTOR('',#1457,1.);
#857=VECTOR('',#1462,1.);
#858=VECTOR('',#1463,1.);
#859=VECTOR('',#1464,1.);
#860=VECTOR('',#1469,1.);
#861=VECTOR('',#1474,1.);
#862=VECTOR('',#1475,1.);
#863=VECTOR('',#1476,1.);
#864=VECTOR('',#1481,1.);
#865=VECTOR('',#1486,1.);
#866=VECTOR('',#1487,1.);
#867=VECTOR('',#1488,1.);
#868=VECTOR('',#1493,1.);
#869=VECTOR('',#1498,1.);
#870=VECTOR('',#1499,1.);
#871=VECTOR('',#1518,1.);
#872=VECTOR('',#1521,1.);
#873=VECTOR('',#1524,1.);
#874=VECTOR('',#1527,1.);
#875=VECTOR('',#1530,1.);
#876=VECTOR('',#1533,1.);
#877=VECTOR('',#1536,1.);
#878=VECTOR('',#1539,1.);
#879=VECTOR('',#1562,1.);
#880=VECTOR('',#1565,1.);
#881=VECTOR('',#1568,1.);
#882=VECTOR('',#1571,1.);
#883=VECTOR('',#1574,1.);
#884=VECTOR('',#1577,1.);
#885=VECTOR('',#1580,1.);
#886=VECTOR('',#1583,1.);
#887=VECTOR('',#1588,1.);
#888=VECTOR('',#1589,1.);
#889=VECTOR('',#1592,1.);
#890=VECTOR('',#1595,1.);
#891=VECTOR('',#1598,1.);
#892=VECTOR('',#1601,1.);
#893=VECTOR('',#1604,1.);
#894=VECTOR('',#1607,1.);
#895=VECTOR('',#1610,1.);
#896=VECTOR('',#1613,1.);
#897=VECTOR('',#1616,1.);
#898=VECTOR('',#1619,1.);
#899=VECTOR('',#1622,1.);
#900=VECTOR('',#1625,1.);
#901=VECTOR('',#1628,1.);
#902=VECTOR('',#1631,1.);
#903=EDGE_LOOP('',(#111,#112,#113,#114));
#904=EDGE_LOOP('',(#115,#116,#117,#118));
#905=EDGE_LOOP('',(#119,#120,#121,#122));
#906=EDGE_LOOP('',(#123,#124,#125,#126));
#907=EDGE_LOOP('',(#127,#128,#129,#130));
#908=EDGE_LOOP('',(#131,#132,#133,#134));
#909=EDGE_LOOP('',(#135,#136,#137,#138));
#910=EDGE_LOOP('',(#139,#140,#141,#142));
#911=EDGE_LOOP('',(#143,#144,#145,#146));
#912=EDGE_LOOP('',(#147,#148,#149,#150));
#913=EDGE_LOOP('',(#151,#152,#153,#154));
#914=EDGE_LOOP('',(#155,#156,#157,#158));
#915=EDGE_LOOP('',(#159,#160,#161,#162));
#916=EDGE_LOOP('',(#163,#164,#165,#166));
#917=EDGE_LOOP('',(#167,#168,#169,#170));
#918=EDGE_LOOP('',(#171,#172,#173,#174));
#919=EDGE_LOOP('',(#175,#176,#177,#178));
#920=EDGE_LOOP('',(#179,#180,#181,#182));
#921=EDGE_LOOP('',(#183,#184,#185,#186));
#922=EDGE_LOOP('',(#187,#188,#189,#190));
#923=EDGE_LOOP('',(#191,#192,#193,#194));
#924=EDGE_LOOP('',(#195,#196,#197,#198));
#925=EDGE_LOOP('',(#199,#200,#201,#202));
#926=EDGE_LOOP('',(#203,#204,#205,#206));
#927=EDGE_LOOP('',(#207,#208,#209,#210));
#928=EDGE_LOOP('',(#211,#212,#213,#214));
#929=EDGE_LOOP('',(#215,#216,#217,#218));
#930=EDGE_LOOP('',(#219,#220,#221,#222));
#931=EDGE_LOOP('',(#223,#224,#225,#226));
#932=EDGE_LOOP('',(#227,#228,#229,#230));
#933=EDGE_LOOP('',(#231,#232,#233,#234));
#934=EDGE_LOOP('',(#235,#236,#237,#238));
#935=EDGE_LOOP('',(#239,#240,#241,#242,#243,#244,#245,#246,#247,#248,#249,
#250,#251,#252,#253,#254));
#936=EDGE_LOOP('',(#255,#256,#257,#258,#259,#260,#261,#262,#263,#264,#265,
#266,#267,#268,#269,#270));
#937=EDGE_LOOP('',(#271));
#938=EDGE_LOOP('',(#272));
#939=EDGE_LOOP('',(#273));
#940=EDGE_LOOP('',(#274));
#941=EDGE_LOOP('',(#275,#276,#277,#278,#279,#280,#281,#282,#283,#284,#285,
#286,#287,#288,#289,#290));
#942=EDGE_LOOP('',(#291,#292,#293,#294,#295,#296,#297,#298,#299,#300,#301,
#302,#303,#304,#305,#306));
#943=EDGE_LOOP('',(#307));
#944=EDGE_LOOP('',(#308));
#945=EDGE_LOOP('',(#309));
#946=EDGE_LOOP('',(#310));
#947=EDGE_LOOP('',(#311));
#948=EDGE_LOOP('',(#312));
#949=EDGE_LOOP('',(#313));
#950=EDGE_LOOP('',(#314));
#951=EDGE_LOOP('',(#315));
#952=EDGE_LOOP('',(#316,#317,#318,#319,#320,#321,#322,#323,#324,#325,#326,
#327,#328,#329,#330,#331));
#953=EDGE_LOOP('',(#332,#333,#334,#335));
#954=EDGE_LOOP('',(#336,#337,#338,#339));
#955=EDGE_LOOP('',(#340,#341,#342,#343));
#956=EDGE_LOOP('',(#344,#345,#346,#347));
#957=EDGE_LOOP('',(#348,#349,#350,#351));
#958=EDGE_LOOP('',(#352,#353,#354,#355));
#959=EDGE_LOOP('',(#356,#357,#358,#359));
#960=EDGE_LOOP('',(#360,#361,#362,#363));
#961=EDGE_LOOP('',(#364,#365,#366,#367));
#962=EDGE_LOOP('',(#368,#369,#370,#371));
#963=EDGE_LOOP('',(#372,#373,#374,#375));
#964=EDGE_LOOP('',(#376,#377,#378,#379));
#965=EDGE_LOOP('',(#380,#381,#382,#383));
#966=EDGE_LOOP('',(#384,#385,#386,#387));
#967=EDGE_LOOP('',(#388,#389,#390,#391));
#968=EDGE_LOOP('',(#392,#393,#394,#395));
#969=EDGE_LOOP('',(#396));
#970=EDGE_LOOP('',(#397));
#971=EDGE_LOOP('',(#398));
#972=EDGE_LOOP('',(#399));
#973=EDGE_LOOP('',(#400));
#974=EDGE_LOOP('',(#401,#402,#403,#404,#405,#406,#407,#408,#409,#410,#411,
#412,#413,#414,#415,#416));
#975=EDGE_LOOP('',(#417));
#976=EDGE_LOOP('',(#418));
#977=EDGE_LOOP('',(#419));
#978=EDGE_LOOP('',(#420));
#979=EDGE_LOOP('',(#421));
#980=EDGE_LOOP('',(#422));
#981=EDGE_LOOP('',(#423));
#982=EDGE_LOOP('',(#424));
#983=EDGE_LOOP('',(#425));
#984=EDGE_LOOP('',(#426));
#985=EDGE_LOOP('',(#427));
#986=EDGE_LOOP('',(#428));
#987=EDGE_LOOP('',(#429));
#988=EDGE_LOOP('',(#430));
#989=EDGE_LOOP('',(#431));
#990=EDGE_LOOP('',(#432));
#991=EDGE_LOOP('',(#433));
#992=EDGE_LOOP('',(#434));
#993=FACE_BOUND('',#903,.T.);
#994=FACE_BOUND('',#904,.T.);
#995=FACE_BOUND('',#905,.T.);
#996=FACE_BOUND('',#906,.T.);
#997=FACE_BOUND('',#907,.T.);
#998=FACE_BOUND('',#908,.T.);
#999=FACE_BOUND('',#909,.T.);
#1000=FACE_BOUND('',#910,.T.);
#1001=FACE_BOUND('',#911,.T.);
#1002=FACE_BOUND('',#912,.T.);
#1003=FACE_BOUND('',#913,.T.);
#1004=FACE_BOUND('',#914,.T.);
#1005=FACE_BOUND('',#915,.T.);
#1006=FACE_BOUND('',#916,.T.);
#1007=FACE_BOUND('',#917,.T.);
#1008=FACE_BOUND('',#918,.T.);
#1009=FACE_BOUND('',#919,.T.);
#1010=FACE_BOUND('',#920,.T.);
#1011=FACE_BOUND('',#921,.T.);
#1012=FACE_BOUND('',#922,.T.);
#1013=FACE_BOUND('',#923,.T.);
#1014=FACE_BOUND('',#924,.T.);
#1015=FACE_BOUND('',#925,.T.);
#1016=FACE_BOUND('',#926,.T.);
#1017=FACE_BOUND('',#927,.T.);
#1018=FACE_BOUND('',#928,.T.);
#1019=FACE_BOUND('',#929,.T.);
#1020=FACE_BOUND('',#930,.T.);
#1021=FACE_BOUND('',#931,.T.);
#1022=FACE_BOUND('',#932,.T.);
#1023=FACE_BOUND('',#933,.T.);
#1024=FACE_BOUND('',#934,.T.);
#1025=FACE_BOUND('',#935,.T.);
#1026=FACE_BOUND('',#936,.T.);
#1027=FACE_BOUND('',#937,.T.);
#1028=FACE_BOUND('',#938,.T.);
#1029=FACE_BOUND('',#939,.T.);
#1030=FACE_BOUND('',#940,.T.);
#1031=FACE_BOUND('',#941,.T.);
#1032=FACE_BOUND('',#942,.T.);
#1033=FACE_BOUND('',#943,.T.);
#1034=FACE_BOUND('',#944,.T.);
#1035=FACE_BOUND('',#945,.T.);
#1036=FACE_BOUND('',#946,.T.);
#1037=FACE_BOUND('',#947,.T.);
#1038=FACE_BOUND('',#948,.T.);
#1039=FACE_BOUND('',#949,.T.);
#1040=FACE_BOUND('',#950,.T.);
#1041=FACE_BOUND('',#951,.T.);
#1042=FACE_BOUND('',#952,.T.);
#1043=FACE_BOUND('',#953,.T.);
#1044=FACE_BOUND('',#954,.T.);
#1045=FACE_BOUND('',#955,.T.);
#1046=FACE_BOUND('',#956,.T.);
#1047=FACE_BOUND('',#957,.T.);
#1048=FACE_BOUND('',#958,.T.);
#1049=FACE_BOUND('',#959,.T.);
#1050=FACE_BOUND('',#960,.T.);
#1051=FACE_BOUND('',#961,.T.);
#1052=FACE_BOUND('',#962,.T.);
#1053=FACE_BOUND('',#963,.T.);
#1054=FACE_BOUND('',#964,.T.);
#1055=FACE_BOUND('',#965,.T.);
#1056=FACE_BOUND('',#966,.T.);
#1057=FACE_BOUND('',#967,.T.);
#1058=FACE_BOUND('',#968,.T.);
#1059=FACE_BOUND('',#969,.T.);
#1060=FACE_BOUND('',#970,.T.);
#1061=FACE_BOUND('',#971,.T.);
#1062=FACE_BOUND('',#972,.T.);
#1063=FACE_BOUND('',#973,.T.);
#1064=FACE_BOUND('',#974,.T.);
#1065=FACE_BOUND('',#975,.T.);
#1066=FACE_BOUND('',#976,.T.);
#1067=FACE_BOUND('',#977,.T.);
#1068=FACE_BOUND('',#978,.T.);
#1069=FACE_BOUND('',#979,.T.);
#1070=FACE_BOUND('',#980,.T.);
#1071=FACE_BOUND('',#981,.T.);
#1072=FACE_BOUND('',#982,.T.);
#1073=FACE_BOUND('',#983,.T.);
#1074=FACE_BOUND('',#984,.T.);
#1075=FACE_BOUND('',#985,.T.);
#1076=FACE_BOUND('',#986,.T.);
#1077=FACE_BOUND('',#987,.T.);
#1078=FACE_BOUND('',#988,.T.);
#1079=FACE_BOUND('',#989,.T.);
#1080=FACE_BOUND('',#990,.T.);
#1081=FACE_BOUND('',#991,.T.);
#1082=FACE_BOUND('',#992,.T.);
#1083=PLANE('',#1185);
#1084=PLANE('',#1189);
#1085=PLANE('',#1193);
#1086=PLANE('',#1197);
#1087=PLANE('',#1201);
#1088=PLANE('',#1205);
#1089=PLANE('',#1209);
#1090=PLANE('',#1213);
#1091=PLANE('',#1217);
#1092=PLANE('',#1221);
#1093=PLANE('',#1225);
#1094=PLANE('',#1229);
#1095=PLANE('',#1233);
#1096=PLANE('',#1237);
#1097=PLANE('',#1241);
#1098=PLANE('',#1245);
#1099=PLANE('',#1249);
#1100=PLANE('',#1250);
#1101=PLANE('',#1263);
#1102=PLANE('',#1282);
#1103=PLANE('',#1284);
#1104=PLANE('',#1286);
#1105=PLANE('',#1288);
#1106=PLANE('',#1290);
#1107=PLANE('',#1292);
#1108=PLANE('',#1294);
#1109=PLANE('',#1296);
#1110=PLANE('',#1297);
#1111=ADVANCED_FACE('',(#993),#1083,.F.);
#1112=ADVANCED_FACE('',(#994),#78,.T.);
#1113=ADVANCED_FACE('',(#995),#1084,.F.);
#1114=ADVANCED_FACE('',(#996),#79,.T.);
#1115=ADVANCED_FACE('',(#997),#1085,.F.);
#1116=ADVANCED_FACE('',(#998),#80,.T.);
#1117=ADVANCED_FACE('',(#999),#1086,.F.);
#1118=ADVANCED_FACE('',(#1000),#81,.T.);
#1119=ADVANCED_FACE('',(#1001),#1087,.F.);
#1120=ADVANCED_FACE('',(#1002),#82,.T.);
#1121=ADVANCED_FACE('',(#1003),#1088,.F.);
#1122=ADVANCED_FACE('',(#1004),#83,.T.);
#1123=ADVANCED_FACE('',(#1005),#1089,.F.);
#1124=ADVANCED_FACE('',(#1006),#84,.T.);
#1125=ADVANCED_FACE('',(#1007),#1090,.F.);
#1126=ADVANCED_FACE('',(#1008),#85,.F.);
#1127=ADVANCED_FACE('',(#1009),#1091,.T.);
#1128=ADVANCED_FACE('',(#1010),#86,.F.);
#1129=ADVANCED_FACE('',(#1011),#1092,.T.);
#1130=ADVANCED_FACE('',(#1012),#87,.F.);
#1131=ADVANCED_FACE('',(#1013),#1093,.T.);
#1132=ADVANCED_FACE('',(#1014),#88,.F.);
#1133=ADVANCED_FACE('',(#1015),#1094,.T.);
#1134=ADVANCED_FACE('',(#1016),#89,.F.);
#1135=ADVANCED_FACE('',(#1017),#1095,.T.);
#1136=ADVANCED_FACE('',(#1018),#90,.F.);
#1137=ADVANCED_FACE('',(#1019),#1096,.T.);
#1138=ADVANCED_FACE('',(#1020),#91,.F.);
#1139=ADVANCED_FACE('',(#1021),#1097,.T.);
#1140=ADVANCED_FACE('',(#1022),#92,.F.);
#1141=ADVANCED_FACE('',(#1023),#1098,.T.);
#1142=ADVANCED_FACE('',(#1024),#93,.T.);
#1143=ADVANCED_FACE('',(#1025,#1026),#1099,.F.);
#1144=ADVANCED_FACE('',(#1027,#1028,#1029,#1030,#1031,#1032),#1100,.F.);
#1145=ADVANCED_FACE('',(#1033,#1034,#1035,#1036,#1037,#1038,#1039,#1040,
#1041,#1042),#1101,.T.);
#1146=ADVANCED_FACE('',(#1043),#94,.T.);
#1147=ADVANCED_FACE('',(#1044),#1102,.F.);
#1148=ADVANCED_FACE('',(#1045),#95,.T.);
#1149=ADVANCED_FACE('',(#1046),#1103,.F.);
#1150=ADVANCED_FACE('',(#1047),#96,.T.);
#1151=ADVANCED_FACE('',(#1048),#1104,.F.);
#1152=ADVANCED_FACE('',(#1049),#97,.T.);
#1153=ADVANCED_FACE('',(#1050),#1105,.F.);
#1154=ADVANCED_FACE('',(#1051),#98,.T.);
#1155=ADVANCED_FACE('',(#1052),#1106,.F.);
#1156=ADVANCED_FACE('',(#1053),#99,.T.);
#1157=ADVANCED_FACE('',(#1054),#1107,.F.);
#1158=ADVANCED_FACE('',(#1055),#100,.T.);
#1159=ADVANCED_FACE('',(#1056),#1108,.F.);
#1160=ADVANCED_FACE('',(#1057),#101,.T.);
#1161=ADVANCED_FACE('',(#1058),#1109,.F.);
#1162=ADVANCED_FACE('',(#1059,#1060,#1061,#1062,#1063,#1064),#1110,.F.);
#1163=ADVANCED_FACE('',(#1065,#1066),#102,.F.);
#1164=ADVANCED_FACE('',(#1067,#1068),#103,.F.);
#1165=ADVANCED_FACE('',(#1069,#1070),#104,.F.);
#1166=ADVANCED_FACE('',(#1071,#1072),#105,.F.);
#1167=ADVANCED_FACE('',(#1073,#1074),#106,.F.);
#1168=ADVANCED_FACE('',(#1075,#1076),#107,.F.);
#1169=ADVANCED_FACE('',(#1077,#1078),#108,.F.);
#1170=ADVANCED_FACE('',(#1079,#1080),#109,.F.);
#1171=ADVANCED_FACE('',(#1081,#1082),#110,.F.);
#1172=CLOSED_SHELL('',(#1111,#1112,#1113,#1114,#1115,#1116,#1117,#1118,
#1119,#1120,#1121,#1122,#1123,#1124,#1125,#1126,#1127,#1128,#1129,#1130,
#1131,#1132,#1133,#1134,#1135,#1136,#1137,#1138,#1139,#1140,#1141,#1142,
#1143,#1144,#1145,#1146,#1147,#1148,#1149,#1150,#1151,#1152,#1153,#1154,
#1155,#1156,#1157,#1158,#1159,#1160,#1161,#1162,#1163,#1164,#1165,#1166,
#1167,#1168,#1169,#1170,#1171));
#1173=STYLED_ITEM('',(#1174),#1181);
#1174=PRESENTATION_STYLE_ASSIGNMENT((#1175));
#1175=SURFACE_STYLE_USAGE(.BOTH.,#1176);
#1176=SURFACE_SIDE_STYLE('',(#1177));
#1177=SURFACE_STYLE_FILL_AREA(#1178);
#1178=FILL_AREA_STYLE('',(#1179));
#1179=FILL_AREA_STYLE_COLOUR('',#1180);
#1180=COLOUR_RGB('',0.615686274509804,0.811764705882353,0.929411764705882);
#1181=MANIFOLD_SOLID_BREP('Part 1',#1172);
#1182=SHAPE_DEFINITION_REPRESENTATION(#2008,#1183);
#1183=SHAPE_REPRESENTATION('Part 1',(#1184),#2003);
#1184=AXIS2_PLACEMENT_3D('',#1664,#1312,#1313);
#1185=AXIS2_PLACEMENT_3D('',#1665,#1314,#1315);
#1186=AXIS2_PLACEMENT_3D('',#1674,#1320,#1321);
#1187=AXIS2_PLACEMENT_3D('',#1675,#1322,#1323);
#1188=AXIS2_PLACEMENT_3D('',#1679,#1325,#1326);
#1189=AXIS2_PLACEMENT_3D('',#1680,#1327,#1328);
#1190=AXIS2_PLACEMENT_3D('',#1686,#1332,#1333);
#1191=AXIS2_PLACEMENT_3D('',#1687,#1334,#1335);
#1192=AXIS2_PLACEMENT_3D('',#1691,#1337,#1338);
#1193=AXIS2_PLACEMENT_3D('',#1692,#1339,#1340);
#1194=AXIS2_PLACEMENT_3D('',#1698,#1344,#1345);
#1195=AXIS2_PLACEMENT_3D('',#1699,#1346,#1347);
#1196=AXIS2_PLACEMENT_3D('',#1703,#1349,#1350);
#1197=AXIS2_PLACEMENT_3D('',#1704,#1351,#1352);
#1198=AXIS2_PLACEMENT_3D('',#1710,#1356,#1357);
#1199=AXIS2_PLACEMENT_3D('',#1711,#1358,#1359);
#1200=AXIS2_PLACEMENT_3D('',#1715,#1361,#1362);
#1201=AXIS2_PLACEMENT_3D('',#1716,#1363,#1364);
#1202=AXIS2_PLACEMENT_3D('',#1722,#1368,#1369);
#1203=AXIS2_PLACEMENT_3D('',#1723,#1370,#1371);
#1204=AXIS2_PLACEMENT_3D('',#1727,#1373,#1374);
#1205=AXIS2_PLACEMENT_3D('',#1728,#1375,#1376);
#1206=AXIS2_PLACEMENT_3D('',#1734,#1380,#1381);
#1207=AXIS2_PLACEMENT_3D('',#1735,#1382,#1383);
#1208=AXIS2_PLACEMENT_3D('',#1739,#1385,#1386);
#1209=AXIS2_PLACEMENT_3D('',#1740,#1387,#1388);
#1210=AXIS2_PLACEMENT_3D('',#1746,#1392,#1393);
#1211=AXIS2_PLACEMENT_3D('',#1747,#1394,#1395);
#1212=AXIS2_PLACEMENT_3D('',#1751,#1397,#1398);
#1213=AXIS2_PLACEMENT_3D('',#1752,#1399,#1400);
#1214=AXIS2_PLACEMENT_3D('',#1758,#1404,#1405);
#1215=AXIS2_PLACEMENT_3D('',#1759,#1406,#1407);
#1216=AXIS2_PLACEMENT_3D('',#1764,#1409,#1410);
#1217=AXIS2_PLACEMENT_3D('',#1767,#1412,#1413);
#1218=AXIS2_PLACEMENT_3D('',#1773,#1417,#1418);
#1219=AXIS2_PLACEMENT_3D('',#1774,#1419,#1420);
#1220=AXIS2_PLACEMENT_3D('',#1778,#1422,#1423);
#1221=AXIS2_PLACEMENT_3D('',#1779,#1424,#1425);
#1222=AXIS2_PLACEMENT_3D('',#1785,#1429,#1430);
#1223=AXIS2_PLACEMENT_3D('',#1786,#1431,#1432);
#1224=AXIS2_PLACEMENT_3D('',#1790,#1434,#1435);
#1225=AXIS2_PLACEMENT_3D('',#1791,#1436,#1437);
#1226=AXIS2_PLACEMENT_3D('',#1797,#1441,#1442);
#1227=AXIS2_PLACEMENT_3D('',#1798,#1443,#1444);
#1228=AXIS2_PLACEMENT_3D('',#1802,#1446,#1447);
#1229=AXIS2_PLACEMENT_3D('',#1803,#1448,#1449);
#1230=AXIS2_PLACEMENT_3D('',#1809,#1453,#1454);
#1231=AXIS2_PLACEMENT_3D('',#1810,#1455,#1456);
#1232=AXIS2_PLACEMENT_3D('',#1814,#1458,#1459);
#1233=AXIS2_PLACEMENT_3D('',#1815,#1460,#1461);
#1234=AXIS2_PLACEMENT_3D('',#1821,#1465,#1466);
#1235=AXIS2_PLACEMENT_3D('',#1822,#1467,#1468);
#1236=AXIS2_PLACEMENT_3D('',#1826,#1470,#1471);
#1237=AXIS2_PLACEMENT_3D('',#1827,#1472,#1473);
#1238=AXIS2_PLACEMENT_3D('',#1833,#1477,#1478);
#1239=AXIS2_PLACEMENT_3D('',#1834,#1479,#1480);
#1240=AXIS2_PLACEMENT_3D('',#1838,#1482,#1483);
#1241=AXIS2_PLACEMENT_3D('',#1839,#1484,#1485);
#1242=AXIS2_PLACEMENT_3D('',#1845,#1489,#1490);
#1243=AXIS2_PLACEMENT_3D('',#1846,#1491,#1492);
#1244=AXIS2_PLACEMENT_3D('',#1850,#1494,#1495);
#1245=AXIS2_PLACEMENT_3D('',#1851,#1496,#1497);
#1246=AXIS2_PLACEMENT_3D('',#1854,#1500,#1501);
#1247=AXIS2_PLACEMENT_3D('',#1855,#1502,#1503);
#1248=AXIS2_PLACEMENT_3D('',#1856,#1504,#1505);
#1249=AXIS2_PLACEMENT_3D('',#1857,#1506,#1507);
#1250=AXIS2_PLACEMENT_3D('',#1858,#1508,#1509);
#1251=AXIS2_PLACEMENT_3D('',#1859,#1510,#1511);
#1252=AXIS2_PLACEMENT_3D('',#1861,#1512,#1513);
#1253=AXIS2_PLACEMENT_3D('',#1863,#1514,#1515);
#1254=AXIS2_PLACEMENT_3D('',#1865,#1516,#1517);
#1255=AXIS2_PLACEMENT_3D('',#1870,#1519,#1520);
#1256=AXIS2_PLACEMENT_3D('',#1874,#1522,#1523);
#1257=AXIS2_PLACEMENT_3D('',#1878,#1525,#1526);
#1258=AXIS2_PLACEMENT_3D('',#1882,#1528,#1529);
#1259=AXIS2_PLACEMENT_3D('',#1886,#1531,#1532);
#1260=AXIS2_PLACEMENT_3D('',#1890,#1534,#1535);
#1261=AXIS2_PLACEMENT_3D('',#1894,#1537,#1538);
#1262=AXIS2_PLACEMENT_3D('',#1898,#1540,#1541);
#1263=AXIS2_PLACEMENT_3D('',#1899,#1542,#1543);
#1264=AXIS2_PLACEMENT_3D('',#1900,#1544,#1545);
#1265=AXIS2_PLACEMENT_3D('',#1902,#1546,#1547);
#1266=AXIS2_PLACEMENT_3D('',#1904,#1548,#1549);
#1267=AXIS2_PLACEMENT_3D('',#1906,#1550,#1551);
#1268=AXIS2_PLACEMENT_3D('',#1908,#1552,#1553);
#1269=AXIS2_PLACEMENT_3D('',#1910,#1554,#1555);
#1270=AXIS2_PLACEMENT_3D('',#1912,#1556,#1557);
#1271=AXIS2_PLACEMENT_3D('',#1914,#1558,#1559);
#1272=AXIS2_PLACEMENT_3D('',#1916,#1560,#1561);
#1273=AXIS2_PLACEMENT_3D('',#1921,#1563,#1564);
#1274=AXIS2_PLACEMENT_3D('',#1925,#1566,#1567);
#1275=AXIS2_PLACEMENT_3D('',#1929,#1569,#1570);
#1276=AXIS2_PLACEMENT_3D('',#1933,#1572,#1573);
#1277=AXIS2_PLACEMENT_3D('',#1937,#1575,#1576);
#1278=AXIS2_PLACEMENT_3D('',#1941,#1578,#1579);
#1279=AXIS2_PLACEMENT_3D('',#1945,#1581,#1582);
#1280=AXIS2_PLACEMENT_3D('',#1949,#1584,#1585);
#1281=AXIS2_PLACEMENT_3D('',#1950,#1586,#1587);
#1282=AXIS2_PLACEMENT_3D('',#1953,#1590,#1591);
#1283=AXIS2_PLACEMENT_3D('',#1955,#1593,#1594);
#1284=AXIS2_PLACEMENT_3D('',#1957,#1596,#1597);
#1285=AXIS2_PLACEMENT_3D('',#1959,#1599,#1600);
#1286=AXIS2_PLACEMENT_3D('',#1961,#1602,#1603);
#1287=AXIS2_PLACEMENT_3D('',#1963,#1605,#1606);
#1288=AXIS2_PLACEMENT_3D('',#1965,#1608,#1609);
#1289=AXIS2_PLACEMENT_3D('',#1967,#1611,#1612);
#1290=AXIS2_PLACEMENT_3D('',#1969,#1614,#1615);
#1291=AXIS2_PLACEMENT_3D('',#1971,#1617,#1618);
#1292=AXIS2_PLACEMENT_3D('',#1973,#1620,#1621);
#1293=AXIS2_PLACEMENT_3D('',#1975,#1623,#1624);
#1294=AXIS2_PLACEMENT_3D('',#1977,#1626,#1627);
#1295=AXIS2_PLACEMENT_3D('',#1979,#1629,#1630);
#1296=AXIS2_PLACEMENT_3D('',#1981,#1632,#1633);
#1297=AXIS2_PLACEMENT_3D('',#1982,#1634,#1635);
#1298=AXIS2_PLACEMENT_3D('',#1983,#1636,#1637);
#1299=AXIS2_PLACEMENT_3D('',#1985,#1638,#1639);
#1300=AXIS2_PLACEMENT_3D('',#1987,#1640,#1641);
#1301=AXIS2_PLACEMENT_3D('',#1989,#1642,#1643);
#1302=AXIS2_PLACEMENT_3D('',#1991,#1644,#1645);
#1303=AXIS2_PLACEMENT_3D('',#1993,#1646,#1647);
#1304=AXIS2_PLACEMENT_3D('',#1994,#1648,#1649);
#1305=AXIS2_PLACEMENT_3D('',#1995,#1650,#1651);
#1306=AXIS2_PLACEMENT_3D('',#1996,#1652,#1653);
#1307=AXIS2_PLACEMENT_3D('',#1997,#1654,#1655);
#1308=AXIS2_PLACEMENT_3D('',#1998,#1656,#1657);
#1309=AXIS2_PLACEMENT_3D('',#1999,#1658,#1659);
#1310=AXIS2_PLACEMENT_3D('',#2000,#1660,#1661);
#1311=AXIS2_PLACEMENT_3D('',#2001,#1662,#1663);
#1312=DIRECTION('',(0.,0.,1.));
#1313=DIRECTION('',(1.,0.,0.));
#1314=DIRECTION('',(0.711186608988104,0.,-0.703003276803175));
#1315=DIRECTION('',(-0.703003276803175,0.,-0.711186608988104));
#1316=DIRECTION('',(-0.703003276803175,0.,-0.711186608988104));
#1317=DIRECTION('',(0.,1.,0.));
#1318=DIRECTION('',(-0.703003276803175,0.,-0.711186608988104));
#1319=DIRECTION('',(0.,1.,0.));
#1320=DIRECTION('',(0.,1.,0.));
#1321=DIRECTION('',(0.,0.,1.));
#1322=DIRECTION('',(0.,-1.,0.));
#1323=DIRECTION('',(0.,0.,-1.));
#1324=DIRECTION('',(0.,1.,0.));
#1325=DIRECTION('',(0.,-1.,0.));
#1326=DIRECTION('',(0.,0.,-1.));
#1327=DIRECTION('',(0.999983258128443,0.,0.00578648968066589));
#1328=DIRECTION('',(0.00578648968066589,0.,-0.999983258128443));
#1329=DIRECTION('',(0.00578648968066589,0.,-0.999983258128443));
#1330=DIRECTION('',(0.,1.,0.));
#1331=DIRECTION('',(0.00578648968066589,0.,-0.999983258128443));
#1332=DIRECTION('',(0.,1.,0.));
#1333=DIRECTION('',(0.,0.,1.));
#1334=DIRECTION('',(0.,-1.,0.));
#1335=DIRECTION('',(0.,0.,-1.));
#1336=DIRECTION('',(0.,1.,0.));
#1337=DIRECTION('',(0.,-1.,0.));
#1338=DIRECTION('',(0.,0.,-1.));
#1339=DIRECTION('',(0.703003276803175,0.,0.711186608988104));
#1340=DIRECTION('',(0.711186608988104,0.,-0.703003276803175));
#1341=DIRECTION('',(0.711186608988104,0.,-0.703003276803175));
#1342=DIRECTION('',(0.,1.,0.));
#1343=DIRECTION('',(0.711186608988104,0.,-0.703003276803175));
#1344=DIRECTION('',(0.,1.,0.));
#1345=DIRECTION('',(0.,0.,1.));
#1346=DIRECTION('',(0.,-1.,0.));
#1347=DIRECTION('',(0.,0.,-1.));
#1348=DIRECTION('',(0.,1.,0.));
#1349=DIRECTION('',(0.,-1.,0.));
#1350=DIRECTION('',(0.,0.,-1.));
#1351=DIRECTION('',(-0.00578648968066589,0.,0.999983258128443));
#1352=DIRECTION('',(0.999983258128443,0.,0.00578648968066589));
#1353=DIRECTION('',(0.999983258128443,0.,0.00578648968066589));
#1354=DIRECTION('',(0.,1.,0.));
#1355=DIRECTION('',(0.999983258128443,0.,0.00578648968066589));
#1356=DIRECTION('',(0.,1.,0.));
#1357=DIRECTION('',(0.,0.,1.));
#1358=DIRECTION('',(0.,-1.,0.));
#1359=DIRECTION('',(0.,0.,-1.));
#1360=DIRECTION('',(0.,1.,0.));
#1361=DIRECTION('',(0.,-1.,0.));
#1362=DIRECTION('',(0.,0.,-1.));
#1363=DIRECTION('',(-0.711186608988104,0.,0.703003276803175));
#1364=DIRECTION('',(0.703003276803175,0.,0.711186608988104));
#1365=DIRECTION('',(0.703003276803175,0.,0.711186608988104));
#1366=DIRECTION('',(0.,1.,0.));
#1367=DIRECTION('',(0.703003276803175,0.,0.711186608988104));
#1368=DIRECTION('',(0.,1.,0.));
#1369=DIRECTION('',(0.,0.,1.));
#1370=DIRECTION('',(0.,-1.,0.));
#1371=DIRECTION('',(0.,0.,-1.));
#1372=DIRECTION('',(0.,1.,0.));
#1373=DIRECTION('',(0.,-1.,0.));
#1374=DIRECTION('',(0.,0.,-1.));
#1375=DIRECTION('',(-0.999983258128443,0.,-0.00578648968066626));
#1376=DIRECTION('',(-0.00578648968066627,0.,0.999983258128443));
#1377=DIRECTION('',(-0.00578648968066627,0.,0.999983258128443));
#1378=DIRECTION('',(0.,1.,0.));
#1379=DIRECTION('',(-0.00578648968066627,0.,0.999983258128443));
#1380=DIRECTION('',(0.,1.,0.));
#1381=DIRECTION('',(0.,0.,1.));
#1382=DIRECTION('',(0.,-1.,0.));
#1383=DIRECTION('',(0.,0.,-1.));
#1384=DIRECTION('',(0.,1.,0.));
#1385=DIRECTION('',(0.,-1.,0.));
#1386=DIRECTION('',(0.,0.,-1.));
#1387=DIRECTION('',(-0.703003276803175,0.,-0.711186608988104));
#1388=DIRECTION('',(-0.711186608988104,0.,0.703003276803175));
#1389=DIRECTION('',(-0.711186608988104,0.,0.703003276803175));
#1390=DIRECTION('',(0.,1.,0.));
#1391=DIRECTION('',(-0.711186608988104,0.,0.703003276803175));
#1392=DIRECTION('',(0.,1.,0.));
#1393=DIRECTION('',(0.,0.,1.));
#1394=DIRECTION('',(0.,-1.,0.));
#1395=DIRECTION('',(0.,0.,-1.));
#1396=DIRECTION('',(0.,1.,0.));
#1397=DIRECTION('',(0.,-1.,0.));
#1398=DIRECTION('',(0.,0.,-1.));
#1399=DIRECTION('',(0.00578648968066553,0.,-0.999983258128443));
#1400=DIRECTION('',(-0.999983258128443,0.,-0.00578648968066553));
#1401=DIRECTION('',(-0.999983258128443,0.,-0.00578648968066553));
#1402=DIRECTION('',(0.,1.,0.));
#1403=DIRECTION('',(-0.999983258128443,0.,-0.00578648968066553));
#1404=DIRECTION('',(0.,1.,0.));
#1405=DIRECTION('',(0.,0.,1.));
#1406=DIRECTION('',(0.,-1.,0.));
#1407=DIRECTION('',(0.,0.,-1.));
#1408=DIRECTION('',(0.,1.,0.));
#1409=DIRECTION('',(0.,-1.,0.));
#1410=DIRECTION('',(0.,0.,-1.));
#1411=DIRECTION('',(0.,1.,0.));
#1412=DIRECTION('',(0.999907158700756,0.,0.0136262239442945));
#1413=DIRECTION('',(0.0136262239442945,0.,-0.999907158700757));
#1414=DIRECTION('',(0.0136262239442945,0.,-0.999907158700757));
#1415=DIRECTION('',(0.,1.,0.));
#1416=DIRECTION('',(0.0136262239442945,0.,-0.999907158700757));
#1417=DIRECTION('',(0.,1.,0.));
#1418=DIRECTION('',(0.,0.,1.));
#1419=DIRECTION('',(0.,-1.,0.));
#1420=DIRECTION('',(0.,0.,-1.));
#1421=DIRECTION('',(0.,1.,0.));
#1422=DIRECTION('',(0.,-1.,0.));
#1423=DIRECTION('',(0.,0.,-1.));
#1424=DIRECTION('',(0.716676327827256,0.,-0.697405937121301));
#1425=DIRECTION('',(-0.697405937121301,0.,-0.716676327827256));
#1426=DIRECTION('',(-0.697405937121301,0.,-0.716676327827256));
#1427=DIRECTION('',(0.,1.,0.));
#1428=DIRECTION('',(-0.697405937121301,0.,-0.716676327827256));
#1429=DIRECTION('',(0.,1.,0.));
#1430=DIRECTION('',(0.,0.,1.));
#1431=DIRECTION('',(0.,-1.,0.));
#1432=DIRECTION('',(0.,0.,-1.));
#1433=DIRECTION('',(0.,1.,0.));
#1434=DIRECTION('',(0.,-1.,0.));
#1435=DIRECTION('',(0.,0.,-1.));
#1436=DIRECTION('',(0.0136262239442945,0.,-0.999907158700756));
#1437=DIRECTION('',(-0.999907158700757,0.,-0.0136262239442945));
#1438=DIRECTION('',(-0.999907158700757,0.,-0.0136262239442945));
#1439=DIRECTION('',(0.,1.,0.));
#1440=DIRECTION('',(-0.999907158700757,0.,-0.0136262239442945));
#1441=DIRECTION('',(0.,1.,0.));
#1442=DIRECTION('',(0.,0.,1.));
#1443=DIRECTION('',(0.,-1.,0.));
#1444=DIRECTION('',(0.,0.,-1.));
#1445=DIRECTION('',(0.,1.,0.));
#1446=DIRECTION('',(0.,-1.,0.));
#1447=DIRECTION('',(0.,0.,-1.));
#1448=DIRECTION('',(-0.697405937121301,0.,-0.716676327827255));
#1449=DIRECTION('',(-0.716676327827255,0.,0.697405937121301));
#1450=DIRECTION('',(-0.716676327827255,0.,0.697405937121301));
#1451=DIRECTION('',(0.,1.,0.));
#1452=DIRECTION('',(-0.716676327827255,0.,0.697405937121301));
#1453=DIRECTION('',(0.,1.,0.));
#1454=DIRECTION('',(0.,0.,1.));
#1455=DIRECTION('',(0.,-1.,0.));
#1456=DIRECTION('',(0.,0.,-1.));
#1457=DIRECTION('',(0.,1.,0.));
#1458=DIRECTION('',(0.,-1.,0.));
#1459=DIRECTION('',(0.,0.,-1.));
#1460=DIRECTION('',(-0.999907158700757,0.,-0.0136262239442945));
#1461=DIRECTION('',(-0.0136262239442945,0.,0.999907158700757));
#1462=DIRECTION('',(-0.0136262239442945,0.,0.999907158700757));
#1463=DIRECTION('',(0.,1.,0.));
#1464=DIRECTION('',(-0.0136262239442945,0.,0.999907158700757));
#1465=DIRECTION('',(0.,1.,0.));
#1466=DIRECTION('',(0.,0.,1.));
#1467=DIRECTION('',(0.,-1.,0.));
#1468=DIRECTION('',(0.,0.,-1.));
#1469=DIRECTION('',(0.,1.,0.));
#1470=DIRECTION('',(0.,-1.,0.));
#1471=DIRECTION('',(0.,0.,-1.));
#1472=DIRECTION('',(-0.716676327827256,0.,0.697405937121301));
#1473=DIRECTION('',(0.697405937121301,0.,0.716676327827256));
#1474=DIRECTION('',(0.697405937121301,0.,0.716676327827256));
#1475=DIRECTION('',(0.,1.,0.));
#1476=DIRECTION('',(0.697405937121301,0.,0.716676327827256));
#1477=DIRECTION('',(0.,1.,0.));
#1478=DIRECTION('',(0.,0.,1.));
#1479=DIRECTION('',(0.,-1.,0.));
#1480=DIRECTION('',(0.,0.,-1.));
#1481=DIRECTION('',(0.,1.,0.));
#1482=DIRECTION('',(0.,-1.,0.));
#1483=DIRECTION('',(0.,0.,-1.));
#1484=DIRECTION('',(-0.0136262239442945,0.,0.999907158700757));
#1485=DIRECTION('',(0.999907158700757,0.,0.0136262239442945));
#1486=DIRECTION('',(0.999907158700757,0.,0.0136262239442945));
#1487=DIRECTION('',(0.,1.,0.));
#1488=DIRECTION('',(0.999907158700757,0.,0.0136262239442945));
#1489=DIRECTION('',(0.,1.,0.));
#1490=DIRECTION('',(0.,0.,1.));
#1491=DIRECTION('',(0.,-1.,0.));
#1492=DIRECTION('',(0.,0.,-1.));
#1493=DIRECTION('',(0.,1.,0.));
#1494=DIRECTION('',(0.,-1.,0.));
#1495=DIRECTION('',(0.,0.,-1.));
#1496=DIRECTION('',(0.697405937121301,0.,0.716676327827256));
#1497=DIRECTION('',(0.716676327827256,0.,-0.697405937121301));
#1498=DIRECTION('',(0.716676327827256,0.,-0.697405937121301));
#1499=DIRECTION('',(0.716676327827256,0.,-0.697405937121301));
#1500=DIRECTION('',(0.,1.,0.));
#1501=DIRECTION('',(0.,0.,1.));
#1502=DIRECTION('',(0.,-1.,0.));
#1503=DIRECTION('',(0.,0.,-1.));
#1504=DIRECTION('',(0.,-1.,0.));
#1505=DIRECTION('',(0.,0.,-1.));
#1506=DIRECTION('',(0.,-1.,0.));
#1507=DIRECTION('',(1.,0.,0.));
#1508=DIRECTION('',(0.,-1.,0.));
#1509=DIRECTION('',(1.,0.,0.));
#1510=DIRECTION('',(0.,1.,0.));
#1511=DIRECTION('',(0.,0.,1.));
#1512=DIRECTION('',(0.,1.,0.));
#1513=DIRECTION('',(0.,0.,1.));
#1514=DIRECTION('',(0.,1.,0.));
#1515=DIRECTION('',(0.,0.,1.));
#1516=DIRECTION('',(0.,1.,0.));
#1517=DIRECTION('',(0.,0.,1.));
#1518=DIRECTION('',(0.0136262239442967,0.,-0.999907158700757));
#1519=DIRECTION('',(0.,-1.,0.));
#1520=DIRECTION('',(0.,0.,-1.));
#1521=DIRECTION('',(-0.6974059371213,0.,-0.716676327827257));
#1522=DIRECTION('',(0.,-1.,0.));
#1523=DIRECTION('',(0.,0.,-1.));
#1524=DIRECTION('',(-0.999907158700757,0.,-0.0136262239442967));
#1525=DIRECTION('',(0.,-1.,0.));
#1526=DIRECTION('',(0.,0.,-1.));
#1527=DIRECTION('',(-0.716676327827257,0.,0.6974059371213));
#1528=DIRECTION('',(0.,-1.,0.));
#1529=DIRECTION('',(0.,0.,-1.));
#1530=DIRECTION('',(-0.0136262239442967,0.,0.999907158700757));
#1531=DIRECTION('',(0.,-1.,0.));
#1532=DIRECTION('',(0.,0.,-1.));
#1533=DIRECTION('',(0.6974059371213,0.,0.716676327827257));
#1534=DIRECTION('',(0.,-1.,0.));
#1535=DIRECTION('',(0.,0.,-1.));
#1536=DIRECTION('',(0.999907158700757,0.,0.0136262239442967));
#1537=DIRECTION('',(0.,-1.,0.));
#1538=DIRECTION('',(0.,0.,-1.));
#1539=DIRECTION('',(0.716676327827257,0.,-0.6974059371213));
#1540=DIRECTION('',(0.,-1.,0.));
#1541=DIRECTION('',(0.,0.,-1.));
#1542=DIRECTION('',(0.,-1.,0.));
#1543=DIRECTION('',(1.,0.,0.));
#1544=DIRECTION('',(0.,-1.,0.));
#1545=DIRECTION('',(0.,0.,-1.));
#1546=DIRECTION('',(0.,-1.,0.));
#1547=DIRECTION('',(0.,0.,-1.));
#1548=DIRECTION('',(0.,-1.,0.));
#1549=DIRECTION('',(0.,0.,-1.));
#1550=DIRECTION('',(0.,-1.,0.));
#1551=DIRECTION('',(0.,0.,-1.));
#1552=DIRECTION('',(0.,-1.,0.));
#1553=DIRECTION('',(0.,0.,-1.));
#1554=DIRECTION('',(0.,-1.,0.));
#1555=DIRECTION('',(0.,0.,-1.));
#1556=DIRECTION('',(0.,-1.,0.));
#1557=DIRECTION('',(0.,0.,-1.));
#1558=DIRECTION('',(0.,-1.,0.));
#1559=DIRECTION('',(0.,0.,-1.));
#1560=DIRECTION('',(0.,-1.,0.));
#1561=DIRECTION('',(0.,0.,-1.));
#1562=DIRECTION('',(0.0136262239442967,0.,-0.999907158700757));
#1563=DIRECTION('',(0.,-1.,0.));
#1564=DIRECTION('',(0.,0.,-1.));
#1565=DIRECTION('',(0.716676327827257,0.,-0.6974059371213));
#1566=DIRECTION('',(0.,-1.,0.));
#1567=DIRECTION('',(0.,0.,-1.));
#1568=DIRECTION('',(0.999907158700757,0.,0.0136262239442967));
#1569=DIRECTION('',(0.,-1.,0.));
#1570=DIRECTION('',(0.,0.,-1.));
#1571=DIRECTION('',(0.6974059371213,0.,0.716676327827257));
#1572=DIRECTION('',(0.,-1.,0.));
#1573=DIRECTION('',(0.,0.,-1.));
#1574=DIRECTION('',(-0.0136262239442967,0.,0.999907158700757));
#1575=DIRECTION('',(0.,-1.,0.));
#1576=DIRECTION('',(0.,0.,-1.));
#1577=DIRECTION('',(-0.716676327827257,0.,0.6974059371213));
#1578=DIRECTION('',(0.,-1.,0.));
#1579=DIRECTION('',(0.,0.,-1.));
#1580=DIRECTION('',(-0.999907158700757,0.,-0.0136262239442967));
#1581=DIRECTION('',(0.,-1.,0.));
#1582=DIRECTION('',(0.,0.,-1.));
#1583=DIRECTION('',(-0.6974059371213,0.,-0.716676327827257));
#1584=DIRECTION('',(0.,-1.,0.));
#1585=DIRECTION('',(0.,0.,-1.));
#1586=DIRECTION('',(0.,1.,0.));
#1587=DIRECTION('',(0.,0.,1.));
#1588=DIRECTION('',(0.,1.,0.));
#1589=DIRECTION('',(0.,1.,0.));
#1590=DIRECTION('',(0.716676327827257,0.,-0.6974059371213));
#1591=DIRECTION('',(-0.6974059371213,0.,-0.716676327827257));
#1592=DIRECTION('',(0.,1.,0.));
#1593=DIRECTION('',(0.,1.,0.));
#1594=DIRECTION('',(0.,0.,1.));
#1595=DIRECTION('',(0.,1.,0.));
#1596=DIRECTION('',(0.0136262239442967,0.,-0.999907158700756));
#1597=DIRECTION('',(-0.999907158700757,0.,-0.0136262239442967));
#1598=DIRECTION('',(0.,1.,0.));
#1599=DIRECTION('',(0.,1.,0.));
#1600=DIRECTION('',(0.,0.,1.));
#1601=DIRECTION('',(0.,1.,0.));
#1602=DIRECTION('',(-0.6974059371213,0.,-0.716676327827257));
#1603=DIRECTION('',(-0.716676327827257,0.,0.6974059371213));
#1604=DIRECTION('',(0.,1.,0.));
#1605=DIRECTION('',(0.,1.,0.));
#1606=DIRECTION('',(0.,0.,1.));
#1607=DIRECTION('',(0.,1.,0.));
#1608=DIRECTION('',(-0.999907158700756,0.,-0.0136262239442967));
#1609=DIRECTION('',(-0.0136262239442967,0.,0.999907158700757));
#1610=DIRECTION('',(0.,1.,0.));
#1611=DIRECTION('',(0.,1.,0.));
#1612=DIRECTION('',(0.,0.,1.));
#1613=DIRECTION('',(0.,1.,0.));
#1614=DIRECTION('',(-0.716676327827257,0.,0.6974059371213));
#1615=DIRECTION('',(0.6974059371213,0.,0.716676327827257));
#1616=DIRECTION('',(0.,1.,0.));
#1617=DIRECTION('',(0.,1.,0.));
#1618=DIRECTION('',(0.,0.,1.));
#1619=DIRECTION('',(0.,1.,0.));
#1620=DIRECTION('',(-0.0136262239442967,0.,0.999907158700756));
#1621=DIRECTION('',(0.999907158700757,0.,0.0136262239442967));
#1622=DIRECTION('',(0.,1.,0.));
#1623=DIRECTION('',(0.,1.,0.));
#1624=DIRECTION('',(0.,0.,1.));
#1625=DIRECTION('',(0.,1.,0.));
#1626=DIRECTION('',(0.6974059371213,0.,0.716676327827257));
#1627=DIRECTION('',(0.716676327827257,0.,-0.6974059371213));
#1628=DIRECTION('',(0.,1.,0.));
#1629=DIRECTION('',(0.,1.,0.));
#1630=DIRECTION('',(0.,0.,1.));
#1631=DIRECTION('',(0.,1.,0.));
#1632=DIRECTION('',(0.999907158700757,0.,0.0136262239442967));
#1633=DIRECTION('',(0.0136262239442967,0.,-0.999907158700757));
#1634=DIRECTION('',(0.,-1.,0.));
#1635=DIRECTION('',(1.,0.,0.));
#1636=DIRECTION('',(0.,-1.,0.));
#1637=DIRECTION('',(0.,0.,-1.));
#1638=DIRECTION('',(0.,-1.,0.));
#1639=DIRECTION('',(0.,0.,-1.));
#1640=DIRECTION('',(0.,-1.,0.));
#1641=DIRECTION('',(0.,0.,-1.));
#1642=DIRECTION('',(0.,-1.,0.));
#1643=DIRECTION('',(0.,0.,-1.));
#1644=DIRECTION('',(0.,1.,0.));
#1645=DIRECTION('',(0.,0.,1.));
#1646=DIRECTION('',(0.,1.,0.));
#1647=DIRECTION('',(0.,0.,1.));
#1648=DIRECTION('',(0.,1.,0.));
#1649=DIRECTION('',(0.,0.,1.));
#1650=DIRECTION('',(0.,1.,0.));
#1651=DIRECTION('',(0.,0.,1.));
#1652=DIRECTION('',(0.,1.,0.));
#1653=DIRECTION('',(0.,0.,1.));
#1654=DIRECTION('',(0.,1.,0.));
#1655=DIRECTION('',(0.,0.,1.));
#1656=DIRECTION('',(0.,-1.,0.));
#1657=DIRECTION('',(0.,0.,-1.));
#1658=DIRECTION('',(0.,-1.,0.));
#1659=DIRECTION('',(0.,0.,-1.));
#1660=DIRECTION('',(0.,-1.,0.));
#1661=DIRECTION('',(0.,0.,-1.));
#1662=DIRECTION('',(0.,-1.,0.));
#1663=DIRECTION('',(0.,0.,-1.));
#1664=CARTESIAN_POINT('',(0.,0.,0.));
#1665=CARTESIAN_POINT('',(-0.0543755796191345,-0.0085852,0.0543522538765617));
#1666=CARTESIAN_POINT('',(-0.0543755796191345,0.,0.0543522538765617));
#1667=CARTESIAN_POINT('',(-0.0410622131811434,0.,0.067820594983458));
#1668=CARTESIAN_POINT('',(-0.0676889460571257,0.,0.0408839127696654));
#1669=CARTESIAN_POINT('',(-0.0676889460571257,-0.0085852,0.0408839127696654));
#1670=CARTESIAN_POINT('',(-0.0676889460571257,-0.0085852,0.0408839127696654));
#1671=CARTESIAN_POINT('',(-0.0543755796191345,-0.0085852,0.0543522538765617));
#1672=CARTESIAN_POINT('',(-0.0410622131811434,-0.0085852,0.067820594983458));
#1673=CARTESIAN_POINT('',(-0.0410622131811434,-0.0085852,0.067820594983458));
#1674=CARTESIAN_POINT('',(-0.0460119782151684,-0.0085852,0.0194563728927046));
#1675=CARTESIAN_POINT('',(-0.0460119782151684,0.,0.0194563728927046));
#1676=CARTESIAN_POINT('',(-0.0764914679229233,0.,0.0192800006872379));
#1677=CARTESIAN_POINT('',(-0.0764914679229233,-0.0085852,0.0192800006872379));
#1678=CARTESIAN_POINT('',(-0.0764914679229233,-0.0085852,0.0192800006872379));
#1679=CARTESIAN_POINT('',(-0.0460119782151684,-0.0085852,0.0194563728927046));
#1680=CARTESIAN_POINT('',(-0.0763818842836283,-0.0085852,0.000342473670493034));
#1681=CARTESIAN_POINT('',(-0.0763818842836283,0.,0.000342473670493034));
#1682=CARTESIAN_POINT('',(-0.0762723006443333,0.,-0.0185950533462519));
#1683=CARTESIAN_POINT('',(-0.0762723006443333,-0.0085852,-0.0185950533462519));
#1684=CARTESIAN_POINT('',(-0.0762723006443333,-0.0085852,-0.0185950533462519));
#1685=CARTESIAN_POINT('',(-0.0763818842836283,-0.0085852,0.000342473670493034));
#1686=CARTESIAN_POINT('',(-0.0457928109365784,-0.0085852,-0.0184186811407852));
#1687=CARTESIAN_POINT('',(-0.0457928109365784,0.,-0.0184186811407852));
#1688=CARTESIAN_POINT('',(-0.0672203508135392,0.,-0.0400956489827426));
#1689=CARTESIAN_POINT('',(-0.0672203508135392,-0.0085852,-0.0400956489827426));
#1690=CARTESIAN_POINT('',(-0.0672203508135392,-0.0085852,-0.0400956489827426));
#1691=CARTESIAN_POINT('',(-0.0457928109365784,-0.0085852,-0.0184186811407852));
#1692=CARTESIAN_POINT('',(-0.0537520097066429,-0.0085852,-0.0534090154207338));
#1693=CARTESIAN_POINT('',(-0.0537520097066429,0.,-0.0534090154207338));
#1694=CARTESIAN_POINT('',(-0.0402836685997466,0.,-0.066722381858725));
#1695=CARTESIAN_POINT('',(-0.0402836685997466,-0.0085852,-0.066722381858725));
#1696=CARTESIAN_POINT('',(-0.0402836685997466,-0.0085852,-0.066722381858725));
#1697=CARTESIAN_POINT('',(-0.0537520097066429,-0.0085852,-0.0534090154207338));
#1698=CARTESIAN_POINT('',(-0.0188561287227858,-0.0085852,-0.0450454140167676));
#1699=CARTESIAN_POINT('',(-0.0188561287227858,0.,-0.0450454140167676));
#1700=CARTESIAN_POINT('',(-0.0186797565173192,0.,-0.0755249037245225));
#1701=CARTESIAN_POINT('',(-0.0186797565173192,-0.0085852,-0.0755249037245225));
#1702=CARTESIAN_POINT('',(-0.0186797565173192,-0.0085852,-0.0755249037245225));
#1703=CARTESIAN_POINT('',(-0.0188561287227858,-0.0085852,-0.0450454140167676));
#1704=CARTESIAN_POINT('',(0.000257770499425718,-0.0085852,-0.0754153200852276));
#1705=CARTESIAN_POINT('',(0.000257770499425718,0.,-0.0754153200852276));
#1706=CARTESIAN_POINT('',(0.0191952975161707,0.,-0.0753057364459326));
#1707=CARTESIAN_POINT('',(0.0191952975161707,-0.0085852,-0.0753057364459326));
#1708=CARTESIAN_POINT('',(0.0191952975161707,-0.0085852,-0.0753057364459326));
#1709=CARTESIAN_POINT('',(0.000257770499425718,-0.0085852,-0.0754153200852276));
#1710=CARTESIAN_POINT('',(0.019018925310704,-0.0085852,-0.0448262467381778));
#1711=CARTESIAN_POINT('',(0.019018925310704,0.,-0.0448262467381778));
#1712=CARTESIAN_POINT('',(0.0406958931526614,0.,-0.0662537866151385));
#1713=CARTESIAN_POINT('',(0.0406958931526614,-0.0085852,-0.0662537866151385));
#1714=CARTESIAN_POINT('',(0.0406958931526614,-0.0085852,-0.0662537866151385));
#1715=CARTESIAN_POINT('',(0.019018925310704,-0.0085852,-0.0448262467381778));
#1716=CARTESIAN_POINT('',(0.0540092595906526,-0.0085852,-0.0527854455082422));
#1717=CARTESIAN_POINT('',(0.0540092595906526,0.,-0.0527854455082422));
#1718=CARTESIAN_POINT('',(0.0673226260286438,0.,-0.0393171044013458));
#1719=CARTESIAN_POINT('',(0.0673226260286438,-0.0085852,-0.0393171044013458));
#1720=CARTESIAN_POINT('',(0.0673226260286438,-0.0085852,-0.0393171044013458));
#1721=CARTESIAN_POINT('',(0.0540092595906526,-0.0085852,-0.0527854455082422));
#1722=CARTESIAN_POINT('',(0.0456456581866864,-0.0085852,-0.0178895645243852));
#1723=CARTESIAN_POINT('',(0.0456456581866864,0.,-0.0178895645243852));
#1724=CARTESIAN_POINT('',(0.0761251478944413,0.,-0.0177131923189184));
#1725=CARTESIAN_POINT('',(0.0761251478944413,-0.0085852,-0.0177131923189184));
#1726=CARTESIAN_POINT('',(0.0761251478944413,-0.0085852,-0.0177131923189184));
#1727=CARTESIAN_POINT('',(0.0456456581866864,-0.0085852,-0.0178895645243852));
#1728=CARTESIAN_POINT('',(0.0760155642551464,-0.0085852,0.00122433469782646));
#1729=CARTESIAN_POINT('',(0.0760155642551464,0.,0.00122433469782646));
#1730=CARTESIAN_POINT('',(0.0759059806158514,0.,0.0201618617145713));
#1731=CARTESIAN_POINT('',(0.0759059806158514,-0.0085852,0.0201618617145713));
#1732=CARTESIAN_POINT('',(0.0759059806158514,-0.0085852,0.0201618617145713));
#1733=CARTESIAN_POINT('',(0.0760155642551464,-0.0085852,0.00122433469782646));
#1734=CARTESIAN_POINT('',(0.0454264909080965,-0.0085852,0.0199854895091046));
#1735=CARTESIAN_POINT('',(0.0454264909080965,0.,0.0199854895091046));
#1736=CARTESIAN_POINT('',(0.0668540307850572,0.,0.041662457351062));
#1737=CARTESIAN_POINT('',(0.0668540307850572,-0.0085852,0.041662457351062));
#1738=CARTESIAN_POINT('',(0.0668540307850572,-0.0085852,0.041662457351062));
#1739=CARTESIAN_POINT('',(0.0454264909080965,-0.0085852,0.0199854895091046));
#1740=CARTESIAN_POINT('',(0.053385689678161,-0.0085852,0.0549758237890533));
#1741=CARTESIAN_POINT('',(0.053385689678161,0.,0.0549758237890533));
#1742=CARTESIAN_POINT('',(0.0399173485712646,0.,0.0682891902270445));
#1743=CARTESIAN_POINT('',(0.0399173485712646,-0.0085852,0.0682891902270445));
#1744=CARTESIAN_POINT('',(0.0399173485712646,-0.0085852,0.0682891902270445));
#1745=CARTESIAN_POINT('',(0.053385689678161,-0.0085852,0.0549758237890533));
#1746=CARTESIAN_POINT('',(0.0184898086943039,-0.0085852,0.0466122223850871));
#1747=CARTESIAN_POINT('',(0.0184898086943039,0.,0.0466122223850871));
#1748=CARTESIAN_POINT('',(0.0183134364888372,0.,0.077091712092842));
#1749=CARTESIAN_POINT('',(0.0183134364888372,-0.0085852,0.077091712092842));
#1750=CARTESIAN_POINT('',(0.0183134364888372,-0.0085852,0.077091712092842));
#1751=CARTESIAN_POINT('',(0.0184898086943039,-0.0085852,0.0466122223850871));
#1752=CARTESIAN_POINT('',(-0.000624090527907691,-0.0085852,0.0769821284535471));
#1753=CARTESIAN_POINT('',(-0.000624090527907691,0.,0.0769821284535471));
#1754=CARTESIAN_POINT('',(-0.0195616175446526,0.,0.0768725448142521));
#1755=CARTESIAN_POINT('',(-0.0195616175446526,-0.0085852,0.0768725448142521));
#1756=CARTESIAN_POINT('',(-0.0195616175446526,-0.0085852,0.0768725448142521));
#1757=CARTESIAN_POINT('',(-0.000624090527907691,-0.0085852,0.0769821284535471));
#1758=CARTESIAN_POINT('',(-0.0443781500059339,-0.0085852,-0.0182323649428789));
#1759=CARTESIAN_POINT('',(-0.0443781500059339,0.,-0.0182323649428789));
#1760=CARTESIAN_POINT('',(-0.0748553202031329,0.,-0.0186476922487009));
#1761=CARTESIAN_POINT('',(-0.0656350829693911,0.,-0.0400766594150536));
#1762=CARTESIAN_POINT('',(-0.0748553202031329,-0.0085852,-0.0186476922487009));
#1763=CARTESIAN_POINT('',(-0.0748553202031329,-0.0085852,-0.0186476922487009));
#1764=CARTESIAN_POINT('',(-0.0443781500059339,-0.0085852,-0.0182323649428789));
#1765=CARTESIAN_POINT('',(-0.0656350829693911,-0.0085852,-0.0400766594150536));
#1766=CARTESIAN_POINT('',(-0.0656350829693911,-0.0085852,-0.0400766594150536));
#1767=CARTESIAN_POINT('',(-0.0751062034156887,-0.0085852,-0.000237608775986238));
#1768=CARTESIAN_POINT('',(-0.0751062034156887,0.,-0.000237608775986238));
#1769=CARTESIAN_POINT('',(-0.0753570866282444,0.,0.0181724746967285));
#1770=CARTESIAN_POINT('',(-0.0753570866282444,-0.0085852,0.0181724746967285));
#1771=CARTESIAN_POINT('',(-0.0753570866282444,-0.0085852,0.0181724746967285));
#1772=CARTESIAN_POINT('',(-0.0751062034156887,-0.0085852,-0.000237608775986238));
#1773=CARTESIAN_POINT('',(-0.0448799164310454,-0.0085852,0.0185878020025506));
#1774=CARTESIAN_POINT('',(-0.0448799164310454,0.,0.0185878020025506));
#1775=CARTESIAN_POINT('',(-0.0667242109032201,0.,0.0398447349660079));
#1776=CARTESIAN_POINT('',(-0.0667242109032201,-0.0085852,0.0398447349660079));
#1777=CARTESIAN_POINT('',(-0.0667242109032201,-0.0085852,0.0398447349660079));
#1778=CARTESIAN_POINT('',(-0.0448799164310454,-0.0085852,0.0185878020025506));
#1779=CARTESIAN_POINT('',(-0.0538837172583372,-0.0085852,0.0530400310526589));
#1780=CARTESIAN_POINT('',(-0.0538837172583372,0.,0.0530400310526589));
#1781=CARTESIAN_POINT('',(-0.0410432236134544,0.,0.0662353271393099));
#1782=CARTESIAN_POINT('',(-0.0410432236134544,-0.0085852,0.0662353271393099));
#1783=CARTESIAN_POINT('',(-0.0410432236134544,-0.0085852,0.0662353271393099));
#1784=CARTESIAN_POINT('',(-0.0538837172583372,-0.0085852,0.0530400310526589));
#1785=CARTESIAN_POINT('',(-0.0191989291412796,-0.0085852,0.0449783941758526));
#1786=CARTESIAN_POINT('',(-0.0191989291412796,0.,0.0449783941758526));
#1787=CARTESIAN_POINT('',(-0.0196142564471017,0.,0.0754555643730517));
#1788=CARTESIAN_POINT('',(-0.0196142564471017,-0.0085852,0.0754555643730517));
#1789=CARTESIAN_POINT('',(-0.0196142564471017,-0.0085852,0.0754555643730517));
#1790=CARTESIAN_POINT('',(-0.0191989291412796,-0.0085852,0.0449783941758526));
#1791=CARTESIAN_POINT('',(-0.00120417297438702,-0.0085852,0.0757064475856075));
#1792=CARTESIAN_POINT('',(-0.00120417297438702,0.,0.0757064475856075));
#1793=CARTESIAN_POINT('',(0.0172059104983278,0.,0.0759573307981633));
#1794=CARTESIAN_POINT('',(0.0172059104983278,-0.0085852,0.0759573307981633));
#1795=CARTESIAN_POINT('',(0.0172059104983278,-0.0085852,0.0759573307981633));
#1796=CARTESIAN_POINT('',(-0.00120417297438702,-0.0085852,0.0757064475856075));
#1797=CARTESIAN_POINT('',(0.0176212378041499,-0.0085852,0.0454801606009642));
#1798=CARTESIAN_POINT('',(0.0176212378041499,0.,0.0454801606009642));
#1799=CARTESIAN_POINT('',(0.0388781707676071,0.,0.0673244550731389));
#1800=CARTESIAN_POINT('',(0.0388781707676071,-0.0085852,0.0673244550731389));
#1801=CARTESIAN_POINT('',(0.0388781707676071,-0.0085852,0.0673244550731389));
#1802=CARTESIAN_POINT('',(0.0176212378041499,-0.0085852,0.0454801606009642));
#1803=CARTESIAN_POINT('',(0.0520734668542581,-0.0085852,0.054483961428256));
#1804=CARTESIAN_POINT('',(0.0520734668542581,0.,0.054483961428256));
#1805=CARTESIAN_POINT('',(0.0652687629409092,0.,0.0416434677833731));
#1806=CARTESIAN_POINT('',(0.0652687629409092,-0.0085852,0.0416434677833731));
#1807=CARTESIAN_POINT('',(0.0652687629409092,-0.0085852,0.0416434677833731));
#1808=CARTESIAN_POINT('',(0.0520734668542581,-0.0085852,0.054483961428256));
#1809=CARTESIAN_POINT('',(0.0440118299774519,-0.0085852,0.0197991733111984));
#1810=CARTESIAN_POINT('',(0.0440118299774519,0.,0.0197991733111984));
#1811=CARTESIAN_POINT('',(0.074489000174651,0.,0.0202145006170205));
#1812=CARTESIAN_POINT('',(0.074489000174651,-0.0085852,0.0202145006170205));
#1813=CARTESIAN_POINT('',(0.074489000174651,-0.0085852,0.0202145006170205));
#1814=CARTESIAN_POINT('',(0.0440118299774519,-0.0085852,0.0197991733111984));
#1815=CARTESIAN_POINT('',(0.0747398833872068,-0.0085852,0.00180441714430567));
#1816=CARTESIAN_POINT('',(0.0747398833872068,0.,0.00180441714430567));
#1817=CARTESIAN_POINT('',(0.0749907665997625,0.,-0.0166056663284091));
#1818=CARTESIAN_POINT('',(0.0749907665997625,-0.0085852,-0.0166056663284091));
#1819=CARTESIAN_POINT('',(0.0749907665997625,-0.0085852,-0.0166056663284091));
#1820=CARTESIAN_POINT('',(0.0747398833872068,-0.0085852,0.00180441714430567));
#1821=CARTESIAN_POINT('',(0.0445135964025634,-0.0085852,-0.0170209936342311));
#1822=CARTESIAN_POINT('',(0.0445135964025634,0.,-0.0170209936342311));
#1823=CARTESIAN_POINT('',(0.0663578908747382,0.,-0.0382779265976883));
#1824=CARTESIAN_POINT('',(0.0663578908747382,-0.0085852,-0.0382779265976883));
#1825=CARTESIAN_POINT('',(0.0663578908747382,-0.0085852,-0.0382779265976883));
#1826=CARTESIAN_POINT('',(0.0445135964025634,-0.0085852,-0.0170209936342311));
#1827=CARTESIAN_POINT('',(0.0535173972298554,-0.0085852,-0.0514732226843394));
#1828=CARTESIAN_POINT('',(0.0535173972298554,0.,-0.0514732226843394));
#1829=CARTESIAN_POINT('',(0.0406769035849725,0.,-0.0646685187709904));
#1830=CARTESIAN_POINT('',(0.0406769035849725,-0.0085852,-0.0646685187709904));
#1831=CARTESIAN_POINT('',(0.0406769035849724,-0.0085852,-0.0646685187709903));
#1832=CARTESIAN_POINT('',(0.0535173972298554,-0.0085852,-0.0514732226843394));
#1833=CARTESIAN_POINT('',(0.0188326091127976,-0.0085852,-0.043411585807533));
#1834=CARTESIAN_POINT('',(0.0188326091127976,0.,-0.043411585807533));
#1835=CARTESIAN_POINT('',(0.0192479364186198,0.,-0.0738887560047321));
#1836=CARTESIAN_POINT('',(0.0192479364186198,-0.0085852,-0.0738887560047321));
#1837=CARTESIAN_POINT('',(0.0192479364186198,-0.0085852,-0.0738887560047322));
#1838=CARTESIAN_POINT('',(0.0188326091127976,-0.0085852,-0.043411585807533));
#1839=CARTESIAN_POINT('',(0.000837852945904972,-0.0085852,-0.074139639217288));
#1840=CARTESIAN_POINT('',(0.000837852945904972,0.,-0.074139639217288));
#1841=CARTESIAN_POINT('',(-0.0175722305268098,0.,-0.0743905224298437));
#1842=CARTESIAN_POINT('',(-0.0175722305268098,-0.0085852,-0.0743905224298437));
#1843=CARTESIAN_POINT('',(-0.0175722305268098,-0.0085852,-0.0743905224298438));
#1844=CARTESIAN_POINT('',(0.000837852945904972,-0.0085852,-0.074139639217288));
#1845=CARTESIAN_POINT('',(-0.0179875578326318,-0.0085852,-0.0439133522326446));
#1846=CARTESIAN_POINT('',(-0.0179875578326318,0.,-0.0439133522326446));
#1847=CARTESIAN_POINT('',(-0.0392444907960891,0.,-0.0657576467048195));
#1848=CARTESIAN_POINT('',(-0.0392444907960891,-0.0085852,-0.0657576467048195));
#1849=CARTESIAN_POINT('',(-0.0392444907960891,-0.0085852,-0.0657576467048195));
#1850=CARTESIAN_POINT('',(-0.0179875578326318,-0.0085852,-0.0439133522326446));
#1851=CARTESIAN_POINT('',(-0.0524397868827401,-0.0085852,-0.0529171530599365));
#1852=CARTESIAN_POINT('',(-0.0524397868827401,0.,-0.0529171530599365));
#1853=CARTESIAN_POINT('',(-0.0524397868827401,-0.0085852,-0.0529171530599365));
#1854=CARTESIAN_POINT('',(-0.0193852453391859,-0.0085852,0.0463930551064973));
#1855=CARTESIAN_POINT('',(-0.0193852453391859,0.,0.0463930551064973));
#1856=CARTESIAN_POINT('',(-0.0193852453391859,-0.0085852,0.0463930551064973));
#1857=CARTESIAN_POINT('',(-0.00018316001424093,0.,0.000783404184159731));
#1858=CARTESIAN_POINT('',(-0.000765938100412991,-0.0085852,9.07282726544389E-5));
#1859=CARTESIAN_POINT('',(-0.000286991840696513,-0.0085852,-0.0794445430160097));
#1860=CARTESIAN_POINT('',(-0.000286991840696513,-0.0085852,-0.0771966430160097));
#1861=CARTESIAN_POINT('',(-0.000679010996966115,-0.0085852,0.0793792536286667));
#1862=CARTESIAN_POINT('',(-0.000679010996966115,-0.0085852,0.0816271536286667));
#1863=CARTESIAN_POINT('',(0.078940928420939,-0.0085852,9.72551076063277E-5));
#1864=CARTESIAN_POINT('',(0.078940928420939,-0.0085852,0.00234515510760633));
#1865=CARTESIAN_POINT('',(-0.0793517850481266,-0.0085852,-0.00043436889059184));
#1866=CARTESIAN_POINT('',(-0.0793517850481266,-0.0085852,0.00181353110940816));
#1867=CARTESIAN_POINT('',(-0.0833082740511605,-0.0085852,-0.00103411651394722));
#1868=CARTESIAN_POINT('',(-0.0836021658144401,-0.0085852,0.0205319812683758));
#1869=CARTESIAN_POINT('',(-0.0830143822878808,-0.0085852,-0.0226002142962702));
#1870=CARTESIAN_POINT('',(-0.0531249956172412,-0.0085852,0.020947308574198));
#1871=CARTESIAN_POINT('',(-0.0749692900894159,-0.0085852,0.0422042415376552));
#1872=CARTESIAN_POINT('',(-0.0599275689625531,-0.0085852,0.0576615883820178));
#1873=CARTESIAN_POINT('',(-0.0448858478356904,-0.0085852,0.0731189352263805));
#1874=CARTESIAN_POINT('',(-0.0230415533635156,-0.0085852,0.0518620022629234));
#1875=CARTESIAN_POINT('',(-0.0234568806693378,-0.0085852,0.0823391724601223));
#1876=CARTESIAN_POINT('',(-0.00189078288701481,-0.0085852,0.082633064223402));
#1877=CARTESIAN_POINT('',(0.0196753148953083,-0.0085852,0.0829269559866816));
#1878=CARTESIAN_POINT('',(0.0200906422011304,-0.0085852,0.0524497857894825));
#1879=CARTESIAN_POINT('',(0.0413475751645876,-0.0085852,0.0742940802616574));
#1880=CARTESIAN_POINT('',(0.0568049220089503,-0.0085852,0.0592523591347946));
#1881=CARTESIAN_POINT('',(0.072262268853313,-0.0085852,0.0442106380079318));
#1882=CARTESIAN_POINT('',(0.0510053358898559,-0.0085852,0.022366343535757));
#1883=CARTESIAN_POINT('',(0.0814825060870549,-0.0085852,0.0227816708415791));
#1884=CARTESIAN_POINT('',(0.0817763978503345,-0.0085852,0.0012155730592561));
#1885=CARTESIAN_POINT('',(0.0820702896136142,-0.0085852,-0.0203505247230668));
#1886=CARTESIAN_POINT('',(0.0515931194164151,-0.0085852,-0.0207658520288889));
#1887=CARTESIAN_POINT('',(0.0734374138885899,-0.0085852,-0.0420227849923462));
#1888=CARTESIAN_POINT('',(0.0583956927617271,-0.0085852,-0.0574801318367088));
#1889=CARTESIAN_POINT('',(0.0433539716348643,-0.0085852,-0.0729374786810715));
#1890=CARTESIAN_POINT('',(0.0215096771626896,-0.0085852,-0.0516805457176144));
#1891=CARTESIAN_POINT('',(0.0219250044685117,-0.0085852,-0.0821577159148133));
#1892=CARTESIAN_POINT('',(0.000358906686188623,-0.0085852,-0.082451607678093));
#1893=CARTESIAN_POINT('',(-0.0212071910961344,-0.0085852,-0.0827454994413727));
#1894=CARTESIAN_POINT('',(-0.0216225184019565,-0.0085852,-0.0522683292441736));
#1895=CARTESIAN_POINT('',(-0.0428794513654138,-0.0085852,-0.0741126237163485));
#1896=CARTESIAN_POINT('',(-0.0583367982097764,-0.0085852,-0.0590709025894856));
#1897=CARTESIAN_POINT('',(-0.0737941450541391,-0.0085852,-0.0440291814626227));
#1898=CARTESIAN_POINT('',(-0.0525372120906818,-0.0085852,-0.022184886990448));
#1899=CARTESIAN_POINT('',(-0.000765938100412991,-0.0128778,9.07282726544389E-5));
#1900=CARTESIAN_POINT('',(0.,-0.0128778,0.0465392284095287));
#1901=CARTESIAN_POINT('',(0.,-0.0128778,0.0442913284095287));
#1902=CARTESIAN_POINT('',(-0.0477987341582775,-0.0128778,1.37644176990167E-19));
#1903=CARTESIAN_POINT('',(-0.0477987341582775,-0.0128778,-0.0022479));
#1904=CARTESIAN_POINT('',(0.,-0.0128778,-0.0471572279930115));
#1905=CARTESIAN_POINT('',(0.,-0.0128778,-0.0494051279930115));
#1906=CARTESIAN_POINT('',(0.0458977222442627,-0.0128778,1.37644176990167E-19));
#1907=CARTESIAN_POINT('',(0.0458977222442627,-0.0128778,-0.0022479));
#1908=CARTESIAN_POINT('',(-0.000286991840696513,-0.0128778,-0.0794445430160097));
#1909=CARTESIAN_POINT('',(-0.000286991840696513,-0.0128778,-0.0816924430160097));
#1910=CARTESIAN_POINT('',(0.,-0.0128778,2.33295215237571E-18));
#1911=CARTESIAN_POINT('',(0.,-0.0128778,-0.0381));
#1912=CARTESIAN_POINT('',(-0.000679010996966115,-0.0128778,0.0793792536286667));
#1913=CARTESIAN_POINT('',(-0.000679010996966115,-0.0128778,0.0771313536286667));
#1914=CARTESIAN_POINT('',(0.078940928420939,-0.0128778,9.72551076063277E-5));
#1915=CARTESIAN_POINT('',(0.078940928420939,-0.0128778,-0.00215064489239367));
#1916=CARTESIAN_POINT('',(-0.0793517850481266,-0.0128778,-0.00043436889059184));
#1917=CARTESIAN_POINT('',(-0.0793517850481266,-0.0128778,-0.00268226889059184));
#1918=CARTESIAN_POINT('',(-0.0833082740511605,-0.0128778,-0.00103411651394722));
#1919=CARTESIAN_POINT('',(-0.0836021658144401,-0.0128778,0.0205319812683758));
#1920=CARTESIAN_POINT('',(-0.0830143822878808,-0.0128778,-0.0226002142962702));
#1921=CARTESIAN_POINT('',(-0.0525372120906818,-0.0128778,-0.022184886990448));
#1922=CARTESIAN_POINT('',(-0.0737941450541391,-0.0128778,-0.0440291814626227));
#1923=CARTESIAN_POINT('',(-0.0583367982097764,-0.0128778,-0.0590709025894856));
#1924=CARTESIAN_POINT('',(-0.0428794513654138,-0.0128778,-0.0741126237163485));
#1925=CARTESIAN_POINT('',(-0.0216225184019565,-0.0128778,-0.0522683292441736));
#1926=CARTESIAN_POINT('',(-0.0212071910961344,-0.0128778,-0.0827454994413727));
#1927=CARTESIAN_POINT('',(0.000358906686188623,-0.0128778,-0.082451607678093));
#1928=CARTESIAN_POINT('',(0.0219250044685117,-0.0128778,-0.0821577159148133));
#1929=CARTESIAN_POINT('',(0.0215096771626896,-0.0128778,-0.0516805457176144));
#1930=CARTESIAN_POINT('',(0.0433539716348643,-0.0128778,-0.0729374786810715));
#1931=CARTESIAN_POINT('',(0.0583956927617271,-0.0128778,-0.0574801318367088));
#1932=CARTESIAN_POINT('',(0.0734374138885899,-0.0128778,-0.0420227849923462));
#1933=CARTESIAN_POINT('',(0.0515931194164151,-0.0128778,-0.0207658520288889));
#1934=CARTESIAN_POINT('',(0.0820702896136142,-0.0128778,-0.0203505247230668));
#1935=CARTESIAN_POINT('',(0.0817763978503345,-0.0128778,0.0012155730592561));
#1936=CARTESIAN_POINT('',(0.0814825060870549,-0.0128778,0.0227816708415791));
#1937=CARTESIAN_POINT('',(0.0510053358898559,-0.0128778,0.022366343535757));
#1938=CARTESIAN_POINT('',(0.072262268853313,-0.0128778,0.0442106380079318));
#1939=CARTESIAN_POINT('',(0.0568049220089503,-0.0128778,0.0592523591347946));
#1940=CARTESIAN_POINT('',(0.0413475751645876,-0.0128778,0.0742940802616574));
#1941=CARTESIAN_POINT('',(0.0200906422011304,-0.0128778,0.0524497857894825));
#1942=CARTESIAN_POINT('',(0.0196753148953083,-0.0128778,0.0829269559866816));
#1943=CARTESIAN_POINT('',(-0.00189078288701481,-0.0128778,0.082633064223402));
#1944=CARTESIAN_POINT('',(-0.0234568806693378,-0.0128778,0.0823391724601223));
#1945=CARTESIAN_POINT('',(-0.0230415533635156,-0.0128778,0.0518620022629234));
#1946=CARTESIAN_POINT('',(-0.0448858478356904,-0.0128778,0.0731189352263805));
#1947=CARTESIAN_POINT('',(-0.0599275689625531,-0.0128778,0.0576615883820178));
#1948=CARTESIAN_POINT('',(-0.0749692900894159,-0.0128778,0.0422042415376552));
#1949=CARTESIAN_POINT('',(-0.0531249956172412,-0.0128778,0.020947308574198));
#1950=CARTESIAN_POINT('',(-0.0531249956172412,-0.0128778,0.020947308574198));
#1951=CARTESIAN_POINT('',(-0.0836021658144401,-0.0128778,0.0205319812683758));
#1952=CARTESIAN_POINT('',(-0.0749692900894159,-0.0128778,0.0422042415376552));
#1953=CARTESIAN_POINT('',(-0.0599275689625531,-0.0128778,0.0576615883820178));
#1954=CARTESIAN_POINT('',(-0.0448858478356904,-0.0128778,0.0731189352263805));
#1955=CARTESIAN_POINT('',(-0.0230415533635156,-0.0128778,0.0518620022629234));
#1956=CARTESIAN_POINT('',(-0.0234568806693378,-0.0128778,0.0823391724601223));
#1957=CARTESIAN_POINT('',(-0.00189078288701481,-0.0128778,0.082633064223402));
#1958=CARTESIAN_POINT('',(0.0196753148953083,-0.0128778,0.0829269559866816));
#1959=CARTESIAN_POINT('',(0.0200906422011304,-0.0128778,0.0524497857894825));
#1960=CARTESIAN_POINT('',(0.0413475751645876,-0.0128778,0.0742940802616574));
#1961=CARTESIAN_POINT('',(0.0568049220089503,-0.0128778,0.0592523591347946));
#1962=CARTESIAN_POINT('',(0.072262268853313,-0.0128778,0.0442106380079318));
#1963=CARTESIAN_POINT('',(0.0510053358898559,-0.0128778,0.022366343535757));
#1964=CARTESIAN_POINT('',(0.0814825060870549,-0.0128778,0.0227816708415791));
#1965=CARTESIAN_POINT('',(0.0817763978503345,-0.0128778,0.0012155730592561));
#1966=CARTESIAN_POINT('',(0.0820702896136142,-0.0128778,-0.0203505247230668));
#1967=CARTESIAN_POINT('',(0.0515931194164151,-0.0128778,-0.0207658520288889));
#1968=CARTESIAN_POINT('',(0.0734374138885899,-0.0128778,-0.0420227849923462));
#1969=CARTESIAN_POINT('',(0.0583956927617271,-0.0128778,-0.0574801318367088));
#1970=CARTESIAN_POINT('',(0.0433539716348643,-0.0128778,-0.0729374786810715));
#1971=CARTESIAN_POINT('',(0.0215096771626896,-0.0128778,-0.0516805457176144));
#1972=CARTESIAN_POINT('',(0.0219250044685117,-0.0128778,-0.0821577159148133));
#1973=CARTESIAN_POINT('',(0.000358906686188623,-0.0128778,-0.082451607678093));
#1974=CARTESIAN_POINT('',(-0.0212071910961344,-0.0128778,-0.0827454994413727));
#1975=CARTESIAN_POINT('',(-0.0216225184019565,-0.0128778,-0.0522683292441736));
#1976=CARTESIAN_POINT('',(-0.0428794513654138,-0.0128778,-0.0741126237163485));
#1977=CARTESIAN_POINT('',(-0.0583367982097764,-0.0128778,-0.0590709025894856));
#1978=CARTESIAN_POINT('',(-0.0737941450541391,-0.0128778,-0.0440291814626227));
#1979=CARTESIAN_POINT('',(-0.0525372120906818,-0.0128778,-0.022184886990448));
#1980=CARTESIAN_POINT('',(-0.0830143822878808,-0.0128778,-0.0226002142962702));
#1981=CARTESIAN_POINT('',(-0.0833082740511605,-0.0128778,-0.00103411651394722));
#1982=CARTESIAN_POINT('',(-0.000765938100412991,-0.0085852,9.07282726544389E-5));
#1983=CARTESIAN_POINT('',(0.,-0.0085852,0.0465392284095287));
#1984=CARTESIAN_POINT('',(0.,-0.0085852,0.0442913284095287));
#1985=CARTESIAN_POINT('',(-0.0477987341582775,-0.0085852,1.37644176990167E-19));
#1986=CARTESIAN_POINT('',(-0.0477987341582775,-0.0085852,-0.0022479));
#1987=CARTESIAN_POINT('',(0.,-0.0085852,-0.0471572279930115));
#1988=CARTESIAN_POINT('',(0.,-0.0085852,-0.0494051279930115));
#1989=CARTESIAN_POINT('',(0.0458977222442627,-0.0085852,1.37644176990167E-19));
#1990=CARTESIAN_POINT('',(0.0458977222442627,-0.0085852,-0.0022479));
#1991=CARTESIAN_POINT('',(0.,-0.0085852,2.33295215237571E-18));
#1992=CARTESIAN_POINT('',(0.,-0.0085852,0.0381));
#1993=CARTESIAN_POINT('',(-0.0793517850481266,-0.0339852,-0.00043436889059184));
#1994=CARTESIAN_POINT('',(0.078940928420939,-0.0339852,9.72551076063277E-5));
#1995=CARTESIAN_POINT('',(-0.000679010996966115,-0.0339852,0.0793792536286667));
#1996=CARTESIAN_POINT('',(0.,-0.0339852,2.33295215237571E-18));
#1997=CARTESIAN_POINT('',(-0.000286991840696513,-0.0339852,-0.0794445430160097));
#1998=CARTESIAN_POINT('',(0.0458977222442627,-0.0085852,1.37644176990167E-19));
#1999=CARTESIAN_POINT('',(0.,-0.0085852,-0.0471572279930115));
#2000=CARTESIAN_POINT('',(-0.0477987341582775,-0.0085852,1.37644176990167E-19));
#2001=CARTESIAN_POINT('',(0.,-0.0085852,0.0465392284095287));
#2002=MECHANICAL_DESIGN_GEOMETRIC_PRESENTATION_REPRESENTATION('',(#1173),
#2003);
#2003=(
GEOMETRIC_REPRESENTATION_CONTEXT(3)
GLOBAL_UNCERTAINTY_ASSIGNED_CONTEXT((#2004))
GLOBAL_UNIT_ASSIGNED_CONTEXT((#2007,#2006,#2005))
REPRESENTATION_CONTEXT('Part 1','TOP_LEVEL_ASSEMBLY_PART')
);
#2004=UNCERTAINTY_MEASURE_WITH_UNIT(LENGTH_MEASURE(1.E-8),#2007,
'DISTANCE_ACCURACY_VALUE','Maximum Tolerance applied to model');
#2005=(
NAMED_UNIT(*)
SI_UNIT($,.STERADIAN.)
SOLID_ANGLE_UNIT()
);
#2006=(
NAMED_UNIT(*)
PLANE_ANGLE_UNIT()
SI_UNIT($,.RADIAN.)
);
#2007=(
LENGTH_UNIT()
NAMED_UNIT(*)
SI_UNIT($,.METRE.)
);
#2008=PRODUCT_DEFINITION_SHAPE('','',#2009);
#2009=PRODUCT_DEFINITION('','',#2011,#2010);
#2010=PRODUCT_DEFINITION_CONTEXT('',#2017,'design');
#2011=PRODUCT_DEFINITION_FORMATION_WITH_SPECIFIED_SOURCE('','',#2013,
 .NOT_KNOWN.);
#2012=PRODUCT_RELATED_PRODUCT_CATEGORY('','',(#2013));
#2013=PRODUCT('Part 1','Part 1','Part 1',(#2015));
#2014=PRODUCT_CATEGORY('','');
#2015=PRODUCT_CONTEXT('',#2017,'mechanical');
#2016=APPLICATION_PROTOCOL_DEFINITION('international standard',
'ap242_managed_model_based_3d_engineering',2020,#2017);
#2017=APPLICATION_CONTEXT('managed model based 3d engineering');
ENDSEC;
END-ISO-10303-21;
