ISO-10303-21;
HEADER;
/* Generated by software containing ST-Developer
 * from STEP Tools, Inc. (www.steptools.com) 
 */
/* OPTION: using custom renumber hook */

FILE_DESCRIPTION(
/* description */ ('STEP AP242 Edition 2',
'CAx-IF Rec.Pracs.---Representation and Presentation of Product Manufa
cturing Information (PMI)---4.0---2014-10-13',
'CAx-IF Rec.Pracs.---3D Tessellated Geometry---0.4---2014-09-14','2;1',
'CAx-IF Rec.Pracs.---User Defined Attributes---1.5---2016-08-15'),
/* implementation_level */ '2;1');

FILE_NAME(
/* name */ 'ears',
/* time_stamp */ '2026-08-18T00:15:47Z',
/* author */ (''),
/* organization */ (''),
/* preprocessor_version */ 'ST-DEVELOPER v20',
/* originating_system */ 'ONSHAPE BY PTC INC, 1.219',
/* authorisation */ '  ');

FILE_SCHEMA (('AP242_MANAGED_MODEL_BASED_3D_ENGINEERING_MIM_LF { 1 0 10303 442 3 1 4 }'));
ENDSEC;

DATA;
#10=SHAPE_REPRESENTATION_RELATIONSHIP('','',#876,#13);
#11=SHAPE_REPRESENTATION_RELATIONSHIP('','',#877,#14);
#12=SHAPE_REPRESENTATION_RELATIONSHIP('','',#878,#15);
#13=ADVANCED_BREP_SHAPE_REPRESENTATION('',(#870),#1483);
#14=ADVANCED_BREP_SHAPE_REPRESENTATION('',(#871),#1484);
#15=ADVANCED_BREP_SHAPE_REPRESENTATION('',(#872),#1485);
#16=CIRCLE('',#882,0.00635);
#17=CIRCLE('',#883,0.00635);
#18=CIRCLE('',#885,0.0059436);
#19=CIRCLE('',#886,0.0059436);
#20=CIRCLE('',#891,0.0016002);
#21=CIRCLE('',#892,0.0016002);
#22=CIRCLE('',#893,0.0016002);
#23=CIRCLE('',#894,0.0016002);
#24=CIRCLE('',#895,0.0025273);
#25=CIRCLE('',#897,0.0010033);
#26=CIRCLE('',#898,0.0010033);
#27=CIRCLE('',#899,0.0010033);
#28=CIRCLE('',#900,0.0010033);
#29=CIRCLE('',#901,0.0020193);
#30=CIRCLE('',#903,0.0020193);
#31=CIRCLE('',#905,0.0025273);
#32=CIRCLE('',#908,0.0010033);
#33=CIRCLE('',#910,0.0016002);
#34=CIRCLE('',#913,0.0010033);
#35=CIRCLE('',#915,0.0016002);
#36=CIRCLE('',#918,0.0010033);
#37=CIRCLE('',#920,0.0016002);
#38=CIRCLE('',#923,0.0010033);
#39=CIRCLE('',#925,0.0016002);
#40=CIRCLE('',#930,0.00635);
#41=CIRCLE('',#931,0.00635);
#42=CIRCLE('',#933,0.0059436);
#43=CIRCLE('',#934,0.0059436);
#44=CIRCLE('',#939,0.0016002);
#45=CIRCLE('',#940,0.0016002);
#46=CIRCLE('',#941,0.0016002);
#47=CIRCLE('',#942,0.0016002);
#48=CIRCLE('',#943,0.0025273);
#49=CIRCLE('',#945,0.0010033);
#50=CIRCLE('',#946,0.0010033);
#51=CIRCLE('',#947,0.0010033);
#52=CIRCLE('',#948,0.0010033);
#53=CIRCLE('',#949,0.0020193);
#54=CIRCLE('',#951,0.0020193);
#55=CIRCLE('',#953,0.0025273);
#56=CIRCLE('',#956,0.0010033);
#57=CIRCLE('',#958,0.0016002);
#58=CIRCLE('',#961,0.0010033);
#59=CIRCLE('',#963,0.0016002);
#60=CIRCLE('',#966,0.0010033);
#61=CIRCLE('',#968,0.0016002);
#62=CIRCLE('',#971,0.0010033);
#63=CIRCLE('',#973,0.0016002);
#64=CIRCLE('',#978,0.018787150458133);
#65=CIRCLE('',#979,0.018787150458133);
#66=CYLINDRICAL_SURFACE('',#881,0.00635);
#67=CYLINDRICAL_SURFACE('',#884,0.0059436);
#68=CYLINDRICAL_SURFACE('',#902,0.0020193);
#69=CYLINDRICAL_SURFACE('',#906,0.0025273);
#70=CYLINDRICAL_SURFACE('',#907,0.0010033);
#71=CYLINDRICAL_SURFACE('',#911,0.0016002);
#72=CYLINDRICAL_SURFACE('',#912,0.0010033);
#73=CYLINDRICAL_SURFACE('',#916,0.0016002);
#74=CYLINDRICAL_SURFACE('',#917,0.0010033);
#75=CYLINDRICAL_SURFACE('',#921,0.0016002);
#76=CYLINDRICAL_SURFACE('',#922,0.0010033);
#77=CYLINDRICAL_SURFACE('',#926,0.0016002);
#78=CYLINDRICAL_SURFACE('',#929,0.00635);
#79=CYLINDRICAL_SURFACE('',#932,0.0059436);
#80=CYLINDRICAL_SURFACE('',#950,0.0020193);
#81=CYLINDRICAL_SURFACE('',#954,0.0025273);
#82=CYLINDRICAL_SURFACE('',#955,0.0010033);
#83=CYLINDRICAL_SURFACE('',#959,0.0016002);
#84=CYLINDRICAL_SURFACE('',#960,0.0010033);
#85=CYLINDRICAL_SURFACE('',#964,0.0016002);
#86=CYLINDRICAL_SURFACE('',#965,0.0010033);
#87=CYLINDRICAL_SURFACE('',#969,0.0016002);
#88=CYLINDRICAL_SURFACE('',#970,0.0010033);
#89=CYLINDRICAL_SURFACE('',#974,0.0016002);
#90=CYLINDRICAL_SURFACE('',#977,0.018787150458133);
#91=ORIENTED_EDGE('',*,*,#283,.T.);
#92=ORIENTED_EDGE('',*,*,#284,.F.);
#93=ORIENTED_EDGE('',*,*,#285,.F.);
#94=ORIENTED_EDGE('',*,*,#286,.T.);
#95=ORIENTED_EDGE('',*,*,#287,.F.);
#96=ORIENTED_EDGE('',*,*,#286,.F.);
#97=ORIENTED_EDGE('',*,*,#288,.T.);
#98=ORIENTED_EDGE('',*,*,#289,.T.);
#99=ORIENTED_EDGE('',*,*,#290,.F.);
#100=ORIENTED_EDGE('',*,*,#289,.F.);
#101=ORIENTED_EDGE('',*,*,#291,.T.);
#102=ORIENTED_EDGE('',*,*,#292,.T.);
#103=ORIENTED_EDGE('',*,*,#293,.F.);
#104=ORIENTED_EDGE('',*,*,#292,.F.);
#105=ORIENTED_EDGE('',*,*,#294,.T.);
#106=ORIENTED_EDGE('',*,*,#295,.T.);
#107=ORIENTED_EDGE('',*,*,#296,.F.);
#108=ORIENTED_EDGE('',*,*,#295,.F.);
#109=ORIENTED_EDGE('',*,*,#297,.T.);
#110=ORIENTED_EDGE('',*,*,#298,.T.);
#111=ORIENTED_EDGE('',*,*,#299,.F.);
#112=ORIENTED_EDGE('',*,*,#298,.F.);
#113=ORIENTED_EDGE('',*,*,#300,.T.);
#114=ORIENTED_EDGE('',*,*,#284,.T.);
#115=ORIENTED_EDGE('',*,*,#301,.T.);
#116=ORIENTED_EDGE('',*,*,#302,.T.);
#117=ORIENTED_EDGE('',*,*,#303,.T.);
#118=ORIENTED_EDGE('',*,*,#304,.T.);
#119=ORIENTED_EDGE('',*,*,#305,.T.);
#120=ORIENTED_EDGE('',*,*,#285,.T.);
#121=ORIENTED_EDGE('',*,*,#300,.F.);
#122=ORIENTED_EDGE('',*,*,#297,.F.);
#123=ORIENTED_EDGE('',*,*,#294,.F.);
#124=ORIENTED_EDGE('',*,*,#291,.F.);
#125=ORIENTED_EDGE('',*,*,#288,.F.);
#126=ORIENTED_EDGE('',*,*,#306,.T.);
#127=ORIENTED_EDGE('',*,*,#307,.T.);
#128=ORIENTED_EDGE('',*,*,#308,.T.);
#129=ORIENTED_EDGE('',*,*,#309,.T.);
#130=ORIENTED_EDGE('',*,*,#310,.T.);
#131=ORIENTED_EDGE('',*,*,#283,.F.);
#132=ORIENTED_EDGE('',*,*,#287,.T.);
#133=ORIENTED_EDGE('',*,*,#290,.T.);
#134=ORIENTED_EDGE('',*,*,#293,.T.);
#135=ORIENTED_EDGE('',*,*,#296,.T.);
#136=ORIENTED_EDGE('',*,*,#299,.T.);
#137=ORIENTED_EDGE('',*,*,#310,.F.);
#138=ORIENTED_EDGE('',*,*,#311,.F.);
#139=ORIENTED_EDGE('',*,*,#311,.T.);
#140=ORIENTED_EDGE('',*,*,#312,.F.);
#141=ORIENTED_EDGE('',*,*,#312,.T.);
#142=ORIENTED_EDGE('',*,*,#305,.F.);
#143=ORIENTED_EDGE('',*,*,#309,.F.);
#144=ORIENTED_EDGE('',*,*,#313,.F.);
#145=ORIENTED_EDGE('',*,*,#313,.T.);
#146=ORIENTED_EDGE('',*,*,#314,.F.);
#147=ORIENTED_EDGE('',*,*,#314,.T.);
#148=ORIENTED_EDGE('',*,*,#304,.F.);
#149=ORIENTED_EDGE('',*,*,#308,.F.);
#150=ORIENTED_EDGE('',*,*,#315,.F.);
#151=ORIENTED_EDGE('',*,*,#315,.T.);
#152=ORIENTED_EDGE('',*,*,#316,.F.);
#153=ORIENTED_EDGE('',*,*,#316,.T.);
#154=ORIENTED_EDGE('',*,*,#303,.F.);
#155=ORIENTED_EDGE('',*,*,#307,.F.);
#156=ORIENTED_EDGE('',*,*,#317,.F.);
#157=ORIENTED_EDGE('',*,*,#317,.T.);
#158=ORIENTED_EDGE('',*,*,#318,.F.);
#159=ORIENTED_EDGE('',*,*,#318,.T.);
#160=ORIENTED_EDGE('',*,*,#302,.F.);
#161=ORIENTED_EDGE('',*,*,#306,.F.);
#162=ORIENTED_EDGE('',*,*,#319,.F.);
#163=ORIENTED_EDGE('',*,*,#319,.T.);
#164=ORIENTED_EDGE('',*,*,#320,.F.);
#165=ORIENTED_EDGE('',*,*,#320,.T.);
#166=ORIENTED_EDGE('',*,*,#301,.F.);
#167=ORIENTED_EDGE('',*,*,#321,.F.);
#168=ORIENTED_EDGE('',*,*,#322,.F.);
#169=ORIENTED_EDGE('',*,*,#323,.T.);
#170=ORIENTED_EDGE('',*,*,#324,.T.);
#171=ORIENTED_EDGE('',*,*,#325,.T.);
#172=ORIENTED_EDGE('',*,*,#326,.F.);
#173=ORIENTED_EDGE('',*,*,#327,.F.);
#174=ORIENTED_EDGE('',*,*,#322,.T.);
#175=ORIENTED_EDGE('',*,*,#328,.T.);
#176=ORIENTED_EDGE('',*,*,#329,.F.);
#177=ORIENTED_EDGE('',*,*,#330,.F.);
#178=ORIENTED_EDGE('',*,*,#326,.T.);
#179=ORIENTED_EDGE('',*,*,#331,.T.);
#180=ORIENTED_EDGE('',*,*,#332,.F.);
#181=ORIENTED_EDGE('',*,*,#333,.F.);
#182=ORIENTED_EDGE('',*,*,#329,.T.);
#183=ORIENTED_EDGE('',*,*,#334,.T.);
#184=ORIENTED_EDGE('',*,*,#335,.F.);
#185=ORIENTED_EDGE('',*,*,#336,.F.);
#186=ORIENTED_EDGE('',*,*,#332,.T.);
#187=ORIENTED_EDGE('',*,*,#337,.T.);
#188=ORIENTED_EDGE('',*,*,#324,.F.);
#189=ORIENTED_EDGE('',*,*,#338,.F.);
#190=ORIENTED_EDGE('',*,*,#335,.T.);
#191=ORIENTED_EDGE('',*,*,#339,.T.);
#192=ORIENTED_EDGE('',*,*,#340,.T.);
#193=ORIENTED_EDGE('',*,*,#341,.T.);
#194=ORIENTED_EDGE('',*,*,#342,.T.);
#195=ORIENTED_EDGE('',*,*,#343,.T.);
#196=ORIENTED_EDGE('',*,*,#323,.F.);
#197=ORIENTED_EDGE('',*,*,#327,.T.);
#198=ORIENTED_EDGE('',*,*,#330,.T.);
#199=ORIENTED_EDGE('',*,*,#333,.T.);
#200=ORIENTED_EDGE('',*,*,#336,.T.);
#201=ORIENTED_EDGE('',*,*,#338,.T.);
#202=ORIENTED_EDGE('',*,*,#344,.F.);
#203=ORIENTED_EDGE('',*,*,#345,.F.);
#204=ORIENTED_EDGE('',*,*,#346,.F.);
#205=ORIENTED_EDGE('',*,*,#347,.F.);
#206=ORIENTED_EDGE('',*,*,#348,.F.);
#207=ORIENTED_EDGE('',*,*,#321,.T.);
#208=ORIENTED_EDGE('',*,*,#337,.F.);
#209=ORIENTED_EDGE('',*,*,#334,.F.);
#210=ORIENTED_EDGE('',*,*,#331,.F.);
#211=ORIENTED_EDGE('',*,*,#328,.F.);
#212=ORIENTED_EDGE('',*,*,#325,.F.);
#213=ORIENTED_EDGE('',*,*,#349,.F.);
#214=ORIENTED_EDGE('',*,*,#348,.T.);
#215=ORIENTED_EDGE('',*,*,#349,.T.);
#216=ORIENTED_EDGE('',*,*,#350,.F.);
#217=ORIENTED_EDGE('',*,*,#350,.T.);
#218=ORIENTED_EDGE('',*,*,#343,.F.);
#219=ORIENTED_EDGE('',*,*,#351,.F.);
#220=ORIENTED_EDGE('',*,*,#347,.T.);
#221=ORIENTED_EDGE('',*,*,#351,.T.);
#222=ORIENTED_EDGE('',*,*,#352,.F.);
#223=ORIENTED_EDGE('',*,*,#352,.T.);
#224=ORIENTED_EDGE('',*,*,#342,.F.);
#225=ORIENTED_EDGE('',*,*,#353,.F.);
#226=ORIENTED_EDGE('',*,*,#346,.T.);
#227=ORIENTED_EDGE('',*,*,#353,.T.);
#228=ORIENTED_EDGE('',*,*,#354,.F.);
#229=ORIENTED_EDGE('',*,*,#354,.T.);
#230=ORIENTED_EDGE('',*,*,#341,.F.);
#231=ORIENTED_EDGE('',*,*,#355,.F.);
#232=ORIENTED_EDGE('',*,*,#345,.T.);
#233=ORIENTED_EDGE('',*,*,#355,.T.);
#234=ORIENTED_EDGE('',*,*,#356,.F.);
#235=ORIENTED_EDGE('',*,*,#356,.T.);
#236=ORIENTED_EDGE('',*,*,#340,.F.);
#237=ORIENTED_EDGE('',*,*,#357,.F.);
#238=ORIENTED_EDGE('',*,*,#344,.T.);
#239=ORIENTED_EDGE('',*,*,#357,.T.);
#240=ORIENTED_EDGE('',*,*,#358,.F.);
#241=ORIENTED_EDGE('',*,*,#358,.T.);
#242=ORIENTED_EDGE('',*,*,#339,.F.);
#243=ORIENTED_EDGE('',*,*,#359,.F.);
#244=ORIENTED_EDGE('',*,*,#360,.T.);
#245=ORIENTED_EDGE('',*,*,#361,.F.);
#246=ORIENTED_EDGE('',*,*,#362,.F.);
#247=ORIENTED_EDGE('',*,*,#363,.T.);
#248=ORIENTED_EDGE('',*,*,#364,.T.);
#249=ORIENTED_EDGE('',*,*,#365,.T.);
#250=ORIENTED_EDGE('',*,*,#363,.F.);
#251=ORIENTED_EDGE('',*,*,#366,.F.);
#252=ORIENTED_EDGE('',*,*,#361,.T.);
#253=ORIENTED_EDGE('',*,*,#367,.F.);
#254=ORIENTED_EDGE('',*,*,#362,.T.);
#255=ORIENTED_EDGE('',*,*,#366,.T.);
#256=ORIENTED_EDGE('',*,*,#364,.F.);
#257=ORIENTED_EDGE('',*,*,#365,.F.);
#258=ORIENTED_EDGE('',*,*,#368,.T.);
#259=ORIENTED_EDGE('',*,*,#369,.F.);
#260=ORIENTED_EDGE('',*,*,#370,.F.);
#261=ORIENTED_EDGE('',*,*,#371,.T.);
#262=ORIENTED_EDGE('',*,*,#368,.F.);
#263=ORIENTED_EDGE('',*,*,#367,.T.);
#264=ORIENTED_EDGE('',*,*,#372,.T.);
#265=ORIENTED_EDGE('',*,*,#373,.T.);
#266=ORIENTED_EDGE('',*,*,#360,.F.);
#267=ORIENTED_EDGE('',*,*,#374,.F.);
#268=ORIENTED_EDGE('',*,*,#375,.T.);
#269=ORIENTED_EDGE('',*,*,#376,.T.);
#270=ORIENTED_EDGE('',*,*,#372,.F.);
#271=ORIENTED_EDGE('',*,*,#359,.T.);
#272=ORIENTED_EDGE('',*,*,#371,.F.);
#273=ORIENTED_EDGE('',*,*,#377,.F.);
#274=ORIENTED_EDGE('',*,*,#374,.T.);
#275=ORIENTED_EDGE('',*,*,#373,.F.);
#276=ORIENTED_EDGE('',*,*,#376,.F.);
#277=ORIENTED_EDGE('',*,*,#378,.T.);
#278=ORIENTED_EDGE('',*,*,#369,.T.);
#279=ORIENTED_EDGE('',*,*,#375,.F.);
#280=ORIENTED_EDGE('',*,*,#377,.T.);
#281=ORIENTED_EDGE('',*,*,#370,.T.);
#282=ORIENTED_EDGE('',*,*,#378,.F.);
#283=EDGE_CURVE('',#379,#380,#456,.T.);
#284=EDGE_CURVE('',#381,#380,#457,.T.);
#285=EDGE_CURVE('',#382,#381,#458,.T.);
#286=EDGE_CURVE('',#382,#379,#459,.T.);
#287=EDGE_CURVE('',#379,#383,#16,.T.);
#288=EDGE_CURVE('',#382,#384,#17,.T.);
#289=EDGE_CURVE('',#384,#383,#460,.T.);
#290=EDGE_CURVE('',#383,#385,#18,.T.);
#291=EDGE_CURVE('',#384,#386,#19,.T.);
#292=EDGE_CURVE('',#386,#385,#461,.T.);
#293=EDGE_CURVE('',#385,#387,#462,.T.);
#294=EDGE_CURVE('',#386,#388,#463,.T.);
#295=EDGE_CURVE('',#388,#387,#464,.T.);
#296=EDGE_CURVE('',#387,#389,#465,.T.);
#297=EDGE_CURVE('',#388,#390,#466,.T.);
#298=EDGE_CURVE('',#390,#389,#467,.T.);
#299=EDGE_CURVE('',#389,#380,#468,.T.);
#300=EDGE_CURVE('',#390,#381,#469,.T.);
#301=EDGE_CURVE('',#391,#391,#20,.T.);
#302=EDGE_CURVE('',#392,#392,#21,.T.);
#303=EDGE_CURVE('',#393,#393,#22,.T.);
#304=EDGE_CURVE('',#394,#394,#23,.T.);
#305=EDGE_CURVE('',#395,#395,#24,.T.);
#306=EDGE_CURVE('',#396,#396,#25,.F.);
#307=EDGE_CURVE('',#397,#397,#26,.F.);
#308=EDGE_CURVE('',#398,#398,#27,.F.);
#309=EDGE_CURVE('',#399,#399,#28,.F.);
#310=EDGE_CURVE('',#400,#400,#29,.F.);
#311=EDGE_CURVE('',#401,#401,#30,.T.);
#312=EDGE_CURVE('',#402,#402,#31,.T.);
#313=EDGE_CURVE('',#403,#403,#32,.T.);
#314=EDGE_CURVE('',#404,#404,#33,.T.);
#315=EDGE_CURVE('',#405,#405,#34,.T.);
#316=EDGE_CURVE('',#406,#406,#35,.T.);
#317=EDGE_CURVE('',#407,#407,#36,.T.);
#318=EDGE_CURVE('',#408,#408,#37,.T.);
#319=EDGE_CURVE('',#409,#409,#38,.T.);
#320=EDGE_CURVE('',#410,#410,#39,.T.);
#321=EDGE_CURVE('',#411,#412,#470,.T.);
#322=EDGE_CURVE('',#413,#411,#471,.T.);
#323=EDGE_CURVE('',#413,#414,#472,.T.);
#324=EDGE_CURVE('',#414,#412,#473,.T.);
#325=EDGE_CURVE('',#411,#415,#40,.T.);
#326=EDGE_CURVE('',#416,#415,#474,.T.);
#327=EDGE_CURVE('',#413,#416,#41,.T.);
#328=EDGE_CURVE('',#415,#417,#42,.T.);
#329=EDGE_CURVE('',#418,#417,#475,.T.);
#330=EDGE_CURVE('',#416,#418,#43,.T.);
#331=EDGE_CURVE('',#417,#419,#476,.T.);
#332=EDGE_CURVE('',#420,#419,#477,.T.);
#333=EDGE_CURVE('',#418,#420,#478,.T.);
#334=EDGE_CURVE('',#419,#421,#479,.T.);
#335=EDGE_CURVE('',#422,#421,#480,.T.);
#336=EDGE_CURVE('',#420,#422,#481,.T.);
#337=EDGE_CURVE('',#421,#412,#482,.T.);
#338=EDGE_CURVE('',#422,#414,#483,.T.);
#339=EDGE_CURVE('',#423,#423,#44,.T.);
#340=EDGE_CURVE('',#424,#424,#45,.T.);
#341=EDGE_CURVE('',#425,#425,#46,.T.);
#342=EDGE_CURVE('',#426,#426,#47,.T.);
#343=EDGE_CURVE('',#427,#427,#48,.T.);
#344=EDGE_CURVE('',#428,#428,#49,.F.);
#345=EDGE_CURVE('',#429,#429,#50,.F.);
#346=EDGE_CURVE('',#430,#430,#51,.F.);
#347=EDGE_CURVE('',#431,#431,#52,.F.);
#348=EDGE_CURVE('',#432,#432,#53,.F.);
#349=EDGE_CURVE('',#433,#433,#54,.T.);
#350=EDGE_CURVE('',#434,#434,#55,.T.);
#351=EDGE_CURVE('',#435,#435,#56,.T.);
#352=EDGE_CURVE('',#436,#436,#57,.T.);
#353=EDGE_CURVE('',#437,#437,#58,.T.);
#354=EDGE_CURVE('',#438,#438,#59,.T.);
#355=EDGE_CURVE('',#439,#439,#60,.T.);
#356=EDGE_CURVE('',#440,#440,#61,.T.);
#357=EDGE_CURVE('',#441,#441,#62,.T.);
#358=EDGE_CURVE('',#442,#442,#63,.T.);
#359=EDGE_CURVE('',#443,#444,#484,.T.);
#360=EDGE_CURVE('',#443,#445,#485,.T.);
#361=EDGE_CURVE('',#446,#445,#486,.T.);
#362=EDGE_CURVE('',#447,#446,#487,.T.);
#363=EDGE_CURVE('',#447,#448,#488,.T.);
#364=EDGE_CURVE('',#448,#444,#489,.T.);
#365=EDGE_CURVE('',#449,#448,#64,.T.);
#366=EDGE_CURVE('',#446,#447,#65,.T.);
#367=EDGE_CURVE('',#449,#445,#490,.F.);
#368=EDGE_CURVE('',#449,#450,#491,.T.);
#369=EDGE_CURVE('',#451,#450,#492,.T.);
#370=EDGE_CURVE('',#452,#451,#493,.T.);
#371=EDGE_CURVE('',#452,#444,#494,.T.);
#372=EDGE_CURVE('',#445,#453,#495,.T.);
#373=EDGE_CURVE('',#453,#450,#496,.T.);
#374=EDGE_CURVE('',#454,#443,#497,.T.);
#375=EDGE_CURVE('',#454,#455,#498,.T.);
#376=EDGE_CURVE('',#455,#453,#499,.T.);
#377=EDGE_CURVE('',#454,#452,#500,.T.);
#378=EDGE_CURVE('',#455,#451,#501,.T.);
#379=VERTEX_POINT('',#1252);
#380=VERTEX_POINT('',#1253);
#381=VERTEX_POINT('',#1255);
#382=VERTEX_POINT('',#1257);
#383=VERTEX_POINT('',#1261);
#384=VERTEX_POINT('',#1263);
#385=VERTEX_POINT('',#1267);
#386=VERTEX_POINT('',#1269);
#387=VERTEX_POINT('',#1273);
#388=VERTEX_POINT('',#1275);
#389=VERTEX_POINT('',#1279);
#390=VERTEX_POINT('',#1281);
#391=VERTEX_POINT('',#1288);
#392=VERTEX_POINT('',#1290);
#393=VERTEX_POINT('',#1292);
#394=VERTEX_POINT('',#1294);
#395=VERTEX_POINT('',#1296);
#396=VERTEX_POINT('',#1299);
#397=VERTEX_POINT('',#1301);
#398=VERTEX_POINT('',#1303);
#399=VERTEX_POINT('',#1305);
#400=VERTEX_POINT('',#1307);
#401=VERTEX_POINT('',#1310);
#402=VERTEX_POINT('',#1313);
#403=VERTEX_POINT('',#1317);
#404=VERTEX_POINT('',#1320);
#405=VERTEX_POINT('',#1324);
#406=VERTEX_POINT('',#1327);
#407=VERTEX_POINT('',#1331);
#408=VERTEX_POINT('',#1334);
#409=VERTEX_POINT('',#1338);
#410=VERTEX_POINT('',#1341);
#411=VERTEX_POINT('',#1346);
#412=VERTEX_POINT('',#1347);
#413=VERTEX_POINT('',#1349);
#414=VERTEX_POINT('',#1351);
#415=VERTEX_POINT('',#1355);
#416=VERTEX_POINT('',#1357);
#417=VERTEX_POINT('',#1361);
#418=VERTEX_POINT('',#1363);
#419=VERTEX_POINT('',#1367);
#420=VERTEX_POINT('',#1369);
#421=VERTEX_POINT('',#1373);
#422=VERTEX_POINT('',#1375);
#423=VERTEX_POINT('',#1382);
#424=VERTEX_POINT('',#1384);
#425=VERTEX_POINT('',#1386);
#426=VERTEX_POINT('',#1388);
#427=VERTEX_POINT('',#1390);
#428=VERTEX_POINT('',#1393);
#429=VERTEX_POINT('',#1395);
#430=VERTEX_POINT('',#1397);
#431=VERTEX_POINT('',#1399);
#432=VERTEX_POINT('',#1401);
#433=VERTEX_POINT('',#1404);
#434=VERTEX_POINT('',#1407);
#435=VERTEX_POINT('',#1411);
#436=VERTEX_POINT('',#1414);
#437=VERTEX_POINT('',#1418);
#438=VERTEX_POINT('',#1421);
#439=VERTEX_POINT('',#1425);
#440=VERTEX_POINT('',#1428);
#441=VERTEX_POINT('',#1432);
#442=VERTEX_POINT('',#1435);
#443=VERTEX_POINT('',#1440);
#444=VERTEX_POINT('',#1441);
#445=VERTEX_POINT('',#1443);
#446=VERTEX_POINT('',#1445);
#447=VERTEX_POINT('',#1447);
#448=VERTEX_POINT('',#1449);
#449=VERTEX_POINT('',#1453);
#450=VERTEX_POINT('',#1459);
#451=VERTEX_POINT('',#1461);
#452=VERTEX_POINT('',#1463);
#453=VERTEX_POINT('',#1467);
#454=VERTEX_POINT('',#1471);
#455=VERTEX_POINT('',#1473);
#456=LINE('',#1251,#502);
#457=LINE('',#1254,#503);
#458=LINE('',#1256,#504);
#459=LINE('',#1258,#505);
#460=LINE('',#1264,#506);
#461=LINE('',#1270,#507);
#462=LINE('',#1272,#508);
#463=LINE('',#1274,#509);
#464=LINE('',#1276,#510);
#465=LINE('',#1278,#511);
#466=LINE('',#1280,#512);
#467=LINE('',#1282,#513);
#468=LINE('',#1284,#514);
#469=LINE('',#1285,#515);
#470=LINE('',#1345,#516);
#471=LINE('',#1348,#517);
#472=LINE('',#1350,#518);
#473=LINE('',#1352,#519);
#474=LINE('',#1356,#520);
#475=LINE('',#1362,#521);
#476=LINE('',#1366,#522);
#477=LINE('',#1368,#523);
#478=LINE('',#1370,#524);
#479=LINE('',#1372,#525);
#480=LINE('',#1374,#526);
#481=LINE('',#1376,#527);
#482=LINE('',#1378,#528);
#483=LINE('',#1379,#529);
#484=LINE('',#1439,#530);
#485=LINE('',#1442,#531);
#486=LINE('',#1444,#532);
#487=LINE('',#1446,#533);
#488=LINE('',#1448,#534);
#489=LINE('',#1450,#535);
#490=LINE('',#1455,#536);
#491=LINE('',#1458,#537);
#492=LINE('',#1460,#538);
#493=LINE('',#1462,#539);
#494=LINE('',#1464,#540);
#495=LINE('',#1466,#541);
#496=LINE('',#1468,#542);
#497=LINE('',#1470,#543);
#498=LINE('',#1472,#544);
#499=LINE('',#1474,#545);
#500=LINE('',#1476,#546);
#501=LINE('',#1478,#547);
#502=VECTOR('',#991,1.);
#503=VECTOR('',#992,1.);
#504=VECTOR('',#993,1.);
#505=VECTOR('',#994,1.);
#506=VECTOR('',#1001,1.);
#507=VECTOR('',#1008,1.);
#508=VECTOR('',#1011,1.);
#509=VECTOR('',#1012,1.);
#510=VECTOR('',#1013,1.);
#511=VECTOR('',#1016,1.);
#512=VECTOR('',#1017,1.);
#513=VECTOR('',#1018,1.);
#514=VECTOR('',#1021,1.);
#515=VECTOR('',#1022,1.);
#516=VECTOR('',#1101,1.);
#517=VECTOR('',#1102,1.);
#518=VECTOR('',#1103,1.);
#519=VECTOR('',#1104,1.);
#520=VECTOR('',#1109,1.);
#521=VECTOR('',#1116,1.);
#522=VECTOR('',#1121,1.);
#523=VECTOR('',#1122,1.);
#524=VECTOR('',#1123,1.);
#525=VECTOR('',#1126,1.);
#526=VECTOR('',#1127,1.);
#527=VECTOR('',#1128,1.);
#528=VECTOR('',#1131,1.);
#529=VECTOR('',#1132,1.);
#530=VECTOR('',#1211,1.);
#531=VECTOR('',#1212,1.);
#532=VECTOR('',#1213,1.);
#533=VECTOR('',#1214,1.);
#534=VECTOR('',#1215,1.);
#535=VECTOR('',#1216,1.);
#536=VECTOR('',#1223,1.);
#537=VECTOR('',#1228,1.);
#538=VECTOR('',#1229,1.);
#539=VECTOR('',#1230,1.);
#540=VECTOR('',#1231,1.);
#541=VECTOR('',#1234,1.);
#542=VECTOR('',#1235,1.);
#543=VECTOR('',#1238,1.);
#544=VECTOR('',#1239,1.);
#545=VECTOR('',#1240,1.);
#546=VECTOR('',#1243,1.);
#547=VECTOR('',#1246,1.);
#548=EDGE_LOOP('',(#91,#92,#93,#94));
#549=EDGE_LOOP('',(#95,#96,#97,#98));
#550=EDGE_LOOP('',(#99,#100,#101,#102));
#551=EDGE_LOOP('',(#103,#104,#105,#106));
#552=EDGE_LOOP('',(#107,#108,#109,#110));
#553=EDGE_LOOP('',(#111,#112,#113,#114));
#554=EDGE_LOOP('',(#115));
#555=EDGE_LOOP('',(#116));
#556=EDGE_LOOP('',(#117));
#557=EDGE_LOOP('',(#118));
#558=EDGE_LOOP('',(#119));
#559=EDGE_LOOP('',(#120,#121,#122,#123,#124,#125));
#560=EDGE_LOOP('',(#126));
#561=EDGE_LOOP('',(#127));
#562=EDGE_LOOP('',(#128));
#563=EDGE_LOOP('',(#129));
#564=EDGE_LOOP('',(#130));
#565=EDGE_LOOP('',(#131,#132,#133,#134,#135,#136));
#566=EDGE_LOOP('',(#137));
#567=EDGE_LOOP('',(#138));
#568=EDGE_LOOP('',(#139));
#569=EDGE_LOOP('',(#140));
#570=EDGE_LOOP('',(#141));
#571=EDGE_LOOP('',(#142));
#572=EDGE_LOOP('',(#143));
#573=EDGE_LOOP('',(#144));
#574=EDGE_LOOP('',(#145));
#575=EDGE_LOOP('',(#146));
#576=EDGE_LOOP('',(#147));
#577=EDGE_LOOP('',(#148));
#578=EDGE_LOOP('',(#149));
#579=EDGE_LOOP('',(#150));
#580=EDGE_LOOP('',(#151));
#581=EDGE_LOOP('',(#152));
#582=EDGE_LOOP('',(#153));
#583=EDGE_LOOP('',(#154));
#584=EDGE_LOOP('',(#155));
#585=EDGE_LOOP('',(#156));
#586=EDGE_LOOP('',(#157));
#587=EDGE_LOOP('',(#158));
#588=EDGE_LOOP('',(#159));
#589=EDGE_LOOP('',(#160));
#590=EDGE_LOOP('',(#161));
#591=EDGE_LOOP('',(#162));
#592=EDGE_LOOP('',(#163));
#593=EDGE_LOOP('',(#164));
#594=EDGE_LOOP('',(#165));
#595=EDGE_LOOP('',(#166));
#596=EDGE_LOOP('',(#167,#168,#169,#170));
#597=EDGE_LOOP('',(#171,#172,#173,#174));
#598=EDGE_LOOP('',(#175,#176,#177,#178));
#599=EDGE_LOOP('',(#179,#180,#181,#182));
#600=EDGE_LOOP('',(#183,#184,#185,#186));
#601=EDGE_LOOP('',(#187,#188,#189,#190));
#602=EDGE_LOOP('',(#191));
#603=EDGE_LOOP('',(#192));
#604=EDGE_LOOP('',(#193));
#605=EDGE_LOOP('',(#194));
#606=EDGE_LOOP('',(#195));
#607=EDGE_LOOP('',(#196,#197,#198,#199,#200,#201));
#608=EDGE_LOOP('',(#202));
#609=EDGE_LOOP('',(#203));
#610=EDGE_LOOP('',(#204));
#611=EDGE_LOOP('',(#205));
#612=EDGE_LOOP('',(#206));
#613=EDGE_LOOP('',(#207,#208,#209,#210,#211,#212));
#614=EDGE_LOOP('',(#213));
#615=EDGE_LOOP('',(#214));
#616=EDGE_LOOP('',(#215));
#617=EDGE_LOOP('',(#216));
#618=EDGE_LOOP('',(#217));
#619=EDGE_LOOP('',(#218));
#620=EDGE_LOOP('',(#219));
#621=EDGE_LOOP('',(#220));
#622=EDGE_LOOP('',(#221));
#623=EDGE_LOOP('',(#222));
#624=EDGE_LOOP('',(#223));
#625=EDGE_LOOP('',(#224));
#626=EDGE_LOOP('',(#225));
#627=EDGE_LOOP('',(#226));
#628=EDGE_LOOP('',(#227));
#629=EDGE_LOOP('',(#228));
#630=EDGE_LOOP('',(#229));
#631=EDGE_LOOP('',(#230));
#632=EDGE_LOOP('',(#231));
#633=EDGE_LOOP('',(#232));
#634=EDGE_LOOP('',(#233));
#635=EDGE_LOOP('',(#234));
#636=EDGE_LOOP('',(#235));
#637=EDGE_LOOP('',(#236));
#638=EDGE_LOOP('',(#237));
#639=EDGE_LOOP('',(#238));
#640=EDGE_LOOP('',(#239));
#641=EDGE_LOOP('',(#240));
#642=EDGE_LOOP('',(#241));
#643=EDGE_LOOP('',(#242));
#644=EDGE_LOOP('',(#243,#244,#245,#246,#247,#248));
#645=EDGE_LOOP('',(#249,#250,#251,#252,#253));
#646=EDGE_LOOP('',(#254,#255));
#647=EDGE_LOOP('',(#256,#257,#258,#259,#260,#261));
#648=EDGE_LOOP('',(#262,#263,#264,#265));
#649=EDGE_LOOP('',(#266,#267,#268,#269,#270));
#650=EDGE_LOOP('',(#271,#272,#273,#274));
#651=EDGE_LOOP('',(#275,#276,#277,#278));
#652=EDGE_LOOP('',(#279,#280,#281,#282));
#653=FACE_BOUND('',#548,.T.);
#654=FACE_BOUND('',#549,.T.);
#655=FACE_BOUND('',#550,.T.);
#656=FACE_BOUND('',#551,.T.);
#657=FACE_BOUND('',#552,.T.);
#658=FACE_BOUND('',#553,.T.);
#659=FACE_BOUND('',#554,.T.);
#660=FACE_BOUND('',#555,.T.);
#661=FACE_BOUND('',#556,.T.);
#662=FACE_BOUND('',#557,.T.);
#663=FACE_BOUND('',#558,.T.);
#664=FACE_BOUND('',#559,.T.);
#665=FACE_BOUND('',#560,.T.);
#666=FACE_BOUND('',#561,.T.);
#667=FACE_BOUND('',#562,.T.);
#668=FACE_BOUND('',#563,.T.);
#669=FACE_BOUND('',#564,.T.);
#670=FACE_BOUND('',#565,.T.);
#671=FACE_BOUND('',#566,.T.);
#672=FACE_BOUND('',#567,.T.);
#673=FACE_BOUND('',#568,.T.);
#674=FACE_BOUND('',#569,.T.);
#675=FACE_BOUND('',#570,.T.);
#676=FACE_BOUND('',#571,.T.);
#677=FACE_BOUND('',#572,.T.);
#678=FACE_BOUND('',#573,.T.);
#679=FACE_BOUND('',#574,.T.);
#680=FACE_BOUND('',#575,.T.);
#681=FACE_BOUND('',#576,.T.);
#682=FACE_BOUND('',#577,.T.);
#683=FACE_BOUND('',#578,.T.);
#684=FACE_BOUND('',#579,.T.);
#685=FACE_BOUND('',#580,.T.);
#686=FACE_BOUND('',#581,.T.);
#687=FACE_BOUND('',#582,.T.);
#688=FACE_BOUND('',#583,.T.);
#689=FACE_BOUND('',#584,.T.);
#690=FACE_BOUND('',#585,.T.);
#691=FACE_BOUND('',#586,.T.);
#692=FACE_BOUND('',#587,.T.);
#693=FACE_BOUND('',#588,.T.);
#694=FACE_BOUND('',#589,.T.);
#695=FACE_BOUND('',#590,.T.);
#696=FACE_BOUND('',#591,.T.);
#697=FACE_BOUND('',#592,.T.);
#698=FACE_BOUND('',#593,.T.);
#699=FACE_BOUND('',#594,.T.);
#700=FACE_BOUND('',#595,.T.);
#701=FACE_BOUND('',#596,.T.);
#702=FACE_BOUND('',#597,.T.);
#703=FACE_BOUND('',#598,.T.);
#704=FACE_BOUND('',#599,.T.);
#705=FACE_BOUND('',#600,.T.);
#706=FACE_BOUND('',#601,.T.);
#707=FACE_BOUND('',#602,.T.);
#708=FACE_BOUND('',#603,.T.);
#709=FACE_BOUND('',#604,.T.);
#710=FACE_BOUND('',#605,.T.);
#711=FACE_BOUND('',#606,.T.);
#712=FACE_BOUND('',#607,.T.);
#713=FACE_BOUND('',#608,.T.);
#714=FACE_BOUND('',#609,.T.);
#715=FACE_BOUND('',#610,.T.);
#716=FACE_BOUND('',#611,.T.);
#717=FACE_BOUND('',#612,.T.);
#718=FACE_BOUND('',#613,.T.);
#719=FACE_BOUND('',#614,.T.);
#720=FACE_BOUND('',#615,.T.);
#721=FACE_BOUND('',#616,.T.);
#722=FACE_BOUND('',#617,.T.);
#723=FACE_BOUND('',#618,.T.);
#724=FACE_BOUND('',#619,.T.);
#725=FACE_BOUND('',#620,.T.);
#726=FACE_BOUND('',#621,.T.);
#727=FACE_BOUND('',#622,.T.);
#728=FACE_BOUND('',#623,.T.);
#729=FACE_BOUND('',#624,.T.);
#730=FACE_BOUND('',#625,.T.);
#731=FACE_BOUND('',#626,.T.);
#732=FACE_BOUND('',#627,.T.);
#733=FACE_BOUND('',#628,.T.);
#734=FACE_BOUND('',#629,.T.);
#735=FACE_BOUND('',#630,.T.);
#736=FACE_BOUND('',#631,.T.);
#737=FACE_BOUND('',#632,.T.);
#738=FACE_BOUND('',#633,.T.);
#739=FACE_BOUND('',#634,.T.);
#740=FACE_BOUND('',#635,.T.);
#741=FACE_BOUND('',#636,.T.);
#742=FACE_BOUND('',#637,.T.);
#743=FACE_BOUND('',#638,.T.);
#744=FACE_BOUND('',#639,.T.);
#745=FACE_BOUND('',#640,.T.);
#746=FACE_BOUND('',#641,.T.);
#747=FACE_BOUND('',#642,.T.);
#748=FACE_BOUND('',#643,.T.);
#749=FACE_BOUND('',#644,.T.);
#750=FACE_BOUND('',#645,.T.);
#751=FACE_BOUND('',#646,.T.);
#752=FACE_BOUND('',#647,.T.);
#753=FACE_BOUND('',#648,.T.);
#754=FACE_BOUND('',#649,.T.);
#755=FACE_BOUND('',#650,.T.);
#756=FACE_BOUND('',#651,.T.);
#757=FACE_BOUND('',#652,.T.);
#758=PLANE('',#880);
#759=PLANE('',#887);
#760=PLANE('',#888);
#761=PLANE('',#889);
#762=PLANE('',#890);
#763=PLANE('',#896);
#764=PLANE('',#904);
#765=PLANE('',#909);
#766=PLANE('',#914);
#767=PLANE('',#919);
#768=PLANE('',#924);
#769=PLANE('',#928);
#770=PLANE('',#935);
#771=PLANE('',#936);
#772=PLANE('',#937);
#773=PLANE('',#938);
#774=PLANE('',#944);
#775=PLANE('',#952);
#776=PLANE('',#957);
#777=PLANE('',#962);
#778=PLANE('',#967);
#779=PLANE('',#972);
#780=PLANE('',#976);
#781=PLANE('',#980);
#782=PLANE('',#981);
#783=PLANE('',#982);
#784=PLANE('',#983);
#785=PLANE('',#984);
#786=PLANE('',#985);
#787=PLANE('',#986);
#788=ADVANCED_FACE('',(#653),#758,.F.);
#789=ADVANCED_FACE('',(#654),#66,.T.);
#790=ADVANCED_FACE('',(#655),#67,.T.);
#791=ADVANCED_FACE('',(#656),#759,.T.);
#792=ADVANCED_FACE('',(#657),#760,.T.);
#793=ADVANCED_FACE('',(#658),#761,.T.);
#794=ADVANCED_FACE('',(#659,#660,#661,#662,#663,#664),#762,.F.);
#795=ADVANCED_FACE('',(#665,#666,#667,#668,#669,#670),#763,.T.);
#796=ADVANCED_FACE('',(#671,#672),#68,.F.);
#797=ADVANCED_FACE('',(#673,#674),#764,.T.);
#798=ADVANCED_FACE('',(#675,#676),#69,.F.);
#799=ADVANCED_FACE('',(#677,#678),#70,.F.);
#800=ADVANCED_FACE('',(#679,#680),#765,.T.);
#801=ADVANCED_FACE('',(#681,#682),#71,.F.);
#802=ADVANCED_FACE('',(#683,#684),#72,.F.);
#803=ADVANCED_FACE('',(#685,#686),#766,.T.);
#804=ADVANCED_FACE('',(#687,#688),#73,.F.);
#805=ADVANCED_FACE('',(#689,#690),#74,.F.);
#806=ADVANCED_FACE('',(#691,#692),#767,.T.);
#807=ADVANCED_FACE('',(#693,#694),#75,.F.);
#808=ADVANCED_FACE('',(#695,#696),#76,.F.);
#809=ADVANCED_FACE('',(#697,#698),#768,.T.);
#810=ADVANCED_FACE('',(#699,#700),#77,.F.);
#811=ADVANCED_FACE('',(#701),#769,.T.);
#812=ADVANCED_FACE('',(#702),#78,.T.);
#813=ADVANCED_FACE('',(#703),#79,.T.);
#814=ADVANCED_FACE('',(#704),#770,.F.);
#815=ADVANCED_FACE('',(#705),#771,.F.);
#816=ADVANCED_FACE('',(#706),#772,.F.);
#817=ADVANCED_FACE('',(#707,#708,#709,#710,#711,#712),#773,.T.);
#818=ADVANCED_FACE('',(#713,#714,#715,#716,#717,#718),#774,.F.);
#819=ADVANCED_FACE('',(#719,#720),#80,.F.);
#820=ADVANCED_FACE('',(#721,#722),#775,.T.);
#821=ADVANCED_FACE('',(#723,#724),#81,.F.);
#822=ADVANCED_FACE('',(#725,#726),#82,.F.);
#823=ADVANCED_FACE('',(#727,#728),#776,.T.);
#824=ADVANCED_FACE('',(#729,#730),#83,.F.);
#825=ADVANCED_FACE('',(#731,#732),#84,.F.);
#826=ADVANCED_FACE('',(#733,#734),#777,.T.);
#827=ADVANCED_FACE('',(#735,#736),#85,.F.);
#828=ADVANCED_FACE('',(#737,#738),#86,.F.);
#829=ADVANCED_FACE('',(#739,#740),#778,.T.);
#830=ADVANCED_FACE('',(#741,#742),#87,.F.);
#831=ADVANCED_FACE('',(#743,#744),#88,.F.);
#832=ADVANCED_FACE('',(#745,#746),#779,.T.);
#833=ADVANCED_FACE('',(#747,#748),#89,.F.);
#834=ADVANCED_FACE('',(#749),#780,.F.);
#835=ADVANCED_FACE('',(#750),#90,.T.);
#836=ADVANCED_FACE('',(#751),#781,.T.);
#837=ADVANCED_FACE('',(#752),#782,.F.);
#838=ADVANCED_FACE('',(#753),#783,.F.);
#839=ADVANCED_FACE('',(#754),#784,.T.);
#840=ADVANCED_FACE('',(#755),#785,.F.);
#841=ADVANCED_FACE('',(#756),#786,.T.);
#842=ADVANCED_FACE('',(#757),#787,.T.);
#843=CLOSED_SHELL('',(#788,#789,#790,#791,#792,#793,#794,#795,#796,#797,
#798,#799,#800,#801,#802,#803,#804,#805,#806,#807,#808,#809,#810));
#844=CLOSED_SHELL('',(#811,#812,#813,#814,#815,#816,#817,#818,#819,#820,
#821,#822,#823,#824,#825,#826,#827,#828,#829,#830,#831,#832,#833));
#845=CLOSED_SHELL('',(#834,#835,#836,#837,#838,#839,#840,#841,#842));
#846=STYLED_ITEM('',(#849),#870);
#847=STYLED_ITEM('',(#850),#871);
#848=STYLED_ITEM('',(#851),#872);
#849=PRESENTATION_STYLE_ASSIGNMENT((#852));
#850=PRESENTATION_STYLE_ASSIGNMENT((#853));
#851=PRESENTATION_STYLE_ASSIGNMENT((#854));
#852=SURFACE_STYLE_USAGE(.BOTH.,#855);
#853=SURFACE_STYLE_USAGE(.BOTH.,#856);
#854=SURFACE_STYLE_USAGE(.BOTH.,#857);
#855=SURFACE_SIDE_STYLE('',(#858));
#856=SURFACE_SIDE_STYLE('',(#859));
#857=SURFACE_SIDE_STYLE('',(#860));
#858=SURFACE_STYLE_FILL_AREA(#861);
#859=SURFACE_STYLE_FILL_AREA(#862);
#860=SURFACE_STYLE_FILL_AREA(#863);
#861=FILL_AREA_STYLE('',(#864));
#862=FILL_AREA_STYLE('',(#865));
#863=FILL_AREA_STYLE('',(#866));
#864=FILL_AREA_STYLE_COLOUR('',#867);
#865=FILL_AREA_STYLE_COLOUR('',#868);
#866=FILL_AREA_STYLE_COLOUR('',#869);
#867=COLOUR_RGB('',0.647058823529412,0.647058823529412,0.647058823529412);
#868=COLOUR_RGB('',0.231372549019608,0.380392156862745,0.705882352941177);
#869=COLOUR_RGB('',0.615686274509804,0.811764705882353,0.929411764705882);
#870=MANIFOLD_SOLID_BREP('Part 2',#843);
#871=MANIFOLD_SOLID_BREP('Part 3',#844);
#872=MANIFOLD_SOLID_BREP('Part 1',#845);
#873=SHAPE_DEFINITION_REPRESENTATION(#1498,#876);
#874=SHAPE_DEFINITION_REPRESENTATION(#1499,#877);
#875=SHAPE_DEFINITION_REPRESENTATION(#1500,#878);
#876=SHAPE_REPRESENTATION('Part 2',(#879),#1483);
#877=SHAPE_REPRESENTATION('Part 3',(#927),#1484);
#878=SHAPE_REPRESENTATION('Part 1',(#975),#1485);
#879=AXIS2_PLACEMENT_3D('',#1249,#987,#988);
#880=AXIS2_PLACEMENT_3D('',#1250,#989,#990);
#881=AXIS2_PLACEMENT_3D('',#1259,#995,#996);
#882=AXIS2_PLACEMENT_3D('',#1260,#997,#998);
#883=AXIS2_PLACEMENT_3D('',#1262,#999,#1000);
#884=AXIS2_PLACEMENT_3D('',#1265,#1002,#1003);
#885=AXIS2_PLACEMENT_3D('',#1266,#1004,#1005);
#886=AXIS2_PLACEMENT_3D('',#1268,#1006,#1007);
#887=AXIS2_PLACEMENT_3D('',#1271,#1009,#1010);
#888=AXIS2_PLACEMENT_3D('',#1277,#1014,#1015);
#889=AXIS2_PLACEMENT_3D('',#1283,#1019,#1020);
#890=AXIS2_PLACEMENT_3D('',#1286,#1023,#1024);
#891=AXIS2_PLACEMENT_3D('',#1287,#1025,#1026);
#892=AXIS2_PLACEMENT_3D('',#1289,#1027,#1028);
#893=AXIS2_PLACEMENT_3D('',#1291,#1029,#1030);
#894=AXIS2_PLACEMENT_3D('',#1293,#1031,#1032);
#895=AXIS2_PLACEMENT_3D('',#1295,#1033,#1034);
#896=AXIS2_PLACEMENT_3D('',#1297,#1035,#1036);
#897=AXIS2_PLACEMENT_3D('',#1298,#1037,#1038);
#898=AXIS2_PLACEMENT_3D('',#1300,#1039,#1040);
#899=AXIS2_PLACEMENT_3D('',#1302,#1041,#1042);
#900=AXIS2_PLACEMENT_3D('',#1304,#1043,#1044);
#901=AXIS2_PLACEMENT_3D('',#1306,#1045,#1046);
#902=AXIS2_PLACEMENT_3D('',#1308,#1047,#1048);
#903=AXIS2_PLACEMENT_3D('',#1309,#1049,#1050);
#904=AXIS2_PLACEMENT_3D('',#1311,#1051,#1052);
#905=AXIS2_PLACEMENT_3D('',#1312,#1053,#1054);
#906=AXIS2_PLACEMENT_3D('',#1314,#1055,#1056);
#907=AXIS2_PLACEMENT_3D('',#1315,#1057,#1058);
#908=AXIS2_PLACEMENT_3D('',#1316,#1059,#1060);
#909=AXIS2_PLACEMENT_3D('',#1318,#1061,#1062);
#910=AXIS2_PLACEMENT_3D('',#1319,#1063,#1064);
#911=AXIS2_PLACEMENT_3D('',#1321,#1065,#1066);
#912=AXIS2_PLACEMENT_3D('',#1322,#1067,#1068);
#913=AXIS2_PLACEMENT_3D('',#1323,#1069,#1070);
#914=AXIS2_PLACEMENT_3D('',#1325,#1071,#1072);
#915=AXIS2_PLACEMENT_3D('',#1326,#1073,#1074);
#916=AXIS2_PLACEMENT_3D('',#1328,#1075,#1076);
#917=AXIS2_PLACEMENT_3D('',#1329,#1077,#1078);
#918=AXIS2_PLACEMENT_3D('',#1330,#1079,#1080);
#919=AXIS2_PLACEMENT_3D('',#1332,#1081,#1082);
#920=AXIS2_PLACEMENT_3D('',#1333,#1083,#1084);
#921=AXIS2_PLACEMENT_3D('',#1335,#1085,#1086);
#922=AXIS2_PLACEMENT_3D('',#1336,#1087,#1088);
#923=AXIS2_PLACEMENT_3D('',#1337,#1089,#1090);
#924=AXIS2_PLACEMENT_3D('',#1339,#1091,#1092);
#925=AXIS2_PLACEMENT_3D('',#1340,#1093,#1094);
#926=AXIS2_PLACEMENT_3D('',#1342,#1095,#1096);
#927=AXIS2_PLACEMENT_3D('',#1343,#1097,#1098);
#928=AXIS2_PLACEMENT_3D('',#1344,#1099,#1100);
#929=AXIS2_PLACEMENT_3D('',#1353,#1105,#1106);
#930=AXIS2_PLACEMENT_3D('',#1354,#1107,#1108);
#931=AXIS2_PLACEMENT_3D('',#1358,#1110,#1111);
#932=AXIS2_PLACEMENT_3D('',#1359,#1112,#1113);
#933=AXIS2_PLACEMENT_3D('',#1360,#1114,#1115);
#934=AXIS2_PLACEMENT_3D('',#1364,#1117,#1118);
#935=AXIS2_PLACEMENT_3D('',#1365,#1119,#1120);
#936=AXIS2_PLACEMENT_3D('',#1371,#1124,#1125);
#937=AXIS2_PLACEMENT_3D('',#1377,#1129,#1130);
#938=AXIS2_PLACEMENT_3D('',#1380,#1133,#1134);
#939=AXIS2_PLACEMENT_3D('',#1381,#1135,#1136);
#940=AXIS2_PLACEMENT_3D('',#1383,#1137,#1138);
#941=AXIS2_PLACEMENT_3D('',#1385,#1139,#1140);
#942=AXIS2_PLACEMENT_3D('',#1387,#1141,#1142);
#943=AXIS2_PLACEMENT_3D('',#1389,#1143,#1144);
#944=AXIS2_PLACEMENT_3D('',#1391,#1145,#1146);
#945=AXIS2_PLACEMENT_3D('',#1392,#1147,#1148);
#946=AXIS2_PLACEMENT_3D('',#1394,#1149,#1150);
#947=AXIS2_PLACEMENT_3D('',#1396,#1151,#1152);
#948=AXIS2_PLACEMENT_3D('',#1398,#1153,#1154);
#949=AXIS2_PLACEMENT_3D('',#1400,#1155,#1156);
#950=AXIS2_PLACEMENT_3D('',#1402,#1157,#1158);
#951=AXIS2_PLACEMENT_3D('',#1403,#1159,#1160);
#952=AXIS2_PLACEMENT_3D('',#1405,#1161,#1162);
#953=AXIS2_PLACEMENT_3D('',#1406,#1163,#1164);
#954=AXIS2_PLACEMENT_3D('',#1408,#1165,#1166);
#955=AXIS2_PLACEMENT_3D('',#1409,#1167,#1168);
#956=AXIS2_PLACEMENT_3D('',#1410,#1169,#1170);
#957=AXIS2_PLACEMENT_3D('',#1412,#1171,#1172);
#958=AXIS2_PLACEMENT_3D('',#1413,#1173,#1174);
#959=AXIS2_PLACEMENT_3D('',#1415,#1175,#1176);
#960=AXIS2_PLACEMENT_3D('',#1416,#1177,#1178);
#961=AXIS2_PLACEMENT_3D('',#1417,#1179,#1180);
#962=AXIS2_PLACEMENT_3D('',#1419,#1181,#1182);
#963=AXIS2_PLACEMENT_3D('',#1420,#1183,#1184);
#964=AXIS2_PLACEMENT_3D('',#1422,#1185,#1186);
#965=AXIS2_PLACEMENT_3D('',#1423,#1187,#1188);
#966=AXIS2_PLACEMENT_3D('',#1424,#1189,#1190);
#967=AXIS2_PLACEMENT_3D('',#1426,#1191,#1192);
#968=AXIS2_PLACEMENT_3D('',#1427,#1193,#1194);
#969=AXIS2_PLACEMENT_3D('',#1429,#1195,#1196);
#970=AXIS2_PLACEMENT_3D('',#1430,#1197,#1198);
#971=AXIS2_PLACEMENT_3D('',#1431,#1199,#1200);
#972=AXIS2_PLACEMENT_3D('',#1433,#1201,#1202);
#973=AXIS2_PLACEMENT_3D('',#1434,#1203,#1204);
#974=AXIS2_PLACEMENT_3D('',#1436,#1205,#1206);
#975=AXIS2_PLACEMENT_3D('',#1437,#1207,#1208);
#976=AXIS2_PLACEMENT_3D('',#1438,#1209,#1210);
#977=AXIS2_PLACEMENT_3D('',#1451,#1217,#1218);
#978=AXIS2_PLACEMENT_3D('',#1452,#1219,#1220);
#979=AXIS2_PLACEMENT_3D('',#1454,#1221,#1222);
#980=AXIS2_PLACEMENT_3D('',#1456,#1224,#1225);
#981=AXIS2_PLACEMENT_3D('',#1457,#1226,#1227);
#982=AXIS2_PLACEMENT_3D('',#1465,#1232,#1233);
#983=AXIS2_PLACEMENT_3D('',#1469,#1236,#1237);
#984=AXIS2_PLACEMENT_3D('',#1475,#1241,#1242);
#985=AXIS2_PLACEMENT_3D('',#1477,#1244,#1245);
#986=AXIS2_PLACEMENT_3D('',#1479,#1247,#1248);
#987=DIRECTION('',(0.,0.,1.));
#988=DIRECTION('',(1.,0.,0.));
#989=DIRECTION('',(0.,1.,0.));
#990=DIRECTION('',(0.,0.,1.));
#991=DIRECTION('',(-0.00253634018584657,0.,0.999996783484058));
#992=DIRECTION('',(0.999996783484058,0.,0.00253634018584657));
#993=DIRECTION('',(-0.00253634018584657,0.,0.999996783484058));
#994=DIRECTION('',(0.999996783484058,0.,0.00253634018584657));
#995=DIRECTION('',(0.999996783484058,0.,0.00253634018584657));
#996=DIRECTION('',(0.00253634018584657,0.,-0.999996783484058));
#997=DIRECTION('',(0.999996783484058,0.,0.00253634018584657));
#998=DIRECTION('',(0.00253634018584657,0.,-0.999996783484058));
#999=DIRECTION('',(0.999996783484058,0.,0.00253634018584657));
#1000=DIRECTION('',(0.00253634018584657,0.,-0.999996783484058));
#1001=DIRECTION('',(0.999996783484058,0.,0.00253634018584657));
#1002=DIRECTION('',(0.999996783484058,0.,0.00253634018584657));
#1003=DIRECTION('',(0.00253634018584657,0.,-0.999996783484058));
#1004=DIRECTION('',(0.999996783484058,0.,0.00253634018584657));
#1005=DIRECTION('',(0.00253634018584657,0.,-0.999996783484058));
#1006=DIRECTION('',(0.999996783484058,0.,0.00253634018584657));
#1007=DIRECTION('',(0.00253634018584657,0.,-0.999996783484058));
#1008=DIRECTION('',(0.999996783484058,0.,0.00253634018584657));
#1009=DIRECTION('',(-0.00177022215552132,-0.716152822966611,0.697941258610261));
#1010=DIRECTION('',(0.,-0.697942352177374,-0.716153945068457));
#1011=DIRECTION('',(0.00181640718409767,-0.697943503556667,-0.716150519449639));
#1012=DIRECTION('',(0.00181640718409767,-0.697943503556667,-0.716150519449639));
#1013=DIRECTION('',(0.999996783484058,0.,0.00253634018584657));
#1014=DIRECTION('',(1.68323054022466E-19,1.,-6.63643282348172E-17));
#1015=DIRECTION('',(0.,6.63643282348172E-17,1.));
#1016=DIRECTION('',(-0.00253634018584657,6.63645416974236E-17,0.999996783484058));
#1017=DIRECTION('',(-0.00253634018584657,6.63645416974236E-17,0.999996783484058));
#1018=DIRECTION('',(0.999996783484058,0.,0.00253634018584657));
#1019=DIRECTION('',(-0.00253634018584657,0.,0.999996783484058));
#1020=DIRECTION('',(0.999996783484058,0.,0.00253634018584657));
#1021=DIRECTION('',(0.,-1.,0.));
#1022=DIRECTION('',(0.,-1.,0.));
#1023=DIRECTION('',(0.999996783484058,0.,0.00253634018584657));
#1024=DIRECTION('',(0.,1.,0.));
#1025=DIRECTION('',(0.999996783484058,0.,0.00253634018584657));
#1026=DIRECTION('',(0.00253634018584657,0.,-0.999996783484058));
#1027=DIRECTION('',(0.999996783484058,0.,0.00253634018584657));
#1028=DIRECTION('',(0.00253634018584657,0.,-0.999996783484058));
#1029=DIRECTION('',(0.999996783484058,0.,0.00253634018584657));
#1030=DIRECTION('',(0.00253634018584657,0.,-0.999996783484058));
#1031=DIRECTION('',(0.999996783484058,0.,0.00253634018584657));
#1032=DIRECTION('',(0.00253634018584657,0.,-0.999996783484058));
#1033=DIRECTION('',(0.999996783484058,0.,0.00253634018584657));
#1034=DIRECTION('',(-0.00253634018584657,0.,0.999996783484058));
#1035=DIRECTION('',(0.999996783484058,0.,0.00253634018584657));
#1036=DIRECTION('',(0.,1.,0.));
#1037=DIRECTION('',(0.999996783484058,0.,0.00253634018584657));
#1038=DIRECTION('',(0.00253634018584657,0.,-0.999996783484058));
#1039=DIRECTION('',(0.999996783484058,0.,0.00253634018584657));
#1040=DIRECTION('',(0.00253634018584657,0.,-0.999996783484058));
#1041=DIRECTION('',(0.999996783484058,0.,0.00253634018584657));
#1042=DIRECTION('',(0.00253634018584657,0.,-0.999996783484058));
#1043=DIRECTION('',(0.999996783484058,0.,0.00253634018584657));
#1044=DIRECTION('',(0.00253634018584657,0.,-0.999996783484058));
#1045=DIRECTION('',(0.999996783484058,0.,0.00253634018584657));
#1046=DIRECTION('',(0.00253634018584657,0.,-0.999996783484058));
#1047=DIRECTION('',(0.999996783484058,0.,0.00253634018584657));
#1048=DIRECTION('',(-0.00253634018584657,0.,0.999996783484058));
#1049=DIRECTION('',(0.999996783484058,0.,0.00253634018584657));
#1050=DIRECTION('',(-0.00253634018584657,0.,0.999996783484058));
#1051=DIRECTION('',(-0.999996783484058,0.,-0.00253634018584657));
#1052=DIRECTION('',(0.00253634018584657,0.,-0.999996783484058));
#1053=DIRECTION('',(0.999996783484058,0.,0.00253634018584657));
#1054=DIRECTION('',(-0.00253634018584657,0.,0.999996783484058));
#1055=DIRECTION('',(0.999996783484058,0.,0.00253634018584657));
#1056=DIRECTION('',(-0.00253634018584657,0.,0.999996783484058));
#1057=DIRECTION('',(0.999996783484058,0.,0.00253634018584657));
#1058=DIRECTION('',(0.00253634018584657,0.,-0.999996783484058));
#1059=DIRECTION('',(0.999996783484058,0.,0.00253634018584657));
#1060=DIRECTION('',(0.00253634018584657,0.,-0.999996783484058));
#1061=DIRECTION('',(-0.999996783484058,0.,-0.00253634018584657));
#1062=DIRECTION('',(-0.00253634018584657,0.,0.999996783484058));
#1063=DIRECTION('',(0.999996783484058,0.,0.00253634018584657));
#1064=DIRECTION('',(0.00253634018584657,0.,-0.999996783484058));
#1065=DIRECTION('',(0.999996783484058,0.,0.00253634018584657));
#1066=DIRECTION('',(0.00253634018584657,0.,-0.999996783484058));
#1067=DIRECTION('',(0.999996783484058,0.,0.00253634018584657));
#1068=DIRECTION('',(0.00253634018584657,0.,-0.999996783484058));
#1069=DIRECTION('',(0.999996783484058,0.,0.00253634018584657));
#1070=DIRECTION('',(0.00253634018584657,0.,-0.999996783484058));
#1071=DIRECTION('',(-0.999996783484058,0.,-0.00253634018584657));
#1072=DIRECTION('',(-0.00253634018584657,0.,0.999996783484058));
#1073=DIRECTION('',(0.999996783484058,0.,0.00253634018584657));
#1074=DIRECTION('',(0.00253634018584657,0.,-0.999996783484058));
#1075=DIRECTION('',(0.999996783484058,0.,0.00253634018584657));
#1076=DIRECTION('',(0.00253634018584657,0.,-0.999996783484058));
#1077=DIRECTION('',(0.999996783484058,0.,0.00253634018584657));
#1078=DIRECTION('',(0.00253634018584657,0.,-0.999996783484058));
#1079=DIRECTION('',(0.999996783484058,0.,0.00253634018584657));
#1080=DIRECTION('',(0.00253634018584657,0.,-0.999996783484058));
#1081=DIRECTION('',(-0.999996783484058,0.,-0.00253634018584657));
#1082=DIRECTION('',(-0.00253634018584657,0.,0.999996783484058));
#1083=DIRECTION('',(0.999996783484058,0.,0.00253634018584657));
#1084=DIRECTION('',(0.00253634018584657,0.,-0.999996783484058));
#1085=DIRECTION('',(0.999996783484058,0.,0.00253634018584657));
#1086=DIRECTION('',(0.00253634018584657,0.,-0.999996783484058));
#1087=DIRECTION('',(0.999996783484058,0.,0.00253634018584657));
#1088=DIRECTION('',(0.00253634018584657,0.,-0.999996783484058));
#1089=DIRECTION('',(0.999996783484058,0.,0.00253634018584657));
#1090=DIRECTION('',(0.00253634018584657,0.,-0.999996783484058));
#1091=DIRECTION('',(-0.999996783484058,0.,-0.00253634018584657));
#1092=DIRECTION('',(-0.00253634018584657,0.,0.999996783484058));
#1093=DIRECTION('',(0.999996783484058,0.,0.00253634018584657));
#1094=DIRECTION('',(0.00253634018584657,0.,-0.999996783484058));
#1095=DIRECTION('',(0.999996783484058,0.,0.00253634018584657));
#1096=DIRECTION('',(0.00253634018584657,0.,-0.999996783484058));
#1097=DIRECTION('',(0.,0.,1.));
#1098=DIRECTION('',(1.,0.,0.));
#1099=DIRECTION('',(0.,-1.,0.));
#1100=DIRECTION('',(0.,0.,-1.));
#1101=DIRECTION('',(-0.00253634018584657,0.,0.999996783484058));
#1102=DIRECTION('',(-0.999996783484058,0.,-0.00253634018584657));
#1103=DIRECTION('',(-0.00253634018584657,0.,0.999996783484058));
#1104=DIRECTION('',(-0.999996783484058,0.,-0.00253634018584657));
#1105=DIRECTION('',(-0.999996783484058,0.,-0.00253634018584657));
#1106=DIRECTION('',(-0.00253634018584657,0.,0.999996783484058));
#1107=DIRECTION('',(0.999996783484058,0.,0.00253634018584657));
#1108=DIRECTION('',(0.00253634018584657,0.,-0.999996783484058));
#1109=DIRECTION('',(-0.999996783484058,0.,-0.00253634018584657));
#1110=DIRECTION('',(0.999996783484058,0.,0.00253634018584657));
#1111=DIRECTION('',(0.00253634018584657,0.,-0.999996783484058));
#1112=DIRECTION('',(-0.999996783484058,0.,-0.00253634018584657));
#1113=DIRECTION('',(-0.00253634018584657,0.,0.999996783484058));
#1114=DIRECTION('',(0.999996783484058,0.,0.00253634018584657));
#1115=DIRECTION('',(0.00253634018584657,0.,-0.999996783484058));
#1116=DIRECTION('',(-0.999996783484058,0.,-0.00253634018584657));
#1117=DIRECTION('',(0.999996783484058,0.,0.00253634018584657));
#1118=DIRECTION('',(0.00253634018584657,0.,-0.999996783484058));
#1119=DIRECTION('',(0.00177022215552159,0.716152822966505,-0.697941258610369));
#1120=DIRECTION('',(0.,0.697942352177482,0.716153945068352));
#1121=DIRECTION('',(0.00181640718409741,-0.697943503556775,-0.716150519449533));
#1122=DIRECTION('',(-0.999996783484058,0.,-0.00253634018584657));
#1123=DIRECTION('',(0.00181640718409741,-0.697943503556775,-0.716150519449533));
#1124=DIRECTION('',(-1.68323054022466E-19,-1.,6.63643282348172E-17));
#1125=DIRECTION('',(0.,-6.63643282348172E-17,-1.));
#1126=DIRECTION('',(-0.00253634018584657,6.63645416974236E-17,0.999996783484058));
#1127=DIRECTION('',(-0.999996783484058,0.,-0.00253634018584657));
#1128=DIRECTION('',(-0.00253634018584657,6.63645416974236E-17,0.999996783484058));
#1129=DIRECTION('',(0.00253634018584657,0.,-0.999996783484058));
#1130=DIRECTION('',(-0.999996783484058,0.,-0.00253634018584657));
#1131=DIRECTION('',(0.,-1.,0.));
#1132=DIRECTION('',(0.,-1.,0.));
#1133=DIRECTION('',(0.999996783484058,0.,0.00253634018584657));
#1134=DIRECTION('',(0.,1.,0.));
#1135=DIRECTION('',(-0.999996783484058,0.,-0.00253634018584657));
#1136=DIRECTION('',(0.00253634018584657,0.,-0.999996783484058));
#1137=DIRECTION('',(-0.999996783484058,0.,-0.00253634018584657));
#1138=DIRECTION('',(0.00253634018584657,0.,-0.999996783484058));
#1139=DIRECTION('',(-0.999996783484058,0.,-0.00253634018584657));
#1140=DIRECTION('',(0.00253634018584657,0.,-0.999996783484058));
#1141=DIRECTION('',(-0.999996783484058,0.,-0.00253634018584657));
#1142=DIRECTION('',(0.00253634018584657,0.,-0.999996783484058));
#1143=DIRECTION('',(-0.999996783484058,0.,-0.00253634018584657));
#1144=DIRECTION('',(-0.00253634018584657,0.,0.999996783484058));
#1145=DIRECTION('',(0.999996783484058,0.,0.00253634018584657));
#1146=DIRECTION('',(0.,1.,0.));
#1147=DIRECTION('',(0.999996783484058,0.,0.00253634018584657));
#1148=DIRECTION('',(0.00253634018584657,0.,-0.999996783484058));
#1149=DIRECTION('',(0.999996783484058,0.,0.00253634018584657));
#1150=DIRECTION('',(0.00253634018584657,0.,-0.999996783484058));
#1151=DIRECTION('',(0.999996783484058,0.,0.00253634018584657));
#1152=DIRECTION('',(0.00253634018584657,0.,-0.999996783484058));
#1153=DIRECTION('',(0.999996783484058,0.,0.00253634018584657));
#1154=DIRECTION('',(0.00253634018584657,0.,-0.999996783484058));
#1155=DIRECTION('',(0.999996783484058,0.,0.00253634018584657));
#1156=DIRECTION('',(0.00253634018584657,0.,-0.999996783484058));
#1157=DIRECTION('',(-0.999996783484058,0.,-0.00253634018584657));
#1158=DIRECTION('',(-0.00253634018584657,0.,0.999996783484058));
#1159=DIRECTION('',(-0.999996783484058,0.,-0.00253634018584657));
#1160=DIRECTION('',(-0.00253634018584657,0.,0.999996783484058));
#1161=DIRECTION('',(0.999996783484058,0.,0.00253634018584657));
#1162=DIRECTION('',(0.00253634018584657,0.,-0.999996783484058));
#1163=DIRECTION('',(-0.999996783484058,0.,-0.00253634018584657));
#1164=DIRECTION('',(-0.00253634018584657,0.,0.999996783484058));
#1165=DIRECTION('',(-0.999996783484058,0.,-0.00253634018584657));
#1166=DIRECTION('',(-0.00253634018584657,0.,0.999996783484058));
#1167=DIRECTION('',(-0.999996783484058,0.,-0.00253634018584657));
#1168=DIRECTION('',(0.00253634018584657,0.,-0.999996783484058));
#1169=DIRECTION('',(-0.999996783484058,0.,-0.00253634018584657));
#1170=DIRECTION('',(0.00253634018584657,0.,-0.999996783484058));
#1171=DIRECTION('',(0.999996783484058,0.,0.00253634018584657));
#1172=DIRECTION('',(-0.00253634018584657,0.,0.999996783484058));
#1173=DIRECTION('',(-0.999996783484058,0.,-0.00253634018584657));
#1174=DIRECTION('',(0.00253634018584657,0.,-0.999996783484058));
#1175=DIRECTION('',(-0.999996783484058,0.,-0.00253634018584657));
#1176=DIRECTION('',(0.00253634018584657,0.,-0.999996783484058));
#1177=DIRECTION('',(-0.999996783484058,0.,-0.00253634018584657));
#1178=DIRECTION('',(0.00253634018584657,0.,-0.999996783484058));
#1179=DIRECTION('',(-0.999996783484058,0.,-0.00253634018584657));
#1180=DIRECTION('',(0.00253634018584657,0.,-0.999996783484058));
#1181=DIRECTION('',(0.999996783484058,0.,0.00253634018584657));
#1182=DIRECTION('',(-0.00253634018584657,0.,0.999996783484058));
#1183=DIRECTION('',(-0.999996783484058,0.,-0.00253634018584657));
#1184=DIRECTION('',(0.00253634018584657,0.,-0.999996783484058));
#1185=DIRECTION('',(-0.999996783484058,0.,-0.00253634018584657));
#1186=DIRECTION('',(0.00253634018584657,0.,-0.999996783484058));
#1187=DIRECTION('',(-0.999996783484058,0.,-0.00253634018584657));
#1188=DIRECTION('',(0.00253634018584657,0.,-0.999996783484058));
#1189=DIRECTION('',(-0.999996783484058,0.,-0.00253634018584657));
#1190=DIRECTION('',(0.00253634018584657,0.,-0.999996783484058));
#1191=DIRECTION('',(0.999996783484058,0.,0.00253634018584657));
#1192=DIRECTION('',(-0.00253634018584657,0.,0.999996783484058));
#1193=DIRECTION('',(-0.999996783484058,0.,-0.00253634018584657));
#1194=DIRECTION('',(0.00253634018584657,0.,-0.999996783484058));
#1195=DIRECTION('',(-0.999996783484058,0.,-0.00253634018584657));
#1196=DIRECTION('',(0.00253634018584657,0.,-0.999996783484058));
#1197=DIRECTION('',(-0.999996783484058,0.,-0.00253634018584657));
#1198=DIRECTION('',(0.00253634018584657,0.,-0.999996783484058));
#1199=DIRECTION('',(-0.999996783484058,0.,-0.00253634018584657));
#1200=DIRECTION('',(0.00253634018584657,0.,-0.999996783484058));
#1201=DIRECTION('',(0.999996783484058,0.,0.00253634018584657));
#1202=DIRECTION('',(-0.00253634018584657,0.,0.999996783484058));
#1203=DIRECTION('',(-0.999996783484058,0.,-0.00253634018584657));
#1204=DIRECTION('',(0.00253634018584657,0.,-0.999996783484058));
#1205=DIRECTION('',(-0.999996783484058,0.,-0.00253634018584657));
#1206=DIRECTION('',(0.00253634018584657,0.,-0.999996783484058));
#1207=DIRECTION('',(0.,0.,1.));
#1208=DIRECTION('',(1.,0.,0.));
#1209=DIRECTION('',(-0.00253634018584657,0.,0.999996783484058));
#1210=DIRECTION('',(0.999996783484058,0.,0.00253634018584657));
#1211=DIRECTION('',(0.,1.,0.));
#1212=DIRECTION('',(0.999996783484058,0.,0.00253634018584657));
#1213=DIRECTION('',(0.,1.,0.));
#1214=DIRECTION('',(0.999996783484058,0.,0.00253634018584657));
#1215=DIRECTION('',(0.,1.,0.));
#1216=DIRECTION('',(0.999996783484058,0.,0.00253634018584657));
#1217=DIRECTION('',(0.,1.,0.));
#1218=DIRECTION('',(0.,0.,1.));
#1219=DIRECTION('',(0.,-1.,0.));
#1220=DIRECTION('',(0.,0.,-1.));
#1221=DIRECTION('',(0.,-1.,0.));
#1222=DIRECTION('',(0.,0.,-1.));
#1223=DIRECTION('',(0.,1.,0.));
#1224=DIRECTION('',(0.,-1.,0.));
#1225=DIRECTION('',(1.,0.,0.));
#1226=DIRECTION('',(0.,-1.,0.));
#1227=DIRECTION('',(1.,0.,0.));
#1228=DIRECTION('',(0.999996783484058,0.,0.00253634018584657));
#1229=DIRECTION('',(-0.00253634018584657,0.,0.999996783484058));
#1230=DIRECTION('',(0.999996783484058,0.,0.00253634018584657));
#1231=DIRECTION('',(-0.00253634018584657,0.,0.999996783484058));
#1232=DIRECTION('',(0.00253634018584657,0.,-0.999996783484058));
#1233=DIRECTION('',(0.999996783484058,0.,0.00253634018584657));
#1234=DIRECTION('',(0.999996783484058,0.,0.00253634018584657));
#1235=DIRECTION('',(0.,1.,0.));
#1236=DIRECTION('',(0.,-1.,0.));
#1237=DIRECTION('',(0.,0.,-1.));
#1238=DIRECTION('',(-0.00253634018584657,0.,0.999996783484058));
#1239=DIRECTION('',(0.999996783484058,0.,0.00253634018584657));
#1240=DIRECTION('',(-0.00253634018584657,0.,0.999996783484058));
#1241=DIRECTION('',(0.999996783484058,0.,0.00253634018584657));
#1242=DIRECTION('',(0.00253634018584657,0.,-0.999996783484058));
#1243=DIRECTION('',(0.,1.,0.));
#1244=DIRECTION('',(0.999996783484058,0.,0.00253634018584657));
#1245=DIRECTION('',(0.00253634018584657,0.,-0.999996783484058));
#1246=DIRECTION('',(0.,1.,0.));
#1247=DIRECTION('',(0.00253634018584657,0.,-0.999996783484058));
#1248=DIRECTION('',(0.999996783484058,0.,0.00253634018584657));
#1249=CARTESIAN_POINT('',(0.,0.,0.));
#1250=CARTESIAN_POINT('',(-0.0513826998730341,-0.0104677150372924,0.00509763695560509));
#1251=CARTESIAN_POINT('',(-0.0488427080429846,-0.0104677150372924,0.00510407925967714));
#1252=CARTESIAN_POINT('',(-0.0488223709012001,-0.0104677150372924,-0.0029141970280352));
#1253=CARTESIAN_POINT('',(-0.0488630451847691,-0.0104677150372924,0.0131223555473895));
#1254=CARTESIAN_POINT('',(-0.0514030370148186,-0.0104677150372924,0.0131159132433174));
#1255=CARTESIAN_POINT('',(-0.0514030370148186,-0.0104677150372924,0.0131159132433174));
#1256=CARTESIAN_POINT('',(-0.0513826998730341,-0.0104677150372924,0.00509763695560509));
#1257=CARTESIAN_POINT('',(-0.0513623627312496,-0.0104677150372924,-0.00292063933210725));
#1258=CARTESIAN_POINT('',(-0.0513623627312496,-0.0104677150372924,-0.00292063933210725));
#1259=CARTESIAN_POINT('',(-0.0513623627312496,-0.00411771503729241,-0.00292063933210725));
#1260=CARTESIAN_POINT('',(-0.0488223709012001,-0.00411771503729241,-0.0029141970280352));
#1261=CARTESIAN_POINT('',(-0.0488066238054148,-0.00545034882131943,-0.00912276684939054));
#1262=CARTESIAN_POINT('',(-0.0513623627312496,-0.00411771503729241,-0.00292063933210725));
#1263=CARTESIAN_POINT('',(-0.0513466156354643,-0.00545034882131943,-0.00912920915346259));
#1264=CARTESIAN_POINT('',(-0.0513466156354643,-0.00545034882131943,-0.00912920915346259));
#1265=CARTESIAN_POINT('',(-0.0513613315654838,-0.004160856108785,-0.00332719459421472));
#1266=CARTESIAN_POINT('',(-0.0488213397354343,-0.004160856108785,-0.00332075229014267));
#1267=CARTESIAN_POINT('',(-0.048821618518044,0.00178172746953586,-0.00321083733687601));
#1268=CARTESIAN_POINT('',(-0.0513613315654838,-0.004160856108785,-0.00332719459421472));
#1269=CARTESIAN_POINT('',(-0.0513616103480935,0.00178172746953586,-0.00321727964094806));
#1270=CARTESIAN_POINT('',(-0.0513616103480935,0.00178172746953586,-0.00321727964094806));
#1271=CARTESIAN_POINT('',(-0.0513616054976992,0.00177986373476793,-0.00321919199433392));
#1272=CARTESIAN_POINT('',(-0.0488216136676496,0.00177986373476793,-0.00321274969026187));
#1273=CARTESIAN_POINT('',(-0.0488216088172553,0.001778,-0.00321466204364773));
#1274=CARTESIAN_POINT('',(-0.0513616054976992,0.00177986373476793,-0.00321919199433392));
#1275=CARTESIAN_POINT('',(-0.0513616006473048,0.001778,-0.00322110434771979));
#1276=CARTESIAN_POINT('',(-0.0513616006473048,0.001778,-0.00322110434771979));
#1277=CARTESIAN_POINT('',(-0.0513823188310617,0.001778,0.00494740444779881));
#1278=CARTESIAN_POINT('',(-0.0488423270010122,0.001778,0.00495384675187087));
#1279=CARTESIAN_POINT('',(-0.0488630451847691,0.001778,0.0131223555473895));
#1280=CARTESIAN_POINT('',(-0.0513823188310617,0.001778,0.00494740444779881));
#1281=CARTESIAN_POINT('',(-0.0514030370148186,0.001778,0.0131159132433174));
#1282=CARTESIAN_POINT('',(-0.0514030370148186,0.001778,0.0131159132433174));
#1283=CARTESIAN_POINT('',(-0.0514030370148186,-0.0043448575186462,0.0131159132433174));
#1284=CARTESIAN_POINT('',(-0.0488630451847691,-0.0043448575186462,0.0131223555473895));
#1285=CARTESIAN_POINT('',(-0.0514030370148186,-0.0043448575186462,0.0131159132433174));
#1286=CARTESIAN_POINT('',(-0.0513746467943869,-0.0043424855730387,0.00192256888339343));
#1287=CARTESIAN_POINT('',(-0.0513548725561843,-0.00687042649861782,-0.00587377275434638));
#1288=CARTESIAN_POINT('',(-0.0513508139046189,-0.00687042649861782,-0.00747396760727757));
#1289=CARTESIAN_POINT('',(-0.0513705079633245,-0.00691055593395045,0.00029076185180691));
#1290=CARTESIAN_POINT('',(-0.0513664493117591,-0.00691055593395045,-0.00130943300112428));
#1291=CARTESIAN_POINT('',(-0.0513706353315167,-0.00116787660588884,0.000340979004528528));
#1292=CARTESIAN_POINT('',(-0.0513665766799513,-0.00116787660588884,-0.00125921584840266));
#1293=CARTESIAN_POINT('',(-0.0513548680060885,-0.0012192,-0.00587556670978119));
#1294=CARTESIAN_POINT('',(-0.0513508093545231,-0.0012192,-0.00747576156271238));
#1295=CARTESIAN_POINT('',(-0.0513627125935948,-0.00404042761301479,-0.002782699941387));
#1296=CARTESIAN_POINT('',(-0.0513691226861465,-0.00404042761301479,-0.00025540807048774));
#1297=CARTESIAN_POINT('',(-0.0488346549643374,-0.0043424855730387,0.00192901118746548));
#1298=CARTESIAN_POINT('',(-0.0488148807261348,-0.00687042649861782,-0.00586733045027433));
#1299=CARTESIAN_POINT('',(-0.0488123360160263,-0.00687042649861782,-0.00687062722314389));
#1300=CARTESIAN_POINT('',(-0.048830516133275,-0.00691055593395045,0.000297204155878962));
#1301=CARTESIAN_POINT('',(-0.0488279714231665,-0.00691055593395045,-0.000706092616990594));
#1302=CARTESIAN_POINT('',(-0.0488306435014672,-0.00116787660588884,0.000347421308600579));
#1303=CARTESIAN_POINT('',(-0.0488280987913587,-0.00116787660588884,-0.000655875464268976));
#1304=CARTESIAN_POINT('',(-0.0488148761760389,-0.0012192,-0.00586912440570914));
#1305=CARTESIAN_POINT('',(-0.0488123314659304,-0.0012192,-0.0068724211785787));
#1306=CARTESIAN_POINT('',(-0.0488227207635453,-0.00404042761301479,-0.00277625763731495));
#1307=CARTESIAN_POINT('',(-0.048817599131808,-0.00404042761301479,-0.00479555114220431));
#1308=CARTESIAN_POINT('',(-0.0513627125935948,-0.00404042761301479,-0.002782699941387));
#1309=CARTESIAN_POINT('',(-0.050346715861575,-0.00404042761301479,-0.00278012301975818));
#1310=CARTESIAN_POINT('',(-0.0503518374933123,-0.00404042761301479,-0.000760829514868817));
#1311=CARTESIAN_POINT('',(-0.0503403057690233,-0.00404042761301479,-0.00530741489065744));
#1312=CARTESIAN_POINT('',(-0.050346715861575,-0.00404042761301479,-0.00278012301975818));
#1313=CARTESIAN_POINT('',(-0.0503531259541267,-0.00404042761301479,-0.000252831148858915));
#1314=CARTESIAN_POINT('',(-0.0513627125935948,-0.00404042761301479,-0.002782699941387));
#1315=CARTESIAN_POINT('',(-0.0513548680060885,-0.0012192,-0.00587556670978119));
#1316=CARTESIAN_POINT('',(-0.0504658708655711,-0.0012192,-0.00587331190335598));
#1317=CARTESIAN_POINT('',(-0.0504633261554626,-0.0012192,-0.00687660867622554));
#1318=CARTESIAN_POINT('',(-0.0504618122140057,-0.0012192,-0.00747350675628717));
#1319=CARTESIAN_POINT('',(-0.0504658708655711,-0.0012192,-0.00587331190335598));
#1320=CARTESIAN_POINT('',(-0.0504618122140057,-0.0012192,-0.00747350675628717));
#1321=CARTESIAN_POINT('',(-0.0513548680060885,-0.0012192,-0.00587556670978119));
#1322=CARTESIAN_POINT('',(-0.0513706353315167,-0.00116787660588884,0.000340979004528528));
#1323=CARTESIAN_POINT('',(-0.0504816381909993,-0.00116787660588884,0.000343233810953747));
#1324=CARTESIAN_POINT('',(-0.0504790934808908,-0.00116787660588884,-0.000660062961915808));
#1325=CARTESIAN_POINT('',(-0.0504775795394339,-0.00116787660588884,-0.00125696104197744));
#1326=CARTESIAN_POINT('',(-0.0504816381909993,-0.00116787660588884,0.000343233810953747));
#1327=CARTESIAN_POINT('',(-0.0504775795394339,-0.00116787660588884,-0.00125696104197744));
#1328=CARTESIAN_POINT('',(-0.0513706353315167,-0.00116787660588884,0.000340979004528528));
#1329=CARTESIAN_POINT('',(-0.0513705079633245,-0.00691055593395045,0.00029076185180691));
#1330=CARTESIAN_POINT('',(-0.0504815108228072,-0.00691055593395045,0.000293016658232128));
#1331=CARTESIAN_POINT('',(-0.0504789661126987,-0.00691055593395045,-0.000710280114637427));
#1332=CARTESIAN_POINT('',(-0.0504774521712418,-0.00691055593395045,-0.00130717819469906));
#1333=CARTESIAN_POINT('',(-0.0504815108228072,-0.00691055593395045,0.000293016658232128));
#1334=CARTESIAN_POINT('',(-0.0504774521712418,-0.00691055593395045,-0.00130717819469906));
#1335=CARTESIAN_POINT('',(-0.0513705079633245,-0.00691055593395045,0.00029076185180691));
#1336=CARTESIAN_POINT('',(-0.0513548725561844,-0.00687042649861782,-0.00587377275434638));
#1337=CARTESIAN_POINT('',(-0.050465875415667,-0.00687042649861782,-0.00587151794792117));
#1338=CARTESIAN_POINT('',(-0.0504633307055585,-0.00687042649861782,-0.00687481472079073));
#1339=CARTESIAN_POINT('',(-0.0504618167641016,-0.00687042649861782,-0.00747171280085236));
#1340=CARTESIAN_POINT('',(-0.050465875415667,-0.00687042649861782,-0.00587151794792117));
#1341=CARTESIAN_POINT('',(-0.0504618167641016,-0.00687042649861782,-0.00747171280085236));
#1342=CARTESIAN_POINT('',(-0.0513548725561844,-0.00687042649861782,-0.00587377275434638));
#1343=CARTESIAN_POINT('',(0.,0.,0.));
#1344=CARTESIAN_POINT('',(-0.0173476336342375,-0.0103513662159742,0.00550895226036065));
#1345=CARTESIAN_POINT('',(-0.0198876254642869,-0.0103513662159742,0.0055025099562886));
#1346=CARTESIAN_POINT('',(-0.0198672883225024,-0.0103513662159742,-0.00251576633142374));
#1347=CARTESIAN_POINT('',(-0.0199079626060714,-0.0103513662159742,0.0135207862440009));
#1348=CARTESIAN_POINT('',(-0.017327296492453,-0.0103513662159742,-0.00250932402735168));
#1349=CARTESIAN_POINT('',(-0.017327296492453,-0.0103513662159742,-0.00250932402735168));
#1350=CARTESIAN_POINT('',(-0.0173476336342375,-0.0103513662159742,0.00550895226036065));
#1351=CARTESIAN_POINT('',(-0.0173679707760219,-0.0103513662159742,0.013527228548073));
#1352=CARTESIAN_POINT('',(-0.0173679707760219,-0.0103513662159742,0.013527228548073));
#1353=CARTESIAN_POINT('',(-0.017327296492453,-0.00400136621597424,-0.00250932402735169));
#1354=CARTESIAN_POINT('',(-0.0198672883225024,-0.00400136621597424,-0.00251576633142374));
#1355=CARTESIAN_POINT('',(-0.0198515412267172,-0.00533400000000127,-0.00872433615277908));
#1356=CARTESIAN_POINT('',(-0.0173115493966676,-0.00533400000000127,-0.00871789384870703));
#1357=CARTESIAN_POINT('',(-0.0173115493966676,-0.00533400000000127,-0.00871789384870703));
#1358=CARTESIAN_POINT('',(-0.017327296492453,-0.00400136621597424,-0.00250932402735169));
#1359=CARTESIAN_POINT('',(-0.0173262653266871,-0.00404450728746683,-0.00291587928945916));
#1360=CARTESIAN_POINT('',(-0.0198662571567366,-0.00404450728746683,-0.00292232159353121));
#1361=CARTESIAN_POINT('',(-0.0198665359393463,0.00189807629085402,-0.00281240664026455));
#1362=CARTESIAN_POINT('',(-0.0173265441092969,0.00189807629085402,-0.0028059643361925));
#1363=CARTESIAN_POINT('',(-0.0173265441092969,0.00189807629085402,-0.0028059643361925));
#1364=CARTESIAN_POINT('',(-0.0173262653266871,-0.00404450728746683,-0.00291587928945916));
#1365=CARTESIAN_POINT('',(-0.0173265392589025,0.0018962125560861,-0.00280787668957835));
#1366=CARTESIAN_POINT('',(-0.019866531088952,0.0018962125560861,-0.00281431899365041));
#1367=CARTESIAN_POINT('',(-0.0198665262385577,0.00189434882131818,-0.00281623134703626));
#1368=CARTESIAN_POINT('',(-0.0173265344085081,0.00189434882131818,-0.00280978904296421));
#1369=CARTESIAN_POINT('',(-0.0173265344085081,0.00189434882131818,-0.00280978904296421));
#1370=CARTESIAN_POINT('',(-0.0173265392589025,0.0018962125560861,-0.00280787668957835));
#1371=CARTESIAN_POINT('',(-0.0173472525922651,0.00189434882131817,0.00535871975255437));
#1372=CARTESIAN_POINT('',(-0.0198872444223145,0.00189434882131817,0.00535227744848232));
#1373=CARTESIAN_POINT('',(-0.0199079626060714,0.00189434882131817,0.0135207862440009));
#1374=CARTESIAN_POINT('',(-0.0173679707760219,0.00189434882131817,0.013527228548073));
#1375=CARTESIAN_POINT('',(-0.0173679707760219,0.00189434882131817,0.013527228548073));
#1376=CARTESIAN_POINT('',(-0.0173472525922651,0.00189434882131817,0.00535871975255437));
#1377=CARTESIAN_POINT('',(-0.0173679707760219,-0.00422850869732803,0.013527228548073));
#1378=CARTESIAN_POINT('',(-0.0199079626060714,-0.00422850869732803,0.0135207862440009));
#1379=CARTESIAN_POINT('',(-0.0173679707760219,-0.00422850869732803,0.013527228548073));
#1380=CARTESIAN_POINT('',(-0.0173395805555903,-0.00422613675172053,0.00233388418814899));
#1381=CARTESIAN_POINT('',(-0.0173344759908695,-0.00690875205646775,0.000321319655070037));
#1382=CARTESIAN_POINT('',(-0.0173304173393041,-0.00690875205646775,-0.00127887519786115));
#1383=CARTESIAN_POINT('',(-0.0173187132155372,-0.00120620216373878,-0.00589343210380487));
#1384=CARTESIAN_POINT('',(-0.0173146545639718,-0.00120620216373878,-0.00749362695673606));
#1385=CARTESIAN_POINT('',(-0.0173187086654413,-0.0068574286623566,-0.00589522605923968));
#1386=CARTESIAN_POINT('',(-0.0173146500138759,-0.0068574286623566,-0.00749542091217087));
#1387=CARTESIAN_POINT('',(-0.0173343486226773,-0.00116607272840614,0.000271102502348419));
#1388=CARTESIAN_POINT('',(-0.0173302899711119,-0.00116607272840614,-0.00132909235058277));
#1389=CARTESIAN_POINT('',(-0.0173265532529477,-0.0040362010493418,-0.00280235929084549));
#1390=CARTESIAN_POINT('',(-0.0173329633454993,-0.0040362010493418,-0.00027506741994623));
#1391=CARTESIAN_POINT('',(-0.0198795723856397,-0.00422613675172053,0.00232744188407693));
#1392=CARTESIAN_POINT('',(-0.0198744678209189,-0.00690875205646775,0.000314877350997986));
#1393=CARTESIAN_POINT('',(-0.0198719231108105,-0.00690875205646775,-0.000688419421871569));
#1394=CARTESIAN_POINT('',(-0.0198587050455866,-0.00120620216373878,-0.00589987440787692));
#1395=CARTESIAN_POINT('',(-0.0198561603354782,-0.00120620216373878,-0.00690317118074648));
#1396=CARTESIAN_POINT('',(-0.0198587004954907,-0.0068574286623566,-0.00590166836331173));
#1397=CARTESIAN_POINT('',(-0.0198561557853823,-0.0068574286623566,-0.00690496513618129));
#1398=CARTESIAN_POINT('',(-0.0198743404527268,-0.00116607272840614,0.000264660198276368));
#1399=CARTESIAN_POINT('',(-0.0198717957426183,-0.00116607272840614,-0.000738636574593188));
#1400=CARTESIAN_POINT('',(-0.0198665450829972,-0.0040362010493418,-0.00280880159491754));
#1401=CARTESIAN_POINT('',(-0.0198614234512599,-0.0040362010493418,-0.0048280950998069));
#1402=CARTESIAN_POINT('',(-0.0173265532529477,-0.0040362010493418,-0.00280235929084549));
#1403=CARTESIAN_POINT('',(-0.0183425499849675,-0.0040362010493418,-0.00280493621247431));
#1404=CARTESIAN_POINT('',(-0.0183476716167047,-0.0040362010493418,-0.000785642707584952));
#1405=CARTESIAN_POINT('',(-0.0183361398924158,-0.0040362010493418,-0.00533222808337357));
#1406=CARTESIAN_POINT('',(-0.0183425499849675,-0.0040362010493418,-0.00280493621247431));
#1407=CARTESIAN_POINT('',(-0.0183489600775191,-0.0040362010493418,-0.00027764434157505));
#1408=CARTESIAN_POINT('',(-0.0173265532529477,-0.0040362010493418,-0.00280235929084549));
#1409=CARTESIAN_POINT('',(-0.0173343486226772,-0.00116607272840614,0.000271102502348419));
#1410=CARTESIAN_POINT('',(-0.0182233457631946,-0.00116607272840614,0.000268847695923207));
#1411=CARTESIAN_POINT('',(-0.0182208010530862,-0.00116607272840614,-0.000734449076946348));
#1412=CARTESIAN_POINT('',(-0.0182192871116292,-0.00116607272840614,-0.00133134715700798));
#1413=CARTESIAN_POINT('',(-0.0182233457631946,-0.00116607272840614,0.000268847695923207));
#1414=CARTESIAN_POINT('',(-0.0182192871116292,-0.00116607272840614,-0.00133134715700798));
#1415=CARTESIAN_POINT('',(-0.0173343486226772,-0.00116607272840614,0.000271102502348419));
#1416=CARTESIAN_POINT('',(-0.0173187086654412,-0.0068574286623566,-0.00589522605923968));
#1417=CARTESIAN_POINT('',(-0.0182077058059586,-0.0068574286623566,-0.00589748086566489));
#1418=CARTESIAN_POINT('',(-0.0182051610958501,-0.0068574286623566,-0.00690077763853445));
#1419=CARTESIAN_POINT('',(-0.0182036471543932,-0.0068574286623566,-0.00749767571859608));
#1420=CARTESIAN_POINT('',(-0.0182077058059586,-0.0068574286623566,-0.00589748086566489));
#1421=CARTESIAN_POINT('',(-0.0182036471543932,-0.0068574286623566,-0.00749767571859608));
#1422=CARTESIAN_POINT('',(-0.0173187086654412,-0.0068574286623566,-0.00589522605923968));
#1423=CARTESIAN_POINT('',(-0.0173187132155371,-0.00120620216373878,-0.00589343210380487));
#1424=CARTESIAN_POINT('',(-0.0182077103560544,-0.00120620216373878,-0.00589568691023009));
#1425=CARTESIAN_POINT('',(-0.018205165645946,-0.00120620216373878,-0.00689898368309965));
#1426=CARTESIAN_POINT('',(-0.0182036517044891,-0.00120620216373878,-0.00749588176316128));
#1427=CARTESIAN_POINT('',(-0.0182077103560544,-0.00120620216373878,-0.00589568691023009));
#1428=CARTESIAN_POINT('',(-0.0182036517044891,-0.00120620216373878,-0.00749588176316128));
#1429=CARTESIAN_POINT('',(-0.0173187132155371,-0.00120620216373878,-0.00589343210380487));
#1430=CARTESIAN_POINT('',(-0.0173344759908695,-0.00690875205646775,0.000321319655070037));
#1431=CARTESIAN_POINT('',(-0.0182234731313868,-0.00690875205646775,0.000319064848644826));
#1432=CARTESIAN_POINT('',(-0.0182209284212783,-0.00690875205646775,-0.00068423192422473));
#1433=CARTESIAN_POINT('',(-0.0182194144798214,-0.00690875205646775,-0.00128113000428636));
#1434=CARTESIAN_POINT('',(-0.0182234731313868,-0.00690875205646775,0.000319064848644826));
#1435=CARTESIAN_POINT('',(-0.0182194144798214,-0.00690875205646775,-0.00128113000428636));
#1436=CARTESIAN_POINT('',(-0.0173344759908695,-0.00690875205646775,0.000321319655070037));
#1437=CARTESIAN_POINT('',(0.,0.,0.));
#1438=CARTESIAN_POINT('',(-0.0346213106210282,-0.00762,0.0091640620411505));
#1439=CARTESIAN_POINT('',(-0.0517170274996646,-0.00375713803805411,0.00912070134795499));
#1440=CARTESIAN_POINT('',(-0.0517170274996646,-0.00751427607610822,0.00912070134795499));
#1441=CARTESIAN_POINT('',(-0.0517170274996646,0.,0.00912070134795499));
#1442=CARTESIAN_POINT('',(-0.0345660116889962,-0.00751427607610822,0.00916420229850518));
#1443=CARTESIAN_POINT('',(-0.0174489279882677,-0.00751427607610822,0.00920761718540452));
#1444=CARTESIAN_POINT('',(-0.0174489279882677,-0.00762,0.00920761718540452));
#1445=CARTESIAN_POINT('',(-0.0174489279882677,-0.00762,0.00920761718540452));
#1446=CARTESIAN_POINT('',(-0.0346213106210282,-0.00762,0.0091640620411505));
#1447=CARTESIAN_POINT('',(-0.0517936932537887,-0.00762,0.00912050689689648));
#1448=CARTESIAN_POINT('',(-0.0517936932537887,-0.00762,0.00912050689689648));
#1449=CARTESIAN_POINT('',(-0.0517936932537887,0.,0.00912050689689648));
#1450=CARTESIAN_POINT('',(-0.0346213106210282,0.,0.0091640620411505));
#1451=CARTESIAN_POINT('',(-0.0346406375332444,-0.00762,0.016784037531299));
#1452=CARTESIAN_POINT('',(-0.0346406375332444,0.,0.016784037531299));
#1453=CARTESIAN_POINT('',(-0.0174489279882677,0.,0.00920761718540452));
#1454=CARTESIAN_POINT('',(-0.0346406375332444,-0.00762,0.016784037531299));
#1455=CARTESIAN_POINT('',(-0.0174489279882677,-0.00762,0.00920761718540452));
#1456=CARTESIAN_POINT('',(-0.0346406375332444,-0.00762,0.0223458474431643));
#1457=CARTESIAN_POINT('',(-0.0346406375332444,0.,0.0223458474431643));
#1458=CARTESIAN_POINT('',(-0.0345660116889962,0.,0.00916420229850518));
#1459=CARTESIAN_POINT('',(-0.0174149958783277,0.,0.00920770324905537));
#1460=CARTESIAN_POINT('',(-0.0174079093438484,0.,0.00641371223600092));
#1461=CARTESIAN_POINT('',(-0.0174079093438484,0.,0.00641371223600092));
#1462=CARTESIAN_POINT('',(-0.0345589251545169,0.,0.00637021128545073));
#1463=CARTESIAN_POINT('',(-0.0517099409651854,0.,0.00632671033490054));
#1464=CARTESIAN_POINT('',(-0.0517099409651854,0.,0.00632671033490054));
#1465=CARTESIAN_POINT('',(-0.0346043445660582,-0.00381,0.00916410507297592));
#1466=CARTESIAN_POINT('',(-0.0345660116889962,-0.00751427607610822,0.00916420229850518));
#1467=CARTESIAN_POINT('',(-0.0174149958783277,-0.00751427607610822,0.00920770324905537));
#1468=CARTESIAN_POINT('',(-0.0174149958783277,-0.00375713803805411,0.00920770324905537));
#1469=CARTESIAN_POINT('',(-0.0345589251545169,-0.00751427607610822,0.00637021128545073));
#1470=CARTESIAN_POINT('',(-0.0517099409651854,-0.00751427607610822,0.00632671033490054));
#1471=CARTESIAN_POINT('',(-0.0517099409651854,-0.00751427607610822,0.00632671033490054));
#1472=CARTESIAN_POINT('',(-0.0345589251545169,-0.00751427607610822,0.00637021128545073));
#1473=CARTESIAN_POINT('',(-0.0174079093438484,-0.00751427607610822,0.00641371223600092));
#1474=CARTESIAN_POINT('',(-0.0174079093438484,-0.00751427607610822,0.00641371223600092));
#1475=CARTESIAN_POINT('',(-0.0517099409651854,-0.00375713803805411,0.00632671033490054));
#1476=CARTESIAN_POINT('',(-0.0517099409651854,-0.00375713803805411,0.00632671033490054));
#1477=CARTESIAN_POINT('',(-0.0174079093438484,-0.00375713803805411,0.00641371223600092));
#1478=CARTESIAN_POINT('',(-0.0174079093438484,-0.00375713803805411,0.00641371223600092));
#1479=CARTESIAN_POINT('',(-0.0345972580315789,-0.00381,0.00637011405992147));
#1480=MECHANICAL_DESIGN_GEOMETRIC_PRESENTATION_REPRESENTATION('',(#846),
#1483);
#1481=MECHANICAL_DESIGN_GEOMETRIC_PRESENTATION_REPRESENTATION('',(#847),
#1484);
#1482=MECHANICAL_DESIGN_GEOMETRIC_PRESENTATION_REPRESENTATION('',(#848),
#1485);
#1483=(
GEOMETRIC_REPRESENTATION_CONTEXT(3)
GLOBAL_UNCERTAINTY_ASSIGNED_CONTEXT((#1486))
GLOBAL_UNIT_ASSIGNED_CONTEXT((#1495,#1492,#1489))
REPRESENTATION_CONTEXT('Part 2','TOP_LEVEL_ASSEMBLY_PART')
);
#1484=(
GEOMETRIC_REPRESENTATION_CONTEXT(3)
GLOBAL_UNCERTAINTY_ASSIGNED_CONTEXT((#1487))
GLOBAL_UNIT_ASSIGNED_CONTEXT((#1496,#1493,#1490))
REPRESENTATION_CONTEXT('Part 3','TOP_LEVEL_ASSEMBLY_PART')
);
#1485=(
GEOMETRIC_REPRESENTATION_CONTEXT(3)
GLOBAL_UNCERTAINTY_ASSIGNED_CONTEXT((#1488))
GLOBAL_UNIT_ASSIGNED_CONTEXT((#1497,#1494,#1491))
REPRESENTATION_CONTEXT('Part 1','TOP_LEVEL_ASSEMBLY_PART')
);
#1486=UNCERTAINTY_MEASURE_WITH_UNIT(LENGTH_MEASURE(1.E-8),#1495,
'DISTANCE_ACCURACY_VALUE','Maximum Tolerance applied to model');
#1487=UNCERTAINTY_MEASURE_WITH_UNIT(LENGTH_MEASURE(1.E-8),#1496,
'DISTANCE_ACCURACY_VALUE','Maximum Tolerance applied to model');
#1488=UNCERTAINTY_MEASURE_WITH_UNIT(LENGTH_MEASURE(1.E-8),#1497,
'DISTANCE_ACCURACY_VALUE','Maximum Tolerance applied to model');
#1489=(
NAMED_UNIT(*)
SI_UNIT($,.STERADIAN.)
SOLID_ANGLE_UNIT()
);
#1490=(
NAMED_UNIT(*)
SI_UNIT($,.STERADIAN.)
SOLID_ANGLE_UNIT()
);
#1491=(
NAMED_UNIT(*)
SI_UNIT($,.STERADIAN.)
SOLID_ANGLE_UNIT()
);
#1492=(
NAMED_UNIT(*)
PLANE_ANGLE_UNIT()
SI_UNIT($,.RADIAN.)
);
#1493=(
NAMED_UNIT(*)
PLANE_ANGLE_UNIT()
SI_UNIT($,.RADIAN.)
);
#1494=(
NAMED_UNIT(*)
PLANE_ANGLE_UNIT()
SI_UNIT($,.RADIAN.)
);
#1495=(
LENGTH_UNIT()
NAMED_UNIT(*)
SI_UNIT($,.METRE.)
);
#1496=(
LENGTH_UNIT()
NAMED_UNIT(*)
SI_UNIT($,.METRE.)
);
#1497=(
LENGTH_UNIT()
NAMED_UNIT(*)
SI_UNIT($,.METRE.)
);
#1498=PRODUCT_DEFINITION_SHAPE('','',#1501);
#1499=PRODUCT_DEFINITION_SHAPE('','',#1502);
#1500=PRODUCT_DEFINITION_SHAPE('','',#1503);
#1501=PRODUCT_DEFINITION('','',#1507,#1504);
#1502=PRODUCT_DEFINITION('','',#1508,#1505);
#1503=PRODUCT_DEFINITION('','',#1509,#1506);
#1504=PRODUCT_DEFINITION_CONTEXT('',#1525,'design');
#1505=PRODUCT_DEFINITION_CONTEXT('',#1526,'design');
#1506=PRODUCT_DEFINITION_CONTEXT('',#1527,'design');
#1507=PRODUCT_DEFINITION_FORMATION_WITH_SPECIFIED_SOURCE('','',#1513,
 .NOT_KNOWN.);
#1508=PRODUCT_DEFINITION_FORMATION_WITH_SPECIFIED_SOURCE('','',#1514,
 .NOT_KNOWN.);
#1509=PRODUCT_DEFINITION_FORMATION_WITH_SPECIFIED_SOURCE('','',#1515,
 .NOT_KNOWN.);
#1510=PRODUCT_RELATED_PRODUCT_CATEGORY('','',(#1513));
#1511=PRODUCT_RELATED_PRODUCT_CATEGORY('','',(#1514));
#1512=PRODUCT_RELATED_PRODUCT_CATEGORY('','',(#1515));
#1513=PRODUCT('Part 2','Part 2','Part 2',(#1519));
#1514=PRODUCT('Part 3','Part 3','Part 3',(#1520));
#1515=PRODUCT('Part 1','Part 1','Part 1',(#1521));
#1516=PRODUCT_CATEGORY('','');
#1517=PRODUCT_CATEGORY('','');
#1518=PRODUCT_CATEGORY('','');
#1519=PRODUCT_CONTEXT('',#1525,'mechanical');
#1520=PRODUCT_CONTEXT('',#1526,'mechanical');
#1521=PRODUCT_CONTEXT('',#1527,'mechanical');
#1522=APPLICATION_PROTOCOL_DEFINITION('international standard',
'ap242_managed_model_based_3d_engineering',2020,#1525);
#1523=APPLICATION_PROTOCOL_DEFINITION('international standard',
'ap242_managed_model_based_3d_engineering',2020,#1526);
#1524=APPLICATION_PROTOCOL_DEFINITION('international standard',
'ap242_managed_model_based_3d_engineering',2020,#1527);
#1525=APPLICATION_CONTEXT('managed model based 3d engineering');
#1526=APPLICATION_CONTEXT('managed model based 3d engineering');
#1527=APPLICATION_CONTEXT('managed model based 3d engineering');
ENDSEC;
END-ISO-10303-21;
